<?xml version="1.0" encoding="UTF-8"?>
<svg version="1.1" viewBox="0 0 1024 1024" width="1024" height="1024" xmlns="http://www.w3.org/2000/svg">
<path transform="translate(0)" d="m0 0h1024v1024h-1024z" fill="#FBFBFB"/>
<path transform="translate(344,70)" d="m0 0 10 3 15 9 13 8 11 6 17 9 13 8 18 10 16 10 14 7 15 9 17 9 4 5v99l7-3 12-7 14-7 7-5 11-6 5-2 16 8 24 14 14 8 41 23 15 9 17 10 11 6 20 11 3 5v185l-9 7-22 12-15 9-17 10-14 7-11 7-11 6-10 6v2l10 6 11 6 26 15 24 14 24 13 11 7 3 4v187l-11 7-10 6-11 6-16 9-21 12-24 14-11 6-23 13-11 6-19 11-6 1-17-9-11-7-11-6-24-14-11-6-19-11-28-16-13-8-14-7-10-7-1-2v-96l-4 1-11 6-13 7-24 14-6 1-16-8-14-9-14-7-15-9-17-10-11-6-28-16-25-14-12-7-5-3-3-4v-185l5-5 11-6 24-14 18-10 19-11 16-9 14-8 3-2h3v-4l-6-2-24-14-10-6-11-6-17-9-16-10-24-13-5-6v-184l1-3 24-14 39-22 17-10 14-8 23-13 27-15 12-7z" fill="#666667"/>
<path transform="translate(709,654)" d="m0 0 3 1v166l-8 6-25 14-17 10-27 15-14 8-11 7-14 7-13 8-11 6h-3v-167l11-7 13-8 11-6 27-15 19-11 25-14 24-14z" fill="#FBFBFB"/>
<path transform="translate(415,654)" d="m0 0 5 2 10 6 9 5 15 9 14 7 13 8 19 11 18 10 11 7 14 7 14 9v167l-5-1-25-14-24-14-77-44-10-6-2-2v-166z" fill="#FBFBFB"/>
<path transform="translate(415,337)" d="m0 0 15 8 24 14 23 13 14 8 16 9 14 8 16 9 19 11 1 2v166l-6-1-16-10-27-15-25-14-14-8-10-6-21-12-22-12-2-2v-167z" fill="#FBFBFB"/>
<path transform="translate(709,338)" d="m0 0 3 1v165l-4 4-26 14-13 8-12 7-11 6-24 13-28 16-20 12-5 1v-167l13-8 23-13 12-7 11-6 17-9 18-11 21-12 22-12z" fill="#FBFBFB"/>
<path transform="translate(197,495)" d="m0 0 8 3 14 9 27 15 23 13 14 8 19 11 11 6 20 12 6 3v167l-5-1-23-13-25-14-13-8-18-10-15-9-11-6-29-16-3-3-1-165z" fill="#FBFBFB"/>
<path transform="translate(197,176)" d="m0 0 4 1 11 6 26 15 13 7 15 9 16 9 21 12 23 13 12 7 1 1v167l-4-1-10-6-11-6-25-14-15-9-27-15-24-14-16-9-9-5-1-1z" fill="#FBFBFB"/>
<path transform="translate(344,84)" d="m0 0 6 1 10 6 25 14 15 9 11 6 14 8 25 14 13 8 15 8 8 5v3l-35 20-12 7-14 7-15 9-28 16-25 14-12 7-14-8-24-14-39-22-10-6-11-6-23-13-19-11v-4l10-6 14-7 35-20 27-15 13-8 12-7 11-6z" fill="#FBFBFB"/>
<path transform="translate(561,247)" d="m0 0 7 1 29 17 10 5 13 8 25 14 23 13 24 14 11 6-1 4-11 6-17 10-12 7-11 6-13 7-14 8-24 14-22 12-13 8-5-1-20-11-17-10-20-11-15-9-11-6-18-10-19-11-16-9-2-3 7-5 31-17 24-14 10-6 16-8 13-8 11-6z" fill="#FBFBFB"/>
<path transform="translate(525,583)" d="m0 0 4 1 22 12 8 5 6 1 32-18 4-1 17 10 14 8 11 6 16 9 43 25 2 3-32 18-24 14-27 15-25 15-31 17-6-1-25-14-35-20-27-15-15-9-14-8-16-9-5-3 1-3 22-12 11-7 11-6 27-15 13-8z" fill="#FBFBFB"/>
<path transform="translate(379,422)" d="m0 0 8 3 10 7 5 3 1 75 4 4 11 7-1 3-28 16-11 7-11 6-18 10-5 2-21-12-43-25-35-19-20-12-13-7-7-4v-4l25-14 24-14 22-12 21-12 11-7h6l26 14 4 2 7-1 13-8z" fill="#FBFBFB"/>
<path transform="translate(490,176)" d="m0 0h4v95l-8 5-16 9-19 11-15 9-14 7-14 8-5 5-1 69-5 4-17 10-16 9-9 5-4-1v-164l9-7 26-14 15-9 11-6 14-8 17-10 11-6 25-14z" fill="#FBFBFB"/>
<path transform="translate(431,529)" d="m0 0 6 2 25 15 9 5 12 7 11 6 1 2v20l-4 4-11 6-10 6-11 6-23 13-27 15-4 3h-2l-1 75-10 7-28 16-12 6-1-1v-166l9-6 28-16 19-11 11-6z" fill="#FBFBFB"/>
<path transform="translate(415,654)" d="m0 0 5 2 10 6 9 5 15 9 14 7 13 8 19 11 18 10 11 7 14 7 14 9v167l-5-1-25-14-24-14-77-44-10-6-2-2v-166zm0 2v74l1 77 3-1 1-8-1-2h2v-2h5l-1 7h-3l-4 8-2 1v11l26 15 12 7h5l-2-5-4-1 3-3 3 1 1-2 4 1 5-1-1 3h-6l-1 2 4 1-2 4-3 2 2 3 11 6h3v2l10 5 11 7 11 6 14 8 7 3 3-6 2-1-1-8 2-2h8l1-4 1-5 3 5v11l-2 4-1 7-1 4-3 1v2l12 7h3l-1-165h-3v-2l-7-4h-3v-2l-12-6h-3v-2l-20-11-7-4-2 1 3 1v2l-4 1h-6l-1-6 4-2-4-1v-2l-10-6h-3v-2l-7-4h-3v-2h-4v-2h-4v-2l-11-6h-3v-2h-4v-2l-3-2h-3l-1 4h3l-1 4-5 1-1 2 2 5-5 2-1-4-1 4v2l-4-1 2-9-3-4 1-7 1-3 8 1-2-1v-2l-4-2h-3v-2z" fill="#E4E4E4"/>
<path transform="translate(197,176)" d="m0 0 4 1 11 6 26 15 13 7 15 9 16 9 21 12 23 13 12 7 1 1v167l-4-1-10-6-11-6-9-5 3-1 5 3 4 2 4 1v2l5 2 8 4v2h3v-164l-6-2-11-6v-2l-4-1-10-6-18-9v-2l-4 1v-3l-6-2-4-2v-2l-4-1-16-9-11-6-2-1v-2h-2l1 5-4 5-3 3 5 1 2 6-3 1-2 3v-3l-9 4-5-1v-5l4-1 1-3-5-2v-5h9l-2 1h3l2-6 3-3-1-2-6 6v3h-6l-5-4v-2h2l-1-2h-6v-3l5-4 7 1-12-8-14-7v164l4 1 11 6 10 6 7 3v2h3v2l8 2v2l4 1 3 1v2h3v2l5 2 13 7 7 3v2l5 2 10 6 3 1v2l-6-2-15-9-27-15-24-14-16-9-9-5-1-1z" fill="#E3E3E3"/>
<path transform="translate(197,495)" d="m0 0 8 3 14 9 27 15 23 13 14 8 19 11 11 6 20 12 6 3v167l-5-1-23-13-25-14-13-8-18-10-15-9-11-6-29-16-3-3-1-165zm2 4-1 5v156l3 3 6 4h3v2l7 3 5 1v-7h4v-2l2-1v3l1 1-4 1 7 1 2 5 1 3-6-2-4 1 5 3h2v2l3 2h3v2h4v2h4v2l13 7 7 5 4 2h4v2l4 2h3v2l7 3 1 2 6-2 1-2-1-4-5-1-2-4 1-5 1-6h7l-1 4-5 7v2l6-1 3-3-1 4 3 1v2l4-1 1-3 4 6-10 1-3 6-2 2 11 7 7 4h3v2h4v2l4 2h3v2l4 2h3v2h2v-164l-2-2h-4v-2l-11-6-10-6h-3v-2l-8-4h-3v-2l-17-9-9-5-5-3h-2l-1-2-10-6-11-6-3-2h-3v-2h-4v-2l-4-2h-6l-1-4-4-2h-3v-2l-11-6z" fill="#E3E3E3"/>
<path transform="translate(345,68)" d="m0 0 6 2 5 2v2l4 1 9 5 11 7 33 18 11 7 14 7 10 7 7 3v2h3v2l4 1 18 9v2l4 1 22 12 3 5 1 96 15-8h3v-2l14-7 4-3h3v-2l10-5 1-1h6l8 4v2l4 1 10 5v2l4 1 13 7 8 5 3 1v2l6 2 16 9 28 16 11 7 7 3v2l4 1 3 1v2l4 1 7 3v2l4 1 14 7v2l4 2 1 1 1 41v98l-1 51h-2v2l-10 6h-3v2l-4-1 15-9 2-2v-185l-2-4-14-8-11-6-27-15-13-8-27-15-14-8-24-14-25-14-4-1-12 7-9 5-8 5-14 7-8 5h-4l-1-51v-48l-5-5-22-12-11-7-14-7-20-12-39-22-10-6-11-6-20-12-10-3-5 1v-2z" fill="#E3E3E3"/>
<path transform="translate(415,654)" d="m0 0 5 2 8 5-3 1-4-2v-2l-5-1v150l2-1 1-8v-2h2v-2h5l-1 7h-3l-2 6-2 3h-2v11l5 2 23 13 11 6 3-1-1-2-3-1-2 2-1-3 5-4h3l2-1v2l8-1-1 4h-6l3 2-1 4-2 4 14 7v2l4 1 9 5 14 8 2 3-6-2-15-9-18-10-26-15-14-8-10-6-2-2v-166z" fill="#E3E3E3"/>
<path transform="translate(415,337)" d="m0 0 15 8 24 14 7 4-3 1-4-2-3 4-3 1-3-2v-3l-2-1h3v-5l-5-2-11-6-8-4v-2h-4v-2l-2 1v163l12 7 7 4 4 1v2l4 1 10 6 3 1v2l4 1 8 4 17 10 18 10 4 2v2l4 1h3l2-1 2 5 6 3 5 2v2l6 2v2l-5-2-26-14-22-13-11-6-14-8-19-11-22-12-2-2v-167z" fill="#E3E3E3"/>
<path transform="translate(360,570)" d="m0 0h2v2l-7 4h-2v164l14-7 4-3h3v-2l11-6 14-8 1-73 2-3h2v-2l11-6 3-2h3v-2l4 1-19 11-3 1-1 75-10 7-28 16-12 6-1-1v-166z" fill="#E3E3E3"/>
<path transform="translate(185,158)" d="m0 0 3 1-3 1v187l4 5 26 14 16 10 19 10 10 6 14 8-3 1-14-8-8-4-10-6-11-6-13-8-18-10-3-1v-2l-4-1-6-4-2-4v-184z" fill="#E3E3E3"/>
<path transform="translate(242,445)" d="m0 0 3 1-24 14-23 13-10 6-3 1v187l4 5 14 7 3 3-4-1-14-7-4-4-2-3v-185l2-3h2v-2l10-6 11-6 10-6 11-6 10-6z" fill="#E3E3E3"/>
<path transform="translate(709,654)" d="m0 0 3 1v166l-8 6-23 13-2-1 13-8 14-8 3-2v-159l-1-4-13 7-14 8-4 1v2l-4 2h-3v2l-4-1 28-16z" fill="#E3E3E3"/>
<path transform="translate(676,612)" d="m0 0 6 2 12 6v2l4 1 7 3v2l4 1 11 6 2 1v2l3 1 1 29v158l-2 5-9 6-22 12-3-1 10-6 11-6 12-7v-187l-5-5-10-6-26-14-6-4z" fill="#E3E3E3"/>
<path transform="translate(545,858)" d="m0 0 3 3 1 9-1 8-1 1-1 7-2 4-3 3 6 2 5 5-6-2-41-24v-2l5 2 12 7 6 3 4-6h2l-2-8 3-3h8v-6z" fill="#E3E3E3"/>
<path transform="translate(525,583)" d="m0 0 4 1 22 12 8 5 6 1 32-18 4-1 17 10 14 8 11 6 16 9 24 14-3 1-12-7-3-1v-2l-4-1-3-1v-2l-4-1-3-1v-2l-4-1-3-1v-2l-4-1-14-8-22-12-3-2-4 1-8 4-14 8h-2v2l-8 4-6-1-24-14-7-4-5 1-16 9-14 8-5 3h-2v2h-4v2l-10 5-5 3h-3v2l-8 4h-2v2l-7 3-8 5-3-1 20-12 11-6 27-15 13-8z" fill="#E3E3E3"/>
<path transform="translate(379,422)" d="m0 0 8 3 10 7 5 3 1 75 1 3-4-2-1-75-7-5-3-1v-2l-6-2-5-1-14 8-11 6-4 3-7-1-14-7-13-8-5-1-14 8-14 9h-3v2l-12 5-11 7-11 6-3-1 28-16 17-9 15-9 6-4h6l26 14 4 2 7-1 13-8z" fill="#E3E3E3"/>
<path transform="translate(375,242)" d="m0 0 2 1-11 7-9 5-3 2-1 162 4-1 13-7 5-3h3v-2l7-4h3v-2l4 1-20 12-11 6-6 3-4-1v-164l9-7z" fill="#E3E3E3"/>
<path transform="translate(506,706)" d="m0 0 12 6 11 7 14 7 14 9v167l-5-1 1-2h2v-164h-3v-2l-4-1-6-3v-2l-4-1-11-5v-2l-6-2-15-9z" fill="#E3E3E3"/>
<path transform="translate(709,338)" d="m0 0 3 1v165l-4 4-6 2 4-4 3-1v-164l-12 7-14 7-8 5-3-1 19-11 15-8z" fill="#E3E3E3"/>
<path transform="translate(615,708)" d="m0 0 2 1-5 2v2l-10 5-11 6-14 9h-3v2h-3v165l11-6 11-7 22-12 11-7 14-7 4-1-5 4-18 10-11 7-14 7-13 8-11 6h-3v-167l11-7 13-8 11-6z" fill="#E3E3E3"/>
<path transform="translate(550,415)" d="m0 0 6 2 1 2v166l-6-1-16-10 4-1v2l4 1 3 1v2l6 2 3 2-1-164-4-2z" fill="#E3E3E3"/>
<path transform="translate(431,529)" d="m0 0 6 2 25 15 9 5 12 7 11 6 1 2v20l-4 4-11 6-10 6-11 6-14 8-2-1 9-6 14-8h3v-2l22-12h2l-1-23h-4v-2l-4-1-3-1v-2l-4-1-18-10-17-10-8-5-5 1-8 5-17 10-11 6-7 4h-3v2l-4 2h-3v2l-7 4h-3v2l-4-1 20-12 11-6 14-8 11-6z" fill="#E3E3E3"/>
<path transform="translate(242,506)" d="m0 0h4v2l4 1 13 7 12 7 10 5 8 5 9 5 21 12 17 10 4 2 4-1 7-4h2v-2l14-7 22-13 12-7 9-5v-2l-10-6 1-2 12 7 1 2-3 3-13 8-11 6-13 8-11 6-18 10-5 2-21-12-43-25-35-19z" fill="#E3E3E3"/>
<path transform="translate(458,305)" d="m0 0h2v2l-15 8-8 5h-3v2l-7 2v2h-2v2l4 1 11 6 11 7 7 3v2l4 1 11 6 16 9 35 20 11 6 9 6 4 1v2l4 1 6 3v2l-5-2-13-7-17-10-20-11-15-9-11-6-18-10-19-11-16-9-2-3 7-5 11-6z" fill="#E3E3E3"/>
<path transform="translate(399,730)" d="m0 0 3 1 1 96 4 4 13 8 10 5 10 6-4 1v-2l-4-1-3-1v-2l-4-1-17-9-6-5-2-3-1-94-11 6-3-1 10-6z" fill="#E3E3E3"/>
<path transform="translate(460,288)" d="m0 0 3 1-24 14-14 8-14 7-7 5-1 2-1 69-5 4-2-1 3-1v-2h2v-69l2-4 17-10 5-3h3v-2l5-2h3v-2l11-6h3v-2z" fill="#E3E3E3"/>
<path transform="translate(453,182)" d="m0 0 3 1-28 16-11 6-28 16-25 14-19 11-14-8-3-3 4 1 9 5 7 2v-2l10-5 4-1v-2l10-5 16-9 19-11 13-8 14-7 8-5h3v-2h4v-2z" fill="#E3E3E3"/>
<path transform="translate(344,84)" d="m0 0 6 1 10 6 25 14 15 9 11 6 5 4-4-1-10-5v-2l-4-1-11-6-10-6-7-3v-2l-4-1-11-6-6-3v-2l-6 1-8 5-11 6-17 9-11 7-4 2-3-1 17-10 10-6 11-6z" fill="#E3E3E3"/>
<path transform="translate(503,689)" d="m0 0 4 1 14 7v2l4 1 10 6 10 5 17 10 16-8 16-9 5-3h3v-2l11-6 3 1-16 10-10 5-16 9-9 5-6-1-25-14-14-8-17-10z" fill="#E3E3E3"/>
<path transform="translate(457,861)" d="m0 0 6 2 14 8 15 9 20 11 13 8 11 6 21 12 8 3-2 2-6-2-14-8-11-7-14-7v-2l-4-1-27-15-16-10-14-7z" fill="#E3E3E3"/>
<path transform="translate(225,663)" d="m0 0h3v3l4 2h-5l5 1 3 4v4h-5-2l4 2v2l6 2v2h4l1 3-6-2-13-8-13-7v-2l4 1 7 3-1-5 1-2h4z" fill="#E5E5E5"/>
<path transform="translate(648,295)" d="m0 0 6 2 14 8 24 14 11 6-1 4-11 6-17 10-7 4h-2v-2l7-4h3v-2l7-4h3v-2l11-6 3-3-16-9-13-8-14-8-8-5z" fill="#E3E3E3"/>
<path transform="translate(670,360)" d="m0 0 2 1-13 8-9 6-11 6-7 4h-3v2l-4 2h-3v2l-8 4h-3v2l-10 5-14 8-5 3-3-1 24-14 14-8 11-6 17-9 18-11z" fill="#E3E3E3"/>
<path transform="translate(662,349)" d="m0 0 3 1-21 12-11 6-16 9-21 12-16 9-2-1 13-8 22-12 6-4 11-6h2v-2l6-3 16-9z" fill="#E3E3E3"/>
<path transform="translate(242,186)" d="m0 0 4 1 13 7 12 7 11 6 23 13 13 8 10 5v2l-5-2-18-10-21-12-16-9-10-6-11-6z" fill="#E3E3E3"/>
<path transform="translate(425,732)" d="m0 0 4 5 2 2 5-1 10-4h2l1 2 3 1v2l-7 1h-3l-3-1-1 7-4-1v-2l-3 2h-5l-3-4 1-6z" fill="#E3E3E3"/>
<path transform="translate(247,357)" d="m0 0 4 2 3 2h3l7 3 1 5-7-1-1-3-4 2-5 1-1-2-6-2-2-2 2-3h5z" fill="#E3E3E3"/>
<path transform="translate(227,694)" d="m0 0 6 2 24 14 16 9 19 11 10 6-3 1-11-7-14-7v-2l-5-1-22-13-16-9-4-2z" fill="#E3E3E3"/>
<path transform="translate(693,637)" d="m0 0 6 2 5 5-32 18-24 14-9 5-2-1 13-8 16-9 5-3h2v-2l14-7 13-8-7-4z" fill="#E3E3E3"/>
<path transform="translate(419,126)" d="m0 0 6 2 25 14 13 8 15 8 8 5v3l-7 4h-2v-2l5-3 1-2-5-2-16-9-14-8-16-9-10-6-3-1z" fill="#E3E3E3"/>
<path transform="translate(528,544)" d="m0 0 4 1 1 6-6-1 4 4 3 1v4h-4l-1 4-2-3v-2l-4 1-3-2h-4l1-3h7l-1-4-1-2h4z" fill="#E3E3E3"/>
<path transform="translate(461,364)" d="m0 0 6 2 15 9 16 9 28 16-4 1v-2l-4-1-3-1v-2h-4v-2h-3v-2l-4-1-17-9-8-4v-2l-4-1-14-8z" fill="#E3E3E3"/>
<path transform="translate(688,516)" d="m0 0 3 1-24 14-10 6-33 18-2-1 10-6 11-6h2v-2l6-3 5-3h3v-2l14-7 4-1v-2z" fill="#E3E3E3"/>
<path transform="translate(434,635)" d="m0 0h2v2l-10 5-1 2 6 2 10 6 23 13 14 9-2 1-14-8-11-7-14-7-11-7-4-2 1-3z" fill="#E3E3E3"/>
<path transform="translate(552,252)" d="m0 0 2 1-7 5-11 6-6 3h-2v2l-7 2v2l-10 5-8 5h-4v2l-8 4-3-1 10-6 14-7 11-7 11-6z" fill="#E3E3E3"/>
<path transform="translate(442,471)" d="m0 0h3l4 9-4 2-1 2-4-1h-5v-4l3-6z" fill="#E3E3E3"/>
<path transform="translate(650,871)" d="m0 0 2 1-5 4-6 3-13 7-15 9-11 6-13 7-3-1 24-13 11-7 11-6z" fill="#E3E3E3"/>
<path transform="translate(484,693)" d="m0 0 14 8 8 5-4 1v-2h-3l3 3-4 2h-8l-1-8 3-1-2-1v-2l-4-1z" fill="#E5E5E5"/>
<path transform="translate(690,531)" d="m0 0 2 1-10 7-22 12-5 3h-3v2l-14 7-8 5-3-1 17-10 14-8 11-6 16-9z" fill="#E3E3E3"/>
<path transform="translate(336,72)" d="m0 0 3 1-28 16-27 15-4 1v-2l15-8 11-6 23-13h2v-2z" fill="#E3E3E3"/>
<path transform="translate(615,577)" d="m0 0h4v2l4 1 10 5v2l4 1 16 9 14 8 9 6-2 1-14-8-24-14-16-9z" fill="#E3E3E3"/>
<path transform="translate(243,687)" d="m0 0h3v2l6 2 14 9 8 3v2l4 1 3 1v2l4 1 4 2 1 3-5-2-18-10-24-14z" fill="#E3E3E3"/>
<path transform="translate(461,460)" d="m0 0h5l2 7-8 3-6-2 1-5 2-2z" fill="#E3E3E3"/>
<path transform="translate(458,195)" d="m0 0 2 1-10 6h-2v2l-14 7-14 8-4 1v2l-8 4-3-1 13-8 11-6 14-8 11-6z" fill="#E3E3E3"/>
<path transform="translate(438,746)" d="m0 0 3 3v-2l4 2 1 1v6l-7 1-2-2h-6l1-3 5-5z" fill="#E3E3E3"/>
<path transform="translate(569,250)" d="m0 0 6 2 11 7 14 7 15 9 5 4-4-1-10-5v-2l-4-1-11-5v-2l-7-2v-2l-5-2-10-6z" fill="#E3E3E3"/>
<path transform="translate(236,129)" d="m0 0 3 1-10 6-11 6-25 14-5 2 4-4 22-13 14-7z" fill="#E3E3E3"/>
<path transform="translate(443,353)" d="m0 0 11 6 7 4-3 1-4-2-3 4-3 1-3-2v-3l-2-1h3v-5l-3-1z" fill="#E4E4E4"/>
<path transform="translate(441,669)" d="m0 0 12 6 12 7 11 6 8 5-3 1-4-2v-2l-4-1-6-3v-2h-4v-2h-4v-2l-4-1-10-5v-2h-4z" fill="#E3E3E3"/>
<path transform="translate(419,378)" d="m0 0 5 1-1 7-1 3 2 4-1 2h-2l-1 2v-3h-2v-12z" fill="#E3E3E3"/>
<path transform="translate(237,144)" d="m0 0 3 1-16 10-9 4-7 4v2l6 4-2 1-7-4v-4l10-6 14-7z" fill="#E3E3E3"/>
<path transform="translate(433,450)" d="m0 0 4 1 1 1v7l-2 4-5-3-1-4z" fill="#E3E3E3"/>
<path transform="translate(235,227)" d="m0 0h1l-1 9-4 2v2l-4 1v-5-3l5-3h2z" fill="#E3E3E3"/>
<path transform="translate(205,199)" d="m0 0h1l1 6 1-6h1l1 12-1 4-2 4-2-6-2-4v-5z" fill="#E3E3E3"/>
<path transform="translate(541,802)" d="m0 0h2l-1 5h2l-1 7-4-1-3-2 1-5z" fill="#E3E3E3"/>
<path transform="translate(319,397)" d="m0 0 4 1-2 1 1 3 4 3v5l-2-1-2-3-5 2-1-8h2z" fill="#E7E7E7"/>
<path transform="translate(532,881)" d="m0 0 7 2 1 5-4 2-4-3-3-2z" fill="#FCFCFC"/>
<path transform="translate(399,410)" d="m0 0 3 1v8l-6-1-3-3 4-4z" fill="#EAEAEA"/>
<path transform="translate(362,751)" d="m0 0h2v2l-8 4h-2v2l-5 2h-7l-8-4-1-2 9 3 5 1 11-6z" fill="#E3E3E3"/>
<path transform="translate(279,228)" d="m0 0 3 1v4l6 1 3-2-2 4-5 1-6-2-2-2 1-4z" fill="#E3E3E3"/>
<path transform="translate(322,376)" d="m0 0h5l1 1v7l-5-1-3-3v-3z" fill="#E3E3E3"/>
<path transform="translate(283,226)" d="m0 0 2 2h3v2l2 1-2 4-7-2 1-5z" fill="#FCFCFC"/>
<path transform="translate(534,469)" d="m0 0 3 1 2 7-6 2-1-2v-6z" fill="#E3E3E3"/>
<path transform="translate(420,757)" d="m0 0 2 4 6 2v6l-4-1-3-1z" fill="#E8E8E8"/>
<path transform="translate(420,460)" d="m0 0 6 5-2 3v4h-2l-1 5h-1z" fill="#E4E4E4"/>
<path transform="translate(472,834)" d="m0 0 2 1v2l3 1-2 4-3 1-3-2v-4z" fill="#E3E3E3"/>
<path transform="translate(529,408)" d="m0 0 3 2-1 3 3 3-9-1-1-3 3-1v-2z" fill="#E3E3E3"/>
<path transform="translate(422,707)" d="m0 0 3 1 1 7-4 5-1-5 1-4z" fill="#E3E3E3"/>
<path transform="translate(220,508)" d="m0 0 12 6 3 3h-4v-2l-10-1-2-2z" fill="#E4E4E4"/>
<path transform="translate(332,272)" d="m0 0h2l1 5-2 3-4-1-2-5 4-1z" fill="#E4E4E4"/>
<path transform="translate(429,702)" d="m0 0 6 1 1 4-2 3-6 1 1-3 2-1v-3z" fill="#E3E3E3"/>
<path transform="translate(508,395)" d="m0 0h3l4 5-1 1h-5l-2 1-3-5z" fill="#E4E4E4"/>
<path transform="translate(325,665)" d="m0 0h3l2 3-1 5h-4z" fill="#E3E3E3"/>
<path transform="translate(427,723)" d="m0 0 1 3-2 5h-5l1-4z" fill="#E3E3E3"/>
<path transform="translate(475,710)" d="m0 0 6 5-1 3-3-3v4l-3-1-1-5 2-1z" fill="#E3E3E3"/>
<path transform="translate(467,688)" d="m0 0 3 3-3 3-5-1v-4z" fill="#E3E3E3"/>
<path transform="translate(444,685)" d="m0 0 1 3 4 1-1 3-4-1-4-2z" fill="#E3E3E3"/>
<path transform="translate(518,860)" d="m0 0 4 1 1 3-9 1z" fill="#E3E3E3"/>
<path transform="translate(484,717)" d="m0 0 7 5-3 2-6-1z" fill="#E3E3E3"/>
<path transform="translate(546,818)" d="m0 0h2v8l-2 1-3-6z" fill="#E3E3E3"/>
<path transform="translate(321,402)" d="m0 0 5 3v5l-2-1-2-3-5 2v-2z" fill="#E3E3E3"/>
<path transform="translate(537,757)" d="m0 0 5 1 1 4 2 1h-5l-4-5z" fill="#E3E3E3"/>
<path transform="translate(509,573)" d="m0 0 4 2-2 4h-4v-5z" fill="#E6E6E6"/>
<path transform="translate(470,520)" d="m0 0 4 1 2 4-2 1-5-2z" fill="#E3E3E3"/>
<path transform="translate(561,247)" d="m0 0 7 1 1 2-7-1-5 3-3-1z" fill="#E3E3E3"/>
</svg>
