<?xml version="1.0" encoding="UTF-8"?>
<svg version="1.1" viewBox="0 0 1024 1024" width="1024" height="1024" xmlns="http://www.w3.org/2000/svg">
<path transform="translate(0)" d="m0 0h1024v1024h-1024z" fill="#FDFDFD"/>
<path transform="translate(556,170)" d="m0 0 5 1 20 11 19 11 15 9 7 4 1 2 1 50 3 3 18 10 3 5 1 57 14 9 3 3 1 46 3 3 4 1v-15l1-9 8-6 12-7 11-6 19-11 11-7 12-6 16-10 22-12 10-6 7-1 11 6 19 11 21 12 11 8 1 1 1 18v27l-1 33-5 4-17 10-24 13-20 12-19 11-8 5-12 6-16 10-6 1-9-4-15-8-1 76-8 6-23 13-18 11-12 6-1 1h-8l-10-6-12-6-34-20-5-5-1-52-4-2-11-6-4-1 1 72v124l-2 8-8 6-14 8-10 6-1 1v69l-2 5-11 7-13 8-11 6-10 6-12 6-5 3h-6l-24-14-18-10-13-8-7-6v-41l-5-2-19-11-5-5v-43l-5-2-14-8-9-6-2-2-2-57-13-8-4-1-16 9-1 56-1 16-10 8-12 6-10 6-21 11-17 11-12 6-9 6-11 6-18 11-4 2-5-1-24-13-17-10-18-11-4-5v-76l5-5 17-10 11-6 14-8 12-6 13-8 14-8 11-6 14-8 8-4 1-2 1-72 8-6 18-10 14-8 12-6 22-13 21-12 22-13 6-3 9 1 22 13 25 14 12 8 1 7 1 35 4 4 3 1 1-193 13-8 11-6 24-14 10-6 1-9 1-64 3-3 11-7 12-6 19-11z" fill="#727272"/>
<path transform="translate(700,485)" d="m0 0h3l1 17v41l-4 4-12 6-10 6-16 10-6 3-3-1v-58l3-3 17-10 24-14z" fill="#FDFDFD"/>
<path transform="translate(609,221)" d="m0 0h3v59l-5 5-14 8-12 6-10 6-8 3-1-1v-58l5-4 21-12z" fill="#FDFDFD"/>
<path transform="translate(550,627)" d="m0 0 2 1v59l-6 5-11 6-10 6-11 6-8 5h-3l-1-21v-27l1-13 10-6 18-10 17-10z" fill="#FDFDFD"/>
<path transform="translate(485,663)" d="m0 0 2 1 1 3v54l-4 5-12 7-12 6-15 9-4 2h-3v-58l4-4 13-8 12-6 13-8z" fill="#FDFDFD"/>
<path transform="translate(676,422)" d="m0 0h4v59l-3 3-16 8-23 13-4 2h-4v-58l5-4 11-6 10-6 11-6z" fill="#FDFDFD"/>
<path transform="translate(547,479)" d="m0 0 5 1v57l-4 4-18 10-24 14h-4v-59l5-5 16-8 18-10z" fill="#FDFDFD"/>
<path transform="translate(548,404)" d="m0 0 4 1v35l-1 24-7 5-12 6-17 10-9 6h-4v-59l4-4 20-12 12-6z" fill="#FDFDFD"/>
<path transform="translate(651,358)" d="m0 0h4v57l-5 5-10 6-11 6-10 6-12 6-2-2v-57l5-4 23-13 11-6z" fill="#FDFDFD"/>
<path transform="translate(632,288)" d="m0 0h4v60l-18 10-11 6-16 9-4 1-1-1v-58l10-6 26-15z" fill="#FDFDFD"/>
<path transform="translate(550,552)" d="m0 0 2 1v60l-17 10-21 12-10 5-2-2v-21l1-38 11-6 15-9 11-6z" fill="#FDFDFD"/>
<path transform="translate(514,723)" d="m0 0h3v58l-3 3-11 6-35 20-1-2v-58l1-2 12-6 15-9 12-6z" fill="#FDFDFD"/>
<path transform="translate(286,617)" d="m0 0h4v59l-5 4-12 6-10 6-16 9-6 1-1-1v-56l9-6 20-12 11-6z" fill="#FDFDFD"/>
<path transform="translate(456,600)" d="m0 0 2 1v59l-8 6-21 12-17 10h-3v-60l9-6 12-6 20-12z" fill="#FDFDFD"/>
<path transform="translate(346,510)" d="m0 0 4 1 1 57-5 4-18 10-19 11-4 2h-4v-59l6-4 12-6 10-6z" fill="#FDFDFD"/>
<path transform="translate(548,329)" d="m0 0h3v61l-14 8-18 10-13 8h-4v-30l1-30 9-6 14-8 10-6 11-6z" fill="#FDFDFD"/>
<path transform="translate(504,221)" d="m0 0 14 8 12 7 12 6 8 5 1 2v58l-5-1-20-11-22-13-2-2v-57z" fill="#FDFDFD"/>
<path transform="translate(434,533)" d="m0 0h2l1 3v48l-1 9-15 9-14 8-12 6-7 3-1-36v-21l5-5 25-14 10-6z" fill="#FDFDFD"/>
<path transform="translate(792,384)" d="m0 0 2 1v58l-10 7-12 6-9 6-11 6-6 3-1-1v-58l5-4 21-12z" fill="#FDFDFD"/>
<path transform="translate(407,476)" d="m0 0 4 1v56l-10 7-14 8-17 11-4 2-4-1v-57l1-2 11-6 18-11 11-6z" fill="#FDFDFD"/>
<path transform="translate(226,652)" d="m0 0h3l1 2v54l-5 5-20 12-9 6-11 6h-4v-57l5-5 21-12 12-7z" fill="#FDFDFD"/>
<path transform="translate(442,405)" d="m0 0 4 1 24 13 19 11 2 4v38l-1 19-4-1-17-10-11-6-15-8-1-4z" fill="#FDFDFD"/>
<path transform="translate(443,330)" d="m0 0 6 2 10 6 11 6 19 11 2 2v58l-4 1-10-6-11-6-18-10-5-4z" fill="#FDFDFD"/>
<path transform="translate(853,350)" d="m0 0h1l1 20v38l-5 4-23 13-10 6-8 4h-3v-58l5-4 8-4 10-6 11-6 10-6z" fill="#FDFDFD"/>
<path transform="translate(122,651)" d="m0 0 10 6 12 6 20 12 5 4v59l-6-2-15-9-22-13-5-4v-58z" fill="#FDFDFD"/>
<path transform="translate(242,510)" d="m0 0 4 1 18 10 20 12 4 2 2 3v37l-1 20-3 1-21-13-23-13-1-59z" fill="#FDFDFD"/>
<path transform="translate(441,480)" d="m0 0 6 1 12 7 11 6 18 10 3 3v18l-1 40-6-1-17-10-14-9-5-3-1-21-5-5z" fill="#FDFDFD"/>
<path transform="translate(686,385)" d="m0 0 6 2 22 13 16 9 4 3v57l-2 2-22-12-18-11-2-2-1-39-3-1z" fill="#FDFDFD"/>
<path transform="translate(739,347)" d="m0 0 6 1 21 12 12 7 7 4 2 4-32 18-13 8-3 1-18-10-25-15-3-4 26-15 12-7z" fill="#FDFDFD"/>
<path transform="translate(799,312)" d="m0 0 5 1 16 9 18 11 9 5v3l-11 6-10 6-11 6-14 8-6-2-18-11-12-6-12-7 2-4 20-11 17-10z" fill="#FDFDFD"/>
<path transform="translate(353,438)" d="m0 0h6l17 10 10 6 12 6 5 4-5 5-20 11-20 12-6-1-21-12-18-10-4-4 3-3 20-12 11-6z" fill="#FDFDFD"/>
<path transform="translate(554,184)" d="m0 0h6l10 6 12 6 14 8 8 5-3 4-11 6-13 8-11 6-7 4h-6l-23-13-20-12 1-4 12-7 11-6 16-9z" fill="#FDFDFD"/>
<path transform="translate(234,580)" d="m0 0 5 1 10 6 12 6 20 12v4l-22 12-19 11-2 2h-5l-22-13-20-12-3-3 14-9 22-12z" fill="#FDFDFD"/>
<path transform="translate(294,472)" d="m0 0 5 1 16 9 10 6 11 6 5 3 1 3-13 8-12 6-13 8-7 4-5-1-43-25 2-4 11-6 10-6 12-6z" fill="#FDFDFD"/>
<path transform="translate(493,293)" d="m0 0h6l19 10 24 14v3l-17 10-9 6-7 4-11 6-5-1-19-11-17-10-7-5v-2l12-7 12-6 15-9z" fill="#FDFDFD"/>
<path transform="translate(175,614)" d="m0 0 8 3 14 8 13 8 11 7-2 4-11 6-18 10-13 8h-5l-17-11-12-6-13-8v-4l32-18z" fill="#FDFDFD"/>
<path transform="translate(349,619)" d="m0 0 5 1 17 9 9 5 7-1 7-3h3v57l-2 1-12-7-11-6-10-6-11-6-2-4z" fill="#FDFDFD"/>
<path transform="translate(595,508)" d="m0 0 4 1 14 8 11 6 6-1 10-6 2 1v54l-3 1-43-25-2-3v-35z" fill="#FDFDFD"/>
<path transform="translate(572,444)" d="m0 0 5 2 12 8 10 5h5l10-6 5-1 1 53-4 1-16-9-11-6-10-6-7-4-1-35z" fill="#FDFDFD"/>
<path transform="translate(380,693)" d="m0 0 6 2 9 6 6 3 7-1 16-10h4v56h-4l-27-15-11-7-6-3-1-2v-22z" fill="#FDFDFD"/>
<path transform="translate(448,557)" d="m0 0 4 1 12 6 14 9 11 6 2 3v58l-5-1-15-9-1-1-1-40-4-5-16-10-1-1z" fill="#FDFDFD"/>
<path transform="translate(410,754)" d="m0 0 11 6 10 6 5-1 11-6 6-4 3 1v52l-5-1-20-12-12-6-10-7v-27z" fill="#FDFDFD"/>
<path transform="translate(564,381)" d="m0 0 14 7h6l5-3h5l1 57-4 1-19-12-8-5-1-24v-20z" fill="#FDFDFD"/>
<path transform="translate(372,569)" d="m0 0h4v48l-3 1-14-8-22-13-4-2 1-4 11-6 14-8z" fill="#FDFDFD"/>
<path transform="translate(571,317)" d="m0 0 5 1-1 54-3 1-9-6v-45z" fill="#FDFDFD"/>
<path transform="translate(470,646)" d="m0 0 5 2 5 5-8 5h-2z" fill="#FDFDFD"/>
<path transform="translate(422,518)" d="m0 0 5 2 1 4-2 2h-4l-1-7z" fill="#FDFDFD"/>
<path transform="translate(666,408)" d="m0 0 6 1-1 4-5 2z" fill="#FDFDFD"/>
</svg>
