<?xml version="1.0" encoding="UTF-8"?>
<svg version="1.1" viewBox="0 0 1024 1024" width="1024" height="1024" xmlns="http://www.w3.org/2000/svg">
<path transform="translate(0)" d="m0 0h1024v1024h-1024z" fill="#FBFBFB"/>
<path transform="translate(706,128)" d="m0 0 9 3 16 9 12 7 9 5 21 12 24 14 6 4 2 11 10 7 24 13 12 8 1 3v136l-4 4-12 8-9 5v20l11 7 26 15 14 8 25 14 16 10 5 4v103l-6 5-46 26-22 12-16 9-17 10-16 9-29 16-14 8-4 3-1 78-5 4-10 6-11 6-29 16-10 6-20 11-24 14-21 12-10 6-11 6-14 8-22 12-21 12-13 8-11 6-18 10-11 6-14 8-17 10-11 6-10 6-7 1-11-6-17-10-25-14-21-12-15-9-14-8-8-7v-107l5-5 15-9 11-6 21-12h2v-17l-5 2-13 7-17 10-10 5-21 12-24 14-17 9-21 12-18 10h-7l-11-7-11-6-19-11-11-6-16-9-13-8-11-6-15-9-2-2v-108l5-5 16-9 17-10 11-6 4-3 1-35 2-6 9-7 13-7 24-14 10-5v-39l-12-7-1-2-1-21-14-8-13-8-3-4v-134l7-6 11-6 18-10 2-23 3-3 13-8 14-8 25-14 21-12 27-15 8 1 23 13 24 14 27 15 14 9 3 3 2 10 8 5 17 10 18 11 3 5v77l25-14 17-10 14-7 8-5 5 1 25 15v-86l6-5 21-12 8-5h2l1-23 5-5 16-9 21-12 20-11 15-9 11-6z" fill="#646464"/>
<path transform="translate(694,625)" d="m0 0h4v33l1 3 7 1 6-4 11-6 16-9h3v84l-3 3-26 15-5 3-3-1v-34l-1-3h-6l-2 2-1 4v37l-5 5-50 28-19 11-23 13-35 20-16 9-11 7-14 7-19 11-8 5h-3l-2-37-6-1-2 2-1 21v20l-5 5-25 14-7 5h-4v-90l10-6 17-10 25-14 3-5 1-39 5-4 12-7 11-6 14-8 4-1 1 26 1 3 5 1 11-6 12-7 10-5 16-9 22-12 10-6 23-13 1-2 1-29 4-4 19-11 11-6z" fill="#FBFBFB"/>
<path transform="translate(666,410)" d="m0 0 2 1v121l-8 5-16 9-1 3-1 50-9 6-14 8-23 13-12 7-14 7-8 5h-2l-1-48-3-2-6 1-18 10-3-1v-117l6-5 14-7 14-8 10-6 11-6 25-14 22-12 13-8 17-9z" fill="#FBFBFB"/>
<path transform="translate(837,234)" d="m0 0h3v121l-5 4-16 9-4 5-1 50-7 5-11 6-16 9-14 7-21 12-10 6h-3l-1-46-2-3-7 1-13 7-4 2h-3v-118l13-8 10-6 11-6 15-8 24-14 27-15 11-6z" fill="#FBFBFB"/>
<path transform="translate(867,449)" d="m0 0h2l1 33 2 4 4 1 33-18 4-1v84l-9 6-14 8-13 6-1-34-2-4-6 1-1 1-1 43-24 14-23 13-11 6-23 13-27 15-4 2-1-1-2-12-9-6-20-12-25-14-21-12-7-5v-23l10-6 28-16 5-3h3l1 27 2 2h6l24-14 23-13 16-9 19-11 11-6 8-5 1-2 1-29 8-5 11-6 10-6z" fill="#FBFBFB"/>
<path transform="translate(411,559)" d="m0 0 5 1 6 4 1 22 13 8 1 1v38l-1 2-7 3-23 13-22 12-5 4-2 10-1 2-16 8-19 11-11 6-17 10-19 10-8 5-3-1v-33l-3-5-5 1-1 1-2 44-19 11-11 6-7 4h-3v-90l25-14 14-8 12-7 2-2 1-41 25-15 14-8 5-3 3 1 1 26 2 3h5l22-12 17-10 21-12z" fill="#FBFBFB"/>
<path transform="translate(455,273)" d="m0 0h3v73l-11 7-12 7-5 4-1 22-4 4-16 9-11 6-5 2-1 76-10 7-11 6-16 9-5 1v-47l-3-3-6 1-18 10-3-1v-117l9-6 22-12 16-9 10-6 12-6 24-14 27-15z" fill="#FBFBFB"/>
<path transform="translate(194,283)" d="m0 0 6 2 15 9 11 6 15 9 21 12 11 6 18 10 7 5 11 6v119l-6-2-34-20-16-9-22-13-11-6-19-11-7-4z" fill="#FBFBFB"/>
<path transform="translate(403,422)" d="m0 0 5 1 15 9 17 10 11 6 21 12 43 25 3 3v117l-5-1-17-10-19-11-41-23-24-14-9-5z" fill="#FBFBFB"/>
<path transform="translate(576,245)" d="m0 0 4 1 9 6 11 6 19 11 9 5 11 7 11 6 25 14 15 9 1 1v118l-2 1-9-7-1-1-1-24-1-3-6-2-24-14-13-7-3-4-1-9-8-6-23-13-11-7-11-6-1-1z" fill="#FBFBFB"/>
<path transform="translate(334,753)" d="m0 0 6 2 14 8 15 9 25 14 14 8 20 13 1 1v90l-5-1-25-15-26-15-35-20-5-5v-88z" fill="#FBFBFB"/>
<path transform="translate(125,613)" d="m0 0 5 1 28 16 22 13 28 16 11 7 2 2v89h-3l-16-9-19-11-15-9-11-6-25-14-6-4-1-2z" fill="#FAFAFA"/>
<path transform="translate(705,140)" d="m0 0h5l13 8 18 10 25 15 10 5 10 6-2 4-10 6-11 6-19 11-14 7-23 13-8 5-5-1-25-15-11-6-35-20-4-4 1-2 11-6 18-10 11-6 35-20z" fill="#FAFAFA"/>
<path transform="translate(533,316)" d="m0 0 6 1 17 10 16 9 13 8 18 10 10 7-5 5-27 15-23 13-12 7-11 6-9 5-6-2-51-30-21-12 1-4 29-16 11-7 11-6 25-14z" fill="#FAFAFA"/>
<path transform="translate(324,178)" d="m0 0 5 1 11 6 19 11 11 6 25 14 10 6-1 3-12 6-21 12-28 15-24 14-5 1-23-13-14-8-17-10-22-13v-3l21-11 17-10 17-9 18-10z" fill="#FAFAFA"/>
<path transform="translate(439,644)" d="m0 0h6l15 9 11 6 15 9 11 6 20 12 14 8 4 3-1 3-18 10-22 13-3 2-5-1-16-10-11-6-41-24-16-9-6-4 1-3 27-15 14-8z" fill="#FAFAFA"/>
<path transform="translate(231,504)" d="m0 0h5l13 8 17 10 14 8 16 9 22 13 9 5-1 3-27 15-16 10-5-1-25-14-16-10-32-18-15-9-2-4 9-6 11-6 12-7z" fill="#FAFAFA"/>
<path transform="translate(381,718)" d="m0 0 6 1 24 14 9 6 14 7 13 8 17 10 9 5 4 2v4l-11 6-25 14-4 3-5-1-17-10-15-9-11-6-18-11-11-6-16-9-4-4 3-3 17-9 14-8z" fill="#FAFAFA"/>
<path transform="translate(174,578)" d="m0 0 5 1 16 10 28 16 17 10 11 6 14 8 4 3v3l-17 9-19 11-4 3h-5l-13-8-16-10-14-8-26-15-22-13v-3l24-13z" fill="#FAFAFA"/>
<path transform="translate(804,207)" d="m0 0 4 1 25 15-1 3-11 6-14 8-33 18-11 7-33 18-24 14-7 4h-5l-13-8-14-8-26-15-10-6-11-6-16-9-13-8-8-5 2-4 11-6 4-2 4 7 26 15 13 8 11 6 19 11 11 6 12 6 5-1 33-18 16-9 10-6 11-6 12-7 11-6 7-4h2z" fill="#F8F8F8"/>
<path transform="translate(632,384)" d="m0 0 5 1 16 9 7 5v3l-24 13-15 9-11 6-29 16-14 8-24 14-18 10-5-2-10-6-26-15-16-9-17-10-22-13-12-6-7-5 5-5 11-6h3l2 6 16 10 14 7 34 20 25 14 5 2 16-8 22-12 24-14 10-6 33-18 1-2v-14z" fill="#F7F7F7"/>
<path transform="translate(424,245)" d="m0 0 11 6 15 9 1 3-27 15-13 8-33 18-24 14-24 13-14 8-5-2-10-6-11-6-25-14-15-9-15-8-15-9-18-11 1-4 13-7 4 1 2 5 11 6 28 16 11 7 11 6 26 14 5 3 5-1 19-10 16-9 18-10 22-12 7-5 11-6 9-5 1-3 1-14z" fill="#F9F9F9"/>
<path transform="translate(620,623)" d="m0 0 2 1v35l-7 5-33 18-21 12-5 3h-4l-5-5-6-4-1-2-1-30 1-2 5 2 8 4 5-1 14-8 16-9 25-14z" fill="#FAFAFA"/>
<path transform="translate(789,449)" d="m0 0h4v34l-16 10-11 6-18 10-16 9-4 2-4-1-1-3-5-2-6-4v-33l10 4 1 1h7l22-12 19-11z" fill="#FAFAFA"/>
<path transform="translate(389,680)" d="m0 0 5 2 19 11 11 6 22 13 10 6 11 6 15 9 2 2v27l-4-1-9-5-23-13-14-8-41-24-4-2-1-10v-18z" fill="#FAFAFA"/>
<path transform="translate(180,541)" d="m0 0 5 1 11 6 14 9 11 6 18 10 14 8 17 10 5 4 1 27-3 1-13-8-11-6-19-11-34-20-14-8-2-2z" fill="#FAFAFA"/>
<path transform="translate(448,602)" d="m0 0 5 1 25 14 14 8 15 9 21 12 1 2v32l-5-1-14-9-14-8-11-7-22-12-14-9-1-1z" fill="#FBFBFB"/>
<path transform="translate(240,462)" d="m0 0 8 4 23 13 14 8 15 9 18 10 1 1v32l-2 1-22-13-28-16-17-10-10-6-1-2v-30z" fill="#FAFAFA"/>
<path transform="translate(617,372)" d="m0 0h4v23l-13 8-11 6-29 16-24 14-9 6h-5v-23l1-2 14-7 20-11 22-13 11-6z" fill="#F9F9F9"/>
<path transform="translate(409,233)" d="m0 0h3v23l-7 5-14 7-24 14-23 13-14 8-6 3h-3v-22l3-3 12-7 11-6 15-8 23-13 15-9z" fill="#FAFAFA"/>
<path transform="translate(389,497)" d="m0 0h3v34l-5 4-16 9-17 10-6 4-5-1v-2l-4-2-8-7-1-31 6 1 8 4 5-1 23-12z" fill="#FAFAFA"/>
<path transform="translate(790,196)" d="m0 0 4 1v21l-3 3-11 6-26 14-21 12-26 15-4 1v-23l9-6 10-6 11-6 19-10 15-9z" fill="#FAFAFA"/>
<path transform="translate(230,238)" d="m0 0 5 1 17 10 14 8 24 14 16 9 4 4v21l-3 1-25-14-11-7-33-18-8-6z" fill="#FBFBFB"/>
<path transform="translate(440,376)" d="m0 0 10 5 16 9 20 12 18 10 10 6 4 2 1 2 1 22-4 1-22-13-23-13-18-11-11-6-2-2-1-10v-13z" fill="#F9F9F9"/>
<path transform="translate(612,201)" d="m0 0 5 1 11 6 22 13 10 6 11 6 18 10 3 3v23l-4-1-13-8-33-18-17-10-11-7-2-2z" fill="#FBFBFB"/>
<path transform="translate(433,571)" d="m0 0 4 1 14 8 11 6 21 12 16 9 22 13 4 1 12-6 7-5h4v34h-4l-13-8-11-6-17-10-35-20-17-10-16-9-2-3z" fill="#FBFBFB"/>
<path transform="translate(225,432)" d="m0 0 11 6 10 6 11 6 25 14 24 14 6 4 7-1 18-10 3 1v34l-5-1-24-14-11-7-22-12-24-14-17-9-13-8v-8z" fill="#F8F8F8"/>
<path transform="translate(653,591)" d="m0 0 4 1 11 7 11 6 12 7-2 4-29 16-7 5-5-1-14-8-1-1v-10l18-10 1-3z" fill="#FBFBFB"/>
<path transform="translate(825,417)" d="m0 0 5 1 19 11 10 7 4 1-1 3-14 8-12 7-11 6h-5l-14-9-1-1v-9l13-8 5-3 1-2z" fill="#FAFAFA"/>
<path transform="translate(625,669)" d="m0 0h5l9 6-4 4-14 8-11 6-19 10-10 6-25 14-4-1v-11l9-6 16-9 11-6 19-11 11-6z" fill="#F8F8F8"/>
<path transform="translate(796,493)" d="m0 0h5l9 6-4 4-19 10-24 14-23 13-11 6h-3v-12l3-3 25-14 14-8 23-13z" fill="#F6F6F6"/>
<path transform="translate(718,433)" d="m0 0h3v36l-5-2-21-12-15-9-1-8 4-1 12 6 9-2 13-7z" fill="#FBFBFB"/>
<path transform="translate(389,545)" d="m0 0 4 1 3 3 4 2-1 3-13 8-11 6-25 14-3 2-4-1v-11l9-6 14-8 11-6z" fill="#F6F6F6"/>
<path transform="translate(679,459)" d="m0 0 5 1 15 9 1 1 1 32-4 1-11-7-7-5z" fill="#FBFBFB"/>
<path transform="translate(721,134)" d="m0 0 4 1 11 6 14 8 4 2v2h4v2l6 2 12 7 11 6v2l4 1 11 6 3 5 2 9 7 5 10 5 16 9 10 6v2h2l2 13v126l-2 4-14 9-2-1 13-9h2v-141l-5-2-11-7-25-14-6-5-2-11-19-11-21-12-15-9-18-10-8-5z" fill="#E6E6E6"/>
<path transform="translate(679,505)" d="m0 0 6 2 22 13-1 4-11 6-14 8h-2z" fill="#FAFAFA"/>
<path transform="translate(576,245)" d="m0 0 4 1 9 6 11 6 19 11 9 5 11 7 11 6 7 4-3 1-17-10-9-5-7-4v-2l-4-1-8-3v-2l-5-2-10-6-9-5-4-2v-2h-3v78l5 2 10 5v2l4 1 6 3v2l4 1 18 10 7 4 2 10 1 4 15 8 4 2 9 5v2l-5-2-18-10-7-4-2-3-1-9-8-6-23-13-11-7-11-6-1-1z" fill="#E6E6E6"/>
<path transform="translate(545,611)" d="m0 0h1v32l-3-1v-2l-4-1-14-8-11-7-5-3 2-5 8 4v2h3l1 2 4-2h3v-2h4v-2l9-5z" fill="#FBFBFB"/>
<path transform="translate(709,617)" d="m0 0 4 1 13 7 9 6-1 3-21 12-2 2h-3v-30z" fill="#F8F8F8"/>
<path transform="translate(910,468)" d="m0 0h3v84l-9 6-14 8-13 6-1-34-2-4-6 1-1 1-1 43-24 14-4 1v-2l11-6 13-7h2v-42l5-5h6l3 5 1 11v21l26-14 4-3h2v-81l-6 3-3-1z" fill="#E6E6E6"/>
<path transform="translate(215,249)" d="m0 0 3 1-19 11-11 6-5 4v134l5 5 15 9 9 5 1 1 1 21 3 3 5 3-3 1-6-4-2-10v-14l-5-2-11-6-8-5-3-1v-2h-2l-2-5v-133l5-5 13-8 12-6z" fill="#E6E6E6"/>
<path transform="translate(446,804)" d="m0 0 2 1-4 3h-2l1 87 11-6 15-9 9-5 1-42 5-5 5 1 4 4 1 3-1 30 7-3 5-3v3l-10 6h-3l-2-37-6-1-2 2-1 21v20l-5 5-25 14-7 5h-4v-90z" fill="#E6E6E6"/>
<path transform="translate(880,443)" d="m0 0 4 1 22 12v3l-22 12-4 1z" fill="#F6F6F6"/>
<path transform="translate(657,292)" d="m0 0 5 2 27 15 2 2v118l-2 1-9-7-1-1-1-24-1-3-3-1 3-1 3 3 1 3 1 23 6 4 1-58-2-1h2l-1-55-13-8-11-6-2 2-2-5-3-1z" fill="#E6E6E6"/>
<path transform="translate(403,422)" d="m0 0 5 1 15 9 17 10 7 4-3 1-13-8-7-3v-2l-4-1-8-4-1-2-6-3v116l5 1 1 2 10 5v2l-5-2-13-7z" fill="#E6E6E6"/>
<path transform="translate(455,273)" d="m0 0h3v73l-11 7-12 7-5 4-1 22-4 4-16 9-11 6-5 2 5-5 15-8 12-7h2v-23l4-4h2v-2l11-6 10-6h2v-71l-3 2h-3v2l-14 7-3-1 12-7z" fill="#E6E6E6"/>
<path transform="translate(216,263)" d="m0 0 4 1 2 5 11 6 28 16 11 7 33 18-3 1-22-12-10-6-9-5-10-6-13-7-14-9-5-3-1-4-10 5-4 1v3l4 1 14 8 7 5 9 5 17 9 11 7 3 1v2l-5-2-18-10-11-6-15-9-18-11 1-4z" fill="#E6E6E6"/>
<path transform="translate(160,571)" d="m0 0 3 1-22 12-11 7-11 6-4 4v108l9 6 15 9 11 6 7 4-3 1-16-9-11-7-11-6-3-3-1-17v-31l1-63 9-7 14-7 13-8z" fill="#E6E6E6"/>
<path transform="translate(338,338)" d="m0 0h2v2l-11 6-6 4v95l-1 20 8-5 3 1-10 6-3-1v-117l9-6z" fill="#E6E6E6"/>
<path transform="translate(214,664)" d="m0 0 5 2 2 2v89h-3l-16-9-12-7 3-1 17 10 9 5-2-88-3-1z" fill="#E6E6E6"/>
<path transform="translate(545,478)" d="m0 0 2 1-8 5-6 2v2h-2l1 89-1 26 10-5 3 1-12 7-3-1v-117l6-5z" fill="#E6E6E6"/>
<path transform="translate(322,738)" d="m0 0 2 1-1 2v107l7 6 10 6 9 5 8 5-3 1-6-3v-2l-5-2-14-8-7-5-2-3v-107z" fill="#E6E6E6"/>
<path transform="translate(297,342)" d="m0 0 7 3 5 3v119l-6-2-34-20-16-9-3-3 4 1 11 6 14 8 11 6v2l4 1 14 8-1-48-1-20 1-10v-37l-10-6z" fill="#E6E6E6"/>
<path transform="translate(508,482)" d="m0 0 5 2 5 4v117l-5-1-8-5 3-1 8 4-1-63v-37l1-14h-2v-2l-6-2z" fill="#E6E6E6"/>
<path transform="translate(718,433)" d="m0 0h3v36l-5-2-21-12-15-9-1-8 4-1 12 6 9-2 13-7zm-2 3v2h-4v2l-4 1-8 3h-7l-12-6v7l15 9h3v2l10 5 7 4h2l1 2v-15l-2 1v5l-3-3 1-6-1-2 5 1v-12z" fill="#E6E6E6"/>
<path transform="translate(425,806)" d="m0 0 4 2v90l-5-1-25-15-5-4 4 1 11 6 11 7 6 3 1-87h-2z" fill="#E6E6E6"/>
<path transform="translate(240,462)" d="m0 0 8 4 23 13 14 8 15 9 11 6-3 1-8-4-11-6-2-1-4-3-9-5v-2l-4-1-19-10-8-5h-2l2 4 1 3 1 4-4-1 1 17 2 1v2l4 1 9 5v2l-5-2-12-7-1-2v-30z" fill="#E6E6E6"/>
<path transform="translate(805,464)" d="m0 0 4 2 7 4 1 2v13l-2 4-9-6-2-2v-16z" fill="#FCFCFC"/>
<path transform="translate(633,640)" d="m0 0 4 1 8 6v17l-2 1-10-6z" fill="#FCFCFC"/>
<path transform="translate(347,176)" d="m0 0 4 1 14 7v2l6 2 10 6 3 1v2l4 1 29 16 5 4 2 3 2 10 9 4v2l6 2 10 7 9 5 1 2-6-2-21-13-9-5-2-2-2-10-9-7-27-15-28-16-10-6z" fill="#E6E6E6"/>
<path transform="translate(448,602)" d="m0 0 5 1 25 14 14 8 15 9 3 3-6-2-12-7-11-6v-2l-4-1-22-12-4-2-1 27 7 4v2l4 1 6 3v2l4 1 7 4-2 1-13-7-14-9-1-1z" fill="#E6E6E6"/>
<path transform="translate(334,753)" d="m0 0 6 2 7 4-3 1-9-5 1 25v42l-1 21 5 2 7 5 14 7 4 4-6-2-10-6-11-6-5-5v-88z" fill="#E6E6E6"/>
<path transform="translate(194,283)" d="m0 0 6 2 3 3-4-1-2-1-1 21v95l6 2 4 2v2l-5-2-7-4z" fill="#E6E6E6"/>
<path transform="translate(739,643)" d="m0 0h3v84l-3 3-10 6h-2v-2l7-4h2v-2l3-1 1-82-3-1z" fill="#E6E6E6"/>
<path transform="translate(679,459)" d="m0 0 5 1 15 9 1 1 1 32-4 1-11-7-7-5zm1 2 1 5v24l1 2h3v2l7 4h3v2l4 1v-30l-9-6-4-2h-3v-2z" fill="#E6E6E6"/>
<path transform="translate(230,238)" d="m0 0 5 1 10 6-3 1-10-6 1 10v12l5 2 8 4v2l4 1 11 6 12 7h3l4 4 3 1v2h3v2l-5-2-10-6-33-18-8-6z" fill="#E6E6E6"/>
<path transform="translate(544,610)" d="m0 0h4v34h-4l-13-8-11-6-17-10 3-1 11 6 13 8 10 6 3 1v2h2v-30l-8 6h-3v2l-4-1z" fill="#E6E6E6"/>
<path transform="translate(398,713)" d="m0 0 4 1 11 6 12 7 3 1v2l4 1 6 3v2l4 1 23 13 10 5v2h3v2l4 1 1-25h1v27l-4-1-9-5-23-13-14-8-17-10-19-11z" fill="#E6E6E6"/>
<path transform="translate(653,591)" d="m0 0 4 1 11 7 11 6 6 4-2 1-14-8-13-8-1 10-3 5-16 9h-2l1 8 16 9 4-1v-2l9-5 3 1-14 9-5-1-14-8-1-1v-10l18-10 1-3z" fill="#E6E6E6"/>
<path transform="translate(517,641)" d="m0 0 6 2 5 3 1 2v32l-5-1-14-9-14-8-11-7-7-4 2-1 16 9 11 6v2l4 1 12 7 3 2 1-30-6-2-4-2z" fill="#E6E6E6"/>
<path transform="translate(275,688)" d="m0 0h7v2h2l1 2 1 34 12-7 3 1-15 9-3-1v-33l-3-5-5 1-1 1-2 44-10 6-2-1 7-5h3l1-41 2-5z" fill="#E6E6E6"/>
<path transform="translate(698,707)" d="m0 0 5 1 4 4 1 33 5-1-3 3-4 1-1-1v-34l-1-3h-6l-2 2-1 4v37l-5 5-5 3h-2v-2l7-4h2l1-41 3-5z" fill="#E6E6E6"/>
<path transform="translate(712,477)" d="m0 0 10 4 1 1h7l7-4h2v2l-11 5-6-1-8-4v30l5 2 8 6 18-10 3 1-16 9-4 2-4-1-1-3-5-2-6-4z" fill="#E6E6E6"/>
<path transform="translate(856,455)" d="m0 0h2v2l-11 6-16 9h-2v28l-4 6-8 5-11 6-6 3-2-1 14-8 12-7 2-3 1-29 8-5 11-6z" fill="#E6E6E6"/>
<path transform="translate(618,222)" d="m0 0 4 1v4l11 7 10 5v2l4 1 10 6 12 6 14 8 6 4-1 2-13-8-33-18-17-10-11-7z" fill="#E6E6E6"/>
<path transform="translate(241,662)" d="m0 0 2 1-8 5h-2l1 18-1 69 14-7 10-6 3 1-12 7-11 6-5 1v-90z" fill="#E6E6E6"/>
<path transform="translate(539,708)" d="m0 0h3l1 26 1 3 5 1 11-6 12-7 10-5 16-9 6-3 2 1-8 5-10 5-16 9-12 7-11 6-4-1-4-3-1-26-2-2z" fill="#E6E6E6"/>
<path transform="translate(433,571)" d="m0 0 4 1 2 2-4-1 1 6 17 9 11 7 3 1v2l4 1 18 10 11 7 3 1v2l-5-2-16-9-19-11-15-9-11-6-4-4z" fill="#E6E6E6"/>
<path transform="translate(330,569)" d="m0 0 3 1 1 26 2 3h5l11-6 2 1-8 5-4 2h-7l-4-5-1-24-11 6-12 7-7 4-2-1 14-9 11-6z" fill="#E6E6E6"/>
<path transform="translate(586,643)" d="m0 0 2 1-11 7-11 6-9 5-8-1-8-4 1 23 1 8 4 1 2 1v2l-5-2-4-4-1-30 1-2 5 2 8 4 5-1 14-8z" fill="#E6E6E6"/>
<path transform="translate(712,532)" d="m0 0h3l1 27 2 2h6l17-10h2v2l-11 6-10 5-5-1-4-4v-25l-16 9-2-1z" fill="#E6E6E6"/>
<path transform="translate(679,505)" d="m0 0 6 2 22 13-1 4-4 1v-2h3v-3l-6-2-13-8-4-2-1 27 4-2 3 1-7 4h-2z" fill="#E6E6E6"/>
<path transform="translate(382,501)" d="m0 0h2v2l-11 6-15 8-9 5h-7l-8-4-1 1-1 27h-1l-1-31 6 1 8 4 5-1 23-12z" fill="#E6E6E6"/>
<path transform="translate(285,269)" d="m0 0 5 2 16 9 4 4v21l-3 1-21-12 3-1 14 8 4 2 1-20-4-1-8-4-1-3-4-1-6-3z" fill="#E6E6E6"/>
<path transform="translate(712,240)" d="m0 0 2 1-7 5h-2v20l13-7 17-10 4-2 3 1-25 14-11 7h-3v-23z" fill="#E6E6E6"/>
<path transform="translate(648,221)" d="m0 0 5 2 11 6 18 10 9 6 1 1v23l-3-1v-21l-1-3-4-1-15-8-11-7-10-5z" fill="#E6E6E6"/>
<path transform="translate(612,201)" d="m0 0 5 1 11 6 20 12-4 1v-2l-4-1-5-3-4 1-1 3h-2l1-5 2-1-9-6-7-4v19l-2 2-1-1z" fill="#E6E6E6"/>
<path transform="translate(274,595)" d="m0 0h1l1 27-3 1-13-8-11-6-13-8 3-1 13 8 5 2-1-3 5-1 1 5-2 1 2 2h4v3l5 2 3 2-1-11z" fill="#E6E6E6"/>
<path transform="translate(199,551)" d="m0 0 5 2 14 8 26 15 16 9 8 5-3 1-16-10-10-5-14-8h-3l-4-4-19-11z" fill="#E6E6E6"/>
<path transform="translate(424,245)" d="m0 0 11 6 15 9 1 3-16 9h-2v-2l14-7v-2l-13-8-3-1v-2l-4-1-2-1-1 15-1 2h-3v2l-8 4-3-1 12-7 1-3 1-14z" fill="#E6E6E6"/>
<path transform="translate(337,471)" d="m0 0 3 1v34l-5-1-3-3 4 1 3 1-1-31-16 10-3 1h-9v-2h-3v-2l-4-1-6-3v-2l5 2 10 6 7-1z" fill="#E6E6E6"/>
<path transform="translate(191,512)" d="m0 0 2 1-7 4-10 6-6 5-1 5-1 35-5 3v-2l2-1 1-25v-14l5-5 3-1v-2l3-2h3v-2z" fill="#E6E6E6"/>
<path transform="translate(409,233)" d="m0 0h3v23l-7 5-14 7-10 6-2-1 7-5 10-5 13-7 1-21-12 7-3-1z" fill="#E6E6E6"/>
<path transform="translate(633,181)" d="m0 0h2v2l-11 6-2 1 5 4 11 6 16 8v2l6 2 11 7 3 1v2l-5-2-11-6-35-20-4-4 1-2 11-6z" fill="#E6E6E6"/>
<path transform="translate(146,667)" d="m0 0h14l4 2v3l-6 2-7 1-5-2-2-5z" fill="#E6E6E6"/>
<path transform="translate(493,407)" d="m0 0 6 2 13 8 6 3 1 2 1 22-4 1-15-9 3-1 12 7v-20l-10-5v-2h-3v-2h-3v-2l-4-1-3-1z" fill="#E6E6E6"/>
<path transform="translate(347,760)" d="m0 0 5 2 24 14 25 14 11 7-2 1-10-6-7-3v-2l-4-1-10-6-12-6-16-10-4-2z" fill="#E6E6E6"/>
<path transform="translate(341,454)" d="m0 0h7l4 4v46l3 1-5 1v-47l-3-3h-6z" fill="#E6E6E6"/>
<path transform="translate(804,207)" d="m0 0 4 1 13 8-2 1-12-7-1 14-5 5-18 10-5 3-3-1 14-8 12-7h2z" fill="#E6E6E6"/>
<path transform="translate(439,574)" d="m0 0 5 2 13 7 21 12 13 8 11 6-2 1-14-7-7-4v-2l-4-1-11-6-14-8-11-6z" fill="#E6E6E6"/>
<path transform="translate(225,432)" d="m0 0 11 6 10 6 7 4-2 1-16-9-7-4-1 4 11 7 10 5 1 2-6-2-18-10-1-1v-8z" fill="#E6E6E6"/>
<path transform="translate(633,640)" d="m0 0 4 1 8 6v17l-2 1-10-6zm2 2v17h4v2l5 2-1-10 1-6z" fill="#E6E6E6"/>
<path transform="translate(617,372)" d="m0 0h4v23l-13 8-11 6-4 1 4-4 11-6 9-5h2v-21l-7 4-3-1z" fill="#E6E6E6"/>
<path transform="translate(599,224)" d="m0 0 2 1 3 6 17 10-3 1-16-10-3-5-12 7v2l9 5 7 4v2l-5-2-15-9 2-4 11-6z" fill="#E6E6E6"/>
<path transform="translate(231,504)" d="m0 0h5l13 8 17 10 8 5-3 1-15-9-14-9-7-4-4 1-11 6-6 3-2-1 14-8z" fill="#E6E6E6"/>
<path transform="translate(805,464)" d="m0 0 4 2 7 4 1 2v13l-2 4-9-6-2-2v-16zm1 3v14l4 2v2l5 1v-15l-7-4z" fill="#E6E6E6"/>
<path transform="translate(533,302)" d="m0 0 8 1 9 6 9 5v2l-5-2-17-10-5 1-14 8-13 7-2-1 4-3h3v-2l14-7 7-4z" fill="#E6E6E6"/>
<path transform="translate(206,357)" d="m0 0 5 1h2l3-1 5 4v2l-3 2h-3l1 5-7-5-4-1v-3h2z" fill="#E6E6E6"/>
<path transform="translate(421,550)" d="m0 0 4 1 11 6 14 8 8 4v2l4 1 10 5 4 4-6-2-46-26z" fill="#E6E6E6"/>
<path transform="translate(342,271)" d="m0 0h2v2l-14 7-5 3h-2l1 20 4-2 3 1-7 4h-3v-22l3-3 12-7z" fill="#E6E6E6"/>
<path transform="translate(197,758)" d="m0 0 5 2 11 6 10 6h7l12-7 6-3h2v2l-10 5-10 6h-6l-10-6-11-6-6-3z" fill="#E6E6E6"/>
<path transform="translate(282,347)" d="m0 0 2 1v5l-2 2h-6l-9 2v-3l4-4h4l1-2h5z" fill="#E6E6E6"/>
<path transform="translate(623,288)" d="m0 0 4 2 1 3-2 2-2 5-3 2-5-1-1-1v-5l2-2h7z" fill="#E6E6E6"/>
<path transform="translate(145,695)" d="m0 0 4 1 7 5 1 5 4-3 3 1-1 3-2 1h-9l-1-3-4-2-1-3 1-3z" fill="#E6E6E6"/>
<path transform="translate(345,320)" d="m0 0 3 1-19 11-11 6-4 1-13-8-7-4 2-1 10 6 7 4 5-1 10-6 12-6z" fill="#E6E6E6"/>
<path transform="translate(246,313)" d="m0 0 6 2 10 6 11 6 18 10 6 4-3 1-7-5-12-6-11-6h-3v-2l-14-8z" fill="#E6E6E6"/>
<path transform="translate(481,527)" d="m0 0 8 1 3 1v7h-7l-5-3v-5z" fill="#E6E6E6"/>
<path transform="translate(391,215)" d="m0 0 5 2 9 5-1 3-12 6-21 12-6 2 4-4 12-6 10-6 11-6-11-7z" fill="#E6E6E6"/>
<path transform="translate(603,321)" d="m0 0h5l2 6-3 6-6 3-2-2 1-3h2v-8z" fill="#E6E6E6"/>
<path transform="translate(583,693)" d="m0 0h2v2l-10 5-20 11-1 10 4-2 3 1-5 3-4-1v-11l9-6 16-9z" fill="#E6E6E6"/>
<path transform="translate(790,196)" d="m0 0 4 1v21l-3 3-11 6-6 3-2-1 11-7 8-4 1-20-4 2-3-1z" fill="#E6E6E6"/>
<path transform="translate(664,149)" d="m0 0 3 1-19 11-11 6-16 9h-2v-2l33-18z" fill="#E6E6E6"/>
<path transform="translate(712,604)" d="m0 0 6 2 13 8 9 5 11 7 4 6-1 8 3 1-3 1-1-1-2-12-9-6-30-18z" fill="#E6E6E6"/>
<path transform="translate(447,447)" d="m0 0 6 2 19 11 22 13-2 3-4-1h3l-3-3-10-6-9-5-14-8-8-5z" fill="#E6E6E6"/>
<path transform="translate(440,376)" d="m0 0 6 3-3 1-2-1 2 21 14 8 1 2-5-2-11-6-2-2-1-10v-13z" fill="#E6E6E6"/>
<path transform="translate(378,665)" d="m0 0 2 1-1 1-2 10-1 2-16 8-19 11-3-1 11-6 11-7 12-6h3v-8z" fill="#E6E6E6"/>
<path transform="translate(643,270)" d="m0 0 4 1 11 6 12 7 9 5 14 9-2 1-16-10-11-6-21-12z" fill="#E6E6E6"/>
<path transform="translate(404,664)" d="m0 0 2 1-7 5 15 9 3 1v2l4 1 10 6 3 1v2l-5-2-14-8-11-6-8-5 1-3z" fill="#E6E6E6"/>
<path transform="translate(324,164)" d="m0 0 6 1 11 6 6 4-2 1-14-8-8-1-20 11h-2v-2l10-5z" fill="#E6E6E6"/>
<path transform="translate(389,680)" d="m0 0 5 2 7 4-3 1-7-4v24l7 4v2l-5-2-4-2-1-10v-18z" fill="#E6E6E6"/>
<path transform="translate(222,341)" d="m0 0 7 3-1 6-2 5-5 1-1-4 3-4z" fill="#E6E6E6"/>
<path transform="translate(411,559)" d="m0 0 5 1 6 4 1 22 6 4-2 1-6-4-1-3-1-19-5-3h-6z" fill="#E6E6E6"/>
<path transform="translate(206,408)" d="m0 0 4 1 11 6 18 10 11 6v2l-5-2-14-8-11-6-14-8z" fill="#E6E6E6"/>
<path transform="translate(573,338)" d="m0 0 5 2 25 14 10 7-2 3h-2l-1-4-8-5-11-6-12-7-4-2z" fill="#E6E6E6"/>
<path transform="translate(709,617)" d="m0 0 4 1 2 2-4-1v26l4-1-4 4h-3v-30z" fill="#E6E6E6"/>
<path transform="translate(653,556)" d="m0 0 4 1 1 1v13l-4 1-1-2z" fill="#E9E9E9"/>
<path transform="translate(825,417)" d="m0 0 5 1 19 11 6 4-3 1-7-5-11-6-7-4v8l-2 5-2-1 1-2z" fill="#E6E6E6"/>
<path transform="translate(150,717)" d="m0 0 4 1 19 10 10 6 4 2v2h3v2l-5-2-17-10-11-6-7-4z" fill="#E6E6E6"/>
<path transform="translate(467,560)" d="m0 0 5 1v2l-5 5h-2v2l-5-1-1-3h2l1-5z" fill="#E6E6E6"/>
<path transform="translate(451,549)" d="m0 0 5 5-1 4-2 2-5-1-1-8z" fill="#E6E6E6"/>
<path transform="translate(625,669)" d="m0 0h5l9 6-1 2h-2l-4-4-3-2-4 1-11 6-12 7-3-1 14-8z" fill="#E6E6E6"/>
<path transform="translate(191,669)" d="m0 0 6 2-1 5-3 2-5-1-1-6z" fill="#E6E6E6"/>
<path transform="translate(502,610)" d="m0 0 6 2 13 8 4 1 5-1v2l-7 3-4-1h3v-2h-3v-2l-4-1-3-2-5 1-1-4z" fill="#E6E6E6"/>
<path transform="translate(452,535)" d="m0 0 6 1 2 2v4l-5 3h-2l-1 3-2-1 1-5 2-1z" fill="#E6E6E6"/>
<path transform="translate(142,622)" d="m0 0 5 2 16 9 15 9-3 1-19-11-11-7-3-1z" fill="#E6E6E6"/>
<path transform="translate(245,246)" d="m0 0 5 2 10 6 11 6 7 4-3 1-16-9-3 1-2-4-3-1v-2l-6-2z" fill="#E6E6E6"/>
<path transform="translate(785,526)" d="m0 0h2v2l-14 7-14 9-6 3-3-1 21-12z" fill="#E6E6E6"/>
<path transform="translate(210,292)" d="m0 0 5 2 11 6 15 9 5 4-5-1-10-6-1-2-6-2-7-4v-2l-4-1z" fill="#E6E6E6"/>
<path transform="translate(517,687)" d="m0 0 5 2 12 7v4l-16 9-2-1 10-6 4-3h3v-2l-5-2-11-6z" fill="#E6E6E6"/>
<path transform="translate(192,526)" d="m0 0h2v2h-3l2 4 11 7 11 6 3 3-5-2-11-6-12-7-2-4z" fill="#E6E6E6"/>
<path transform="translate(318,553)" d="m0 0 9 4-1 3-23 13h-2v-2l22-12 1-2-6-2z" fill="#E6E6E6"/>
<path transform="translate(311,503)" d="m0 0 5 2 3 2v32l-2 1-6-4 2-1 4 2v-29l-3-1v-2l-4-1z" fill="#E6E6E6"/>
<path transform="translate(203,314)" d="m0 0 6 4 1 5h-4l-3 2-1-2v-8z" fill="#E6E6E6"/>
<path transform="translate(688,150)" d="m0 0 2 1-7 5-10 5-10 6-6 2 4-4 13-7z" fill="#E6E6E6"/>
<path transform="translate(342,771)" d="m0 0 2 1 1 10-6 2v-4l-1-4 2-4z" fill="#E6E6E6"/>
<path transform="translate(304,485)" d="m0 0 6 2 13 8 9 5v2l-5-2-16-9-7-5z" fill="#E6E6E6"/>
<path transform="translate(408,691)" d="m0 0 5 2 11 6 13 8-3 1-10-6-13-8-3-1z" fill="#E6E6E6"/>
<path transform="translate(135,604)" d="m0 0 6 2 13 8 10 5v2l-5-2-16-9-8-5z" fill="#E6E6E6"/>
<path transform="translate(818,434)" d="m0 0h2v2l-7 4h-3v2l-3 2-1 6h2v2l4 1 2 1v2l-5-2-4-3v-9z" fill="#E6E6E6"/>
<path transform="translate(301,422)" d="m0 0 1 3-5 8-1 1h-5l4-8h5z" fill="#E6E6E6"/>
<path transform="translate(143,647)" d="m0 0 2 1v5h11l4 2-9 2h-5l-3-3z" fill="#E6E6E6"/>
<path transform="translate(638,344)" d="m0 0 9 2-2 4-8 1v-2l-2-2z" fill="#E6E6E6"/>
<path transform="translate(413,296)" d="m0 0h2v2h-3v2l-10 5-7 4-3 2-3-1z" fill="#E6E6E6"/>
<path transform="translate(589,627)" d="m0 0 3 1-16 9-9 5-2-1 3-3 7-3z" fill="#E6E6E6"/>
<path transform="translate(476,547)" d="m0 0 8 1-2 5-9 1z" fill="#E6E6E6"/>
<path transform="translate(649,307)" d="m0 0 5 2 1 3-5 3-4-1 1-5z" fill="#E6E6E6"/>
<path transform="translate(786,437)" d="m0 0 2 1-16 9-9 5h-2v-2l14-7z" fill="#E6E6E6"/>
<path transform="translate(419,788)" d="m0 0 4 1 11 6 5-1 5-2-4 4-3 2-5-1-13-8z" fill="#E6E6E6"/>
<path transform="translate(374,691)" d="m0 0 3 1v15l-1 2h-2l1-16-3 2-3-1z" fill="#E6E6E6"/>
<path transform="translate(492,549)" d="m0 0 3 3-1 5-6 1 1-7z" fill="#E6E6E6"/>
<path transform="translate(526,716)" d="m0 0h2v2l-11 6-9 5-3-1 14-8z" fill="#E6E6E6"/>
<path transform="translate(234,334)" d="m0 0h3v2l5 1v2l-9 1-1-4h2z" fill="#E6E6E6"/>
<path transform="translate(207,597)" d="m0 0 5 2 16 9 1 2-5-2-10-5-7-4z" fill="#E6E6E6"/>
<path transform="translate(426,401)" d="m0 0h3l2 6 8 5-4 1v-2l-5-2-3-4v-2l-3 2-3-1z" fill="#E6E6E6"/>
<path transform="translate(345,570)" d="m0 0 2 1-1 1-1 10 5-1-3 3-4-1v-11z" fill="#E6E6E6"/>
<path transform="translate(821,217)" d="m0 0 5 2 7 4-1 3-8 4-2-1 8-5-9-6z" fill="#E6E6E6"/>
<path transform="translate(438,531)" d="m0 0 3 1v5l-5 3-3-4 5-1z" fill="#E6E6E6"/>
<path transform="translate(656,343)" d="m0 0h5l1 4-2 2-5-1z" fill="#E6E6E6"/>
<path transform="translate(338,825)" d="m0 0 4 2v2l3 1-1 4-4-2-3-4z" fill="#E6E6E6"/>
<path transform="translate(220,388)" d="m0 0 7 1 1 4-5-1-4 1-1-3z" fill="#E6E6E6"/>
<path transform="translate(671,346)" d="m0 0h2v7l-5 1 2-7z" fill="#E6E6E6"/>
<path transform="translate(612,304)" d="m0 0 4 4-1 4-4-2-1-4z" fill="#E6E6E6"/>
</svg>
