<?xml version="1.0" encoding="UTF-8"?>
<svg version="1.1" viewBox="0 0 2048 2048" width="2048" height="2048" xmlns="http://www.w3.org/2000/svg">
<path transform="translate(0)" d="m0 0h2048v2048h-2048z" fill="#F9F9F9"/>
<path transform="translate(1495,491)" d="m0 0 4 1 10 5 10 7 6 3 4 3 6 3 10 6 11 7 13 7 10 5 5 3 7 4 5 3 9 6 8 5 10 6 8 3 3 3 12 7 9 6 10 5 4 3 12 6 9 6 9 5 9 7 5 3 2 5v231l-1 24-4 6-4 5-8 6-13 8-17 9-3 3-7 3-9 5-4 3-6 3-8 5-20 12-7 5-7 3-10 5-9 3-3 3v4l10 5 11 6 10 6 9 5 11 7 9 5 10 7 7 3 10 7 9 4 4 3 12 6 8 5 9 5 5 4 5 5 1 2 1 25-1 53v144l-1 30-2 9-8 6-7 5-6 3-13 8-10 6-4 3-6 3-4 3-11 6-5 4-15 8-10 6-6 3-4 3-6 3-9 5-5 3-6 4-6 3-11 7-14 7-4 3-6 3-10 6-9 5-16 9-2 1h-8l-5-3-10-5-5-2-3-3-12-6-5-4-5-2-4-3-6-3-11-6-9-6-7-3-10-6-16-9-10-6-7-4v-2l-6-2-7-4-6-4-8-4-9-5-17-10-9-5-8-6-8-4-11-8-2-6-3-28-2-5-35-1h-23l-3 1 2 6 9 4 4 3 7 2 5 3 14 7 8 6 5 5v254l-3 6-10 8-15 9-8 5-5 3-8 5-9 6-8 4-8 5-8 4-4 3-6 3-9 5-13 8-11 6-6 4-11 6-3 3-7 3-4 3-14 7-15 8-5 3-24 12-6 2-7-1-14-8-9-5-5-3-11-6-13-7-9-5-8-5-9-5-12-7-11-6-13-7-11-7-5-3-9-5-10-6-8-4-10-7-8-4-11-7-12-6-3-3-7-3-7-6-1-4-1-235-1-4v-17l4-6 10-5 7-1 2-4 14-7 4-3 8-3 3-4v-2l-2-1h-27l-30 1-2 30-5 10-5 4-8 5-6 3-18 10-4 3-11 6-12 8-6 3-5 3-6 4-7 3-14 8-5 3-11 7-14 8-8 5-10 5-10 7-7 3-13 8-6 4-5 3-10 5-9 4-3 2-6-1-11-4-3-3-8-4-6-4-9-5-5-3-11-6-4-3-7-3-9-5-9-6-8-5-10-6-6-3-10-6-8-5-16-9-2-2-9-3-10-7-8-4-5-3-11-7-9-5-5-3-5-4-6-3-9-7-1-2v-259l4-4 9-5 6-4 12-7 12-6 5-4 6-4 7-2 5-4 14-8 9-5 12-7 22-11 7-2 3-2 7-2 1-7-13-8-12-7-6-3-10-6-8-4-10-7-6-3-4-3-6-3-11-7-5-3-13-8-6-4-6-3-15-9-7-6-3-5v-256l4-6 7-5 6-3 4-3 12-6 4-3 12-6 5-4 7-3 15-9 6-4 12-6 3-3 7-3 4-3 12-6 3-3 9-4 14-9 4-3 13-6 7-4 7-5 6-3 10-6 9-5 5-3 7-4 7-3h5l7 3 14 7 10 7 13 8 4 3 11 6 10 6 9 5 5 3 16 8 9 6 6 3 4 3 6 3 9 6 10 6 6 3 10 7 6 3 15 10 16 8 5 3 8 8 5 10 1 9 1 35v97l1 4 4 1h445l13-1 1-3 1-14v-107l1-22 5-14 12-6 7-4 7-5 6-3 6-4h2v-2l10-5 11-7 5-3 19-11 6-3 4-3 6-3 13-8 12-7 9-5 12-7 6-3 9-5 10-5 9-5 10-6 8-6 9-4z" fill="#3E3F3D"/>
<path transform="translate(770,799)" d="m0 0h541l8 7 6 7 5 4 2 3v18l1 41-1 3-1 14v26l1 40v35l-1 76-1 71v60l1 28v7l-5 8-6 4h-27l-142 1-176-1-17 1-196-1-4-5-3-3-4-8-1-13 1-92v-66l-1-67v-179l9-10 8-8z" fill="#F9F9F9"/>
<path transform="translate(1035,227)" d="m0 0h7l5 3 8 2 5 4 14 7 8 5 15 8 12 6 11 7 5 3 9 6 9 4 3 2v2l6 2 11 6 11 7 8 6 14 7 5 4 6 4 6 3 9 6 8 4v2l6 2 4 3 7 3 4 3 5 3 6 7 1 31v227l-3 7-6 5-5 4-7 3-5 3-9 5-10 6h-2v2l-9 5-8 5-8 4-4 3-6 3-5 3-13 7-9 5-11 7-22 12-4 3-7 3-2 2-7 3-13 8-15 9-16 8-8 3-9 2-13-6-17-8-5-3-13-8-8-4-3-3-6-3-9-5-8-5-9-5-12-7-6-3-11-7-6-3-12-7-6-3-10-6-11-7-14-7-12-8-6-3-17-10-6-5-1-4v-100l1-157 3-5 7-2 1-3 12-7 10-8 7-3 3-3 6-3 9-5 10-7 6-3 5-3 9-6 10-6 9-5 9-7 6-3 4-3 6-3 9-5 17-10 11-7 6-3 11-6 10-6 6-2 3-3 9-4z" fill="#3E3F3D"/>
<path transform="translate(1690,1080)" d="m0 0 4 4v39l-1 9 1 71v82l-1 15-5 5-11 7-5 3-3 2-6 2-4 3-7 3-7 4h-2v2l-6 3-6 4-8 4-8 6-7 2-9 7-7 3-10 6-10 5-5 3-10 5-11 6-10 7-6 4-9 5-8 4h-6l-2-3v-205l2-6 5-6 6-5 7-3 10-7 8-4 9-6 8-4 16-10 9-5 20-12 6-4 8-4 18-10 5-3 14-7 11-8 6-4 8-4z" fill="#F9F9F9"/>
<path transform="translate(1688,648)" d="m0 0 5 1 1 1v190l-1 9v15l-2 5-10 7-12 6-5 4-6 3-11 7-6 3-13 8-16 8-24 14-5 3-13 9-8 4-9 6-12 7-5 4-4 2-5 5-7 5-4 4-4 1-5-3-1-1-1-47v-168l2-5 9-7 12-6 4-3 9-4 8-5 12-7 5-3 13-8 12-6 19-11 8-5 8-4 3-3 24-13 9-5 5-3 9-6z" fill="#F9F9F9"/>
<path transform="translate(1232,388)" d="m0 0 5 1 2 2 1 16-1 49-1 136-1 15-3 4-7 3-3 3-7 3-4 3-14 7-13 8-14 8-10 7-14 8-17 10-9 5-17 10-11 6-12 7-6 3-14 9-3 2-5-1-1-3-1-173v-22l-1-10 2-11 5-4 4-3 7-2 4-3 6-3 4-3 6-3 5-3 8-5 12-6 10-6 9-5 7-4 3-3 7-3 10-7 8-4 17-10 9-5 8-5 11-8 16-9z" fill="#F9F9F9"/>
<path transform="translate(1040,253)" d="m0 0 5 2 20 11 5 3 9 5 5 3 9 5 6 4 6 3 1 2 7 3 8 6 8 4 4 3 5 3 24 15 8 4 5 3 6 3 10 6 9 4 2 2 7 2 4 3 8 4 3 4-2 6-3 3-7 5-6 3-5 3-14 7-18 10-13 8-12 7-9 5-5 3-6 4-8 4-9 6-6 2-4 4-7 3-10 6-5 2-4 4-5 2-10 7-8 3-3 3h-7l-15-7-9-6-10-6-6-3-4-3-5-2-10-7-10-6-6-3-5-3-25-14-6-5-6-3-13-8-11-6-3-3-9-4-14-8-10-7-3-4 1-4 3-4 10-4 16-8 12-7 5-3 11-6 5-4 11-6 13-8 15-8 8-5 10-7 15-10 8-4 5-3 11-6 3-3 7-3 9-5z" fill="#F9F9F9"/>
<path transform="translate(391,649)" d="m0 0 4 1 8 4 8 5 4 3 5 3 9 5 5 3 11 6 4 3 11 6 6 4 10 6 11 7 27 15 8 5 10 6 16 8 7 4 4 3 10 3 7 7v53l-1 70 1 59v37l-5 3-6-2-5-4-12-8-10-7-14-9-6-3-4-3-12-6-5-4-11-7-4-3-12-6-5-4-16-8-18-10-4-3-6-3-10-7-11-7-8-6-2-4v-54l-1-116v-41z" fill="#F9F9F9"/>
<path transform="translate(1233,1341)" d="m0 0 5 3v211l-2 5-16 10-8 4-8 6-7 3-3 3-6 3-16 10-10 7-7 3-9 6-16 9-13 8-5 4-6 1-2 4-9 4-12 7-5 3-14 9-2 2-6 1-2-1-1-3-1-177 1-35 4-6 14-9 11-6 8-5 11-7 6-3 11-7 6-3 9-5 11-7 16-8 4-3 6-3 16-10 14-8 3-3 7-3 5-4 11-7z" fill="#F9F9F9"/>
<path transform="translate(391,1080)" d="m0 0 6 2 8 5 6 3v2l6 2 8 5 12 7 8 4 3 3 7 3 7 4v2l7 2 5 4 6 3 13 8 5 4 8 4 6 4 9 5 5 3 9 6 14 9 9 6 9 7v2l4 2 3 5v119l1 48 1 26v13l-3 4h-5l-13-8-22-14-6-3-12-7-15-9-8-5-17-10-10-6-6-3-4-3-9-4-6-4-11-6-11-7-7-3-8-5-8-4-5-5v-12l-1-3v-191l-1-9z" fill="#F9F9F9"/>
<path transform="translate(848,385)" d="m0 0 10 5 9 5 4 3 6 3v2l5 2 3 3 12 7 4 3 14 7 3 3 7 3 4 3 8 4 17 10 5 3v2l7 2 4 4 6 3 15 9 12 7 6 3 11 6 8 5 1 2-1 212-4 3-7-1-5-4-13-9-6-3-4-3-14-7-4-3-14-7-10-7-8-4v-2l-6-2-27-15-6-4-6-3-9-5-16-8-11-7-5-4-8-5-1-9v-33l-1-144v-30z" fill="#F9F9F9"/>
<path transform="translate(843,1342)" d="m0 0h8l21 12 9 5 13 8 9 6 7 4 7 5 16 8 9 6 6 3 9 5 10 7 10 6 6 3 17 10 9 6 10 7 8 7 1 2v208l-2 2h-7l-5-3-8-5-9-6-8-4-15-9-4-3-6-3-11-7-6-3-9-5-34-20-9-5-13-8-8-5-11-6-9-6-8-5-2-5v-194l-2-11v-6z" fill="#F9F9F9"/>
<path transform="translate(1491,519)" d="m0 0 9 3 2 2 8 3 5 3 13 8 9 6 8 3 3 3 8 5 6 3 12 7 6 3 27 15 10 6 11 7 11 8 8 4 5 3 22 11 3 2-2 6-5 3-6 3-10 4-9 7-9 4-9 7-7 3-9 6-9 4-2 2-7 3-5 3-6 3-8 5-8 4-10 7-6 3-5 3-9 5-5 3-9 6-7 3-13 8-6 4-4 1-5-4-7-3-7-5v-2l-7-2-5-4-7-5-9-4-6-4-27-15-10-7-8-4-11-7-10-5-9-6-11-6-4-3-6-3-18-10-10-5-2-3 1-4 22-14 8-5 9-5 9-6 16-9 13-8 6-3 8-5 8-4 5-3 6-3 5-3 9-5 11-7 9-5 10-7 6-3 4-3 5-2 4-3z" fill="#F9F9F9"/>
<path transform="translate(583,521)" d="m0 0h8l3 3 9 3 10 6 9 5 13 8 6 4 6 3 11 6 8 6 7 3 3 3 16 8 9 6 7 3 10 7 6 3 3 3 6 3 13 8 7 4 7 3 8 5-5 7-8 3-3 3-8 4-9 6-6 3-10 7-6 3-10 6-9 5-8 5-9 5-11 7-6 3-4 3-5 3-8 5-8 6-7 3-10 7-8 4-10 7-6 3-4 3h-6l-11-7-11-8-6-3v-2l-6-2-6-4-7-3-9-6-7-3-10-6-9-5-13-8-6-4-7-3-5-3-6-4-5-2-3-3-7-3v-2l-7-2-5-4-11-6-2-1v-2l-5-2-10-7-1-6 4-3 14-7 6-4h2v-2l14-8 3-3 7-3 4-3 6-3 11-7 9-5 7-5 6-3 5-3 6-4 6-3 4-3 12-6 3-3 14-7 4-3 5-2 3-3 7-3 4-3z" fill="#F9F9F9"/>
<path transform="translate(645,977)" d="m0 0h6l5 4 9 6 10 7 24 16 7 4v2l6 2 8 6 6 7 2 3 2 23v20l-5 6-6 4-10 7-8 4-8 6-8 4-9 6-6 3-5 3-8 5-11 6-3 3-9 4-8 6-7 2-4 4-6 3-8 5-14 9-4 1-8-4-5-4-9-6-10-7-18-12-6-3-11-7-8-5-6-3-4-3-11-6-3-3-9-3-11-7-6-3-8-5-9-5-20-12-6-3-7-6-1-6 4-3 7-4 7-3 27-15 10-6 14-8 6-4 10-5 6-4 8-4 9-5 10-5 7-3 9 2 5 3 7 3v2l9 3 5 3 10 5 6 2h6l11-4 9-4 5-4 8-4 13-8 3-3 5-3z" fill="#F9F9F9"/>
<path transform="translate(1435,979)" d="m0 0 7 1 14 8 9 7 11 7 16 8 7-2 12-4 11-7 5-3 9-5 6-3h8l6 3 9 4 11 6 5 3 11 7 10 5v2l9 3 9 6 8 5 8 4 5 3 8 5 14 7 5 3 5 2 1 1v6l-4 3-12 6-6 4-11 6-5 4-6 4-8 3-9 6-10 5-5 3-11 6-4 3-6 3-11 7-5 3-9 5-5 3-11 7-5 3-11 7-10 6-10 5-8 5-9-5-9-6-14-9-4-3-6-3-11-7-5-3-9-4v-2l-6-2-5-4-6-3-9-5-8-5-10-6-9-6-6-3-8-6-4-5-1-3-1-20 1-24 1-2h2l2-4 8-6 12-8 10-7 8-5 6-3 8-6 8-4 11-7z" fill="#F9F9F9"/>
<path transform="translate(776,651)" d="m0 0 7 1 1 6v15l-1 21v68l-3 8-4 3-17 1h-10l-8 1-6 5-4 8-1 10-1 87-1 15-5 6-7 3-9 7-7 2-3 3-8 2-1 3-8 4-9 5-10 7-12 6-4 3-7 3-11 8-3 1-5 5-13 9-5-2-3-5v-214l9-7 6-3 3-2 7-2 4-3 6-3 4-3 5-3 11-7 11-6 12-7 8-5 9-5 5-3 13-8 10-6 14-7 4-3 6-3 11-8 5-4 6-3z" fill="#F9F9F9"/>
<path transform="translate(1298,647)" d="m0 0 6 1 5 4 4 2 3 3 5 3 9 6 7 3 8 5 10 6 9 5 5 3 11 7 9 6 15 9 10 5 5 3 16 10 14 7 5 3 5 2 5 3 8 5 6 3 3 4v115l-1 104-1 2-5-1-6-4v-2l-5-2-8-7-9-5-10-6-8-4-9-5-10-5-5-3-9-5-3-2v-2l-5-2-10-7-8-4-12-10-3-6-2-79v-23l-8-11-6-5-3-1h-22l-13-1-3-3-1-3v-73l-1-46z" fill="#F9F9F9"/>
<path transform="translate(924,1276)" d="m0 0h230l22 11 10 7 16 8 9 6 2 2 8 3 2 4-1 4-15 7-11 7-9 5-9 6-8 4-11 7-8 4-10 6-6 3-9 5-5 3-5 1-2 4-12 6-5 4-6 3-18 10-10 5-9 6-8 4-4 3h-7l-6-5-5-3-8-5-17-10-9-5-15-9-7-4-15-9-6-3v-2l-9-3-10-7-14-7-3-3-9-4-8-6-7-3-10-7-12-7-4-2-1-6 11-8 4-1 2-4 14-7 5-3 9-5 13-7z" fill="#F9F9F9"/>
<path transform="translate(1035,857)" d="m0 0h12l5 8 5 16 4 16 4 14 4 13 3 15 2 6 2 11 3 8 3 12 3 9 2 8 2 5 4 16 4 18 3 12 1 12 3 3 4-1 3-11 3-6 3-8 2-3 2-7 3-6 3-9 3-7 4-10 6-16 3-9 3-5 4-2 7 1 4 4 4 8 3 9 3 6 5 13 2 7 3 7 6 16 4 6 20 1 74 1 3 2 2 7v9l-2 6-1 1-7 1h-102l-5-5-4-9-3-5-3-10-3-8-2-11h-5l-2 4-2 9-3 6-7 21-3 6-3 8-3 9-4 7-3 9-5 10-5 9-8 7-4 2-6-8-6-12-2-9-3-8-2-9-3-8-4-13-4-14-5-18-2-5-3-14-2-5-3-13-3-12-7-26-3-11h-4l-2 13-3 12-2 10-2 6-3 17-3 12-4 18-3 16-3 12-2 12-3 11-3 15-2 5-3 17-3 11-2 13-2 6-2 13-3 10-2 11-7 10-5 1-7-5-5-9-2-12-3-6-2-13-3-6-3-14-3-10-3-12-4-17-2-5-3-13-2-5-3-12-3-10-3-14-2-8-2-14-6 2-4 11-3 5-2 5-4 9-12 21-3 5-2 1-14 1h-55l-28-1-2-4 1-3 1-16 5-3h77l7-8 5-11 5-12 3-8 3-9 4-7 6-16 7-16 5-6h8l9 3 2 7 2 8 3 13 4 13 2 13 3 7 2 13 3 9 6 24 2 9 6 21 5 18 3 10 3-1 5-23 2-15 3-8 2-18 2-5 3-20 3-8 2-13 3-12 3-16 2-7 3-18 2-6 3-19 2-5 2-13 3-7 3-17 4-16 3-5z" fill="#3E3F3D"/>
<path transform="translate(726,1108)" d="m0 0 4 2v33l-2 67-1 21v19l4 13 5 4 3 3 8 5 4 1 27 1 6 4 1 1-1 13-5 7-11 8-11 7-6 3-9 6-16 8-3 3-12 6-4 4-7 3-4 3-12 6-5 4-12 7-9 5-5 3-5 2-17 10-5 4-12 7-8 4h-7l-1-2-1-15v-86l1-54v-27l1-26 5-9 8-6 15-10 6-3 5-3 17-10 5-4 7-3 9-6 9-5 9-6 12-7 5-4 6-4 8-6z" fill="#F9F9F9"/>
<path transform="translate(1354,1115)" d="m0 0 10 5 3 3 7 3 10 7 14 7 6 4 22 12 10 6 9 5 16 10 9 6 5 4 5 7 1 5v28l1 174-4 4-9-2-11-7v-2l-6-1-6-5-10-5-4-4-7-3-10-7-10-5-15-9-8-5-9-5-10-7-8-4-9-6-11-6-8-5-7-4-7-3-10-5-3-8-1-7v-8l3-4h14l17-1 8-3 6-5 3-5 3-9-1-110-1-13v-14z" fill="#F9F9F9"/>
<path transform="translate(726,929)" d="m0 0 5 1-1 30v35l-2 3h-7l-4-4-7-3-7-5-1-2-7-3-3-3-5-3-13-8-2-3 3-6 9-4 5-3 7-3 6-3h2v-2l11-7 4-2 3-3z" fill="#F9F9F9"/>
<path transform="translate(1355,932)" d="m0 0 5 2 9 5 8 4 5 3 6 4 7 3 11 6 4 5-5 5-4 3-7 3-4 3-5 3-8 6-16 8h-6l-2-3-1-41v-15l1-3z" fill="#F9F9F9"/>
</svg>
