<?xml version="1.0" encoding="UTF-8"?>
<svg version="1.1" viewBox="0 0 2048 2048" width="2048" height="2048" xmlns="http://www.w3.org/2000/svg">
<path transform="translate(0)" d="m0 0h2048v2048h-2048z" fill="#FCFCFA"/>
<path transform="translate(1056,250)" d="m0 0h25l18 4 29 10 14 7 21 12 9 7 11 8 14 12 11 11 5 4v2h2l7 8 12 13 9 12 13 19 16 28 8 17 4 8 7 20 5 17 6 27 3 25 2 34 14 9 16 12 11 10 14 14 8 10 4 4 14 21 11 18 8 16 5 11 10 31 4 19 2 17 1 18 19 10 15 9 11 7 19 14 12 11 5 4 3 4v2l3 1 14 18 10 14 10 15 6 11 9 17 10 27 5 20 3 10 3 20 1 20-2 26-6 26-5 14-8 16-7 9-10 11-16 10-11 7-16 8-8 5-22 12-31 19-10 6-22 13-12 7-11 6-17 10-16 6-11 3h-29l-17-3-17-5-17-7-16-8 1 4v60l-3 8h-8l-5-4-1-2-1-9v-60l-1-7-16-9-17-10-14-9-11-6-15-9-17-9-10-5v128l-3 7-3 4-35 14-13 5-16 5-8 3-10 2v118l5-5 11-15 7-7 4-1 8 5-1 5-6 10-14 19-12 18-8 4-7-1-5-4-6-11-8-14-9-15-3-6-6-11 1-5 5-5 5 1 5 5 9 14 7 13v-117l3-5 6-4 24-8 15-6 23-8 14-6 2-2v-66l2-53v-15l-7-5-9-5-14-8-12-7-48-24-7-5-14-7-13-8-8-3v87l1 37v45l-1 30-4 6-15 9-23 12-21 13-1 1-1 60v85l6 2 11 6 15 9 14 8 12 7 11 6 10 6 9 5 13 8 11 7 26 15 19 11 9 5 16 10 1 33v38l-1 10-4 4-13 8v3l10 5 5 4 2 9v72l-4 4-9 5-5 4 11 6 7 6 1 11v67l-2 5-15 10-22 12-24 14-18 10-14 9-14 7-13 8-17 9-10 6-14 8-20 12-8 4-8-1-17-9-13-8-11-6-39-22-14-8-24-14-18-11-10-6-23-13-10-6-9-6-3-3v-80l9-6 9-4-1-3-15-9-2-2v-80l5-5 11-6h2l-2-3-9-5-7-4-2-5v-74l2-6 17-10 16-9 14-8 9-5 13-8 14-8 12-7 13-8 24-13 14-8 22-12 14-8 6-4 1-43 1-103 3-6 11-7 15-8 11-6 17-9 4-3h2l1-8 4-71v-21l-2-33-1-71-9-6-18-10-18-11-4-1 1 21 1 54v95l-1 32-4 6-5 2-6-3-2-6v-137l1-50v-22l-5-5-16-8-19-11-11-6-7-4v72l-3 6-7 1-5-5-2-9v-73l-5-5-21-12-11-6-21-12-10-6-2-1 2 16 2 29v62l-1 16 7 9 2 4h2l5 5 15 14 7 7 8 7 12 11 11 9v2l4 2 8 9 2 8 1 31v207l-1 3h3l2-4 9-11 4-5 5-4 5 2 6 7-11 18-13 17-7 8-6 4h-8l-5-3-6-9-17-33-5-9-7-13v-6l5-4h6l7 6 9 16 5 10 2 1v-182l-1-48-8-7v-2l-4-2-8-8-8-7-3-2v-2l-4-2-16-15-3-2v-2h-2v-2h-2l-5-5-12-13-6-8v-135l-4-5-22-13-11-6-17-9-22-12-17-10-10-6 1 4v67l-1 7-6 4-4-1-3-3-3-7-2-16v-16l1-16v-33l-19-10-12-7-9-5-19-12-12-8-14-7-55-30-18-13-11-9-10-9-7-8-1-3h-2l-9-11-10-13-8-12-11-18-11-23-5-10-8-24-6-26-2-14v-33l2-15 4-15 6-16 9-14 11-13 7-6 15-10 13-8 10-6 11-6 21-12 48-28 9-5 17-10 25-15 17-7 15-4 14-2h17l18 3 16-8 4-3 10-5 15-9 11-6 21-12 34-20 14-8 16-6 12-3 13-2h23l20 3 19 5 24 11 25 15 9 6 4 1 18-10 13-8 14-8 18-10 11-5 16-6 7-2z" fill="#757675"/>
<path transform="translate(897,357)" d="m0 0h25l15 3 18 6 25 12 14 8 16 11 13 11 8 7 15 15 7 8 14 18 7 10 9 14 9 16 9 19 5 10 6 15 8 25 5 22 3 20 1 17 1 35 24 14 13 9 3 2v2l5 2 5 4v2l4 2 9 10 12 16 10 16 8 14 9 17 8 20 4 14 6 35 4 31 1 3 5 2 15 7 19 9 18 11 13 11 4 3v2l4 2 7 7 7 8 14 18 10 16 12 22 7 16 5 12 4 11 6 25 3 25v25l-3 24-6 20-6 12-8 12h-2v2h-2v2l-14 10-15 6-8 2-19 1-17-2-13-3-15-6-19-9-16-9-17-9-14-8-15-9-17-10-16-10-24-14-18-10-17-9-23-13-5-4v-2l10-5 11-7 21-13 33-18 12-8 20-13 15-10 12-6 11-7 12-8 2-2 1-4v-69l-2-28-2-4-19-12-14-9-1-1-1-22-9-7-28-16-22-13-18-10-18-11-11-6 1-3 8-5 3-6 1-8v-113l-2-19-1-3-12-7-23-13-15-9-24-14-23-13-17-10-7-3-7 1-19 10-35 20h-5l-9-7-13-7-24-14-32-18-14-7-9 2-21 12-9 5-7 4-5-1-22-14-18-11-2-1h-7l-18 10-14 8-11 6-17 9-6 4-1 2-1 15-9 7-13 8-25 14-13 8-25 15-2 4-1 87v61l-1 13-4 1-34-17-23-13-20-11-14-10-13-11-5-5-11-12-10-13-13-20-5-9-8-14-8-16-8-21-6-21-3-16-1-14v-18l2-15 4-15 6-16 6-10 10-11 5-4 16-8 13-4 6-1h22l20 4 16 6 14 7 19 13 16 13 14 11 5 5h8l4-2-1-37 2-24 7-25 10-19 9-11 6-7 10-8 12-6 12-4 13-2h15l18 3 18 5 25 12 12 8 17 12 11 10 5 5 8 9 3 4v2h2v2l4 2 4 3 8-1 4-9 5-16 6-15 7-11 12-15 14-10 14-7 11-3z" fill="#FCFCFA"/>
<path transform="translate(1296,570)" d="m0 0 6 2 16 11 10 8 22 22 11 14 12 16 10 16 11 23 8 21 5 20 3 24v20l-17 10-28 16-15 9-18 11-16 10-21 12-13 8-12 7-3-1-3-31-5-23-7-20-12-26-8-15-12-19-10-13-6-9-8-7-10-11-13-10-13-9-3-1-1-3 5-4 13-8 14-7 15-9 17-10 50-28 15-9 7-5z" fill="#FCFCFA"/>
<path transform="translate(899,1430)" d="m0 0h1l1 79-2 2-6-10-8-16-7-10-3-2-5 1-4 4 1 6 9 16 7 12 11 23 8 13 3 2h9l7-6 11-14 10-13 8-12 1-5-5-5h-6l-7 7-9 12-4 6h-2l-1-5v-80l6 1 16 9 35 21 11 6 14 8 15 9 9 6 9 5 17 10 21 12 16 9 1 4-8 5-14 7-17 10-14 8-11 7-16 8-14 9-11 6-13 8-9 5-16 10-17 10-15 9-3 2h-6l-9-6-15-9-24-14-22-13-11-6-13-8-27-15-13-8-19-10-21-12-5-3v-4l9-6 11-6 11-7 14-7 7-5 14-7 16-10 21-12 10-6 11-6 28-16 12-7z" fill="#FCFCFA"/>
<path transform="translate(1055,268)" d="m0 0h15l17 2 19 5 16 6 17 8 16 10 15 11 16 13 14 14 9 10 9 11 12 15 8 12-1 3-8 6-29 16-21 12-22 13-18 11-20 12-12 8-7 4-4-1-14-20-12-16-10-11-7-8-18-18-14-11-13-10-17-10-17-9-20-8-20-6-18-2v-3l23-12 17-10 12-7 11-6 14-8 15-9 24-12 9-3z" fill="#FCFCFA"/>
<path transform="translate(1419,782)" d="m0 0 6 1 18 8 15 9 22 16v2l4 2 10 9 7 8 10 12 13 18 12 20 3 6-1 4-14 8-14 7-17 10-28 17-10 6-28 16-9 6-16 10-5 2-4-4-7-14-9-14-5-7v-2h-2l-6-8-10-11-7-8-9-9-10-8-12-9-15-10-9-5-10-5v-3l18-10 10-7 9-5 15-9 14-8 13-8 15-9 25-14 15-9z" fill="#FCFCFA"/>
<path transform="translate(1245,403)" d="m0 0h5l6 10 8 17 7 15 6 18 7 29 4 29v33l-6 5-26 15-23 13-28 16-24 14-14 8-11 7-7 3h-4l-1-23-3-23-3-16-7-27-6-18-11-26-7-12 1-4 14-9 13-8 9-5 16-10 25-15 22-13 18-11 9-6z" fill="#FCFCFA"/>
<path transform="translate(1546,911)" d="m0 0h4l4 10 10 33 4 23 1 10v20l-3 21-3 13-9 21-9 14-12 13-17 11-22 12-13 8-11 6-28 16-17 10-11 7-1-3 4-10 5-21 2-15v-36l-3-21-6-25-9-27-1-6 27-16 13-8 9-5 14-9 20-12 16-9 16-10 12-6 10-7z" fill="#FCFCFA"/>
<path transform="translate(744,725)" d="m0 0 6 1 14 8 10 6 14 8 12 7 14 7 24 14 13 7 15 9 17 10 6 5 1 2 1 28-3 104-1 25-9-3-32-20-11-6-28-16-18-10-24-14-16-10-5-4z" fill="#FCFCFA"/>
<path transform="translate(907,817)" d="m0 0 16 8 26 14 10 6 18 10 17 10 11 6 16 9 10 6 19 10 1 2v18l-1 57-1 84-5-1-10-7-8-4-15-9-23-13-18-10-17-10-10-6-16-8-19-12-3-3v-71l1-27v-58z" fill="#FCFCFA"/>
<path transform="translate(586,634)" d="m0 0 5 2 24 13 24 14 25 14 17 10 14 7 20 12 12 8 2 2-1 156-4 1-11-6-43-25-33-18-10-6-22-13-11-6-10-7v-38l1-91v-28z" fill="#FCFCFA"/>
<path transform="translate(630,963)" d="m0 0h7l16 9 35 19 12 8 5 6 1 12-1 67-3 5-7 6-10 6-10 5-7 4-10 7-6 3-9 6-7 3-9-1-24-14-15-9-16-10-10-7-2-9v-75l5-6 15-9 17-10 28-14z" fill="#757675"/>
<path transform="translate(730,1138)" d="m0 0 5 1 16 8 21 12 20 11 9 7 2 5v72l-3 10-14 9-16 9-11 7-9 5-15 9-6 1-14-7-11-7-11-6-13-8-11-6-9-7-2-2-1-5v-79l7-6 19-10 16-8 23-12z" fill="#757675"/>
<path transform="translate(1240,1299)" d="m0 0 9 1 13 8 15 9 34 20 4 5v79l-6 7-14 8-17 10-24 14-10 5-8-1-11-6-19-12-16-10-17-11-3-5-1-24v-55l5-6 20-12 12-6 22-12z" fill="#757675"/>
<path transform="translate(815,279)" d="m0 0h31l16 3 15 4 17 7 14 7 15 9 3 2-1 3-7 3-15 9-42 22-14 10-8 8h-2l-2 4-9 12-8 13-7 15-4 8-3-3-7-9-8-8-11-8-10-7-14-9-22-11-16-6-19-5-13-1-3-1 5-4 11-7 9-5 17-10 11-6 22-13 15-9 16-8 11-5 12-3z" fill="#FCFCFA"/>
<path transform="translate(1090,620)" d="m0 0h3l1 87v33l-4 4-21 11-22 13-44 26-11 6h-4l-1-61v-56l1-3 13-8 14-8 24-14 4-3 7-3 9-6 14-7 16-10z" fill="#FCFCFA"/>
<path transform="translate(1091,1540)" d="m0 0 2 1 1 66-4 4-11 7-9 5-7 4-12 7-11 6-18 10-11 7-9 5-18 11-25 15-13 8-11 6-17 10-4 3-4-1v-66l5-5 11-7 11-6 9-6 11-6 13-8 15-9 11-6 13-8 17-10 12-7 11-6 21-12 11-6z" fill="#FCFCFA"/>
<path transform="translate(868,621)" d="m0 0 8 3 17 10 19 10 11 7 14 8 11 6 16 10 9 6 1 106v13l-5-1-21-12-11-7-16-8-28-16-11-7-11-6-3-2-1-118z" fill="#FCFCFA"/>
<path transform="translate(1090,1750)" d="m0 0 3 1 1 62-2 7-8 6-12 6-11 7-11 6-10 6-14 7-10 7-49 28-16 9-13 8-17 10-10 6-1-1v-63l1-7 19-10 12-8 11-6 23-13 13-8 9-5 15-9 17-10 11-6 20-12 12-8 12-6z" fill="#FCFCFA"/>
<path transform="translate(979,547)" d="m0 0 5 1 11 6 18 11 17 10 21 12 11 7 9 5 11 7v4l-20 11-15 9-23 13-17 10-23 13-5 2-11-6-20-12-26-16-8-5-11-6-16-9-8-6 1-5 6-2 29-17 24-14 32-18z" fill="#FCFCFA"/>
<path transform="translate(719,1644)" d="m0 0 11 7 11 6 13 8 26 15 11 7 14 7 19 11 21 12 27 16 13 8 14 7 3 2 1 8v60l-3 1-10-5-14-9-14-8-22-13-9-6-11-6-9-5-19-11-14-8-24-14-14-8-12-7-7-4-3-3v-67z" fill="#FCFCFA"/>
<path transform="translate(719,1540)" d="m0 0 11 6 14 8 12 7 11 6 28 16 11 7 10 5 15 9 13 8 21 12 11 7 22 12 4 4 1 7v60h-3l-9-6-25-14-15-9-19-11-10-6-13-8-11-6-8-4-14-8-25-14-14-8-17-10-3-4 1-65z" fill="#FCFCFA"/>
<path transform="translate(1089,1645)" d="m0 0 2 1 1 6 1 61-11 8-11 6-9 5-24 14-11 6-17 10-24 14-25 15-27 16-17 10-6 3-1-1v-68l5-4 8-4 35-20 22-13 10-6 26-15 17-10 10-6 22-13 13-8z" fill="#FCFCFA"/>
<path transform="translate(719,1750)" d="m0 0 11 7 11 6 25 14 11 7 9 5 20 12 9 5 14 8 23 13 14 8 12 7 9 5 14 8 2 6v63l-2 1-14-9-10-6-11-6-10-6-22-12-11-7-9-5-15-9-16-9-13-8-11-6-27-15-4-3-9-4-1-2v-67z" fill="#FCFCFA"/>
<path transform="translate(1073,768)" d="m0 0 7 1 35 20 23 13 18 11 12 7 5 5-3 2-5-1-12-6-6 2-23 13-11 6-19 11-16 9-14 8-3 1-3 11-4 1-11-7-13-7-14-8-22-13-35-20-19-11-16-9-8-5v-3l11-5h6l15 9 11 6 18 10 6 1 14-7 7-5 11-6 21-12 7-5 11-6 16-9z" fill="#FCFCFA"/>
<path transform="translate(822,526)" d="m0 0 5 1 18 10 21 12 17 10 13 8 7 4v4l-17 9-15 9-13 8-3 2-1 13-8 6-7 4h-2v2l-12 7-5-1-7-5-9-5-16-9-21-12-23-14-7-5-6-3 1-3 12-7 11-7 16-10 31-17 11-6z" fill="#FCFCFA"/>
<path transform="translate(1072,1734)" d="m0 0 5 1 10 6 2 3-5 4-11 6-17 9-16 9-14 8-7 5-11 6-26 15-10 6-13 8-21 12-30 18-5-1-10-7-13-7-24-14-16-9-14-8-19-11-17-10-16-9-29-17-17-9-5-5 9-6 4-2 7 1 15 9 16 9 24 14 11 6 17 10 22 13 13 8 14 7 13 8 16 8h6l20-11 13-8 25-14 23-14 24-14 16-9 20-12 11-6z" fill="#FCFCFA"/>
<path transform="translate(621,357)" d="m0 0h12l-5 4-11 7-12 11-11 12-9 14-5 10-7 27-2 17v23h-4l-13-11-16-11-15-9-18-8-13-4-11-2-13-1 5-5 27-16 13-8 11-6 17-10 11-7 11-6 18-10 11-5 9-3 8-2z" fill="#FCFCFA"/>
<path transform="translate(735,1629)" d="m0 0 7 1 30 18 9 5 7 4 10 6 11 6 24 14 11 6 21 12 10 6 11 7 14 7 5 3 5-1 14-7 22-13 11-6 14-8 16-10 40-24 34-20 7-4 5-2 10 5 4 3-2 4-14 8-23 13-24 14-16 10-11 6-13 8-11 6-17 10-15 9-11 6-17 10-5 3-4-1-25-15-14-7-17-10-22-13-12-7-11-6-13-8-11-6-16-9-20-12-11-6-8-5 1-4 7-5z" fill="#FCFCFA"/>
<path transform="translate(1152,835)" d="m0 0h5l14 8 8 5 11 6 13 8 11 6 5 3-1 4-16 9-21 12-17 10-12 7-5 2-6-1-14-8-12-6-20-12-14-8 2-4 14-9 19-11 8-5 10-5 15-9z" fill="#FCFCFA"/>
<path transform="translate(1223,887)" d="m0 0 3 1v74l-4 5-26 15-22 13-17 10h-3l-1-22v-53l5-5 14-8 10-6 11-6 19-11z" fill="#FCFCFA"/>
<path transform="translate(723,594)" d="m0 0 5 2 17 11 20 11 11 7 11 6 17 10 11 6 1 1 1 16 1 41-4 1-18-11-10-5-10-6-26-15-23-15-5-3v-56z" fill="#FCFCFA"/>
<path transform="translate(1070,893)" d="m0 0 5 1 11 6 13 7 10 6 16 9 13 7 1 15v64l-5-2-16-9-21-12-22-13-4-2-1-18z" fill="#FCFCFA"/>
<path transform="translate(655,581)" d="m0 0 2 1 1 30 2 10 16 10 24 13 7 5 2 11h2v2l5 2 22 13 11 7 5 3-1 3-14 7h-6l-26-15-9-6-22-12-14-8-10-6-20-11-24-14-10-6-2-3 8-5 20-12 13-8z" fill="#FCFCFA"/>
<path transform="translate(771,698)" d="m0 0 8 3 11 7 19 11 12 7h7l19-12 3-1v-2h4l1 36 1 3 5 2 7 5 9 5 21 12 12 7v4l-12 6-4-1-16-9-13-8-14-8-9-5-11-7-9-5-27-16-16-9-17-10-6-5 1-3z" fill="#FCFCFA"/>
<path transform="translate(1296,1359)" d="m0 0h3v57l-9 6-27 15-12 8-3-2v-58l19-10 16-9z" fill="#FCFCFA"/>
<path transform="translate(686,1022)" d="m0 0h3l1 23v32l-5 5-10 6-19 10-14 9h-2l-1-59 8-4 16-9 14-7z" fill="#FCFCFA"/>
<path transform="translate(784,1197)" d="m0 0h3l1 46-1 12-7 5-14 7-13 8-11 6-4 2-1-5v-53l9-6 10-6 11-6z" fill="#FCFCFA"/>
<path transform="translate(630,979)" d="m0 0 7 1 14 8 15 9 11 6 3 2-1 4-10 6-16 9-15 9-6 2-9-4-24-14-11-7-3-3 2-4 14-8 17-9z" fill="#FCFCFA"/>
<path transform="translate(1184,1356)" d="m0 0 4 1 10 7 14 8 20 12 1 7v52l-3 1-15-10-21-13-2-3-6-2-2-37z" fill="#FCFCFA"/>
<path transform="translate(672,1197)" d="m0 0 6 1 16 10 10 6 11 6 7 4v57l-3 1-9-6-9-5-14-8-7-3-1-4h-5l-1-1v-39z" fill="#FCFCFA"/>
<path transform="translate(728,1155)" d="m0 0 7 1 16 8 16 9 10 6 1 4-8 5-14 7-11 7-12 7-7-1-13-8-29-17v-3l17-10 14-8 11-6z" fill="#FCFCFA"/>
<path transform="translate(576,1021)" d="m0 0 4 2 21 12 12 7 9 5 1 1 1 16 1 42-5-1-13-8-24-13-6-6-1-8z" fill="#FCFCFA"/>
<path transform="translate(1241,1317)" d="m0 0 7 1 24 14 15 10 1 3-14 8-7 2v2l-14 8-10 6-5-1-20-11-9-6-13-8-1-3 11-7 11-6 21-11z" fill="#FCFCFA"/>
<path transform="translate(1010,1597)" d="m0 0 7 1 9 5 4 5 1 3 1 22-3 6-5 4-20 12-4 2h-8l-12-6-3-4v-22l1-8 9-7 15-9z" fill="#757675"/>
<path transform="translate(1010,1808)" d="m0 0h7l12 8 2 4 1 23-2 6-11 8-12 7-7 3-10-1-12-6v-32l5-5 12-7 14-7z" fill="#757675"/>
<path transform="translate(1009,1704)" d="m0 0h9l9 6 3 4 1 7v18l-2 5-4 4-9 5-17 10-8-1-12-6-2-3v-26l2-5 9-7 10-6z" fill="#757675"/>
<path transform="translate(1068,984)" d="m0 0 11 6 24 14 14 8 11 6-1 4-9 6-14 8-16 9-18 11-3-1v-70z" fill="#FCFCFA"/>
<path transform="translate(724,523)" d="m0 0h7l14 8 18 10-1 3-20 11-24 16-7-3-20-12-10-7v-2l16-8 19-11z" fill="#FCFCFA"/>
<path transform="translate(672,564)" d="m0 0 5 1 9 6 11 6 9 6 2 3v42l-1 4-5-1-16-10-12-7-2-2z" fill="#FCFCFA"/>
<path transform="translate(850,634)" d="m0 0h4v58l-4 4-11 6-4 3h-3v-58l9-7z" fill="#FCFCFA"/>
<path transform="translate(1023,1826)" d="m0 0 2 1v15l-5 5-16 10-4-1v-14l5-5z" fill="#FCFCFA"/>
<path transform="translate(1022,1616)" d="m0 0h2v17l-8 6-13 8h-3v-10l1-7 8-6z" fill="#FCFCFA"/>
<path transform="translate(1020,1723)" d="m0 0h4v15l-4 4-12 8-4 2h-3l-1-3v-11l4-5z" fill="#FCFCFA"/>
<path transform="translate(1011,1816)" d="m0 0h6l2 4-11 8-8 5-5-1-3-1-1-3 11-8z" fill="#FCFCFA"/>
<path transform="translate(1011,1711)" d="m0 0h6l2 4-11 8-9 5-4 1-4-4 1-3 11-7z" fill="#FCFCFA"/>
<path transform="translate(1011,1605)" d="m0 0h5l2 3-5 5-11 7-4 2h-5l-2-4 4-4z" fill="#FCFCFA"/>
<path transform="translate(984,1837)" d="m0 0 4 1 5 4v15l-7-1-2-2z" fill="#FCFCFA"/>
<path transform="translate(984,1627)" d="m0 0 6 2 3 3v15h-5l-4-4z" fill="#FCFCFA"/>
<path transform="translate(985,1732)" d="m0 0 8 5v15l-8-1-1-1v-17z" fill="#FCFCFA"/>
</svg>
