<?xml version="1.0" encoding="UTF-8"?>
<svg version="1.1" viewBox="0 0 2048 2048" width="2048" height="2048" xmlns="http://www.w3.org/2000/svg">
<path transform="translate(0)" d="m0 0h2048v2048h-2048z" fill="#F9F9F9"/>
<path transform="translate(562,251)" d="m0 0 5 1 16 9 17 9 10 6 17 10 15 9 29 17 20 12 30 15 21 7 18 5 16 5 30 8 18 5 42 6 16 3h7l16-8 9-6 12-6 38-22 35-20 5-2h8l18 11 15 9 21 13 11 6 11 7 17 10 9 6 11 6 17 10 14 9 6 9 2 13 1 26v36l7-3 10-6 8 1 11 8 11 11 4 3v2l4 2 9 9 8 7 9 9 2 1v2l4 2 8 8 11 9 14 13 2 1v2l4 2 15 14 16 14 29 19 13 8 18 12 14 10 18 12 21 11 16 10 18 11 44 26 9 6 11 6 19 12 12 7 12 8 2 2 1 10 2 69v96l-7 8-14 8v3l14 9 5 5 1 5v153l-1 15-7 8-12 7-7 4h-3l2 4 18 13 8 9 1 2v15l-5 40-3 17-5 40-3 16-5 30-2 14-5 5-11 7-18 10-12 6 1 5 10 16 5 9 1 8-4 16-7 16-11 25-8 15-8 16-11 19-6 12-8 11-13 8-11 6-15 8v11l-4 8-22 22-11 10-8 7-8 8-8 7-9 9-13 9-15 9-23 14-15 9-29 17-12 7-21 10-18 12-15 8-12 5-9 6-15 6-31 6-39 9-33 8-11 3-5-1-5-6-3-8-5 2-20 12-18 10-7 1-8-3-14-8-16-10-12-6-21-13-44-26-13-8-21-11-5-5-2-7v-88l-9 6-16 8-21 12-9 1-5-2-7-7-13-18-9-12-13-17-10-14-7-9-11-14v-2h-2l-9-12-13-18-13-19v-7l18-35 9-14 4-7 10-15-5 2-16 10-11 6-8 4-15 10-10 5-5-1-5-5-7-11-10-17-8-16-21-41-9-16-7-14-10-18-8-17-5-10-2-7v-7l5-6 18-12 11-8 11-7 14-10 10-6 1-2-11-1-35-3-35-4-11-1-8-4-7-8-5-11-16-48-7-23-7-19-10-33-8-24-4-14v-9l5-5 10-8 26-15 14-9 2-2-15-10-15-9-9-6-14-7-16-10-5-5-3-4-4-28-11-92-4-37-1-22 2-6 9-7 8-5h2l-1-3-11-6-8-6-2-2-1-7 1-75v-94l5-5 10-6 6-2-1-3-11-6-7-8-1-79v-70l1-25 5-6 17-10 16-9 15-9 11-6 10-6 9-5 20-12 9-5 35-20 5-3z" fill="#777776"/>
<path transform="translate(915,626)" d="m0 0h5l26 16 24 14 13 8 12 7 13 5-4 17v9l56 56 2 1v2l4 2 12 12 8 7 15 15 2 1v2l4 2 12 12 2 1v2h2v2l4 2 14 11 21 14v2l5 2 9 7 12 8v2l5 2 14 10 15 11 16 11 14 10 10 7 3 12 8 8 12 8 1 3-13 7-6 5-2 3v171l2 6 15 10 9 5 5 4v2l-15 8-3 3-3 16-5 37-4 34-5 35-5 32-2 15 1 7 5 6 4 4v2l-8 7-6 12-8 17-8 16-14 27-13 23-17 32-6 7h-2l-2 4-5 5-16 8-19 8-4 2-5-1-16-10-15-9-17-10-11-7-7-4-20-12-21-12-12-7-16-8-9-5h-6l-10 5-8 5-4-1-9-12-13-16-10-13-7-10-12-16-13-18-11-16-1-3 5 1 12 8 7 5 11 6 13 8 45 25 12 7 11 6 12 7 16 8 11 5 10 2 9-4 16-8 17-10 14-8 11-7 24-14 15-9 11-7 4-5 1-51v-189l-1-24-2-22-4-8-10-7-14-8-11-7-17-10-5-4v-77l-2-31-3-15-6-16-8-16-9-17-9-14-10-14v-2h-2l-9-12-9-7-16-10-16-9-29-15-17-9-16-7-8-3-10 1-18 8-17 9-16 8-15 9-10 8-18 12-10 7-5 10-3 14-3 25-1 12-1 47-10 7-24 14-19 10-11 7-2 9-1 36v40l-2-3-5-14-3-10-22-66-5-5-5-3-9-2 1-4 14-8 11-7 4-3 1-6-1-50-2-27-1-21-1-43-1-24-2-8-5-2-14-8v-3l16-8 5-5 1-7 1-72 1-1h7l29 5 26 3 55 8 18 1 16-8 17-10 21-13z" fill="#F9F9F9"/>
<path transform="translate(760,990)" d="m0 0 6 2 21 12 10 6 14 7 10 6 26 14 35 20 12 7 11 6 17 10 13 8 18 10 11 7 9 5 9 6 11 6 21 12 18 11 4 4 1 3v101l1 23v41l-2 98h-4l-16-10-23-12-23-13-13-7-13-8-21-12-17-10-20-12-11-6-40-24-19-11-17-10-20-12-8-7-7-15-3-14-1-7z" fill="#F9F9F9"/>
<path transform="translate(1147,1094)" d="m0 0h4l1 7 1 34v38l-1 31v88l2 66-5 4-14 8-23 13-16 9-19 12-10 6-9 5-4 2v-25l1-42v-77l-1-31-1-89 2-6 22-13 23-13 18-11 11-6z" fill="#F9F9F9"/>
<path transform="translate(697,977)" d="m0 0 3 1 4 10 5 17 12 35 8 26 8 24 4 11 2 10v19l-2 23-8 5-21 12-17 10-8 4-24 14-15 9-7 3h-3l-12-36-7-19-13-38-12-39-10-30-1-5 9-6 25-14 15-9 24-14 16-9 16-8z" fill="#F9F9F9"/>
<path transform="translate(1181,495)" d="m0 0 7 1 12 12 8 7 17 16 14 12 26 24 12 12 8 7 8 8-1 3-43 25-25 14-24 14-25 14-9 4-7-5v-2h-2l-4-5-5-5-6-5v-2h-2v-2l-4-2-35-35-8-7-22-22-8-7-2-4 22-13 9-6 11-6 23-13 13-8 16-9 12-7 11-7z" fill="#F9F9F9"/>
<path transform="translate(1420,681)" d="m0 0 6 1 25 16 20 12 13 8 11 6 14 9 14 8 13 8 16 10v3l-16 9-24 14-11 6-15 8-13 8-9 6-11 6-11 7-16 10-3 2-5-1-19-11-13-8-11-7-24-14-17-10-15-9-21-13-6-4 1-4 15-8 16-10 11-6 15-9 13-8 11-6 26-16 16-10z" fill="#F9F9F9"/>
<path transform="translate(1e3 332)" d="m0 0 6 1 21 13 22 13 34 21 17 10 16 10 15 9-1 3-25 15-11 6-34 20-11 6-14 9-11 6-14 8-10 5-5-1-5-4-11-6-22-13-15-9-23-14-9-6-9-5-16-10-10-6-6-3 3-3 15-9 26-15 18-11 9-5 23-13 12-7 15-9z" fill="#F9F9F9"/>
<path transform="translate(699,772)" d="m0 0h3v32l1 30 3 32 2 50-2 5-9 6-14 8-11 6-14 8-80 48h-4l-4-55-3-41-1-25v-25l8-6 19-11 13-7 10-6 29-17 10-6 11-6 14-8 15-10z" fill="#F9F9F9"/>
<path transform="translate(560,270)" d="m0 0h5l24 14 20 11 16 9 15 9 8 5 20 12 18 11 5 3-1 3-9 5-16 9-11 7-11 6-70 42-11 6h-5l-22-12-16-9-10-6-16-9-13-8-17-10-15-9-18-10v-3l21-12 23-13 24-14 15-9 26-15z" fill="#F9F9F9"/>
<path transform="translate(848,1335)" d="m0 0 4 1 13 17 10 14 8 11 14 20 13 18 14 18 8 10 6 8 7 9-1 3-26 15-17 10-13 8-12 6-19 11-14 9-4 3-5-1-10-13-12-17-11-15-12-16-10-14-12-15-8-11-11-15-7-9 1-4 17-9 17-10 16-10 22-12 23-13z" fill="#F9F9F9"/>
<path transform="translate(419,567)" d="m0 0 5 2 31 19 14 8 23 13 21 12 17 10 15 10 7 4 1 43 1 24v82l-6-1-15-8-22-13-13-8-26-15-15-9-24-14-14-9z" fill="#F9F9F9"/>
<path transform="translate(1561,773)" d="m0 0 2 1-1 73v35l1 29v14l-14 9-20 11-24 14-21 12-11 6-22 13-15 10-5 1-1-1-1-59v-89l11-6 15-9 13-8 27-16 13-8 17-10 15-9 9-6z" fill="#F9F9F9"/>
<path transform="translate(420,362)" d="m0 0 5 2 34 20 16 9 11 6 18 10 24 14 14 8 9 6 1 1 1 13 1 69v70l-4-1-13-8-19-11-16-10-11-6-15-9-17-10-16-10-13-7-8-6-1-6-1-138-1-5z" fill="#F9F9F9"/>
<path transform="translate(865,426)" d="m0 0 5 2 16 8 17 10 19 11 20 12 24 14 16 10 14 8 1 1 1 40 1 83v27l-4 1-14-8-22-14-26-15-13-8-17-10-13-8-20-12-4-3-1-118-1-30z" fill="#F9F9F9"/>
<path transform="translate(985,1462)" d="m0 0 14 7 21 12 9 5 21 12 46 28 16 10-1 4-20 10-13 8-11 6-17 10-21 13-12 8-9 5-10 6-11 6-3 2-5-1-22-13-14-8-17-10-28-17-26-15-19-11 5-5 11-6 15-9 12-6 24-14 22-13 12-7 9-5 16-9z" fill="#F9F9F9"/>
<path transform="translate(843,1555)" d="m0 0 7 1 13 8 14 8 11 6 14 8 17 10 39 23 12 7 3 1 1 72v31l-1 50-2 1-12-7-18-11-26-16-20-12-17-10-15-9-11-6-10-6v-53l1-57z" fill="#F9F9F9"/>
<path transform="translate(1559,982)" d="m0 0h3l1 102 1 25v19l-4 5-16 9-12 8-31 17-15 9-22 13-18 10-13 8h-3v-148l7-5 11-6 11-7 11-6 11-7 11-6 13-8 26-15 20-12z" fill="#F9F9F9"/>
<path transform="translate(1282,981)" d="m0 0 4 2 11 6 16 10 31 19 21 12 15 9 22 13 11 7 1 1v113l-1 35-6-2-11-7-14-9-11-6-23-13-10-6-13-8-11-6-14-8-10-7-9-5v-38l1-15z" fill="#F9F9F9"/>
<path transform="translate(1283,777)" d="m0 0 6 2 25 14 13 8 17 10 13 8 14 8 15 9 17 10 8 6 1 1 1 94v55l-4-1-16-10-11-7-11-6-21-12-16-9-17-11-26-15-9-6-1-19v-98l1-30z" fill="#F9F9F9"/>
<path transform="translate(1292,1195)" d="m0 0 5 2 26 17 10 7 18 12 20 14 14 10 15 11 9 5 1 4-2 28-3 30-5 29-7 49-1 9-4 1-13-10-18-13-11-7v-2l-5-2-17-11-16-11-24-16-13-10 1-13 3-20 3-16 3-23 8-53z" fill="#F9F9F9"/>
<path transform="translate(421,774)" d="m0 0 14 8 16 10 11 6 23 13 24 14 18 11 18 10 5 4 3 73 2 38 3 39-4 1-10-7-21-13-48-28-26-15-9-7-1-1-5-36-9-81-3-29-2-9z" fill="#F9F9F9"/>
<path transform="translate(1558,1202)" d="m0 0h2l-2 16-1 16-9 66-4 24-4 20-5 5-14 9-25 14-19 11-15 9-16 9-21 13-10 6-4 3-3-1 5-38 10-63 3-26 1-17 10-7 11-6 11-7 11-6 12-7 11-6 21-12 24-14 19-10z" fill="#F9F9F9"/>
<path transform="translate(1266,1387)" d="m0 0 3 1 8 11 5 6 5 5 12 14 8 8 7 8 5 5v2h2l8 10 11 12 8 10 9 11 7 7-1 6-6 14-9 17-8 16-13 25-10 19-7 14-5-3-11-12-11-11-7-8-8-7-7-8-10-10v-2l-4-2-12-13-13-13v-2h-2l-14-16 1-5 10-15 6-12 9-16 7-12 8-16 12-25 6-12z" fill="#F9F9F9"/>
<path transform="translate(620,615)" d="m0 0 7 1 20 6 23 7 24 7 7 2 1 1v77l-9 6-22 13-26 15-16 10-22 13-16 10-11 6-9 5h-2l-1-142 1-7 17-10 25-14z" fill="#F9F9F9"/>
<path transform="translate(740,1172)" d="m0 0 2 1 1 38 2 17 3 15 7 20 5 8 8 8 10 7 26 16 21 13 10 6v3l-25 14-25 15-44 26-8 5-4-1-8-13-6-12-10-19-9-17-6-10-7-14-12-21-6-12-10-19-8-16 2-4 11-7 10-6 11-7 9-5 12-7 19-11 7-4 10-6z" fill="#F9F9F9"/>
<path transform="translate(465,1043)" d="m0 0h22l61 2 18 1 3 4 14 47 13 38 14 41 12 36v1h-9l-5-1-53-4-36-4-5-5-7-20-12-34-4-13-5-16-8-26-10-33-4-11z" fill="#F9F9F9"/>
<path transform="translate(702,483)" d="m0 0 21 2 33 4 55 6 6 2 5 25 6 32 8 46 5 29 2 10v5l-3 1-7-2-56-8-19-3-23-3-5-3-3-11-5-28-11-59-7-35z" fill="#F9F9F9"/>
<path transform="translate(629,1238)" d="m0 0h3l7 12 7 14 8 13 6 12 7 12 8 16 15 29 6 11 12 21 7 12-3 3-15 9-19 12-16 10-13 8-12 6h-4l-10-18-11-21-8-16-11-21-9-16-7-14-8-15-13-26v-3l8-6 13-9 51-34z" fill="#F9F9F9"/>
<path transform="translate(570,445)" d="m0 0 9 2 26 8 27 9 20 6 29 9 4 4 5 26 5 23 12 59 5 25v6l-1 1-10-1-29-9-15-5-21-6-33-10-11-4-2-7-5-37-3-17-5-38-7-41z" fill="#F9F9F9"/>
<path transform="translate(1190,1520)" d="m0 0h3l6 10 5 9 11 19 13 22 11 19 12 20 6 11 9 16 3 5-1 4-36 36-7 8-15 15-7 11-4 1-6-8-7-11-8-12-12-17-6-10-12-19-10-16-15-22-7-10v-6l22-22 7-8h2l2-4 21-21 5-6h2v-2h2v-2h2l2-4z" fill="#F9F9F9"/>
<path transform="translate(1305,608)" d="m0 0 5 1 11 8 25 15 11 8 19 13 10 7 14 10 1 3-11 7-19 11-11 7-20 12-17 11-24 14-11 6-12 6-5-2-16-12-17-12-18-13-19-13-20-15v-2l14-7 16-10 11-6 29-16 17-10 16-9z" fill="#F9F9F9"/>
<path transform="translate(807,952)" d="m0 0 4 1v24l5 5 19 12 15 9 8 5h7l11-6 12-7 11-6 25-14 5-5 1-4 1-14 5 2 17 10 12 6 14 8 4 4 1 2v88l2 6 7 6 19 10 18 8 5 2 6-1 16-8 32-17 10-7 5-8 2-5 6 2 18 10 10 7v2l-14 7-27 16-17 10-24 14-14 7-16-9-22-13-9-6-11-6-11-7-11-6-18-11-52-30-17-10-10-6-14-7-24-14-26-15-18-10-12-8 1-3 14-8 14-9z" fill="#F8F8F8"/>
<path transform="translate(1049,581)" d="m0 0 5 2 10 10 8 7 32 32 2 1v2h2v2h2v2l4 2 17 17 8 7 11 11 5 7-2 13-7 26-9 44-5 25-3 8h-3l-46-46-17-16-10-10-2-1v-2l-4-2-26-26 18-72 8-37z" fill="#F9F9F9"/>
<path transform="translate(1090,1606)" d="m0 0 4 4 9 24 10 28 9 24 7 15 7 20 9 24 1 5-2 2-34 7-24 6-14 4-18 4h-7l-11-27-10-29-11-32-10-28-7-20 1-4 7-3 56-16 19-5h7v-2z" fill="#F9F9F9"/>
<path transform="translate(727,1413)" d="m0 0h3l8 11 13 17 20 26 11 16 9 13 9 12 10 13 13 18 1 6-5 9-10 14-16 24-13 20-7 11-4-2-9-11-12-16-1-3h-2l-8-11-9-12-14-19-10-13-12-16-12-17-2-7 6-12 13-22 6-11 13-20 8-12z" fill="#F9F9F9"/>
<path transform="translate(1170,694)" d="m0 0 5 2 9 7 14 10 18 13 6 4 7 5v2l5 2 13 10 15 10 2 2v67l-2 61-1 7-2 1-9-6-28-20-15-11-17-13-14-10-19-13-11-8-3-2 2-9 18-80 4-18 2-12z" fill="#F9F9F9"/>
<path transform="translate(872,809)" d="m0 0 16 8 10 6 19 11 11 6 15 8 21 12 17 9 7 10 7 12v3h2l12 23 10 19 9 19v87l1 40-5-1-20-11-3-2-1-102-3-16-6-16-11-20-9-13-5-5-14-9-32-18-17-9-4-2h-9l-10 4-15 8-4 6-5 19-1 8-1 82-4-1-14-9-9-5-1-1 1-81 2-32 2-14 3-7 8-7 10-6 11-6 3-1v-2z" fill="#F7F7F7"/>
<path transform="translate(710,355)" d="m0 0 10 2 32 9 29 9 23 7 6 1-1 4-15 9-63 42-20 13-19 12-1 1h-6l-21-8-33-10-21-7-25-7v-4l13-7 27-16 35-20 17-10 7-5 9-5z" fill="#F9F9F9"/>
<path transform="translate(877,1117)" d="m0 0h18l9 4 8 6 9 8 10 16 6 16 2 10v16l-3 10-9 10-5 4v7l3 12 7 38 1 8v11l-8 6-6-1-30-18-24-13-7-6-1-6 3-15 4-15 6-25v-9l-7-10-5-10-4-14v-17l6-12h2v-2l11-7z" fill="#777776"/>
<path transform="translate(1144,425)" d="m0 0h3l1 34v36l-9 6-14 8-11 6-25 14-35 20-13 7-4 9-11 40-6 24-3 15-2-4-1-32v-106l9-6 22-12 11-7 11-6 19-11 11-7 21-12 15-10z" fill="#F8F8F8"/>
<path transform="translate(1500,1439)" d="m0 0 2 1-2 6-25 50-10 19-9 16-5 9-22 12-16 9-19 10-23 12-23 13-10 6-3 2-3-1 6-11 8-17 10-19 10-21 15-30 6-5 37-19 19-10 30-16 18-10z" fill="#F8F8F8"/>
<path transform="translate(1280,1370)" d="m0 0 6 2 18 11 13 9 12 8 16 11 28 19 16 11 7 4h8l7-4 11-7 15-8 26-16 11-6 12-7 6-3 3 1 12 18-2 4-10 7-15 8-12 6-22 12-24 13-27 14-12 7-7 2-10-10-11-14-11-12-8-10-9-10v-2h-2l-9-11-7-7-8-10-7-7v-2h-2l-8-10-5-7z" fill="#F8F8F8"/>
<path transform="translate(836,389)" d="m0 0 13 1 16 2v3l-10 8-6 6-1 7v47l-8 6-19 11-46-6-49-5-8-1 1-3 10-6 15-10 5-3h2v-2l9-5 12-8 14-9 18-12 11-7z" fill="#F8F8F8"/>
<path transform="translate(1530,1169)" d="m0 0 5 1 16 12 1 3-12 8-11 6-45 26-17 10-14 7-20 12-8 4-3 4-4-2v-2l-6-2-11-8-20-14-19-13-7-4-3-3-16-11-14-10-14-9-5-4v-2l8-6 4-1 16 9 17 10 3 1v2l4 1 14 8 16 10 13 8 19 9h12l9-6 20-12 11-6 16-10 10-5 28-17z" fill="#F7F7F7"/>
<path transform="translate(980,871)" d="m0 0 6 5 8 13 1 5h2l12 23 10 19 9 19v87l1 40-5-1-20-11-3-2-1-102-3-16-6-16-11-20-9-13-5-5-7-5-3-4 2-2 4 1v3l5-1 3-7-3-2 1-4 7 1h4z" fill="#F8F8F8"/>
<path transform="translate(1083,937)" d="m0 0h4v122l-8 6-23 11-10 6-1-1v-17l-1-29v-52l1-25 13-7 17-10z" fill="#F9F9F9"/>
<path transform="translate(931,778)" d="m0 0 7 1 18 8 14 8 16 8 18 10 14 8 9 5 6 4-5 5-14 7-23 11-3 1-18-10-20-12-25-14-10-6-9-5-10-6-4-2 1-3 11-4z" fill="#F8F8F8"/>
<path transform="translate(1538,958)" d="m0 0h5l11 8-1 3-12 7-12 6-27 16-26 15-15 9-21 12-16 10-5-1-18-10-27-16-12-7-17-10-16-10-9-5-20-13-8-6 1-3 9-4 7 1 16 9 16 10 17 10 19 11 12 7 14 8 11 5 9 1 8-2 23-11 5-5 10-5 17-10 16-9 19-11z" fill="#F7F7F7"/>
<path transform="translate(1042,845)" d="m0 0 5 1 10 15 10 16 15 30 3 7-1 5-25 13-12 7-6 2-10-19-8-16-12-23-6-12v-2l-3-1 1-3 10-4 19-10z" fill="#F8F8F8"/>
<path transform="translate(439,750)" d="m0 0 6 1 12 7 17 10 11 7 15 8 7 5 11 6 19 11 22 11h5l14-8 17-10 28-17 21-12 9-6 11-6 12-7 6 1 10 5-5 5-15 9-18 11-11 6-14 8-24 14-18 11-11 6-14 9h-6l-21-13-18-11-44-26-24-14-20-12v-3z" fill="#F7F7F7"/>
<path transform="translate(891,874)" d="m0 0h8l15 10 2 5-1 11v58l-3 5-7 5-19 9-12 8-3 1 1-88 2-10 4-6 11-7z" fill="#F8F8F8"/>
<path transform="translate(885,1134)" d="m0 0 10 3 8 6 9 11 5 9 2 5 2 9v15l-5 5-12 6-1 1v9l3 16 3 22 4 18-1 3-15-8-11-6-8-5 1-11 7-30 3-12v-12l-7-11-5-9-4-14v-11l2-4h2v-2z" fill="#E6E6E6"/>
<path transform="translate(666,963)" d="m0 0 9 2 4 2-4 4-11 6-36 21-11 6-27 15-16 8-3 1-51-1-41-2 1-3 11-6 26-17 6 1 11 7 17 9 13 5 6-1 14-8 11-7 13-8 10-6 18-11 18-10z" fill="#F5F5F5"/>
<path transform="translate(440,544)" d="m0 0 4 1 16 9 13 8 11 6 11 7 11 6 14 8 13 8 12 7 10 6 7 1 12-3 6-2h11l6 1v2l-18 11-16 9-5-1-19-10-13-8-11-6-15-9-22-13-20-12-27-16-2-1v-3z" fill="#F6F6F6"/>
<path transform="translate(990,1672)" d="m0 0h3l11 32 6 16 8 23 6 16-2 4-5 4-18 10-5 3h-3v-80z" fill="#F8F8F8"/>
<path transform="translate(931,894)" d="m0 0 5 2 16 10 8 7 6 9 7 12 10 24-2 2-12-7-11-6-21-12-6-5z" fill="#F7F7F7"/>
<path transform="translate(1237,1559)" d="m0 0 5 4 7 8 4 4v2h2l7 8 16 16v2h2l7 8 9 9 8 7 1 5-8 6-10 5-5-1-15-28-12-21-14-26-4-6z" fill="#F7F7F7"/>
<path transform="translate(849,584)" d="m0 0 5 3 12 8 9 5 13 8 9 5 3 3-10 7-18 11-9 6h-3l-5-25-5-26z" fill="#F7F7F7"/>
<path transform="translate(1129,1652)" d="m0 0 4 5 11 17 10 14 24 36 4 7-1 5-14 8-5-1-7-20-15-38-6-17-5-11z" fill="#F6F6F6"/>
<path transform="translate(1361,1622)" d="m0 0 2 1-8 8-8 7-13 11-8 6-15 9-16 9-12 6-11 7-15 9-3-1 10-10h2v-2h2l2-4 7-8 4-2v-2l8-6 12-6 28-16 16-8z" fill="#F5F5F5"/>
<path transform="translate(1139,1543)" d="m0 0h2l-2 4-38 38-11 4-21 5-26 8-4-1 25-15 21-12 15-9 11-6 12-8 11-6z" fill="#F7F7F7"/>
<path transform="translate(846,485)" d="m0 0h2l1 22v63h-2l-8-45-3-12-3-15-1-4 3-3z" fill="#F7F7F7"/>
<path transform="translate(833,899)" d="m0 0 3 1 1 18 4-1 1 4 2-4h3l1 4v32l-1 8h-2l-3-10-3-4v-2h-6l-1-6v-33z" fill="#E6E6E6"/>
<path transform="translate(825,1574)" d="m0 0 2 2-1 22-9 6-13 7h-2l1-5 11-17 9-13z" fill="#F5F5F5"/>
<path transform="translate(966,866)" d="m0 0 9 4 1 3 4-1v5h-8l-4-1v3l3 2-4 8h-5l-1-3-4 1 2 3-5-2-10-6 4-2v-2h8l1-5 6-2z" fill="#E7E7E7"/>
<path transform="translate(877,956)" d="m0 0 3 1 1 3 4 1-1-3 4-1 7-1 1 7 3 1-3 3h-4v2h-2v2l-6 1v3l11-5 3 1-15 8-5 2v-2l3-1-1-3h-3l-1-3v-15z" fill="#E6E6E6"/>
<path transform="translate(436,790)" d="m0 0 2 1 3 2 7 1 1 5-3 6h-3l-4 5v6l-7 1-2-2 1-2v-9l3-2v-2l-3-1v-3l-3-3 4-2z" fill="#E6E6E6"/>
<path transform="translate(1341,1378)" d="m0 0 9 1 5 1 2 5 3 1v5l-3 3h-2v-2l-2 1v2l4 1 1 4-12-7v-2l-5-2-8-5 4-1v2h3v-6z" fill="#E7E7E7"/>
<path transform="translate(843,1555)" d="m0 0 7 1 4 4-9-3 1 4-1 4 3-2-1-3h4l-1 5h2l-2 6-4-3-1 38-1 75v23h-2v-53l1-57z" fill="#E6E6E6"/>
<path transform="translate(1410,852)" d="m0 0 2 1 1 94v55l-4-1 2-1v-34l-1-25z" fill="#E6E6E6"/>
<path transform="translate(746,489)" d="m0 0h10l9 1v1l-13 1 5 2-1 5-5-1-1-3-6 5v-3l-5-1 2 7-2 2h-3l-1-8-7-1v-2h-4l-1-3 9-1 7 1 4-1 3 1z" fill="#E6E6E6"/>
<path transform="translate(1372,969)" d="m0 0h5v2h2v3l4-4 5 2 4 1-1 4h-2l2 4 5 1-2 4h-2v-3l-3 1-4-1v2l-6-2-13-8-3-3 6 2z" fill="#E7E7E7"/>
<path transform="translate(1344,1538)" d="m0 0 1 2-8 16-8 15-1-2h-3v-3l-3-1v-3l5-1 1-8v-4h4v-5l3-1 1-2-2-1h3l2 1 1 4z" fill="#E7E7E7"/>
<path transform="translate(1431,1058)" d="m0 0 2 1-1 1v86l1 44 1 14 2 1-3 2h-3v-148z" fill="#E6E6E6"/>
<path transform="translate(571,1283)" d="m0 0 1 4-3 3v4l6 2v2l-2 1v8l6-2 2 2v6l-3 1-2-4-3 3-4-2v-6h-3l-3-10-1-2 1-2-2-1h2l1-4 4-1z" fill="#E6E6E6"/>
<path transform="translate(1134,669)" d="m0 0h4l5 5 2 4h2l1 10-1 6-3 11-4 1-1-2 1-4 3-2-6-3 1-5 3-1v-3l-2-1 1-7-5-5z" fill="#E6E6E6"/>
<path transform="translate(1295,1421)" d="m0 0 7 6 6 7-2 1-6-7 2 6 2 1-1 2h3v5l-7-4-1-1h-3l-6 1-1-2v-12l3-2 3 1z" fill="#E7E7E7"/>
<path transform="translate(572,643)" d="m0 0 2 1-3 2v146l2 1-4 1-1-142 1-7z" fill="#E6E6E6"/>
<path transform="translate(1295,926)" d="m0 0 5 1 5 2 1-3 1 5h6l1-2 4 2 1 5 4 4v4l-5-1-3-1-1 2-14-8 2-1 7 4 4 1-3-3-7-4-7-3z" fill="#E6E6E6"/>
<path transform="translate(1083,937)" d="m0 0h4v122h-1l-1-53v-9l-1-6 1-2-2-1h2v-47l1-3z" fill="#E6E6E6"/>
<path transform="translate(1429,852)" d="m0 0 3 1h-2l2 146 5-1-1 2-5 1-1-1-1-59z" fill="#E6E6E6"/>
<path transform="translate(506,970)" d="m0 0h5l1 2 4 2 2-4 4 1 4 2 2-2h3l-1 5 4 4v5l6 3v2h2l-1 2-18-11-17-10z" fill="#E7E7E7"/>
<path transform="translate(465,1043)" d="m0 0h22l61 2 18 1v1h-38l-15-1-47-1 3 9-1 3-4-11z" fill="#E6E6E6"/>
<path transform="translate(710,489)" d="m0 0h2v3l4 2v7h2l2 10 1 3-1 4 2 5-4 2-3-4-1-6-1-2-1-13-2-10z" fill="#E6E6E6"/>
<path transform="translate(531,433)" d="m0 0h6l7 4 4 1 2 8 1 3 1 2-5 3v-2l-4-1-1-7v-2l-2-1v-4h-3v2l-5 2-1-3z" fill="#E6E6E6"/>
<path transform="translate(619,583)" d="m0 0h7l3 3h5l6 5-3 4-3-1v-3l-3-1-4 4-6-2-4-1-4-2 2-1 1-3h3z" fill="#E6E6E6"/>
<path transform="translate(1398,869)" d="m0 0 2 4 2 1-5 4-4 7-6-1v-3l-6 3-4 1-1-7 6-4h2v2l4 1v2l7-2z" fill="#E6E6E6"/>
<path transform="translate(990,837)" d="m0 0 2 2-1 4 1 3-4 3-7-1 7 4-2 1-14-8 3-1 2 1-1-4 2-3 5 1v2h5v-3z" fill="#E6E6E6"/>
<path transform="translate(846,485)" d="m0 0h2l1 22v63h-2l-3-17v-7l2 4v8h2l-1-37v-34l-3-1z" fill="#E6E6E6"/>
<path transform="translate(961,1657)" d="m0 0h5l1 7h-2l2 6v23h-2l-2-12-3-3 2-7h-1v-5h2l-1-5z" fill="#E6E6E6"/>
<path transform="translate(473,542)" d="m0 0 9 3v2h3l1-3 5-1 2 4 6-1 3 3v3l-8-1v2l4 4-6-2-14-9-5-3z" fill="#E8E8E8"/>
<path transform="translate(430,375)" d="m0 0 5 2 4 4-2 6h-2l-1 7-6 3-3 1 1-5 6-12-3-5z" fill="#E6E6E6"/>
<path transform="translate(998,816)" d="m0 0 4 1v2l4-1 1 4v2h3v2h-2l1 3-2 2h-3l-1-5h-6l-3-4 1-5z" fill="#E6E6E6"/>
<path transform="translate(889,1679)" d="m0 0 7 1 7 6 3 3-1 2-4 1h-10l-1-5 3-1-1-2h-3l-2-4z" fill="#E6E6E6"/>
<path transform="translate(1202,849)" d="m0 0 5 1 2 1v2l5 1 1 5h-5l5 4 7 5v2l-4-2-11-8-9-7z" fill="#E6E6E6"/>
<path transform="translate(602,1186)" d="m0 0 4 1 3 5 2 14h-6l-1-5-4-2-1-4 2-1 2-5z" fill="#E6E6E6"/>
<path transform="translate(1290,1570)" d="m0 0 4 1 1 4-3 9h-3l2 5-7-6v-3l3 3 1-4-5-1v-3l6-1-1-3z" fill="#E6E6E6"/>
<path transform="translate(742,979)" d="m0 0h1v75l-2-3-3-9 1-3 1 1z" fill="#E6E6E6"/>
<path transform="translate(627,1245)" d="m0 0 7 2 2-2 3 5-1 2-2-1-1 4-3 1v-2h-8l-1-2-2 1 2-6h3z" fill="#E6E6E6"/>
<path transform="translate(571,553)" d="m0 0h1l4 24v11l-3 1-2-14z" fill="#E6E6E6"/>
<path transform="translate(825,1618)" d="m0 0 1 3v91l-2-3-1-89z" fill="#E6E6E6"/>
<path transform="translate(573,614)" d="m0 0 1 3h-2l-1 2-5 4 1 1 5-1-5 4-4 2-5-1 2-4h3l-1-7 4-2z" fill="#E8E8E8"/>
<path transform="translate(1139,1543)" d="m0 0h2l-2 4-38 38-2-1 37-37-4-1z" fill="#E6E6E6"/>
<path transform="translate(1053,995)" d="m0 0 2 2v7l2 6-1 7-1 5-3 1-1-12v-13z" fill="#E6E6E6"/>
<path transform="translate(1077,1723)" d="m0 0 2 1-1 2-5 1v3l-5 1-1 3h2l-2 4-5 1v-9l7-6z" fill="#E6E6E6"/>
<path transform="translate(753,623)" d="m0 0 8 1 2 1 8-1 2 4-4 1h-5l-1-1-12-1-8-2v-1z" fill="#E6E6E6"/>
<path transform="translate(1558,1202)" d="m0 0h2l-2 16-1 16-3 21h-1v-9l3-32 2-9-4 1z" fill="#E6E6E6"/>
<path transform="translate(1233,1519)" d="m0 0 2 2-1 3h-3l4 5 5 5h4l2 3 1 5 4 5-4-2-12-13-10-10 1-2 2 2 4 1z" fill="#E6E6E6"/>
<path transform="translate(931,894)" d="m0 0 3 1-1 36-2-1z" fill="#E6E6E6"/>
<path transform="translate(902,1646)" d="m0 0 2 1 1 4-3 4 2 3-6 3-1 2h-4v-2l2-1 2-5h3l-1-5z" fill="#E6E6E6"/>
<path transform="translate(825,1162)" d="m0 0h6v2h3l-1 4-4 2h-6l-1-4h2z" fill="#E6E6E6"/>
<path transform="translate(1129,1652)" d="m0 0 4 5 6 9-1 2-2-1 4 11-1 3-9-23-1-1z" fill="#E6E6E6"/>
<path transform="translate(1059,1748)" d="m0 0 5 1 1 7-1 6-5-2-1-8z" fill="#E6E6E6"/>
<path transform="translate(1263,1657)" d="m0 0 2 1-17 17v-3l6-7h-5l1-6 5-1-1 3 1 2 4-2z" fill="#E6E6E6"/>
<path transform="translate(1215,1492)" d="m0 0h2l2 6 3 6v2l-4 1-3-2-2-10z" fill="#E6E6E6"/>
<path transform="translate(1281,1335)" d="m0 0 3 2 1 7-4 1-1-5-4 2 5 4-1 2-8-6 3-3 4-1v-2z" fill="#E6E6E6"/>
<path transform="translate(1298,1202)" d="m0 0h1v5l4-1 1 3-4 3-2 6-1 2h-2l1-16z" fill="#E6E6E6"/>
<path transform="translate(541,1180)" d="m0 0 4 2 5 6 1 7-2 1-6-1 2-7-2-2v-2z" fill="#E6E6E6"/>
<path transform="translate(855,1048)" d="m0 0 5 2h2l2 3 3 1 1 3-1 5-4-1-1-5-7-4-1-3z" fill="#E6E6E6"/>
<path transform="translate(1025,1390)" d="m0 0 4 1-1 6-5-2 1 3-2 3-4-1v-5l4-4z" fill="#E6E6E6"/>
<path transform="translate(1090,1606)" d="m0 0 3 2-1 2-1-1-1 6-4-1-1-3-10 2-9 1 3-2 12-3h7v-2z" fill="#E6E6E6"/>
<path transform="translate(1334,1018)" d="m0 0 10 5v2l4 1 1 3-3 2-2-3-4-1-1-3-5-2-1-3z" fill="#E6E6E6"/>
<path transform="translate(1266,1682)" d="m0 0 2 1-5 6 7-4 1-2 4 1-9 6-9 5-3-1 10-10h2z" fill="#E7E7E7"/>
<path transform="translate(1055,969)" d="m0 0 2 1v10l-2 10h-3l2-16z" fill="#E6E6E6"/>
<path transform="translate(729,1421)" d="m0 0 1 4h5v7l-5-1-1 2h3l-1 3-1-2h-3v-9h2z" fill="#E6E6E6"/>
<path transform="translate(1085,624)" d="m0 0h2v2h8l1 4 2 1v2l-5-1-7-2z" fill="#E6E6E6"/>
<path transform="translate(1050,1594)" d="m0 0 2 1-1 2 6-2h5l-3 2-16 5-4-1 10-6z" fill="#E6E6E6"/>
<path transform="translate(825,1574)" d="m0 0 2 2-1 22-5 4-2-1 3-3h2v-15l1-6-2-1z" fill="#E6E6E6"/>
<path transform="translate(475,533)" d="m0 0 5 1 4 1v7l1 2-3 1v-3l-2-1v-2l-5-2-1-3z" fill="#E6E6E6"/>
<path transform="translate(805,1020)" d="m0 0 4 2 5 2v2h2v2l-5 2-3-5-6-3z" fill="#E6E6E6"/>
<path transform="translate(1287,909)" d="m0 0 3 1 1 11 1 4h-4l-2-6 1-5z" fill="#E6E6E6"/>
<path transform="translate(573,569)" d="m0 0 2 2 1 6v11l-3 1z" fill="#F1F1F1"/>
<path transform="translate(473,740)" d="m0 0 5 4 9-1 1 4-6 2-1-2h-6l-3-4z" fill="#E6E6E6"/>
<path transform="translate(464,619)" d="m0 0 4 1-1 6-3 3h-3v-7l3-1z" fill="#E7E7E7"/>
<path transform="translate(990,1672)" d="m0 0h3l2 8-2-1-1 21h-1z" fill="#E6E6E6"/>
<path transform="translate(750,1392)" d="m0 0 2 1-5 3h-2l3 9 1 4-4-4-4-5 1-4z" fill="#E6E6E6"/>
<path transform="translate(1354,851)" d="m0 0 5 1 4 6-3 1-3-2-5-1 1-4z" fill="#E6E6E6"/>
<path transform="translate(544,954)" d="m0 0 3 1-1 12-4-2-1-3z" fill="#E6E6E6"/>
<path transform="translate(542,646)" d="m0 0h2l2 2 3 1-2 5h-4v-2l-3-1z" fill="#E6E6E6"/>
<path transform="translate(1109,1676)" d="m0 0 3 1 2 3-1 4h-5l-1-5z" fill="#E6E6E6"/>
<path transform="translate(543,924)" d="m0 0h3v3h-2v3h2v8l-4-2v-9z" fill="#E6E6E6"/>
<path transform="translate(860,859)" d="m0 0 1 2 4 1 1-2v3l-5 2-3 3-2-4v-3z" fill="#E6E6E6"/>
<path transform="translate(522,634)" d="m0 0 7 3 1 5h-3l-5-3z" fill="#E6E6E6"/>
<path transform="translate(818,1281)" d="m0 0 2 1v2h6l1 4h3l-1 2-7-2-1-2-4-2z" fill="#E6E6E6"/>
<path transform="translate(427,398)" d="m0 0 3 2-1 6v2l1 2-4 1-1-4 1-8z" fill="#E6E6E6"/>
<path transform="translate(960,1227)" d="m0 0 2 1-3 7-1 3-4 2-1-6h4l1-6z" fill="#E6E6E6"/>
<path transform="translate(1307,1212)" d="m0 0h7l-1 5h-2v-2l-6 2-2-4z" fill="#E6E6E6"/>
<path transform="translate(959,1731)" d="m0 0 5 2v6l-4 1-2-5z" fill="#E7E7E7"/>
<path transform="translate(832,1289)" d="m0 0 7 1 1 1v5l-4-1v-2h-4l-1-3z" fill="#E6E6E6"/>
<path transform="translate(1095,763)" d="m0 0 10 1 2 2-1 1-11 1-1-2z" fill="#E6E6E6"/>
<path transform="translate(865,426)" d="m0 0 3 1-2 1v29h-1l-1-30z" fill="#E6E6E6"/>
<path transform="translate(947,1137)" d="m0 0 6 1 3-1-1 4-5 1h-6z" fill="#E6E6E6"/>
<path transform="translate(1166,1067)" d="m0 0 2 1-1 4 2 5-2 2-4-8-2-3z" fill="#E6E6E6"/>
<path transform="translate(487,959)" d="m0 0 10 1 4 7-6-2-8-5z" fill="#E7E7E7"/>
<path transform="translate(849,391)" d="m0 0 16 1v3l-5 4h-2v-2l3-3-12-2z" fill="#E6E6E6"/>
<path transform="translate(1105,1662)" d="m0 0 3 1v6l3 1-1 3-3 1-2-6-1-2z" fill="#E6E6E6"/>
<path transform="translate(1015,1635)" d="m0 0h3l-1 3-4 2h-6l2-4z" fill="#E6E6E6"/>
<path transform="translate(699,943)" d="m0 0h2l-1 3-5 3 6 1v2l-9-1 1-4z" fill="#E8E8E8"/>
<path transform="translate(990,884)" d="m0 0 3 3 2 4v3l2 1-4-1-2-4-3-1 1-2 2 1z" fill="#E8E8E8"/>
<path transform="translate(1184,834)" d="m0 0h4l1 4 3 1-1 3-2-1 1-2h-3l-1 2-2-4z" fill="#E6E6E6"/>
<path transform="translate(842,928)" d="m0 0 2 1-1 3-3 1-1 2-4-2v-3z" fill="#FAFAFA"/>
<path transform="translate(1358,902)" d="m0 0 5 1 1 4-2 1-6-3z" fill="#E6E6E6"/>
<path transform="translate(1046,627)" d="m0 0h1v7l-2 4-3 1 2-9z" fill="#E6E6E6"/>
<path transform="translate(570,445)" d="m0 0 9 2-4 1-3-1 1 5v7l-2-4z" fill="#E6E6E6"/>
<path transform="translate(722,1432)" d="m0 0h3v7h-7l2-2z" fill="#E6E6E6"/>
<path transform="translate(1560,1151)" d="m0 0 1 2-6 3-1 5-4-2v-3z" fill="#E6E6E6"/>
<path transform="translate(1068,741)" d="m0 0 4 2h3l3 1v4 3l-10-9z" fill="#E6E6E6"/>
<path transform="translate(945,1657)" d="m0 0 2 1 3 8-3 1-3-5z" fill="#E6E6E6"/>
<path transform="translate(1363,1167)" d="m0 0 4 1-1 5-5-1-1-2z" fill="#E6E6E6"/>
<path transform="translate(845,1557)" d="m0 0 5 1 1 2h-4v2l2 1-4 2z" fill="#FAFAFA"/>
<path transform="translate(881,820)" d="m0 0h2l2 3 3 1-1 4-3-1v-3l-3 1-1-4z" fill="#E6E6E6"/>
<path transform="translate(1067,609)" d="m0 0 1 3 2 1h-4v3l-8 1 2-2 4-2v-3l3 1z" fill="#E6E6E6"/>
<path transform="translate(488,482)" d="m0 0 3 1-1 5-5-2v-3z" fill="#E6E6E6"/>
<path transform="translate(1237,1559)" d="m0 0 5 4 3 5-2 3-6-10z" fill="#E6E6E6"/>
<path transform="translate(784,507)" d="m0 0 1 2 6-1 2 1v3h-5l-4-1z" fill="#E6E6E6"/>
</svg>
