<?xml version="1.0" encoding="UTF-8"?>
<svg version="1.1" viewBox="0 0 2048 2048" width="2048" height="2048" xmlns="http://www.w3.org/2000/svg">
<path transform="translate(0)" d="m0 0h2048v2048h-2048z" fill="#FAFAF9"/>
<path transform="translate(1304,107)" d="m0 0h6l19 11 9 5 15 9 8 5 13 8 5 3 11 6 9 6 7 3v2l6 2 5 3 5 4 17 7v2l6 2 11 8 13 7 14 9 8 6 5 3 1 2 1 14v98l-1 86v25l-7 7-7 3-9 5-2 2-7 3-8 4-9 5-8 4-9 6-7 3-9 6-6 3-10 6-6 3-9 4-5 3-10 5-4 4-7 6-1 2v50l4 2 9 7 5 3 11 6 12 6v2l7 2 5 4 7 4 7 2 9 4 21 14 10 5 9 5 15 9 8 7 1 21v36l-1 167-14 9-8 4-18 10-15 8-17 9-9 6-4 2-3 3-6 3-17 9-14 8-11 7-11 6-3 3-7 3-11 7-14 8-8 4h-7l-3-3-11-6-4-3-11-5-8-4-5-2v-2l-9-3-11-9-8-4-3-3-8-3-6-3v-2l-9-3-2-2h-6l-4 3-6 3-5 3-6 4-11 6-12 7-14 7-9 6-7 2v2l-8 4-9 5-14 8-15 10-8 4-9 4-10 7-11 6-5 7v89l-2 6-12 9-6 3-8 5-9 5-14 8-15 9-16 8-3 3-7 3-8 5-12 7-4 3-6 3-7 5-9 4-10 6-12 6h-2v2l-10 5-19 10h-7l-14-7-15-9-8-4-20-12-30-15-11-6-6 2-7 5-7 3-16 8h-2v2l-10 6-6 3-9 6-20 12-22 12-11 7-14 7-5 3-11 6-9 7-6 3-4 3-1 39v32l-1 12-15 10-17 10-6 4-7 3-8 4-5 3-7 4-30 18-6 4-5 3-14 8-11 7-15 9-6 3-5 3-11 6-12 7-8 4h-8l-6-4-5-2-5-3-5-4-6-3-14-8-5-3-11-6-11-7-5-2-4-3-5-2-5-3-7-4-8-5-11-6-16-9-9-4-12-7-14-7-18-12-5-6-1-7v-205l1-11 4-5 6-4 14-8 13-8 8-4 5-3 6-4 8-4 9-5 9-6 12-6 9-6 8-5 14-8 15-8 2-4-2-26-2-5-9-8-6-3-18-10-7-5-12-6-3-3-7-3-8-4v-2l-7-2-4-3-6-3-18-10-14-7-10-7-5-3v-2l-4-2-1-3v-217l2-7 4-5 6-3 9-7 7-3 9-6 6-3 22-13 10-5 8-5 8-4 9-6 10-5 13-8 6-3 9-5 12-6 5-1 1-3 6-3 3-3 6-3 10-6 11-4h6l7 4 15 9 20 10 7 7 8 3 5 3 7 2 5 4 1 2 6 3 16 9 8 4 9 6 6 3 1 2 6 3 5 3 13 8 2 1h8l5-4 8-5 6-3 11-7 10-6 9-5 14-8 10-7 12-7 16-8 7-5 1-153 1-7 4-5 18-12 13-8 10-6 8-5 12-7 4-3 6-3 10-6 24-12 7-3 3-3 6-3 9-6 9-4 7-5 14-7 9-6 7-3 2-2 14-2 6 3v2l5 2 26 13 15 8 3 2v2l7 2 5 4 11 5 4 3 5 3 8 5 6 3 4 3 12 6 5 3 12 6 9 6 9 4 4 2h8l11-9 16-8 14-8 9-4 9-6 5-2 3-3 6-3 9-5 15-9 7-5 2-4v-115l1-21v-9l3-9 10-8 5-3 11-6 2-2 7-3 11-7 7-4 13-7 10-6 5-1 1-3 12-6 13-8 12-7 15-8 5-4 15-9 6-4 20-12z" fill="#3E3E3D"/>
<path transform="translate(1157,471)" d="m0 0 5 1 6 4 8 3v2l7 2 4 3 7 3 8 4 15 9 10 4 4 3 9 5 9 7 3 4v51l-3 1-2 4-9 6-5 4-12 6-9 6-10 5-10 6-10 5-3 3-8 3-11 7-6 2-10 6-12 7-5 3-4 1-2 4-3 3-2 9 1 8-1 23v27l-1 4 1 14-1 7v13l1 1-1 11v36l1 5-1 5v13l1 3v10l1 14-2 5-6 5-9 6h-2v2l-11 6-5 1v2l-8 4-14 9-8 4-4 3-11 6-2 2-4-1-1-1-2-10-4-5-6-5-8-4-5-4-7-3-22-12-15-8-5-2v-2l-6-2-9-6-9-4v-2l-6-2-5-3-6-2-8-6-14-7-4-3-10-5-5-4-12-6-5-3-9-2-5-2-11 1-12 5-18 9-15 9-9 5-16 9-16 8-5 3-6 4-14 7-5 3-6 4-12 6-4 3-6 3-6 4-7 3-2 3-7 3-9 7-8 6-1 10v202l-5 5-11 7-11 6-4 3-5 1v2l-10 5-8 3-3 3-6 3-7 6-7 1-1-2-2-19-5-6-21-14-14-7v-2l-6-2-10-6-15-8-10-6-7-3v-2l-7-2-13-8-6-2-5-3-11-7-11-9-2-3v-29l6-7 15-9 5-2 20-12 7-4 5-4 7-3 8-5 8-4 11-7 11-6 11-7 6-3 16-10 8-6 1-46v-101l3-5 9-5 5-2 5-3 5-2 9-5 6-3h2v-2l13-8 5-3 12-6 9-5 8-5 7-3 3-3 6-3 12-7 6-1 6 3 5 3 5 4 7 3 10 6 5 2 10 7 7 3 5 3 11 6 16 8 10 6 16 8 5 3 6 4 8 4 12 3h6l10-4 9-6 12-6 3-3 8-3 9-6 8-2v-2l15-9 15-8 16-10 9-6 9-4 12-7 5-3 8-5h2l1-3 7-3 10-7 7-4 9-7 1-2 1-30v-105l4-5 13-8 14-8 9-6 6-3 5-3 11-6 4-3 5-2 9-6 9-5 5-4 6-3 9-5 8-4z" fill="#FAFAF9"/>
<path transform="translate(690,718)" d="m0 0 9 1 2 3 9 5 4 1 3 3 6 2 1 2 8 3v2l5 2 8 4v2l9 3 1 2 8 3 2 2 7 3 8 4 2 2 8 3 6 4v2l9 2v2l8 2 2 3 7 3 3 2 9 2 4 5-9 1-6 4-14 6-1 2-8 3-1 2-9 3v2l-7 3-3 2-3 1-1 2-8 3-1 2-6 2-3 3-7 2-1 2-6 2-3 3-6 3-7 3-2 3-6 1-2 3-7 3-5 3-10 5-3 3-6 2-1 2-6 3-5 3-6 4-4 1-1 3-7 3-10 8-1 11-1 56-2 4 2 1v12 1 40l-1 4 1 2v14 3 67l-6 3h-2v2l-4 2-1 2-7 2-3 3-3 1-3 3-6 3-7 3-3 3-8 2-2 3-6 2-7 7h-5l-1-15-1-7-4-2-5-5-8-5-4-2v-2h-2l-1-2-7-2-4-3-5-1-1-3-5-2-3-2-14-7-2-2-6-2-3-3-5-3-9-4-5-3-2-1v-2l-8-2-3-3-7-3-8-4-3-2-10-6v-3l-6-2-3-4v-9-2l1-17 3-5 7-3 3-2h4l1-4 7-2 1-2 8-2 1-3 6-3 16-10 7-3 5-3 6-4 5-1 1-3 6-1 4-4 5-2 1-2 5-2 1-2 8-1 1-4 7-3 7-5v-1l7-2 3-3 6-4 1-2 1-13 1-2v-10l2-22-1-6 1-2v-61l-1-9 1-14-2-5 1-4 2-4 7-3 10-6 7-3 7-4 1-2 7-1 1-3 8-4 9-6 7-3 10-6 6-3 10-6 5-1 1-3 6-2 2-3 7-2z" fill="#FAFAF9"/>
<path transform="translate(544,736)" d="m0 0h5l2 2-1 25-1 43v97l-1 21-5 4-12 5-10 6-5 1v2l-12 7h-2v2l-8 4-2 2-7 3-5 3-12 6-8 6-6 1v2l-10 6-6 3-10 6-6 3-9 6-4 2-3 3-5 3-8 6-5-1-2-7-1-28 1-55v-16l1-18v-60l4-6 5-4 6-4 14-7 5-3 12-6 3-3 13-8 6-3 9-5 14-7h2l1-3 7-3 9-5 15-9 8-5 15-9 8-4z" fill="#FAFAF9"/>
<path transform="translate(545,1162)" d="m0 0 5 2 1 1-1 8-1 40v95l-1 44-2 3-15 6-4 3-8 1-8 7-14 9-13 6-5 3-8 4-9 6-5 3-8 4-10 6-8 5-6 3-9 6-5 3-8 6-5 1-1 3-4 2-7-1-1-2 1-72v-93l-1-13 4-6 11-8 8-5 8-4 24-15 4-1 1-3 7-3 5-3 6-4 12-6 9-5 9-6 6-3 9-5 8-5 8-4 11-7z" fill="#FAFAF9"/>
<path transform="translate(205,734)" d="m0 0 5 1 5 4 6 4 6 3 9 6 6 3 24 14 6 3 5 3 9 5 11 6 10 7 6 3 11 6 4 2v2l6 1 7 4 5 3 8 4 5 3 8 6-1 48v123l-1 12-2 2h-5l-11-9-7-3-8-4-17-9-9-6-6-3-5-3-11-6-10-6-6-3-8-5-15-9-8-4-5-3-7-3-7-2-9-6-5-6-1-186z" fill="#FAFAF9"/>
<path transform="translate(1e3 486)" d="m0 0h6l3 3v181l-3 6-16 8-3 2-6 2-4 3-11 6-5 3-12 7-9 6-6 3-9 6-6 3-10 6-10 5-7 4-11 7-2 2-7 3-5 3-9 7-7 2-2-2v-183l5-6 6-5 6-1 1-3 14-8 15-9 8-5 8-4 9-3v-2l12-7 8-5 25-15 8-4 8-6 6-4 8-5z" fill="#FAFAF9"/>
<path transform="translate(1471,246)" d="m0 0h5l2 2-1 17v163l-3 5-7 5-14 7-10 6-12 6-3 3-12 6-4 3-6 3-10 6-12 6-4 3-6 3-8 5-15 9-8 4-10 7-13 8-4-1-1-1v-181l4-7 17-10 7-4 12-6 4-3 6-3 17-10 9-5 7-4 5-3 8-4 5-3 10-7 14-8 10-5 11-7 6-4z" fill="#FAFAF9"/>
<path transform="translate(1470,685)" d="m0 0h6l2 2-1 11 1 5-1 5v36l-1 17 1 11-1 33v61l-3 5-5 4-7 3-5 3-12 6-10 7-11 6-4 3-6 3-11 6-4 1-1 3-8 3-5 3-12 8-7 3-9 6-5 3-6 3h-2v2l-8 4-5 3-11 6-4-1-2-3 1-15 1-163 3-5 8-6 14-7 8-5 8-4 2-2 7-3 9-6 6-3 9-6 14-7 5-3 6-4 6-3 8-5 13-8 16-9z" fill="#FAFAF9"/>
<path transform="translate(1e3 933)" d="m0 0 5 1 1 1 1 20v160l-3 5-6 1v2l-18 9-10 6-5 2-2 2-7 3-8 6-8 5-6 3-12 7-12 6-5 3-9 5-10 8-6 3-14 8-11 7-6 1-2-2-1-65v-112l3-5 11-9 9-7 6-3 5-3 11-7 14-8 4-3 14-7 10-6 6-3 10-6 6-3 17-10 6-3 9-6 7-3z" fill="#FAFAF9"/>
<path transform="translate(375,623)" d="m0 0h5l12 7 6 3 15 9 17 10 14 7 1 3 6 1 3 3 24 12 7 6 8 3 12 7 11 6 13 10 5 3 1 3-2 5-10 6-14 7-10 6-7 3-10 6-5 2-3 3-16 8-13 7-5 4-10 6-10 4-2 2-8 3-5 3h-2v2l-8 4-9 6-7 3h-6l-10-5-9-6-6-3-6-5-9-3-19-11-6-3-25-15-6-3v-2l-7-2-9-6-6-3-2-2-7-3-11-6-13-8-1-6 11-7 12-8 14-7 5-3 9-6 8-4 9-6 8-4 10-6 12-6 3-3 5-3 8-5 8-4 16-9 9-6z" fill="#FAFAF9"/>
<path transform="translate(205,1164)" d="m0 0h6l4 4 5 3 8 5 13 7 4 3 5 2v2l9 3 15 9 8 5 8 4 5 3 7 4 20 12 6 3 4 3 6 3 8 6 7 2 3 2 6 2 3 5v179l-3 4-4-1-6-3-9-5-10-6-6-3-5-3-9-5-6-4-10-5-5-4-6-3-7-5-9-4-8-5-13-7-1-2-7-3-7-5-12-4-8-5-6-4-4-6v-182z" fill="#FAFAF9"/>
<path transform="translate(837,370)" d="m0 0 4 1 6 7 5 3 9 3 10 5 8 5 8 4 9 5 8 5 10 6 11 6 9 5 15 9 11 7 7 3 7 5 7 3 18 9v6l-9 5-10 5-7 3-4 3-5 2-9 5-11 7-11 6-9 5-15 9-9 5-8 4-9 6-14 7-15 10-8 5-8 4-9-5-14-8-5-4-9-5-4-3-12-6-4-3-14-7-9-6-6-3-9-5-9-6-14-7-4-3-10-5-10-7-13-7-1-2 5-5 12-7 5-4 11-6 4-3 5-3 8-4 9-6 5-1 1-3 8-5 14-7 5-3 11-6 4-3 9-5 5-3 7-5 12-6 3-3 11-7z" fill="#FAFAF9"/>
<path transform="translate(837,822)" d="m0 0h8l13 7 6 4 6 3 9 5 10 6 9 4 8 5 5 3 7 5 9 3 1 2 8 3 8 7 14 7 20 11 17 8 5 3-1 4-13 7-10 5-22 13-9 5-10 6-6 3-5 3h-2v2l-9 4-9 6-7 3-8 6-6 3-9 5-3 2-6 2-7 6-6 3-8 6h-10l-3-3-7-3-15-9-14-8-5-4-11-6-9-5-8-4-20-12-9-5-3-3-6-3-10-6-7-4-6-2-2-3-13-5-5-3-1-6 8-5 4-2h3l1-3 21-12 15-8 10-6 8-4 5-3 14-8 11-6 4-3 12-6 4-3 5-3 18-9 9-3z" fill="#FAFAF9"/>
<path transform="translate(1303,133)" d="m0 0 7 1 7 4 5 4 16 8 9 5 7 5 7 3 10 6 6 3 7 4 3 3 14 7 9 5 10 6 12 6 5 3 9 5 15 10 1 3-2 5-9 5-7 3-5 3-11 6-9 5-16 9-10 6-12 6-3 3-10 5h-2l-2 4-7 3-15 9-8 5-22 12-6 3-7-1-4-3-5-2-3-3-11-6-3-3-7-4-11-7-20-10-11-7-12-8-9-4-8-5-6-3-10-6-7-3-6-3-3-3-12-7v-6l8-6 7-3 9-6 6-5 14-7 8-5 8-4 5-3 12-8 7-3 11-6 9-5 6-4 5-3 6-3h2v-2l10-5 12-7 4-3z" fill="#FAFAF9"/>
<path transform="translate(671,932)" d="m0 0 7 2 4 3 14 7 3 3 11 6 9 6 14 7 1 3 7 2 2 2 7 3 5 3 11 6 11 7 5 2v2l6 2 9 7 6 3 15 9 8 5 3 4-1 179-3 3-9-4-20-12-12-6-5-3-7-3-12-8v-5l12-11 3-5 1-3v-16l-1-10-4-12-5-10-6-8-5-6v-2l-5-2-7-6-5-1-16 2-11 5-8 4-14 9-9 5-5 3-5 1-2-4v-164z" fill="#FAFAF9"/>
<path transform="translate(1136,685)" d="m0 0h8l10 6v2l7 2 9 6 15 9 9 5 10 6 11 6 15 9 4 3 15 9 11 6 17 9 5 3 11 8 1 3v184l-4 2-14-7-9-7-7-5-9-5-11-6-10-5-5-4 2-4 11-10 8-8 2-9-1-26-3-8-7-14-4-5-4-3v-2l-3-1-5-5-11-7h-12l-9 2-18 10-14 8-10 7-6 1-4-3-1-6 1-77-1-37v-15l-1-25z" fill="#FAFAF9"/>
<path transform="translate(671,486)" d="m0 0 7 3 14 8 11 7 12 6 4 3 6 3 10 6 6 3 15 8v2l9 3 9 6 6 3 9 5 16 10 13 7 9 6 2 5v159l-1 23-4 2-7-3-8-5-8-4-5-3-6-4-11-6-9-5-7-5-8-4-9-5-8-4-2-2-7-3-8-5-3-5 5-6 6-3 17-10 9-4 5-3 4-5 6-12h2l1-9v-24l-2-8-9-15-4-5-12-9-9-5-10-5h-7l-11 6-8 5-6 3h-2l-1 3-8 4-9 7-4 2-2-3-1-108-1-8z" fill="#F9F9F8"/>
<path transform="translate(1141,246)" d="m0 0 7 3 13 8 4 3 14 7 9 5 9 6 6 3 6 5 8 3v2l8 2 3 3 11 6 3 3 15 8 8 5 7 3 10 5 10 6 2 3 1 160-1 23-1 1-8-1-3-3-11-6-10-7-14-8-10-6-14-7-10-6-7-3-12-7-5-3-4-3 1-5 5-4 7-4 5-3 14-8 9-7 3-1 7-8 3-9 2-8-2-15-2-12-7-13-6-7v-2l-4-2-9-7-9-4-1-1h-19l-11 6-9 6-11 8-7 5-5-1-1-3-1-67v-13l-1-19v-13z" fill="#FAFAF9"/>
<path transform="translate(431,1084)" d="m0 0 5 2 8 3 5 3 7 4 3 3 7 3 8 5 11 7 14 7 10 6 6 2 4 3 5 3 8 5 3 5-5 5-9 5-5 2h-3l-1 3-16 8-10 6-6 3-9 6-6 1v2l-10 6-6 2-3 3-11 5-5 3-9 5-7 3-12 8-5 3-5 4-7 3-4 2h-11l-10-5-5-4-13-8-6-4-7-3-19-10-12-7-11-6-5-3-9-5-3-3-12-6-4-3-9-4-6-3-9-5-8-5-2-3 1-4 8-5 6-3 10-6 10-5 3-3 6-3 9-5 8-5 14-8 11-7 8-4 6-1 3 2 3 9v54l2 10 4 4v2l6 2 4 3 16 6 14 2h12l5-2 13-2 14-5 3-3 5-3 3-7-1-8v-53l1-9z" fill="#FAFAF9"/>
<path transform="translate(1357,604)" d="m0 0 6 1 5 4 2 1v2l6 2 13 8 12 6v2l7 2 4 3 14 7 19 10 6 3v2l7 2 5 5-2 4-9 5-32 16-14 8-5 3-5 4-14 7-19 11-11 6-4 3-5 3-8 4-5 3-9 5-4 3-9 4-9 2-6-4-10-6-4-4-5-2v-2l-6-2-5-4-12-6-16-9-9-5-7-6-6-3-14-9-34-17-11-6-2-3 1-5 5-4 9-5 3-3 9-4 10-6 14-7 9-6 12-6 10-7 11-7 6-1 2 4-1 36-2 26 4 10 6 7 7 5 17 8 13 2 23-1 8-2 12-4 5-4 5-7 3-11 2-7 1-9v-54z" fill="#FAFAF9"/>
<path transform="translate(1305,104)" d="m0 0h5l9 3 3 3 9 5h4v-2h2v6h2v2l3 1 3 2 3 1 1-3 5-1 1 5v2l4 4 3 2v2l6 2 3 2v2l5 1 5 3 12 6 2 3 4 1 3 3 6 2 3 3 5 2 1 2 7 3v2h5l5 4 7 2 5 4 3 3 5 2 3 3 5 2 1 2h9l-1 5 9 2-1 3h6l2-2 1-4h3l-1 6h-2l1 5 3 2v2l5 1 4 6 1 39v124l-1 25v32l-3 6-5 1-2 4-6 1-1 3-6 1-1 3-6 1v2l-9 4-3 3-2-1-1 2h-4l-2 4-6 2-2 2-6 1-2 4-6 2-4 3h-3l-2 3-7 1-2 4-7 3-8 5-9 3-1 2-6 3-2 2-6 2-10 9-1 2-1 18v16l1 11 5 6 5 3 1 2 5 2 5 3 7 4 6 3v2l6 1 3 3 5 2 4 3 5 2v2l9 1 4 4 7 1 4 4 5 4 5 2v2h2v2l5 1 8 4 3 1v2h7l2 5 5 1 2 1v2h5v2l2 1 5 4 1 2v7l2 1-1 11 2 1-1 13v30l1 11h-2l1 3v19l-1 6 2 1-2 10 1 5-1 2v7l2 2-1 3-2 9h2v2h-2l1 2 1 12v4 15l-1 9 1 5-1 2v31l-2 5-9 6-5 4-6 2-5 3-5 4-6 2-5 3h-4l-1 3-7 3-5 3-7 4-5 2-5 3h-2l-1 3-7 2-1 3-5 1-1 3-13 6-3 1-1 2-7 3-4 3-11 6-5 3-3 1-3 3-6 3-2 2h-3v2l-9 3-1 3-6 3-9 5-8 4-2 2-10 1-5-4-6-3v-2l-5-1-3-3-9-3v-2l-6-1-4-3-5-2-5-3-5-2-10-8-11-7-1-1-7-1-4-4-7-4-5-2v-2l-6-1-2 4-6 3-2 2-4 1-3 3-6 1-1 3-6 3-2 2-5 2-2 2-7 3-2 2-7 2-4 3-4 1-2 3-6 2-2 3-5 1-3 4h-6l-1 3-6 2-3 3-4 3-2 2-6 2-5 3h-3l-1 3-6 3-7 3-15 9h-3l-1 3-4 2-1 2-4 2-1 6v32l-1 5h2l-1 8 1 25h-2l1 6v12l-3 5-9 6-3 3-5 2-5 3-6 4-12 6-4 3-5 1-1 3-5 1-1 3-7 1-2 5h-7l-2 4-6 2-1 2-8 3-8 5-14 8-4 3h-3l-1 3-8 4-3 2h-5l-1 3-5 2h-3l-1 3-6 3-8 5-7 4-2 2-8 3-6 2-1 2-6 3-10 2-1-3-5-1-8-4-2-3-7-2-1-3h-5l-1-4-7-1-3-3-7-3-10-7-5-2-3-2-6-2-4-3-7-3-6-3-5-3-6-2-3 2h-3l-2 4h-5l-1 2-3 1-1 2h-5l-2 4-7 2-3 3h-5l-2 4-5 2-1 2-6 2-3 3-6 1-1 3-6 3-2 2-5 2-4 3-12 6-8 5-2 2-5 1-4 4-6 1-1 3-14 6h-2l-1 3-12 6-4 4-5 3-4 4v14l1 7-1 2v13l1 3v10l-1 4 1 4-1 6 1 3-1 2-1 14-6 3-8 6-5 2-2 3-7 1-1 3-7 2-2 4-8 3-8 4-3 2h-3l-1 3-8 3-10 7-12 6-3 3-6 3-6 2-1 3-7 3-10 7-5 3-4 2h-3l-2 4-7 3-3 2h-3l-1 3-11 6h-3v2l-10 5-3 2h-3l-1 3-9 3-2 2h-2v-2l-5-1-5-4-7-3-6-3-2-3-7-1-2-5h-6l-4-4h-2l-4-4-5-2-1-3-6-1-3-3-7-3-7-4v-2l-6-1-3-2v-2h-5l-3-1v-3l-6-2-4-3-6-2-5-3-3-2v-2l-9-1-2-4h-4l-1-4-8-1-2-3-8-3-10-5v-2l-5-1-1-3-6-1-2-4-5-1-8-8v-2l-2-1-2-12-1-5 1-2 1-1h-1l1-14h-1v-29-1-7h1l1-28-2-1 2-6h-2v-70h2v-2l-2-1 1-21-2-6v-5h2v-11l6-8 5-2 1-3 6-2 4-3h3l1-3 7-2 2-3 4-2 4-3 7-3 2-2 5-2 2-2 7-3 2-2 5-2 8-5 3-2h4l2-4 7-3 6-2 1-3 7-3 4-3h3l1-3 6-4v-2l9-1v-2h2v-2h6v-32l-4-1-6-7-7-3-1-3-7-1-2-3-7-2-1-3-6-2v-2l-7-1-2-4-5-1-4-3-5-1-2-3-6-3v-2l-7-1-2-3-8-3-2-2-7-3v-2l-7-1-3-3-7-2-3-3-5-2-2-1v-2l-4-2-7-3-1-3-2-1v-2l-2-1-3-4v-14l1-13v-164l1-17h-2l2-10 2-7 4-4 1-2 5-1 1-3 6-2 3-3 6-2 6-4 2-3 6-1v-2l6-1v-2l9-4v-2l8-2 3-4h7l2-4 6-2 3-3 5-2 2-2 4-1 2-3 6-1v-2l9-5 6-3 4-4h6l2-4 6-1 4-4 5-3 9-1 1-4 5-1v-2h2v-2h4v-2l6-4h2l1-3 7-1 3-3 7-1h9l6 4 5 2 3 3 5 3 10 4 9 5 13 10 8 2 1 4 8-1 6 7v2l6 1 3 3 7 2 1 3 6 2 2 2 7 2v3l7 2 10 7 4 2 1 2 6 1 3 4 6 3 3 2h7l2-4 5-1 2-3 7-3 10-7h4l1-3 11-6h3v-3l8-2 4-4 4-1 2-3 5-3 7-3 3-3 8-5 5-2 5-3h4l1-3 6-1-1-34 1-10h-2v-6l1-4v-9h-1v-6l1-1v-7l-1-1v-8l1-2v-50l1-20 3-7 2-2 4-2 4-3 3-3 3-1 4-1v-3l6-1 1-3 7-2 1-3 7-2 2-3h3l1-2 4-3 5-2 10-7 5-2 4-3 4-2 3-2h5l2-4 7-1 1-3 2-1h6l2-5 6-1 5-4 4-2 6-2 1-3 8-3 7-4 1-2 7-3 2-2 6-2 4-3 4-2 4-3h5l2-4 9-1 5-3 5 2 5 3v3l6 1 5 2v2h4l2 3 10 4v2l7 1 2 3 7 2 5 3 2 3 6 1 2 5 10 1 3 1 2 3v3l6 1 3 4 8 3 7 4 4 2 6 4 5 2 2-2 2 5 6 2v3l3-1 4 1 1 3 8 4 7 2 4 4h6l3-4 5-3 6-4 2-2 7-2 9-6 7-2 3-4 5-1 4-3h4l2-5h7l-1-3 6-2h2l2-3 1-6 3 1v3l6-4h2v-3l6-1 2-5h7l3-3 1-146 5-12 7-5h2l2-4 6-3 2-2 7-3 8-4 4-3 3-3 14-7 5-3 5-2 8-5 3-2h5l2-4 6-4 7-3 7-5v-2l9-1v-2l6-3 4-3 5-2 2-2 6-2 7-7 6-2 3-3h3l1-2 2-2 7-3v-2l7-2 3-3 5-1 1-3zm-1 3-6 2-5 3-7 4-5 4-6 3-8 5-13 8-9 6-8 4-17 10-15 9-6 3v2l-7 2-4 3-12 6-9 5-14 9-8 4-9 6-7 3-8 7-4 3-2 8v16l-1 14v116l-4 5-17 10-6 4-14 7-3 3-11 6-2 2-8 3-10 6-14 7-8 5-9 7h-8l-10-5-11-6-10-6-7-3-4-3-12-6-4-3-10-5-3-3-6-3-5-3-10-5-5-3-4-1v-2l-11-6-15-8-18-9-5-2-1-3-7-2-12 2-3 3-7 3-19 11-9 5-7 4-11 6-5 3-4 2-1 2-7 3-18 9-9 5-10 6-6 3-9 6-5 3-8 5-8 4-9 6-11 7-10 7-6 6-1 14-1 146-9 6-16 8-10 6-14 9-6 4-12 6-9 6-12 7-4 3-6 3-9 6-1 1h-8l-12-7-8-5-6-3-4-4-10-5-3-3-7-3-10-6-12-6-7-7-8-2-7-4-5-2-7-7-7-3-19-10-5-4-7-3-3-2-9 1-14 6-7 5-10 6-3 2v2l-9 3-8 4-27 15-8 5-11 6-4 3-5 2-5 3-7 4-6 3-22 13-9 5-9 6-5 2-9 7-5 2-5 7-1 11v211l3 5h2l2 4 6 3 9 6 23 12 10 6 12 6h2v2l16 8 9 6 8 4 7 5 6 3 9 5 8 5 8 7 2 14 1 16-3 5-16 8-9 5-9 6-10 6-9 5-12 7-4 3-14 7-8 6-9 4-14 8-11 7-5 3-8 6-1 2-1 18v201l2 5 5 6 13 8 5 4 7 3 18 10 9 4 10 6 6 3 11 6 8 5 11 6 2 2 7 3 2 2 7 3 15 9 8 4 9 6 6 3 16 10 8 4 3 2h8l12-6 5-3 7-4 11-6 4-3 6-3 8-5 14-8 9-6 6-3 5-3 6-4 5-3 17-10 5-4 7-3 8-5 18-9 17-10 11-7 3-3 4-2 1-12v-35l1-36 7-5 5-3 8-6 14-7 5-3 12-6 9-6 16-9 6-3 5-3 6-4 5-3 9-5 7-5 11-6 2-1v-2l9-3 9-5 8-4 10-6 6 2 11 6 12 6 9 4 17 10 9 6 7 3 15 9 14 7h7l15-8 7-4 7-3v-2l7-2 4-3 6-3 10-6 7-3 9-6 6-3 9-6 15-9 6-2 3-3 14-7 25-15 12-6 3-3 6-3 9-5 10-8 1-6v-88l5-7 12-7 9-6 9-4 8-4 9-6 13-8 10-6 14-7v-2l7-2 9-6 25-13 9-6 6-3 8-5 9-5 1-1h6l3 3 8 2v2l10 5 6 2 3 3 10 6 8 7 8 2v2l9 4 15 7 12 8 5 3 1 1h7l19-10 14-9 8-4 10-7 6-3 25-15 22-11 2-3 11-6 8-5 10-5 15-8 18-10 8-4 11-7 3-2 1-192v-13l-1-19-10-9-12-6-6-4-14-7-21-14-9-4-9-3-5-3-7-5-5-1v-2l-16-8-16-10-7-6h-2v-50l6-7 5-3 1-2 14-7 5-3 5-2 9-5 10-6 6-3 7-5 9-4 7-5 7-3 9-5 11-6 5-2 4-3 14-7 5-4 1-2v-27l1-101v-81l-1-14-3-4-6-3-8-6-11-7-16-9-10-7-4-1v-2l-10-4-8-4-4-3-9-5h-2v-2l-8-4-15-9-8-4-15-10-8-5-14-8-9-5-19-11z" fill="#E5E6E1"/>
<path transform="translate(1189,358)" d="m0 0 7 1 6 4 5 4 10 13 3 10 1 14-6 9-10 7-21 11-8 5-13 7h-2v2l-10 6-14 7-5 3-12 8-12 6-4 3-6 3-15 9-14 8-11 7-6 3-11 6-8 4-2-2v-65l5-5 12-7 9-5 25-15 14-7 9-5 10-6 6-3 9-6 20-12 14-7h2l1-3 12-7z" fill="#FAFAF8"/>
<path transform="translate(1202,841)" d="m0 0 6 1 8 7 6 9 4 7 4 13v13l-5 5-9 7-7 3-8 5-10 3-9 6-8 4-14 8-11 7-5 2-9 5-10 4-9 4-13 8-11 7-22 13-16 10-12 7-3 3-7 1-2-5v-44l3-9 5-6 11-8 12-8 2-2 8-3 11-7 6-4 6-3 9-6 11-7 9-5 8-5 8-4 14-9 9-6 6-3 8-5 9-6 10-5z" fill="#FAFAF9"/>
<path transform="translate(723,602)" d="m0 0 6 1 5 3v2l6 1 2 4 4 2 6 10 3 11v11l-4 8-5 4-15 9-6 3-11 6-7 5-10 5-5 3-12 7-3 3-6 2-15 9-2 2-7 3-5 3-11 6-13 8-8 5-10 5-8 6-8 4-6 5h-5l-1-1v-38l-4-5-8-7-3-6 4-6 14-8 15-9 15-8 3-3 7-1v-2l9-4 9-5 8-7 5-3 5-2 5-3 3-1 2-3 7-3 20-12 10-7 10-6 11-5z" fill="#FAFAF9"/>
<path transform="translate(727,1100)" d="m0 0 9 1 10 7 5 6 5 7 2 7 1 1v8l-6 8-5 3-4 4-11 8-10 6-7 4-12 6-8 6-8 4-9 6-6 3-11 6-5 4-7 3-4 3-8 4-5 4-14 7-9 5-8 4-2 2-7 3-5 3h-3v2l-10 5-4-1-2-4 1-56 7-6 7-2 5-4 16-8 5-4 7-3 8-5 8-4 9-5 30-18 11-6 5-3 8-5 14-8 14-7z" fill="#FAFAF9"/>
<path transform="translate(1271,532)" d="m0 0 4 1 9 6 5 3v2l4 2 1 3h8l6-4 5-3 8-5 12-2 4 3v105l1 25-3 5-5 4-7 4-9 2h-15l-12-3-10-4-7-6-1-8 2-8 1-5 1-22v-49l-2-24-2-18z" fill="#F9F9F8"/>
<path transform="translate(1157,471)" d="m0 0 5 1 6 4 8 3v2l7 2 4 3 7 3 8 4 15 9 10 4 4 3 9 5 9 7 3 4v51l-3 1-2 4-9 6-5 4-12 6-9 6-10 5-10 6-10 5-3 3-8 3-11 7-6 2-10 6-12 7-5 3-4 1-2 4-3 3-2 9 1 8-1 23v27l-1 4 1 14-1 7v13l1 1-1 11v36l1 5-1 5v13l1 3v10l1 14-2 5-6 5-9 6h-2v2l-11 6-5 1v2l-8 4-14 9-8 4-4 3-11 6-2 2-4-1-1-1-2-10-4-5-6-5-8-4-5-4-7-3-22-12-15-8-5-2v-2l-6-2-9-6-9-4v-2l-6-2-5-3-6-2-8-6-14-7-4-3-10-5-5-4-12-6-5-3-9-2-5-2-11 1-12 5-18 9-15 9-9 5-16 9-16 8-5 3-6 4-14 7-5 3-6 4-12 6-4 3-6 3-6 4-7 3-2 3-7 3-9 7-8 6-1 10v202l-5 5-11 7-11 6-4 3-5 1v2l-10 5-8 3-3 3-6 3-7 6-7 1-1-2-2-19-5-6-21-14-14-7v-2l-6-2-10-6-15-8-10-6-7-3v-2l-7-2-13-8-6-2-5-3-11-7-11-9-2-3v-29l6-7 15-9 5-2 20-12 7-4 5-4 7-3 8-5 8-4 11-7 11-6 11-7 6-3 16-10 8-6 1-46v-101l3-5 9-5 5-2 5-3 5-2 9-5 6-3h2v-2l13-8 5-3 12-6 9-5 8-5 7-3 3-3 6-3 12-7 6-1 6 3 5 3 5 4 7 3 10 6 5 2 10 7 7 3 5 3 11 6 16 8 10 6 16 8 5 3 6 4 8 4 12 3h6l10-4 9-6 12-6 3-3 8-3 9-6 8-2v-2l15-9 15-8 16-10 9-6 9-4 12-7 5-3 8-5h2l1-3 7-3 10-7 7-4 9-7 1-2 1-30v-105l4-5 13-8 14-8 9-6 6-3 5-3 11-6 4-3 5-2 9-6 9-5 5-4 6-3 9-5 8-4zm-2 3-4 2-2 4-4-1-3 2-2 2-5 1-1 3-7 2-4 3-5 2-1 2-5 3-3 2-5 2-1 2-7 2-2 3-5 2-4 3-4 1-4 3-4 1-3 3-5 2-3 3-4 2v2l-7 1-2 4-7 2-1 2-5 2-2 6 1 71-1 6v46l-2 10-1 3-8 6-4 2v2l-5 1v2l-9 3-2 3-12 6-2 3-6 2-3 3-6 4-5 2-1 2-9 3-1 2-7 3v3h-5l-2 3-7 3v2l-6 2-10 5-7 4v2l-8 2-2 3-6 2-4 3-7 4-5 2-5 3-3 1-1 2-8 3-1 2-14 7-7 4 4 2 14 5 3 1 1 2 7 3 3 2h4l1 4 7 2v2l7 3 3 3 6 2 5 3 8 5h3v2l9 2v3l7 3 9 5h2l1 2 12 7 7 3 4 3 6 3 5 2 9 5 6 4 4 2 1 2 7 1 4 4 5 2 2 2 4 2 6 7 3 3v7l2 2 8-6 6-2 3-3 6-2v-2l6-2v-2l7-2 3-4 6-1 3-3 6-1 2-3 5-3 7-3 4-4 6-5v-194l1-11 4-6 3-2v-3l6-1 4-3 5-3 8-4 1-2 7-2 3-3 5-1v-2l6-2 6-4 7-3 6-4 1-2 7-2v-2h2v-2l3 1 3-1 2-3 7-2 2-3 5-1 3-3 6-2 3-3 5-1 1-3 8-5 2-1v-2h2v-3h2l2-5-2-9h-1l-1-7h2v-13l-1-1v-13l1-2-4-5-5-1v-2h-2v-2l-4-1-3-3-5-2-1-2-8-1-2-2-7-4-3-3-14-7-3-2h-4l-2-4-7-1-1-3-10-2-1-3zm-465 244-5 4-6 2-1 2-7 3v2l-7 2-4 3-12 6-4 3-7 4-7 2-3 3-6 4-5 2-2 3-6 1-2 3-16 8-11 6-4 2-2 4 1 7 1 2-1 14 1 9v60l-1 5 1 4-2 22v9l-1 2-1 14-6 5-3 1-3 3-5 1-2 3-5 3-8 4v3l-8 1-3 3-3 1-3 3-6 3-1 2-7 2v2l-7 2-4 3-5 3-7 3-4 3-5 3-11 6-3 2v2l-8 2-3 3-6 2v3l-6 1-4 3-4 1-3 5-1 17v2 9l4 5 5 1v3l10 6 3 2 11 6 6 2 1 2 8 2v2l6 3 5 3 5 2 5 3 3 3 7 2 2 3 7 3 8 4 5 3 2 1 1 3h5l4 4 6 1 1 2h2v2l5 3 8 5 5 5 3 1 2 22h5l4-4 5-4 5-2 1-2 9-3 2-2 7-3 8-4 1-2 5-2 1-2 7-2 2-3 3-1v-2l5-2 3-1v-67-3-14l-1-4 1-2v-40l-1-1 1-4v-9h-2l2-4 1-56 1-11 10-8 7-3 1-3 5-2 9-5 4-3 3-1 1-2 8-3 1-2 10-5 5-3 7-3 2-3 7-2 1-2 7-3 8-5 4-2 3-1 3-3 6-2 3-3 5-1 3-3 6-2 1-2 6-2 3-3 4-1v-2l9-3 2-3 7-2 1-2 7-3 14-7 8-1-4-5-11-3-5-3-4-2-1-2-8-2v-2l-9-2-1-3-9-5-5-2-5-3-8-4-4-1-2-3-7-2-1-2-9-3v-2l-8-4-5-2-1-3-7-2-2-3-7-2-1-2-7-3-7-4-1-2z" fill="#E5E6E1"/>
<path transform="translate(404,1031)" d="m0 0 4 1 1 2v20l-1 57v29l-1 10-5 6-9 3-1 1h-21l-7-1-14-6-5-4-1-3v-110l3-3h7l5 4 7 2 8 6h5v-2l20-10z" fill="#F9F9F8"/>
<path transform="translate(671,486)" d="m0 0 7 3 14 8 11 7 12 6 4 3 6 3 10 6 6 3 15 8v2l9 3 9 6 6 3 9 5 16 10 13 7 9 6 2 5v159l-1 23-4 2-7-3-8-5-8-4-5-3-6-4-11-6-9-5-7-5-8-4-9-5-8-4-2-2-7-3-8-5-3-5 5-6 6-3 17-10 9-4 5-3 4-5 6-12h2l1-9v-24l-2-8-9-15-4-5-12-9-9-5-10-5h-7l-11 6-8 5-6 3h-2l-1 3-8 4-9 7-4 2-2-3-1-108-1-8zm0 2-1 3 1 22v70h2v2h-2v7 3 9l6-2 2-3h2v-7l9 2 1-3 5-2 3-3 5-2 3-3 4-1v-2l-5-2-5-1 5-5 4 5 9 1 7-1 2-1 1-1v3l4 2 1 2 9 1-1-6-1-2h-6l1-3-2-1 3-3h1l6 1 5-1h2l2 4v2l-3 2h-7l1 3 4 1-3 2h2l1 6h3l1 3 1-2 5-1 1 3-4 1h2v3l5 4 1-5 2 1v5l-2 1 7 1 2-1-5 5h2l2 7h2l1 3 5 3 7 1-3 2-4 2-4-5 1 8 1 2 1 13v8l1 3-3 1-2 7-4 5-2 7-4 5-9 6-7 2-8 5-8 4-2 2-5 2-5 5 7 5 10 5h3l1 3 15 7 3 3 7 3 8 6 6 2 4 3 5 2 10 7 6 3 6 2 4 4 4 2 1 2h6v-104h-2l1-1 1-4v-6l-1-2-5-1-2-4-2-7-5-1v-3-2l2-1v-3-4h4v9l-1 3 3 9 3 2 4-1v-62l-5-4h-4l-2-4-6-2-1-2-5-2h-3l-1-3-9-5-3-1-2-3-7-2-2-3-7-1v-2h-2v-2l-4-1-3-3-6-2-2-2-6-3-5-3-7-4-5-2-5-3h-2l-1-3-6-1-2 1 1 5-1 3-3-2 3-1-1-3-5-1-13 2 1-4h5l1-3 2 3 6 1 4-4-7-3-1-2-9 1v-6l-7-3-2-1v6l-4 1 3-3v-5l-3-1-1-2-7-3-3-3z" fill="#E5E6E1"/>
<path transform="translate(431,1084)" d="m0 0 5 2 8 3 5 3 7 4 3 3 7 3 8 5 11 7 14 7 10 6 6 2 4 3 5 3 8 5 3 5-5 5-9 5-5 2h-3l-1 3-16 8-10 6-6 3-9 6-6 1v2l-10 6-6 2-3 3-11 5-5 3-9 5-7 3-12 8-5 3-5 4-7 3-4 2h-11l-10-5-5-4-13-8-6-4-7-3-19-10-12-7-11-6-5-3-9-5-3-3-12-6-4-3-9-4-6-3-9-5-8-5-2-3 1-4 8-5 6-3 10-6 10-5 3-3 6-3 9-5 8-5 14-8 11-7 8-4 6-1 3 2 3 9v54l2 10 4 4v2l6 2 4 3 16 6 14 2h12l5-2 13-2 14-5 3-3 5-3 3-7-1-8v-53l1-9zm1 4-1 1-1 13v50l1 5v5l-10 10-6 3-3 3-3 1-10 1-2 3h-10l-6 1-23-1-3-1-1-2-9-2-3-3-5-1-4-4-7-6-4-13h-2l1-13v-20l1-4v-14l-2-10h-5l-4 3-5 2-10 7-5 2-1 2-7 2-3 3-5 3-7 3-3 3-5 2-6 4-3 3-6 2v2l-8 2-3 3-5 2v2l-6 2 2 4 9 5 11 6 6 4 5 1 6 4 5 2 1 2 12 6 4 3 5 2 2 3 7 2 1 2 9 3v2l6 3 9 3v2l8 4 8 3 2 3 6 3 7 3 3 3 5 4 6 3 3 2h9l7-4 5-2 3-3 7-4v-2l9-3 2-3 7-2 3-3 6-2 3-3 6-1 2-3 4-1 4-4 7-2 10-7 5-1 3-3 6-4 14-7 2-3 7-1 3-3 5-2 4-3 5-1 3-3 6-2 1-2 4-2-5-6-7-3-6-3-3-3-7-1-4-4-5-3-5-2h-3l-1-3-7-3-1-2-8-2v-2l-5-2-2-3-7-1-2-4-7-4-5-2-1-2z" fill="#E5E6E1"/>
<path transform="translate(1357,604)" d="m0 0 6 1 5 4 2 1v2l6 2 13 8 12 6v2l7 2 4 3 14 7 19 10 6 3v2l7 2 5 5-2 4-9 5-32 16-14 8-5 3-5 4-14 7-19 11-11 6-4 3-5 3-8 4-5 3-9 5-4 3-9 4-9 2-6-4-10-6-4-4-5-2v-2l-6-2-5-4-12-6-16-9-9-5-7-6-6-3-14-9-34-17-11-6-2-3 1-5 5-4 9-5 3-3 9-4 10-6 14-7 9-6 12-6 10-7 11-7 6-1 2 4-1 36-2 26 4 10 6 7 7 5 17 8 13 2 23-1 8-2 12-4 5-4 5-7 3-11 2-7 1-9v-54zm1 2v27l2 17 1 3-1 5-2 8-1 11-4 6v5l-2 3h-2l-1 4-4 1-4 4-6 2-3 2-13 2-16 2h-6l-7-3-9-1-2-3-9-3-7-4-3-3h-3l-2-4-6-9-1-3v-21l1-9 2-2v-33h-5l-5 4-5 2-1 2-5 3-7 3-2 3-7 2-1 2-7 3-5 3-6 4-5 2-8 4-3 3-6 2-10 7-4 2v2l-4 2 5 5 8 4 9 4 2 2 8 3 8 5 8 3 3 3 3 1 3 3 6 3 3 2h2v2l8 5 4 2 2 2h3v2l6 2 2 2 8 2v3l8 2 1 2 7 4 5 3 1 2 7 2 2 4 9 5h2l1 3h7l2-3 9-3 8-4 2-3 5-1v-2l7-2 3-1 3-3 3-1 4-4 4-1 1-2 7-3 6-3-1-4-2-1 8 1 5-3 8-3 2-3 6-1 1-3 5-2 9-5 9-6 8-3 5-3 5-4 5-1 5-3 7-3 4-2 2-2-2-2h-3l-1-3-5-2-4-3-5-1v-2l-16-8-2-2-7-3-9-5-6-3-4-3-6-2-4-3-7-4-4-2-5-3h-2l-1-3-6-3-1-2z" fill="#E5E6E1"/>
<path transform="translate(1136,685)" d="m0 0h8l10 6v2l7 2 9 6 15 9 9 5 10 6 11 6 15 9 4 3 15 9 11 6 17 9 5 3 11 8 1 3v184l-4 2-14-7-9-7-7-5-9-5-11-6-10-5-5-4 2-4 11-10 8-8 2-9-1-26-3-8-7-14-4-5-4-3v-2l-3-1-5-5-11-7h-12l-9 2-18 10-14 8-10 7-6 1-4-3-1-6 1-77-1-37v-15l-1-25zm4 2-1 1 1 25v133l5 1 2-4 6-1 1-2 7-3 3-3 5-2v-2l7-1 5-4 4-1 3-3 9-1 3-2h8l8 4 1 2 6 1v3l8 7 7 7 3 6 2 1 2 7 3 3 3 16 1 17-5 14-3 2v2l-4 2-5 5-3 1-3 5h2l1 3 7 3 5 3 8 4 2 2 6 2 5 4 3 3 4 2 1 2 18 9 1-5v-177l-4-5-5-3-2-2-5-2-5-3-6-4-6-2-4-3-3-1-1-2-8-2-1-3-12-6-2-3-7-3-5-3-6-4-12-6-5-3-5-4-4-2-1-2-8-2-1-3-7-3-9-5-6-2-1-3-6-3-2-2z" fill="#E5E6E1"/>
<path transform="translate(1141,246)" d="m0 0 7 3 13 8 4 3 14 7 9 5 9 6 6 3 6 5 8 3v2l8 2 3 3 11 6 3 3 15 8 8 5 7 3 10 5 10 6 2 3 1 160-1 23-1 1-8-1-3-3-11-6-10-7-14-8-10-6-14-7-10-6-7-3-12-7-5-3-4-3 1-5 5-4 7-4 5-3 14-8 9-7 3-1 7-8 3-9 2-8-2-15-2-12-7-13-6-7v-2l-4-2-9-7-9-4-1-1h-19l-11 6-9 6-11 8-7 5-5-1-1-3-1-67v-13l-1-19v-13zm-1 3v56l1 54 3 1 4-2v-2l6-2 1-3h2v-2l3 1 4-4 3-1v-2l6-2 6-4 7-2h7l1 1 13 2 3 3 5 2 1 2h3v2l5 4 2 1 1 3 5 5 5 10h2l2 11 2 6 1 13-2 13-4 8-8 8-3 1-3 3-5 4-6 2-1 3-7 3-6 3-3 3-6 2-2 5 7 5 6 2 2 2 3 1 2-1 1 2v2l9 2v3l8 2 1 3 5 1 2-1 1 4 7 3 10 6 5 2 2 3 5 2 4 3 4 1 5 4 3 1 3 3 6 4h3v-182l-10-6-8-4-5-1v-2l-9-3-1-2-7-4-8-3-7-7-7-3-9-6-6-3-8-3-2-3-5-3-6-3-3-3-6-2-1-2-7-3-2-2-7-2-3-3h-5l-2-4-3-1-2 1-1-3-7-4h-2v-2z" fill="#E5E6E1"/>
<path transform="translate(544,736)" d="m0 0h5l2 2-1 25-1 43v97l-1 21-5 4-12 5-10 6-5 1v2l-12 7h-2v2l-8 4-2 2-7 3-5 3-12 6-8 6-6 1v2l-10 6-6 3-10 6-6 3-9 6-4 2-3 3-5 3-8 6-5-1-2-7-1-28 1-55v-16l1-18v-60l4-6 5-4 6-4 14-7 5-3 12-6 3-3 13-8 6-3 9-5 14-7h2l1-3 7-3 9-5 15-9 8-5 15-9 8-4zm1 2-10 7-5 2-4 3-4 1-3 3-6 4-5 2-1 2-8 3-1 2-6 2-3 3-5 2-5 3-7 4-5 2-5 3-9 5-4 3-5 2-1 3-7 1-2 4-5 1-4 4h-3l-4 4 1 6-4-1-2-4-4 3-12 6-2 3-4 1-1 4v109l-1 46 1 25 2 3 2-3 5-3 7-5v-2l6-1 4-3 4-2 1-2 7-3 3-2 5-3 2-2 5-2 8-4 1-2 7-3 3-2 4-2 1-2 7-2 2-3 7-2 2-3 7-2 3-3 11-6 10-7 4-1 4-4 5-1 2-3 7-1 4-4 4-1 1-166v-17z" fill="#E5E6E1"/>
<path transform="translate(1471,246)" d="m0 0h5l2 2-1 17v163l-3 5-7 5-14 7-10 6-12 6-3 3-12 6-4 3-6 3-10 6-12 6-4 3-6 3-8 5-15 9-8 4-10 7-13 8-4-1-1-1v-181l4-7 17-10 7-4 12-6 4-3 6-3 17-10 9-5 7-4 5-3 8-4 5-3 10-7 14-8 10-5 11-7 6-4zm-1 3-10 5-3 3-4 2v2l-9 2-8 6-4 2-3 1-3 3-5 2-3 3-7 4-5 2v2l-7 2-20 12-5 2v2l-7 2-1 3-7 1-2 3-6 2v2l-9 3-4 3-3 1-1 2-8 3-1 2-4 2-3 5v164l-1 15 6-1 3-2v-2l6-1 5-4 4-2v-2l7-2 4-3 4-2v-2l6-2 2-2 3-1 5-3 3-2 4-1 3-3 7-4 7-2 4-4 4-1 2-3 6-2 1-3h5l2-4 7-1 2-3 5-2v-2l8-2 4-4 4-1 1-3 8-2 2-2 7-2 1-2 4-2v-164l1-14 1-4z" fill="#E5E6E1"/>
<path transform="translate(545,1162)" d="m0 0 5 2 1 1-1 8-1 40v95l-1 44-2 3-15 6-4 3-8 1-8 7-14 9-13 6-5 3-8 4-9 6-5 3-8 4-10 6-8 5-6 3-9 6-5 3-8 6-5 1-1 3-4 2-7-1-1-2 1-72v-93l-1-13 4-6 11-8 8-5 8-4 24-15 4-1 1-3 7-3 5-3 6-4 12-6 9-5 9-6 6-3 9-5 8-5 8-4 11-7zm-3 4-3 3-5 2v2h-2v2h-5l-2 3-7 2-2 3-5 2-5 3-11 6-10 7-5 2-4 3-5 2v2l-7 1-2 4-7 1-2 3-6 2v2l-6 2-9 6v2l-6 1-3 3-5 2-3 3-6 2-1 2-5 2-3 3-10 6-1 7 1 14v61l-1 87 1 1v5l-2 6 4 1 13-8 6-5 5-2 7-6 7-2 3-3 5-2 1-2 8-3 1-2 7-2 3-3 3-1 4-4 5-3 7-3 2-2 6-2v-2l7-2 5-3 5-2 4-4 4-1v-3l5-1 1-3 8-1 7-4 5-2 7-3 3-3 1-184z" fill="#E5E6E1"/>
<path transform="translate(671,932)" d="m0 0 7 2 4 3 14 7 3 3 11 6 9 6 14 7 1 3 7 2 2 2 7 3 5 3 11 6 11 7 5 2v2l6 2 9 7 6 3 15 9 8 5 3 4-1 179-3 3-9-4-20-12-12-6-5-3-7-3-12-8v-5l12-11 3-5 1-3v-16l-1-10-4-12-5-10-6-8-5-6v-2l-5-2-7-6-5-1-16 2-11 5-8 4-14 9-9 5-5 3-5 1-2-4v-164zm0 3v165l2 1 5-2 2-3 5-1v-3l2-1h-4v-6h3l2 6 4-1 3-3 5-1v-3l8-2 4-3 2-1-3-6 4 1v3 2h2l3-3 9-1h16l3 5 5 1v2l4 2 3-1 2-6 4 5v3l3 3-4-2-3-1-1 3 1 4 3 2 1 3 3 2 3 7 2 2 1 8 4 5v25l-1 10-8 8v2l-5 1-1 6 6 2 2 3 6 2 5 3 5 4 7 2 10 6 6 2 1 3 6 2 3 3h5v-178l-5-5-4-1-3-3-6-1-1-3-7-2-1-3-5-2-7-5-1-2-7-3-8-5-4-2h-4v-3l-8-4-9-6-6-2-5-3-6-4-4-2h-3v-2l-6-3-5-3-3-3-6-2-3-3-12-6-2-3-7-1-1-3z" fill="#E5E6E1"/>
<path transform="translate(205,734)" d="m0 0 5 1 5 4 6 4 6 3 9 6 6 3 24 14 6 3 5 3 9 5 11 6 10 7 6 3 11 6 4 2v2l6 1 7 4 5 3 8 4 5 3 8 6-1 48v123l-1 12-2 2h-5l-11-9-7-3-8-4-17-9-9-6-6-3-5-3-11-6-10-6-6-3-8-5-15-9-8-4-5-3-7-3-7-2-9-6-5-6-1-186zm1 2-1 1 1 22v161h2l1 3h2l2 5 5 2 4 2 9 3 5 3 6 4 7 2v2l6 1v3l8 3 1 2 5 1 2 3 7 3 2 2 6 2 3 3 5 2 5 3 5 4 7 2 1 2h3v2l4 3 5 1 3 3 9 4 10 5 5 3 7 5 1 2 3-1v-173l1-3-2-7-3-1-1-2-8-5-6-1-1-3-7-3-2-2-7-2-3-3-6-1-1-3-6-2-1-2-7-3-5-3-5-4-6-3-11-6-4-1-1-3-7-1-2-4-6-2-4-3-11-6-1-2-8-3-8-6-6-2-3-3-5-3z" fill="#E5E6E1"/>
<path transform="translate(205,1164)" d="m0 0h6l4 4 5 3 8 5 13 7 4 3 5 2v2l9 3 15 9 8 5 8 4 5 3 7 4 20 12 6 3 4 3 6 3 8 6 7 2 3 2 6 2 3 5v179l-3 4-4-1-6-3-9-5-10-6-6-3-5-3-9-5-6-4-10-5-5-4-6-3-7-5-9-4-8-5-13-7-1-2-7-3-7-5-12-4-8-5-6-4-4-6v-182zm1 2v159l1 20 4 7 6 3 2 3 5 1 3 3 8 1 4 4 6 3 5 3 1 2 8 3 6 4h2v2l9 4 8 3 4 4 7 4 5 4 7 3 6 2 2 4 7 3 6 3 5 3 5 2 3 1v2l10 5h3v3l7 1 1-138-1-44-1-1-7-1-3-3-9-1-2-4-4-2-1-2-7-3-3-3-6-2-5-3-7-4-5-4-7-2v-2l-6-3-7-3-2-3-7-3-2-2-6-2-3-3-7-4-6-2-1-2-7-3-1-2-8-3-7-5-6-3-3-3-3-1-3-3z" fill="#E5E6E1"/>
<path transform="translate(1470,685)" d="m0 0h6l2 2-1 11 1 5-1 5v36l-1 17 1 11-1 33v61l-3 5-5 4-7 3-5 3-12 6-10 7-11 6-4 3-6 3-11 6-4 1-1 3-8 3-5 3-12 8-7 3-9 6-5 3-6 3h-2v2l-8 4-5 3-11 6-4-1-2-3 1-15 1-163 3-5 8-6 14-7 8-5 8-4 2-2 7-3 9-6 6-3 9-6 14-7 5-3 6-4 6-3 8-5 13-8 16-9zm0 2-2 3-8 3-3 2-5 3-8 4-9 6-5 2-3 3-6 3-2 2-12 6-4 3-4 2-1 2-8 2-3 3-3 1-3 3-6 4-3 1-5 1-2 4-5 1-1 2-7 3-4 3-5 2v2l-6 1v2l-10 3-3 3-3 1-3 6v15l-1 6v106l-1 49 1 1h6l2-4 7-1 4-4 5-1 2-3 5-2 4-3 9-5 3-3 7-3 8-5 3-2 5-2 3-3 5-1 4-3 11-6 4-3 5-2v-2l5-1 3-3 6-2 3-3 4-1 4-4 5-1 2-3 4-2v-3l-2-1 1-3 4 4 7-2 2-2 6-2v-175l1-6z" fill="#E5E6E1"/>
<path transform="translate(837,370)" d="m0 0 4 1 6 7 5 3 9 3 10 5 8 5 8 4 9 5 8 5 10 6 11 6 9 5 15 9 11 7 7 3 7 5 7 3 18 9v6l-9 5-10 5-7 3-4 3-5 2-9 5-11 7-11 6-9 5-15 9-9 5-8 4-9 6-14 7-15 10-8 5-8 4-9-5-14-8-5-4-9-5-4-3-12-6-4-3-14-7-9-6-6-3-9-5-9-6-14-7-4-3-10-5-10-7-13-7-1-2 5-5 12-7 5-4 11-6 4-3 5-3 8-4 9-6 5-1 1-3 8-5 14-7 5-3 11-6 4-3 9-5 5-3 7-5 12-6 3-3 11-7zm0 4-5 3-7 3-2 3-5 3-3 2-5 2-6 4-2 1v2l-5 1-3 3-6 2-3 3-14 7-9 6-6 2-3 3-5 2-1 2-6 3-8 5-7 3-2 3-5 2-4 3-4 2v2l-8 2-1 2-5 3v2l-8 2-4 5 8 3 5 3 8 5h2l1 3 7 3 5 1 2 4 9 4 4 2 2-1v2h2l1 3 3 1 2-1 1 4 7 3 10 6 5 2 2 3 7 2 1 2 5 1 2-1 1 4 8 2 1 2 5 1v2h2l1 3 5 1 4 4 6 4 5 3 8 4 4 3 8-1 3-4 5-2 6-3 1-2 6-3 5-3 7-5 4-1v-2l9-3 1-2 7-2v-3l6-1 4-3 5-2 4-3 4-1 2-3 7-3 10-6 5-2 3-3 5-2v-2l8-3 10-6 7-3 10-6 7-2v-5l-15-7-1-2-8-3-1-2-8-2v-2l-8-2-2-4-12-6-1-2-7-3-2-2-7-3-5-3h-2v-2l-7-3-1-2-6-2-3-3-22-11-2-3-5-1-3-3-8-3-2-2-9-2-9-8z" fill="#E5E6E1"/>
<path transform="translate(837,822)" d="m0 0h8l13 7 6 4 6 3 9 5 10 6 9 4 8 5 5 3 7 5 9 3 1 2 8 3 8 7 14 7 20 11 17 8 5 3-1 4-13 7-10 5-22 13-9 5-10 6-6 3-5 3h-2v2l-9 4-9 6-7 3-8 6-6 3-9 5-3 2-6 2-7 6-6 3-8 6h-10l-3-3-7-3-15-9-14-8-5-4-11-6-9-5-8-4-20-12-9-5-3-3-6-3-10-6-7-4-6-2-2-3-13-5-5-3-1-6 8-5 4-2h3l1-3 21-12 15-8 10-6 8-4 5-3 14-8 11-6 4-3 12-6 4-3 5-3 18-9 9-3zm-3 4-18 6-2 3-7 3-10 6-5 2-4 3-4 1-2 3-5 2-2 2-14 7-1 2-8 3-1 2-8 3v2l-7 2-2 2-5 2-4 3-5 2-4 3-11 6-8 4-3 3-5 2-3 3-3 2 1 4 10 3 8 4 3 3 6 1 1 3 7 3 5 3 7 4 4 4 7 3 6 2 1 3 5 2h3l1 3 6 2 2 3 7 2 1 2 7 2 2 3 7 3 6 4 1 2 7 3 6 3 2 3 6 2 1 2 9 4 6 3h10l5-2 4-4 4-1 7-7 7-1 1-4 8-1 2-3 7-3v-2l6-2 1-2 7-2v-3l5-1 4-3 7-2 3-3 5-3 4-2 4-1 4-4h2l4-4 6-2 8-6 7-2 2-3 6-3 9-4 5-3 2-1v-2l6-1 2-2-9-4-8-3-1-2-8-3-1-2-7-3-22-11h-2l-6-8-8-1v-2h-2v-2l-9-2-6-5-1-2-8-3-8-6-7-3-8-4-1-2-7-2-2-3-8-1-2-4-5-2-6-3z" fill="#E5E6E1"/>
<path transform="translate(1e3 933)" d="m0 0 5 1 1 1 1 20v160l-3 5-6 1v2l-18 9-10 6-5 2-2 2-7 3-8 6-8 5-6 3-12 7-12 6-5 3-9 5-10 8-6 3-14 8-11 7-6 1-2-2-1-65v-112l3-5 11-9 9-7 6-3 5-3 11-7 14-8 4-3 14-7 10-6 6-3 10-6 6-3 17-10 6-3 9-6 7-3zm-2 3v3l-8 1-5 4-3 1v2l-7 2-6 4-12 6-1 2-7 3-5 3-2 1v2l-9 3v2l-8 2-1 2-6 3-3 2-7 2-1 3-5 1-3 3-6 2-3 3-5 2-1 2-6 3-12 8-4 3-4 1-2 4-3 1-4 4-1 56 1 122h5l2-3 7-3 7-4v-2l7-1 4-4 6-2 3-3 8-7 9-4 5-3 3-1 1-2 8-3 8-4 2-3 6-2 3-3 4-2 6-4 1-2 8-3 10-6 6-2 3-3 6-2v-2l8-2 1-3 7-1 1-1v-181z" fill="#E5E6E1"/>
<path transform="translate(1303,133)" d="m0 0 7 1 7 4 5 4 16 8 9 5 7 5 7 3 10 6 6 3 7 4 3 3 14 7 9 5 10 6 12 6 5 3 9 5 15 10 1 3-2 5-9 5-7 3-5 3-11 6-9 5-16 9-10 6-12 6-3 3-10 5h-2l-2 4-7 3-15 9-8 5-22 12-6 3-7-1-4-3-5-2-3-3-11-6-3-3-7-4-11-7-20-10-11-7-12-8-9-4-8-5-6-3-10-6-7-3-6-3-3-3-12-7v-6l8-6 7-3 9-6 6-5 14-7 8-5 8-4 5-3 12-8 7-3 11-6 9-5 6-4 5-3 6-3h2v-2l10-5 12-7 4-3zm-2 3-3 3-5 3-8 4-1 2-8 2-4 4-4 2-3 2-4 2v2l-7 1-1 3-7 2-5 3-7 5-5 2-8 5-6 3-4 3-5 2-4 3-7 4-5 2-5 3-4 2v3l-5 1-2 2-6 2-2 3-5 2v2l-7 2v6l8 2v2l5 2 2 3 7 3 8 4 5 3 12 6 4 3 5 3 7 3 2 2h4v2h2v2l7 3 5 4h2v2l18 8 5 3 15 10 4 3 11 6 1 2 9 4 3 1 5-4 5-1 4-3 5-2 4-3 4-1 2-3 7-3v-2l6-2v-2l8-2 3-3 6-2 2-3 3-1 3-3 5-1v-2l5-2 5-4 5-3 9-3 2-3 4-1v-2l9-3 4-3 7-4 6-3 2-2 7-2 2-3 6-1 3-3 5-3 1-4-5-2-6-4h-2l-1-3-7-3-2-2-5-2-4-3-7-4-6-1-1-3-7-3-5-3-4-3-8-3-6-4-1-2-7-3-2-2-7-3-10-6-5-2-2-2-8-5-7-2v-2l-7-2-3-3-5-1-1-3-7-3-1-2z" fill="#E5E6E1"/>
<path transform="translate(375,623)" d="m0 0h5l12 7 6 3 15 9 17 10 14 7 1 3 6 1 3 3 24 12 7 6 8 3 12 7 11 6 13 10 5 3 1 3-2 5-10 6-14 7-10 6-7 3-10 6-5 2-3 3-16 8-13 7-5 4-10 6-10 4-2 2-8 3-5 3h-2v2l-8 4-9 6-7 3h-6l-10-5-9-6-6-3-6-5-9-3-19-11-6-3-25-15-6-3v-2l-7-2-9-6-6-3-2-2-7-3-11-6-13-8-1-6 11-7 12-8 14-7 5-3 9-6 8-4 9-6 8-4 10-6 12-6 3-3 5-3 8-5 8-4 16-9 9-6zm2 3-9 4-6 4-3 3-5 1-3 3-5 2-3 3-6 1-2 3-7 4-5 2-7 7-2 1-6 1-3 3-5 1-2 3-7 2-3 3-5 3-7 3-1 2-6 3-1 2-8 2-1 3-6 3-8 3-3 3-5 2-2 3-5 2-6 4 1 4 7 4h2v2l5 1 2 3 8 4 5 2h3l1 3 7 3 8 6 7 3 4 3 10 5h2l1 3 7 3 8 6 7 3 9 5 8 5 9 2 1 3 9 5 4 1 4 4 8 4h11l6-4 5-2 1-2 7-3 6-4 2-3 7-1 4-3 9-4 5-2 4-3 4-2 5-5 3-2 6-1 2-3 7-2 2-3 7-1 4-4 11-6 9-5 8-4 5-3 7-4 5-2 9-6v-4l-5-3-10-7h-2l-1-3-7-3-2-2-6-2-3-3-5-2-7-3h-2l-1-3-8-5-16-8-5-3-1-2-7-2-2-3-7-2-2-1v-2l-7-2-1-2-6-2-6-4h-2l-1-3-7-3-8-5-16-8z" fill="#E5E6E1"/>
<path transform="translate(1e3 486)" d="m0 0h6l3 3v181l-3 6-16 8-3 2-6 2-4 3-11 6-5 3-12 7-9 6-6 3-9 6-6 3-10 6-10 5-7 4-11 7-2 2-7 3-5 3-9 7-7 2-2-2v-183l5-6 6-5 6-1 1-3 14-8 15-9 8-5 8-4 9-3v-2l12-7 8-5 25-15 8-4 8-6 6-4 8-5zm1 2-7 4-11 6-3 3-3 1-2 3-7 3-10 6-5 2-3 3-5 2-2 2-6 3-5 3v2l-9 3-3 3-14 7-8 5-7 3-3 3-9 5-5 4-5 1-1 4-6 1-5 4-2 1-1 3-3 2v181h5l2-3 4-2 3-3 5-1 1-3 4-2 1-2 2 1 1-2 12-6 9-6 8-3 3-3 5-2 1-2 7-3 1-2 4-1-1-5 7 1 4-1 3-3 5-3v-2l7-2 5-3 3-1 3-3 5-1v-2l6-2 4-4 7-2 2-2 7-2v-2l7-2v-2h2l1-2v-182z" fill="#E5E6E1"/>
<path transform="translate(1189,358)" d="m0 0 7 1 6 4 5 4 10 13 3 10 1 14-6 9-10 7-21 11-8 5-13 7h-2v2l-10 6-14 7-5 3-12 8-12 6-4 3-6 3-15 9-14 8-11 7-6 3-11 6-8 4-2-2v-65l5-5 12-7 9-5 25-15 14-7 9-5 10-6 6-3 9-6 20-12 14-7h2l1-3 12-7zm-1 3-5 3-6 3-4 3-5 3-4 3h-2l-3 3-5 1-4 4-4 1 1 2-1 1-5 1-5 3-5 2-1 3-7 1-1 3-6 3-3 2-5 2-2 3-6 1-4 4h-3l-2 4-8 1-3 3-6 3-3 2-3 1-1 2-8 3-3 3-5 1-2 3-5 3-8 3-1 3-2 1v6l2 3h2l-2 6 1 5-1 1v9l-1 5v7l-1 5 1 7-1 7h6l5-4 5-2 3-3 6-2 5-3 2-1v-2l7-2 4-3 4-2v-2l8-2 2-3 4-2-3-5 2-2 4 4 6-1 4-4 4-1 1-2 7-3 2-2 5-2 2-3 5-1 3-4 5-1 4-3 6-2 1-2 4-1 4-4 5-2 5-3 4-1v-3l6-1 3-3 5-2 2-3 8-2 3-3 5-1 2-3 5-3 3-4 1-9-2-17-4-5-1-2h-3l-3 7 1 1-2 2 3 2h-3l-2-1 2 5 2 1h-2-3l-1-5-9 1 6-3 1-2-1-2-1-1 4-1 1-3 4-1 2-1-2-5-6-4-1-2z" fill="#E5E6E1"/>
<path transform="translate(1271,532)" d="m0 0 4 1 9 6 5 3v2l4 2 1 3h8l6-4 5-3 8-5 12-2 4 3v105l1 25-3 5-5 4-7 4-9 2h-15l-12-3-10-4-7-6-1-8 2-8 1-5 1-22v-49l-2-24-2-18zm1 4 1 9 3 8v33l1 5h6l2-3h2l1 10-3 2-5-1-2 1v-2l8 1 1-1v-7l-10 2-1 7v8l1 3 6-2v-2h2v5h3l1 5 4 2v3l-6 4-1 3-1-6-8-1-1 4-1 29-3 9 1 5 5 2 2 1v2l10 3 1 2 3 1h22l7-3 6-3 4-4v-132h-5l-2 2-10 3-2 3-6 2-3 3-4 1v2l-8-4-2-3-3-1-2-3-6-3-6-4z" fill="#E5E6E1"/>
<path transform="translate(1202,841)" d="m0 0 6 1 8 7 6 9 4 7 4 13v13l-5 5-9 7-7 3-8 5-10 3-9 6-8 4-14 8-11 7-5 2-9 5-10 4-9 4-13 8-11 7-22 13-16 10-12 7-3 3-7 1-2-5v-44l3-9 5-6 11-8 12-8 2-2 8-3 11-7 6-4 6-3 9-6 11-7 9-5 8-5 8-4 14-9 9-6 6-3 8-5 9-6 10-5zm-6 4-3 3-7 2-2 3-6 3-14 8-5 3-5 4-5 2-3 3-5 2-3 3-5 1-2 3-5 2-3 3-5 1-3 3-3 2-4 3-4 2-3 2-5 2v3l-7 1-5 4-3 1-4 4-4 2-2 2h-3l-2 2-7 3-2 3-6 2-3 3-3 1-9 9-2 7-1 1v47h5l3-3 6-5 5-1 2-5 3 1v-3h-1v-7l1 5 5 1 4-1 4-4 4-3 7-2v-2l7-2 4-4 5-1 4-4 7-4 3-1 1-3 8-2v-2l7-2 7-3 4-1 3-3 7-2 3-3 9-5 5-4 6-2 1-2 8-3 4-3h3l-1-7 2 2 1 2 1-1 8-1 4-3 5-2 1-2 7-2 4-4 8-6 1-7-3-8-1-9-4-7-1-3-4-4-1-3-6-5z" fill="#E5E6E1"/>
<path transform="translate(723,602)" d="m0 0 6 1 5 3v2l6 1 2 4 4 2 6 10 3 11v11l-4 8-5 4-15 9-6 3-11 6-7 5-10 5-5 3-12 7-3 3-6 2-15 9-2 2-7 3-5 3-11 6-13 8-8 5-10 5-8 6-8 4-6 5h-5l-1-1v-38l-4-5-8-7-3-6 4-6 14-8 15-9 15-8 3-3 7-1v-2l9-4 9-5 8-7 5-3 5-2 5-3 3-1 2-3 7-3 20-12 10-7 10-6 11-5zm0 3-7 1-2 3-6 2-5 3-3 3-2 1-5 2-3 3-6 5h-4v2l-9 3-3 3-6 2-3 3-5 3-6 3v2l-9 2-2 4-5 4-6 3-9 4v2l-8 1-4 4-7 4-5 2-4 3-11 6-2 2-6 2-3 3-4 1-2 6 2 5 4 4 6 3 2 4 1 38 2-1v-3h4l2-3 7-3 9-6 6-3 7-4v-2l7-2 4-3 5-3 8-3 2-3 6-2 1-2 8-3 4-4v-2l10-2 2-3 7-1 2-4 7-4 5-2 1-3 8-1 2-3 6-2 2-3 5-3 8-3v-3l8-1 4-4 11-6 4-4 2-8v-6l-1-2-2-12-5-2 1-3-6-7-7-3-1-3z" fill="#E5E6E1"/>
<path transform="translate(727,1100)" d="m0 0 9 1 10 7 5 6 5 7 2 7 1 1v8l-6 8-5 3-4 4-11 8-10 6-7 4-12 6-8 6-8 4-9 6-6 3-11 6-5 4-7 3-4 3-8 4-5 4-14 7-9 5-8 4-2 2-7 3-5 3h-3v2l-10 5-4-1-2-4 1-56 7-6 7-2 5-4 16-8 5-4 7-3 8-5 8-4 9-5 30-18 11-6 5-3 8-5 14-8 14-7zm-2 3-4 3-7 2-3 3-4 1-2 4-6 1v2l-7 2-2 4-6 1-1 3-8 1-4 4-4 1-3 3-5 3-7 3-1 3-6 1-4 4-5 2-9 6-7 3-2 2-6 2-10 7-5 2-4 3-5 1-2 3-6 2-6 4-1 8-1 30v14l-1 3 1 2 7-1 3-1 2-3 7-2 1-2 7-3 6-3v-2l10-3 4-3 13-6 3-3 5-4 6-2 4-3 10-6 4-2 11-6 5-3 4-2 3-3 7-3 7-5v-2l8-1 2-3 7-2v-2l7-2 2-4 5-2 8-6 5-2 2-3 3-2 4-4 1-3v-8l-1-7-4-4-1-3h-2l-2-4-3-3-5-2-1-3z" fill="#E5E6E1"/>
<path transform="translate(734,1115)" d="m0 0 4 2v2l5 1-4 2 1 1 2 4v3h-2v-4l-3 1-1 3 5 1-1 4-10 5-5-2 2-4-4-1-1 4h-6l1 5 5 1-4 3h-2l-2 5-9 5-10 6-5 1-1-4-4-2h-5l-2 1 1-11-8 1-2-4 4-4 5-1 4-1 2 7 7 1 1 5 4-2v-7l-1-3-6 1-6-3 1-4 2-1 2-5 10 3v-5l7 1 3-7 7-3 5 1 1 7-1 2-5-1v1h6l3-3v3l2 6 5 1 2-2v-6l1-4-5-1-1 2 1-5h5z" fill="#E7E8E3"/>
<path transform="translate(535,777)" d="m0 0 4 1-1 10-7 2-1 4 4 2v4l-1 1 2 2h6l1 5-7 3-1 4 3 1v2h-2v4h2l1-2-1 4-6-2-1 4 2 8 5 2 2-2 1 7 1 1v7l-1 2v6l2 3-2 4h-1l-3-14-3-3v-6l1-2-6 1-1-3 1-9v-6l1-2v-9l-4 3v6l-2 4 3 3-2 6h-3l2-2v-4l-6-3-6 1 3 3-4 2v-2l-2-1-1 3-3-3-2-1v-5l-5 2-2 1-3-3 1-11 2-2 8 1v6h3l3 3h2l2-5 1-1 9-2v-5l-7-2-1-3 2-4v2h2l1-6-7-1v-1l15-2-1-2-10 1v-2l5-3 2-2 1 3 5-4 1 4z" fill="#E6E7E2"/>
<path transform="translate(404,1031)" d="m0 0 4 1 1 2v20l-1 57v29l-1 10-5 6-9 3-1 1h-21l-7-1-14-6-5-4-1-3v-110l3-3h7l5 4 7 2 8 6h5v-2l20-10zm0 3-5 2-2 2-7 2-3 3-6 2-1 2-9 1-6-5-5-3-2 1-6-6-5 2-1 5v12l1 1v14l3 6 2 2-5 4-1 10v11 4 39h2l2 5 6 3 7 2 9 1 3 2h5l1-1 11-1 9-3 2-3 2-11v-14l-1-4 1-2v-27l-2-2h2l1-10-2-7h2v-38z" fill="#E5E6E1"/>
<path transform="translate(874,677)" d="m0 0 2 1 1 4 6 2 1 2h7v4l-2 2 1 4 5 4 5-1 4-3 3-1 3-3-2 6-6 1v4l4 1-2 3-3-1-9 6-1 1v6l5-1 3-1 3 2-11 4-2 5-3 1-3-2-3-5-3 3 2 4-3 3-4 1-2 6-5 2-1-5 5-2v-3l-2-8 1-8 7-7 1-5h-5l-2 1-2-5 1-4 3 3 2-2-1-5h-3l1-4-1-5 2 1 3-3z" fill="#E6E7E2"/>
<path transform="translate(734,1115)" d="m0 0 4 2v2l5 1-4 2 1 1 2 4v3h-2v-4l-3 1-1 3 5 1-1 4-10 5-5-2 2-4-4-1-1 4h-6l-1-5-7 1-2 4 1 2v6l-3 2-6-2-3-10 5-4 3-3 6-1v-3l1-4 3-1v2l2 1v4h6l3-3v3l2 6 5 1 2-2v-6l1-4-5-1-1 2 1-5h5z" fill="#E5E6E1"/>
<path transform="translate(1441,378)" d="m0 0h1v5l-1 3 2 1-4 8 4 2v3l4 1 2-4 4 1 1 1v5l-12 5-4-2-3-2v-2l-3-1 2-1v-4l-4 1-2 2v-6l6-2-3-6 1-5 7-2z" fill="#E5E6E1"/>
<path transform="translate(432,817)" d="m0 0 6 1 1 2v7h4l1-5h4l1 2-2 5 4 3v2l-5 1-6-2-5-2 2-4h-6l-3 5 1 7-2-1-3-7-6 2v-2h-3l-3-5-4-2 6-1 5 3 7-3z" fill="#E6E7E2"/>
<path transform="translate(1075,943)" d="m0 0 2 4 1 4-3 2v3l3 3-8 6-2-1-2-5h-4l-4 12-2-1 1-16-2-2-5-1v4l4 3-1 3h-7l-2-4h2l1 2 2-1-2-4 4-6 5 1 3 4 2-1 3-4 2-3 2 3h7z" fill="#E6E7E3"/>
<path transform="translate(738,1046)" d="m0 0 2 1 2 5v4h4l-2-4 4-1 2 5 1 2-3 1v6l-15-2-9 2-4 1-4-2-16 8-5 2v-2l4-2 3-3 8-4 5-2 2-1 5 3 4-3 7-2v-7l-3-1 5 1 1 3v-7z" fill="#E5E6E1"/>
<path transform="translate(471,926)" d="m0 0 10 1 3 7 3 3-2 2 1 4 3-1 1-3-1-4 4-1 2-4 4 2 5 1-2 4-1-3-3 2-2 7h-2l-1 3-2 1h-6l-4-1-10 3 1-5 4-3v4l5-2 1-2-1-2-6 1 2-4 5 1 2 1-2-3h-6l-2 3v-7l-3-1z" fill="#E5E6E1"/>
<path transform="translate(379,1095)" d="m0 0 2 4 3 2-5 3-7 1v4l6 3 6 2 4 3v5l-2-4-4 1-2 7-9-1-1-7-4-5 1-7 3-4 1-6h1v6l6-1z" fill="#E5E6E1"/>
<path transform="translate(1057,444)" d="m0 0 6 1 4 1 3-1 1 2-4 1-1 6h-1v-5l-1-1-1 4h-6l-1 1 3 2h-2v4l5 3 2 5-4-2-1 2-1 7-4 1-3-4h-1v-7-3l-1-4 4-3 1-7z" fill="#E6E7E3"/>
<path transform="translate(1442,424)" d="m0 0h3l2 3-1 5-7 2-2 7-4-1-1-1v-5l-3 1v5h-3v-2l-5-2-1 2v3h3l2 2-3 2-6-1 1-14h6l3-3v4l7 2v-3l8-4z" fill="#E5E6E1"/>
<path transform="translate(715,1116)" d="m0 0 5 1 1 7-1 2-5-1-2-6-3 2 1 4-4 4-5 1-2 3-4 2 2 6-1 4-2-6-6 1-6-3 1-4 2-1 2-5 10 3v-5l7 1 3-7z" fill="#E7E8E3"/>
<path transform="translate(383,1117)" d="m0 0 4 1 2-1v3h8l-1 5v3l1 5-2-1-6 4h-3l-1-2-3 2-3-8 2-9z" fill="#FAFAF9"/>
<path transform="translate(790,1020)" d="m0 0h4l3 6 7 2 3 5 3 2-1 5-2 5 2 3-2 10-2 1-2-1v-14l-2-7-7-1 2-2 6-3h-6l-2 1-1-3-2-3v-2h-2l-1-3z" fill="#E6E7E2"/>
<path transform="translate(513,894)" d="m0 0 5 3h6v2l-8 3-4 3-2 7-4 3-1 5 4 1-3 1 1 4-4-4-1-13v-5l4-3h5l-1-4z" fill="#E5E6E1"/>
<path transform="translate(397,1129)" d="m0 0h1v6l-7 3-1 6-2-1v-3l-4 3-9 1 9 2 3 1-4 2-4-2-11-2h-3-4l1-3h7v-3h-5l2-2 4 1 1 4 5-1 3-1-2-1 3-7 3 3 1-5 2 4v2l10-5z" fill="#E5E6E1"/>
<path transform="translate(527,811)" d="m0 0h2l1 2v7l-1 2v12l-1 5h6v10l-3-3-5 1v-7l-6-2 1-4 3-2 1-5-3-4 2-3v-6z" fill="#FAFAF9"/>
<path transform="translate(870,1066)" d="m0 0 5 1-1 6 3 5-1 6-1 2 1 6-2 2-5-1-1-5 1-3-1-10-2-1 1-4z" fill="#E5E6E1"/>
<path transform="translate(428,1254)" d="m0 0 8 3-1 3-8 1 2 4 3 2v5l-14 1 2-1-1-6 1-5-3-2 1-2h5l2-1 2 2h2z" fill="#E5E6E1"/>
<path transform="translate(655,1153)" d="m0 0 6 3 1 5-1 9 2 1v5l2-1-1-2 4 1 4-2 2-4 1 4-6 5-8 1-1-1v-6l-2-4h-10l-1-5 9-4z" fill="#E6E7E2"/>
<path transform="translate(710,1125)" d="m0 0 3 4v2l-6 3-1 3 1 2v6l-3 2-6-2-3-10 5-4 3-3 6-1z" fill="#FAFAF9"/>
<path transform="translate(1392,782)" d="m0 0h3l3 10h3l2-7 4 2 1 2-2 8-2-2-5 1 1 3h-5l-7-4-1-5-1-2 4-2z" fill="#E5E6E1"/>
<path transform="translate(243,899)" d="m0 0 4 3 5 2-1 8-5 5-4 1-5-3 1-4 5-1v-3l-7 1 3-2 1-4z" fill="#E5E6E1"/>
<path transform="translate(1286,650)" d="m0 0 4 2 4-1 2 3-4 2 2 7 2 1h-2l1 4 2 2-3 1-4 4h-1v-10l-6-2-1 4-5-1v-2l-2-1 1-4 5 2 2 1v-5l1 4 4-2 1-5h-2v-2l-2-1z" fill="#E5E6E1"/>
<path transform="translate(716,539)" d="m0 0 4 2h8l5 2 1 2 8 2-2 4-4 1v2l-2-1v-5l-9 1-3-3-10-1 2-4z" fill="#E5E6E1"/>
<path transform="translate(1397,745)" d="m0 0 4 4 4 1 1-2 1 18-3 2-4-1 1-3 4 1-1-5h-3l-8-3-4-1-1 2 1-5 2-2-2-2 4 1 2 2h3l1-2h-2l-1-4z" fill="#E6E6E2"/>
<path transform="translate(1358,774)" d="m0 0 5 1v1h-6l-1 5-2 3-5 1 1 3-2 3-2-1 1-3-1-7-2 1-1 9-3-2 1-6h-5l-2 6h-3l-1-7 3-1h5v-5l9 1 2 5h4l2-5z" fill="#E5E6E1"/>
<path transform="translate(784,644)" d="m0 0 16 1v3l4 2-5 1-1 6 5 1v8h-3l1-5-4-1v7l-3-1-1-4-5 2v-3l8-3v-8l1-3-8 1v6 4l-1 2-4-1 1-5h2l-1-4-2-2z" fill="#E5E6E1"/>
<path transform="translate(531,834)" d="m0 0 6 2 2-2 1 7 1 1v7l-1 2v6l2 3-2 4h-1l-3-14-3-3v-6l1-2-6 1-1-3 2-2z" fill="#E5E6E1"/>
<path transform="translate(720,1042)" d="m0 0 2 1 1 3 7 1-3 6-10 2h-5l-2-2-2-7h2l1 6 4-7z" fill="#E8E9E5"/>
<path transform="translate(735,564)" d="m0 0 9 3 1-2 6 1 4 5-4 4-8-1-1 2-1-3h-6l-2-5 3-2z" fill="#E9EAE6"/>
<path transform="translate(535,777)" d="m0 0 4 1-1 10-7 2-3 4-1-5v-3l-10 1v-2l5-3 2-2 1 3 5-4 1 4z" fill="#E5E6E1"/>
<path transform="translate(1450,845)" d="m0 0 4 2 1 3-3 4 1 3 3 1 3-1-1 3-5 3-2 3-6 2v-2l2-1-1-8 2-10z" fill="#E6E7E2"/>
<path transform="translate(808,1079)" d="m0 0 1 4-1 5 1 8-3 3-7 3-1-4 3-9-2-1 4-4 3-1z" fill="#E5E6E1"/>
<path transform="translate(700,1009)" d="m0 0 1 2 6-1-1 6h4l1-3h1l-1 13-4 3-1-4 1-1h-3l-2 4-2-1 1-4 2-4-3-5z" fill="#E5E6E1"/>
<path transform="translate(1352,764)" d="m0 0h12l-1 6-3 3-4-1-4-2v2l-7 1-3-3 6-1 1-3h2z" fill="#E8E9E5"/>
<path transform="translate(221,907)" d="m0 0 3 3 3-3 1 7 5 1v6l-7 3-2 1-3-15z" fill="#E9E9E5"/>
<path transform="translate(445,821)" d="m0 0 4 2-2 6 4 3v2l-5 1-6-2-5-2 2-4h-2v-2l4-2v4h4l1-5z" fill="#E5E6E1"/>
<path transform="translate(494,930)" d="m0 0 5 2 5 1-2 4-1-3-3 2-2 7h-2l-1 3h-6l3-7-1-4 4-1z" fill="#E8E9E4"/>
<path transform="translate(729,1120)" d="m0 0h5l1 3-1 2v8l-5 1-5-3-1-5 5-4z" fill="#FBFBFA"/>
<path transform="translate(477,1295)" d="m0 0h20l3 3v3l-10 2-2-4-9 1-2-2z" fill="#E5E6E1"/>
<path transform="translate(1380,805)" d="m0 0 4 1 3 1 1 6 4 2v5l3 1-2 1-4-2-7-1-1-9-2-2z" fill="#E6E7E3"/>
<path transform="translate(1088,917)" d="m0 0 3 1-1 1 1 7 3-4v6l-5 3-2 4h-2l-1 2v-2l-7-1 3-1 1-4 4-1h3l-2-7z" fill="#E6E7E2"/>
<path transform="translate(919,695)" d="m0 0 10 1 2 3-3 1-2 4-6 3-3 2v-8z" fill="#E6E7E2"/>
<path transform="translate(1442,424)" d="m0 0h3l2 3-1 5-9 2-1 5-3-3v-6l8-4z" fill="#F9F9F8"/>
<path transform="translate(1421,293)" d="m0 0 3 1-1 7-3 3-4 2-5-1-1-4 1-2 7-1 1-4z" fill="#E7E7E3"/>
<path transform="translate(387,1111)" d="m0 0h10v6l3 5-3 7-3-2 3-7-6 1-2-1-3-6z" fill="#E6E7E2"/>
<path transform="translate(787,666)" d="m0 0 4 5 3 3h-2l1 5-5-2 1-4-6 2-2 2-4-1v-3l4-4 5-1z" fill="#E5E6E1"/>
<path transform="translate(813,617)" d="m0 0 5 1v9l-1 3 1 7-2-4-7-3 1-3 2-7z" fill="#E5E6E1"/>
<path transform="translate(715,1116)" d="m0 0 5 1 1 7-1 2-5-1-2-6-3 2 1 4-4 4-4-2 3-2 2-6z" fill="#E5E6E1"/>
<path transform="translate(1297,616)" d="m0 0h1l2 14 3 5 7-1v5l-4-3v3l2 1-6 7-1-3v-2l-2-2 3-1-5-9-1-11z" fill="#E5E6E1"/>
<path transform="translate(694,1017)" d="m0 0 4 1 1 1v5l-3 1 4 5 2 2-6 2h-3v-11l-1-3z" fill="#E5E6E1"/>
<path transform="translate(432,818)" d="m0 0h6l1 5-4 3-5 2-3 2-2-1 2-6z" fill="#E9EAE6"/>
<path transform="translate(687,498)" d="m0 0 5 3 4 2-1 7-4 1v2l-3-1-1-11z" fill="#F5F6F4"/>
<path transform="translate(1098,930)" d="m0 0 9 3-4 3v2l5 1-1 5-6 3-8 1 1-3 7-1 4-2-6 2z" fill="#E5E6E1"/>
<path transform="translate(1105,420)" d="m0 0 4 2 9 1-4 2-4 6h-5l3-3 2-1h-5l-2 4h-3z" fill="#E5E6E1"/>
<path transform="translate(1371,759)" d="m0 0 2 1v2l5-1 2-2 6 1 2-1 2 3 4 2-1 2h-6l-5-5-7 4h-3l-1 2-1-3h-6l1-2 5-2z" fill="#E5E6E1"/>
<path transform="translate(1057,444)" d="m0 0 6 1 4 1 3-1 1 2-4 1-1 6h-1v-5l-1-1-1 4h-6l-1-1v-6z" fill="#EBECE8"/>
<path transform="translate(789,1163)" d="m0 0 5 3 1 5-1 1-7 1h-4v-3l4-4z" fill="#E5E6E1"/>
<path transform="translate(870,662)" d="m0 0 4 1 4 6-1 4-5 1-3-3v-7z" fill="#E5E6E1"/>
<path transform="translate(790,1020)" d="m0 0h4l3 6 7 2v3h-8l-2 1-1-3-2-3v-2h-2l-1-3z" fill="#E5E6E1"/>
<path transform="translate(1428,855)" d="m0 0 2 1v3l2 1 1-4 1 6-2 4-7-1-1-2 1-7z" fill="#E5E6E1"/>
<path transform="translate(802,1092)" d="m0 0h5l2 1-1 5-8 4-2-4 2-5z" fill="#EAEBE7"/>
<path transform="translate(762,1075)" d="m0 0 4 5 1 4 5 4h-5l-5-3-4 1-1-4h3z" fill="#E8E8E4"/>
<path transform="translate(879,690)" d="m0 0 5 1v7l-2 7h-2l-1-7-2-2v-5z" fill="#FBFBFA"/>
<path transform="translate(729,1029)" d="m0 0 5 2v5l6 2v1h-9l-5-1 1-4v-4z" fill="#E5E6E1"/>
<path transform="translate(522,839)" d="m0 0 5 1-1 7 6-2 3 5 1 4-3 3h-2l1-6-4 1-1-3-3-2v-6z" fill="#E5E6E1"/>
<path transform="translate(243,1306)" d="m0 0 5 5 1 3-2 3-6-1-3-3 3-3-2-2z" fill="#E5E6E1"/>
<path transform="translate(371,1057)" d="m0 0 3 1v5h2v2l2 1-6 4v-3l-5-3 2-4z" fill="#E8E9E4"/>
<path transform="translate(462,876)" d="m0 0 5 1-1 8-1 3h-3l-2-4 1-7z" fill="#E5E6E1"/>
<path transform="translate(873,610)" d="m0 0 3 4-1 4-1 1 1 8-3 1-2 2-1-10 2-5h3z" fill="#E5E6E1"/>
<path transform="translate(1318,622)" d="m0 0 2 1v17l1 3-2 4-2-1-1-9 2-9h-2l1-5z" fill="#E5E6E1"/>
<path transform="translate(1432,815)" d="m0 0 4 1 1 8-1 2h-5l-1-2v-6z" fill="#E5E6E1"/>
<path transform="translate(1284,591)" d="m0 0h3v7l-2 1-7-1-1 2v-7z" fill="#FBFBFA"/>
<path transform="translate(1370,768)" d="m0 0 6 1 6 2 1 3-3 2-3-1 1-1-5-1h-6l-1 2v-3z" fill="#E5E6E1"/>
<path transform="translate(362,1050)" d="m0 0 4 1 1 4-3-3-3 1 3 3-2 1-1 3h-6l2-7z" fill="#E5E6E1"/>
<path transform="translate(1139,914)" d="m0 0 5 1 3 1-3 2 3 2-1 5-9-1 2-4v-4z" fill="#E8E8E4"/>
<path transform="translate(752,551)" d="m0 0 5 2 3 3-1 3h-7l-2-2v-5z" fill="#E5E6E1"/>
<path transform="translate(1068,458)" d="m0 0h5l2 2v7l-3 4 4 2-8 2-1-5-1-2 6-2 1-4-5-3z" fill="#E5E6E1"/>
<path transform="translate(1443,281)" d="m0 0 6 2-2 2-3 1-2 4-3 3-4-3-1-2 4-1v-2l-2-1 7 1z" fill="#E5E6E1"/>
<path transform="translate(738,1046)" d="m0 0 2 1 2 5-1 4-5-2v-7zm1 10 3 1v3l-3 1-2-3z" fill="#EAEBE7"/>
<path transform="translate(1436,873)" d="m0 0 2 2-3 2-6 2-9 2h-3l-1-4 3-3h2v4l7-2 8-1z" fill="#E5E6E1"/>
<path transform="translate(685,507)" d="m0 0 2 4 2 7 2 3-4 3h-2l-1-2v-12z" fill="#E5E6E1"/>
<path transform="translate(517,848)" d="m0 0 4 1 1 3h2v5h-7l-1-1z" fill="#EDEEEA"/>
<path transform="translate(712,623)" d="m0 0 4 2-5 8-2 1-1-2-2 2v-5z" fill="#E5E6E1"/>
<path transform="translate(1199,396)" d="m0 0 3 1-1 4-4 4-5-1 1-5 5-2z" fill="#E5E6E1"/>
<path transform="translate(250,1339)" d="m0 0h2l1 5v3l3-1 2 2-4 1-7-2v-3l-1-1z" fill="#E5E6E1"/>
<path transform="translate(529,859)" d="m0 0 2 3-1 4-2 5-5 2 1-7 1-6 3 2z" fill="#E5E6E1"/>
<path transform="translate(701,511)" d="m0 0 2 3 3 1v2l-5 2h-7l-1-3 4-2h2z" fill="#E7E7E3"/>
<path transform="translate(363,1062)" d="m0 0 1 2h2v6l-5 2-4 2-2-2 3-1v-4h-2l1-2 5 1z" fill="#E5E6E1"/>
<path transform="translate(407,1271)" d="m0 0h1l1 10-2 2 1 6-4 1-1-5-2-2 4-2z" fill="#E5E6E1"/>
<path transform="translate(417,862)" d="m0 0 4 1 1 5-8 2-1-5z" fill="#E6E7E3"/>
<path transform="translate(811,631)" d="m0 0 5 1 3 8 1 3-3 1v-3l-6-2 1-3h2l-1-3z" fill="#FBFBFA"/>
<path transform="translate(673,1168)" d="m0 0 2 4-6 5-8 1-1-1v-7l3 1v5l2-1-1-2 4 1 4-2z" fill="#E5E6E1"/>
<path transform="translate(386,1140)" d="m0 0h2l1 4-5 3-12-2 3-2 9-1z" fill="#FBFBFA"/>
<path transform="translate(804,691)" d="m0 0 5 2-2 4 3 4-2 5-4-4z" fill="#E5E6E1"/>
<path transform="translate(710,1028)" d="m0 0v3l1 3 5-1 1 4 3 1-2 1-10-2-1-1v-5z" fill="#E5E6E1"/>
<path transform="translate(1042,968)" d="m0 0 6 1 2 4-3 2h-3l-1 4-3-1 1-3 2-1z" fill="#E7E8E4"/>
<path transform="translate(351,884)" d="m0 0 3 1 2 5-1 12 1 3-4-2v-4l1-7v-2l-3-1 2-1z" fill="#E5E6E1"/>
<path transform="translate(1442,424)" d="m0 0h3l2 3-1 5-7 1-1-2h7v-4l-9 4-2 3-1-4 8-4z" fill="#E5E6E1"/>
<path transform="translate(876,642)" d="m0 0 2 3-1 4-2 1 1 4 2 2-4 4-4-1v-2l3-2-2-4 3-3h2z" fill="#E5E6E1"/>
<path transform="translate(514,929)" d="m0 0 1 2-2 1v6l-3 2v-3l-4 1 2-7z" fill="#E5E6E1"/>
<path transform="translate(706,569)" d="m0 0 4 5 2 4-9-1-3-3 4-2z" fill="#EAEBE6"/>
<path transform="translate(715,1128)" d="m0 0h6l1 4-4 3h-3v-3l-2-1z" fill="#FBFBFA"/>
<path transform="translate(711,1119)" d="m0 0h2v2l2 1v4l7 1v1l-7 1-2 2-3-7-1-3z" fill="#EFF0ED"/>
<path transform="translate(397,1096)" d="m0 0 2 4-2 5-6 3-1-1-2 2v-5h3l3 1v-2l-3-1 4-2z" fill="#E5E6E1"/>
<path transform="translate(871,1170)" d="m0 0 1 2 5 2-4 7h-5z" fill="#E5E6E1"/>
<path transform="translate(1459,384)" d="m0 0 1 3-1 5h-9l-1-3 4-2 1-2 4 1z" fill="#E5E6E1"/>
<path transform="translate(779,1089)" d="m0 0h1l2 10-4 4-1-6-2-1 2-4z" fill="#E5E6E1"/>
<path transform="translate(1344,780)" d="m0 0h2l2 8-2 3-3-1-1-5z" fill="#FBFBFA"/>
<path transform="translate(872,730)" d="m0 0 2 1v2h-2l-2 6-5 2-1-5 5-2 1-2h2z" fill="#E5E6E1"/>
<path transform="translate(501,1360)" d="m0 0 1 3-7 4h-6v-5l4-1v2l8-1z" fill="#E5E6E1"/>
<path transform="translate(770,1165)" d="m0 0h2l-1 3zm-5 1 4 1 2 2-1 5-6-2z" fill="#FBFBFA"/>
<path transform="translate(713,1039)" d="m0 0 4 1-2 5-3 2-1-3h-2l-1-4z" fill="#E5E6E1"/>
<path transform="translate(520,922)" d="m0 0h7v3l-7 4h-2v-5z" fill="#EBECE8"/>
<path transform="translate(265,1323)" d="m0 0 4 2v2h-2l2 4h-6l-2 1-1-4z" fill="#E5E6E1"/>
<path transform="translate(537,910)" d="m0 0 2 4v5l-4 1-2-6-2-1 5-1z" fill="#E5E6E1"/>
<path transform="translate(502,821)" d="m0 0 3 2v2l5-1 4 4-4 2v-2l-2-1-1 3-3-3-2-1z" fill="#E5E6E1"/>
<path transform="translate(526,797)" d="m0 0h4l1 6-5 1-2-2 1-4z" fill="#FBFBFA"/>
<path transform="translate(1329,789)" d="m0 0 7 2-4 6-3 1-2-7z" fill="#E8E9E5"/>
<path transform="translate(887,704)" d="m0 0h5l2 4-5 3-3-3z" fill="#FBFBFA"/>
<path transform="translate(875,593)" d="m0 0h1l1 6 3 3-3 3-3 1-4-3 1-4 4 4v-3l-1-4z" fill="#E5E6E1"/>
<path transform="translate(245,866)" d="m0 0h3l-1 5-3 4h-3l1-6z" fill="#E5E6E1"/>
<path transform="translate(1421,728)" d="m0 0 1 2 6 1-3 5h-2v-3l-8 2z" fill="#E5E6E1"/>
<path transform="translate(813,617)" d="m0 0 5 1-1 5-2 2-4-1z" fill="#EAEBE7"/>
<path transform="translate(795,573)" d="m0 0 6 1 2 2 2 3-2 2-5-1z" fill="#E6E7E2"/>
<path transform="translate(685,504)" d="m0 0h2l1 8-3-2-1 12h-1l-1-12z" fill="#FBFBFA"/>
<path transform="translate(495,1205)" d="m0 0 7 2-1 5-6-1-1-5z" fill="#E8E9E4"/>
<path transform="translate(478,938)" d="m0 0 4 1 1 3-5 4-3-1 2-6z" fill="#F7F7F6"/>
<path transform="translate(691,579)" d="m0 0h1l1 6 2 1v2h-6l-5 1-2-5 6 2 2-2z" fill="#E7E8E3"/>
<path transform="translate(693,1073)" d="m0 0 3 9-5-1-7-1 1-2 5-1z" fill="#E5E6E1"/>
<path transform="translate(274,943)" d="m0 0h5l2 5-3 3-5-4z" fill="#E7E8E4"/>
<path transform="translate(811,632)" d="m0 0 3 1v3l-2 1v2l5 2-1 5h-2v-4l-4-1-1-3z" fill="#E5E6E1"/>
<path transform="translate(441,807)" d="m0 0 6 1v3l-6 2-2-4z" fill="#E8E9E5"/>
<path transform="translate(519,1284)" d="m0 0 5 1 1 4-1 1h-5l-1-5z" fill="#E6E7E3"/>
<path transform="translate(780,1156)" d="m0 0h7l1 3-9 2-2-3h3z" fill="#E5E6E1"/>
<path transform="translate(338,935)" d="m0 0 4 1v6l-5 3-1-4 2-5z" fill="#E5E6E1"/>
<path transform="translate(525,785)" d="m0 0 3 1 1 3-13 1 2-3z" fill="#FBFBFA"/>
<path transform="translate(517,1229)" d="m0 0h2l2 3-1 5-4-1-1-3z" fill="#E5E6E1"/>
<path transform="translate(708,1046)" d="m0 0h2l1 6 5 1 3-2 5 1v1l-7 2h-5l-2-2z" fill="#E5E6E1"/>
<path transform="translate(1161,905)" d="m0 0h2v2h3l-2 4-5 2-1-2 2-2-2-2h3z" fill="#E6E7E2"/>
<path transform="translate(1217,450)" d="m0 0 4 1-1 5-3 1-2-1 1-5z" fill="#EAEBE7"/>
<path transform="translate(1127,416)" d="m0 0 2 1 1 9-4-2-1 3-1-5z" fill="#E5E6E1"/>
<path transform="translate(686,1047)" d="m0 0 2 4 3 2-1 3h-5v-8z" fill="#E5E6E1"/>
<path transform="translate(694,998)" d="m0 0h2l2 5-1 4h-3l-1-2v-6z" fill="#E5E6E1"/>
<path transform="translate(1436,835)" d="m0 0 1 3 9 1v1l-9 1-2 5h-1v-7l-1-2z" fill="#E5E6E1"/>
<path transform="translate(1454,812)" d="m0 0 1 3 2 5-1 3-1 11h-1l-1-9 1-7-2-4z" fill="#E5E6E1"/>
<path transform="translate(815,581)" d="m0 0 4 2-1 3-7 2-2-1 3-3h1z" fill="#E5E6E1"/>
<path transform="translate(1152,399)" d="m0 0h2l1 5-6-2-4 1-3 3-3-1 6-5z" fill="#E5E6E1"/>
<path transform="translate(493,1282)" d="m0 0 3 1 1 7-4-2-3-4z" fill="#E5E6E1"/>
<path transform="translate(870,1027)" d="m0 0 4 1-1 5h-4l-1-3z" fill="#E7E8E4"/>
<path transform="translate(258,934)" d="m0 0 4 1-2 4h-2l-1 3h-2l1-7z" fill="#E5E6E1"/>
<path transform="translate(332,827)" d="m0 0h9l-1 4h-2l-1 3-4-5z" fill="#E5E6E1"/>
<path transform="translate(1349,766)" d="m0 0h1v7l-7-1-1-2 6-1z" fill="#E9EAE6"/>
<path transform="translate(870,724)" d="m0 0 6 2 1 3-4 2-3-1z" fill="#FBFBFA"/>
<path transform="translate(671,1152)" d="m0 0 4 1 1 4-2 2-2-2-6-1v-2z" fill="#E5E6E1"/>
<path transform="translate(787,1095)" d="m0 0 3 1 1 1v5h-4l-1-5z" fill="#E5E6E1"/>
<path transform="translate(686,1030)" d="m0 0 2 3 1 7-1 6h-2v-6-3z" fill="#E6E7E2"/>
<path transform="translate(490,918)" d="m0 0h2l1 10-1-2h-2l-1 2-2-4 2-1z" fill="#E5E6E1"/>
<path transform="translate(520,907)" d="m0 0 2 4 3-4v5l-4 3-4-1z" fill="#E5E6E1"/>
<path transform="translate(1307,621)" d="m0 0 3 3-4 4h-3l1-5z" fill="#E9EAE6"/>
<path transform="translate(1181,416)" d="m0 0 3 3 1 3-3 1-8-2 3-2 3-1z" fill="#E5E6E1"/>
<path transform="translate(532,1330)" d="m0 0 5 2-4 1v2l4 1-6 1-1-6z" fill="#E5E6E1"/>
<path transform="translate(495,900)" d="m0 0 2 3v5l-2 1-3-3 2-5z" fill="#E5E6E1"/>
<path transform="translate(479,875)" d="m0 0 5 1v3l-4 2-2 2v-2l-2-1z" fill="#E5E6E1"/>
<path transform="translate(380,1132)" d="m0 0h1v5l4 1-1 3-7-2z" fill="#ECEDE9"/>
<path transform="translate(723,1132)" d="m0 0 1 2h3l-2 6-2 2-2-8z" fill="#F5F5F3"/>
<path transform="translate(336,947)" d="m0 0 5 2-3 8-3-3z" fill="#E5E6E1"/>
<path transform="translate(495,911)" d="m0 0 6 1-1 5-2 1v-4l-4 2z" fill="#E5E6E1"/>
<path transform="translate(1050,487)" d="m0 0h7l1 7h-3l-1-4h-3z" fill="#E5E6E1"/>
<path transform="translate(1457,405)" d="m0 0 3 2-1 4-2 2-3-4 1-3z" fill="#FBFBFA"/>
<path transform="translate(371,1111)" d="m0 0 4 1 1 4-4 1-2-5z" fill="#FBFBFA"/>
<path transform="translate(870,1042)" d="m0 0 5 2v3l-5 1-1-4z" fill="#E5E6E1"/>
<path transform="translate(1165,902)" d="m0 0 4 1 1 2-3 3-4-1 1-4z" fill="#FBFBFA"/>
<path transform="translate(245,889)" d="m0 0h5l1 4-6 1-2-3z" fill="#E5E6E1"/>
<path transform="translate(408,850)" d="m0 0h1v16l-2 1 1-4h-2v-8z" fill="#E5E6E1"/>
<path transform="translate(872,582)" d="m0 0 5 1 1 3-4 2-2 2 1-5-3-2z" fill="#E5E6E1"/>
<path transform="translate(920,1142)" d="m0 0 3 1-1 5-3 1-1-6z" fill="#EAEAE6"/>
<path transform="translate(363,1115)" d="m0 0 4 1v3l-7 2v-4z" fill="#E5E6E1"/>
<path transform="translate(705,1040)" d="m0 0h1v6l-1-2-4 1-1 2-2-1 2-5z" fill="#E5E6E1"/>
<path transform="translate(486,937)" d="m0 0 4 3-1 3-3 1-2-2 1-4z" fill="#FBFBFA"/>
<path transform="translate(1094,930)" d="m0 0 2 1-2 7-2 3-4-1 4-4z" fill="#E5E6E1"/>
<path transform="translate(1442,868)" d="m0 0h3v5l-1 1h-6l1-2z" fill="#E5E6E1"/>
<path transform="translate(1354,784)" d="m0 0 2 1 1 3h7l1 2h-11l-1-4z" fill="#E5E6E1"/>
<path transform="translate(899,685)" d="m0 0 2 4-4 3-4-1 2-1 2-4z" fill="#E5E6E1"/>
<path transform="translate(1165,318)" d="m0 0 1 3-1 6h-3v-6z" fill="#E5E6E1"/>
<path transform="translate(1166,299)" d="m0 0 4 4-1 4-1 2 2 1-4 1z" fill="#E5E6E1"/>
</svg>
