<?xml version="1.0" encoding="UTF-8"?>
<svg version="1.1" viewBox="0 0 2048 2048" width="2048" height="2048" xmlns="http://www.w3.org/2000/svg">
<path transform="translate(0)" d="m0 0h2048v2048h-2048z" fill="#FBFBFB"/>
<path transform="translate(1412,84)" d="m0 0 9 3 19 11 23 13 6 4 5 6-2 37-4 61-4 51-3 54-3 11-4 4h-9l-16-7-16-9-7-5h-3l-7 14-9 16-14 25-13 23-11 20-8 14 1 2 28-15 13-8 26-15 24-14 24-13 9-4 6 2 23 13 15 9 42 24 24 13 16 9 18 11 11 7 4 5 2 60 1 91-1 23-7 8-11 9-3 1v2l9 6 2 1v2l5 2 4 5 1 9v164l-6 9-13 8-3 1v2l13 8 5 4 4 7 1 14 1 57v97l-3 6-8 7-10 6-3 1 2 4 10 6 8 7 2 5 1 32v111l-1 28-4 7-10 6-14 7-11 6-24 14-9 6-11 6-16 9-13 8-21 12-17 10-6 2h-9l-11-6-15-9-17-10-14-8-15-9-12-7v77l-2 7-8 9-14 8-10 6-8 4-12 7-11 6-25 14-17 10-11 6-19 11-20 10-6-1-15-6-19-11-11-7-9-5-15-9-12-7-8-4v85l-3 7-7 6-13 8-27 15-17 10-10 6-14 7-16 9-10 6-10 5-20 12-11 5-7-1-26-14-24-14-16-9-12-7-3-1v72l-2 10-13 9-18 11-16 9-24 14-10 5-12 7-14 7-13 8-16 10-17 11-6-1-33-17-12-7-11-6-10-6-11-6-13-8-11-6-15-9-11-6-21-13-9-7-2-10-1-10v-158l3-6 7-6 10-6 21-11 13-8 27-15 16-9 24-14 25-14 14-7 4 1 16 8 25 15 13 8 20 12 6 3h2l1-75 4-6 6-5h2v-2l6-5v-3l-5-2-11-7-3-4-1-5v-172l6-7 28-16 20-12 35-20 22-13 11-6 26-14 10-5h6l16 8 22 13 15 9 18 11 14 8h3l1-19 1-66 4-5 11-6 5-2v-4l-6-2-9-7-5-4-1-3-1-93v-36l1-45-7 4-8 6-10 5-11 7-11 6-63 36-23 13-16 9-8 5-6 7-10 19-16 28-12 20-6 11-6 10-7 14-14 24-8 14-6 11-14 25-18 33-6 10-9 16-7 14-12 21-7 13-9 16-15 27-15 28-8 14-6 11-13 23-5 8-6 11-8 13-6 11-8 14-12 23-7 11-7 7h-7l-12-6-22-12-15-9-11-6-11-7-11-6-14-8-12-8-1-6 3-14 8-16 11-19 7-11 5-9 13-23 7-11 6-11 8-14 5-10 28-49 13-23 7-11 7-14 9-15 9-16 8-13 6-11 12-21 6-11 16-29 13-22 6-11 14-25 9-15 6-11 11-19 9-16 9-15 20-34 12-21 21-14 26-15 16-9 27-15 24-14 17-9 16-9 17-9 12-7 11-6 24-13 13-8 11-6 13-7 17-10 13-8 5-3 5-8 11-21 13-22 6-11 8-14 6-11 8-15 6-11 14-26 9-16 14-26 21-36 7-14 13-23 14-26 8-13 14-26 6-10 10-18 7-14 5-8 1-4-5-2-10-6-14-8-14-7-4-6 1-9 5-6 15-11 13-10 15-11 13-10 8-6 14-11 44-33 5-4h2v-2l10-7 19-14z" fill="#737471"/>
<path transform="translate(1450,146)" d="m0 0h3l-3 42-3 58-3 41-2 29-4-1-18-11-13-8-9-1-4 2-2 4-10 16-10 17-17 32-10 19-15 27-8 14-10 18-15 29-9 16-10 18-10 19-12 22-9 16-9 17-6 10-7 14-7 12-7 14-9 15-6 11-13 24-14 24-3 5-8 5-11 6-17 10-10 6-11 6-23 13-17 10-10 6-11 6-26 15-30 18-17 10-14 8-11 6-17 9-13 8-9 5-14 8-6 4-10 9-9 14-8 13-6 11-8 14-7 14-10 17-11 19-7 12-6 11-14 25-9 16-6 10-6 11-10 18-9 16-8 14-7 14-9 15-6 11-10 19-9 15-7 14-11 19-12 22-11 19-6 11-7 13-9 15-10 17-6 12-13 23-10 16-3 1-17-9-10-6-1-2 10-16 8-14 7-11 7-14 9-15 18-33 9-15 5-10 14-24 12-21 6-11 6-10 6-11 9-16 14-24 13-23 9-16 15-26 8-14 6-9 6-11 15-27 8-13 7-14 8-13 6-11 16-27 13-24 8-13 12-22 8-13 22-12 10-6 11-6 13-8 10-5 24-14 9-6 11-6 13-7 15-9 16-8 30-18 35-20 25-15 9-5 9-6 9-5 9-6 7-10 17-32 9-16 7-14 7-12 7-14 7-12 15-30 6-10 7-14 7-12 6-12 13-23 7-13 8-15 10-19 13-24 8-16 9-16 6-11 10-18 13-23 8-16 4-10v-6l-5-6-24-13-9-5v-3l6-4 16-12 11-9 17-13 14-12 11-8 10-8 13-10 14-11z" fill="#FAFAFA"/>
<path transform="translate(808,807)" d="m0 0h5l16 9 19 12-2 5-8 16-12 22-10 17-36 63-11 19-8 14-13 23-8 14-14 24-9 15-8 14-13 23-6 10-6 11-13 24-10 16-6 11-8 14-15 26-8 14-7 14-8 14-24 44-8 14-6 10-7 14-7 11-5-1-17-10-14-8-5-4 1-5 9-14 10-18 8-14 9-15 5-9 11-19 6-11 14-24 18-32 12-21 15-27 7-11 5-10 14-24 15-26 12-21 9-16 9-17 12-21 11-19 9-16 10-18 14-24 10-18 8-14 13-23 9-15z" fill="#FAFAFA"/>
<path transform="translate(420,1061)" d="m0 0 6 1 13 7 10 6 11 6 16 9 14 7 7 6 2 10v81l-5 5-15 9-36 21-16 8-8 1-11-6-10-6-11-6-18-10-15-9-8-6-2-3-1-7v-78l3-5 9-6 19-10 13-8 12-7 14-7z" fill="#747572"/>
<path transform="translate(1759,775)" d="m0 0h7l8 3 19 10 19 11 13 8 11 7 2 2 2 21v53l-1 13-2 5-19 12-17 10-14 8-11 6-13 7-6-1-15-10-11-6-17-10-13-8-12-7-5-5-1-3v-79l2-6 8-7 25-14 22-12 15-7z" fill="#747572"/>
<path transform="translate(1793,301)" d="m0 0 6 1 9 3 22 12 10 6 23 13 7 6 1 2 1 18v65l-2 6-5 5-9 6-11 6-23 13-16 9-8 4-9-1-11-6-13-8-28-16-12-7-8-8-1-19v-66l3-5 9-6 26-15 19-10z" fill="#747572"/>
<path transform="translate(858,1483)" d="m0 0h4l1 60v92l-8 6-27 15-14 8-16 9-13 7-21 12-24 13-8 6-4-1-1-43v-106l5-5 9-6 21-12 10-6 9-5 8-5 11-6 26-14 11-7 11-6z" fill="#FAFBFA"/>
<path transform="translate(720,1390)" d="m0 0 4 1 14 8 16 9 13 8 9 5 19 11 14 9 11 6 30 18v4l-26 14-56 33-39 23-8 5-5-1-24-14-22-13-16-10-11-6-34-20-19-11-5-3v-2l10-6 11-6 10-6 10-5 35-20 10-6 16-8 15-8 16-8z" fill="#FBFBFB"/>
<path transform="translate(964,1056)" d="m0 0 5 2 10 6 11 6 12 7 23 13 11 7 11 6 16 10 11 6 21 12-1 4-13 8-24 14-22 13-21 12-16 10-11 6-17 9-5 3-4-1-16-8-16-9-24-14-18-11-16-10-30-18-8-6 1-3 13-8 14-8 13-8 14-7 24-14 21-12 10-6 11-6z" fill="#FBFBFB"/>
<path transform="translate(961,346)" d="m0 0h6l16 8 24 14 23 13 9 8 2 6v78l-2 5-7 6-24 14-21 12-11 6-10 5-4 1-8-4-23-14-19-11-14-8-11-8-1-7v-70l1-10 6-7 29-16 16-9 14-7z" fill="#747572"/>
<path transform="translate(1104,1148)" d="m0 0h2l1 7v145l-8 6-18 10-15 9-16 9-19 11-11 6-21 12-14 9-10 5h-1l-1-6-1-68v-76l4-5 23-13 17-10 33-18 17-10 11-6 15-9z" fill="#FBFBFB"/>
<path transform="translate(576,1482)" d="m0 0 6 2 12 7 21 12 23 13 15 9 11 6 26 15 17 10 2 2 1 100 1 50-2 4-5-2-19-12-41-24-14-8-11-6-16-9-14-9-12-8-1-2-1-149z" fill="#FBFBFB"/>
<path transform="translate(1606,476)" d="m0 0h3l1 63v85l-10 7-13 8-11 6-14 8-25 14-21 12-17 10-19 11-5-1-1-111v-36l8-6 21-12 24-14 10-6 14-7 7-5 12-6 22-13 9-6z" fill="#FBFBFB"/>
<path transform="translate(1357,1227)" d="m0 0h3l1 94v51l-2 5-13 9-13 8-17 10-15 9-14 7-23 13-22 12-14 9h-2l-1-6v-137l1-8 10-6 25-14 12-7 14-7 10-6 29-17 15-9z" fill="#FBFBFB"/>
<path transform="translate(1466,383)" d="m0 0 4 1 14 8 17 10 9 5 21 12 34 20 22 13 9 5 1 3-3 3-16 8-26 15-15 9-22 12-15 9-22 13-7 5-8 1-17-9-17-10-20-12-22-13-10-7-11-6-30-18-1-3 27-16 14-8 23-13 11-6 26-14 11-7 14-7z" fill="#FBFBFB"/>
<path transform="translate(1326,475)" d="m0 0 6 2 29 17 15 9 11 6 12 7 28 16 13 8 15 9 2 3v148l-5-1-21-11-15-9-22-12-15-9-14-7-11-7-11-6-14-10-5-4-1-27v-84l1-36z" fill="#FBFBFB"/>
<path transform="translate(1216,720)" d="m0 0 7 3 16 10 16 9 12 7 11 6 16 9 11 7 11 6 32 18-1 3-29 16-11 7-11 6-15 8-25 15-19 11-14 9-9 4-21-13-14-8-13-8-22-13-20-12-11-6-10-6-11-6-8-5v-2l24-13 20-12 13-8 11-6 14-8 18-10 18-11z" fill="#FBFBFB"/>
<path transform="translate(1604,686)" d="m0 0h4l1 21v24l1 102-10 7-18 10-10 6-11 6-24 14-15 9-24 14-9 6-8 4-5 1-1-1-1-53v-92l5-5 11-7 51-30 11-7 11-6 26-15 10-6z" fill="#FBFBFB"/>
<path transform="translate(1606,1102)" d="m0 0h2l1 2 1 58v86l-2 7-11 6-19 10-11 7-11 6-25 14-23 13-22 13-6 4-4-1-1-74v-73l7-6 15-9 13-7 16-9 10-5 18-10 10-6 18-11 19-12z" fill="#FBFBFB"/>
<path transform="translate(821,1149)" d="m0 0 6 1 41 24 22 12 7 5 11 6 13 8 11 6 21 12 2 3v150l-12-6-14-8-22-12-22-13-14-8-10-6-21-12-16-10-2-2-1-13z" fill="#FBFBFB"/>
<path transform="translate(1355,1023)" d="m0 0 4 1v147l-4 4-38 22-10 6-26 14-24 14-16 9-12 6-4-1-1-46v-99l9-6 14-8 25-14 14-8 17-10 15-9 24-14z" fill="#FBFBFB"/>
<path transform="translate(1074,812)" d="m0 0 9 3 13 8 20 11 25 15 11 6 20 12 25 14 6 4 3 3 1 7v136l-1 6-7-1-45-27-34-20-11-7-14-7-17-10-4-5-1-81z" fill="#FBFBFB"/>
<path transform="translate(1105,1358)" d="m0 0 2 1 1 16v132l-4 5-16 10-11 6-14 8-11 6-21 12-33 18-15 9-4 3-3-1-1-2v-67l-2-78 18-11 17-10 12-7 28-16 17-10 24-14z" fill="#FBFBFB"/>
<path transform="translate(1354,813)" d="m0 0h3l1 33v116l-17 10-22 12-35 20-41 24-11 6-4 2h-4v-147l11-8 11-6 17-10 14-8 8-5 11-6 13-7 14-8 17-10z" fill="#FBFBFB"/>
<path transform="translate(1603,897)" d="m0 0h6l1 4 1 101v40l-5 4-25 13-10 6-19 11-14 8-23 13-21 12-13 8-5 1-1-1 1-25v-121l10-7 35-20 13-8 11-6 19-11 24-13z" fill="#FAFAFA"/>
<path transform="translate(1306,260)" d="m0 0 10 4 8 5 12 5 4 3-1 4-7 14-12 22-25 45-7 12-6 11-18 35-9 16-15 28-12 22-17 33-7 12-7 14-9 16-14 26-11 19-6 11-10 19-7 10h-3l-12-5-17-10-5-3 6-11 9-16 16-29 7-12 7-14 7-12 7-14 10-18 13-24 7-11 6-11 9-17 12-22 6-10 7-14 13-22 7-14 12-21 9-17 7-12 5-10 13-23 7-13z" fill="#FAFAFA"/>
<path transform="translate(1324,685)" d="m0 0 8 1 24 14 16 9 17 10 22 13 11 6 21 12 14 10 1 5v145l-2 1-12-6-14-8-17-10-30-20-7-7-1-2-1-57-1-10-13-8-10-6-9-5-13-8-4-3-1-5v-47z" fill="#FAFBFA"/>
<path transform="translate(1075,1024)" d="m0 0 6 1 16 8 14 8 17 10 13 8 14 8 50 30 2 2v147l-6-1-11-7-16-8-19-11-11-6-14-9v-2l-4-2-2-3-1-15-1-51-3-5-14-9-10-6-11-6-10-7v-73z" fill="#FBFBFB"/>
<path transform="translate(823,1358)" d="m0 0 4 1 14 8 11 6 19 10 18 11 13 8 11 6 26 15 13 8 3 1 1 2 1 43v105l-4 1-16-9-16-8-15-8-11-7-9-5-6-5v-48l-1-24-2-6-11-8-13-7-22-13-9-7v-25l1-41z" fill="#FBFBFB"/>
<path transform="translate(1304,498)" d="m0 0h2l1 40 1 93 5 5 11 8 5 3-2 4-14 7-5 4-1 2-1 87h-3l-14-9-11-6-56-33-7-1-10 4-13 7-5 3 1-4 5-9 11-20 6-11 10-19 9-16 7-13 9-16 13-24 10-19 7-14 9-16 8-14 8-16z" fill="#FAFAFA"/>
<path transform="translate(1125,1254)" d="m0 0 5 2 17 10 14 9 11 6 21 12 10 5 5 5v149l-5-1-10-6-35-20-12-7-14-7-5-3-1-2-1-56-2-11-8-7-8-6-2-3 11-8h3v-2l3-2 1-7 1-11z" fill="#FBFBFB"/>
<path transform="translate(1377,922)" d="m0 0 5 1 10 6 9 5 16 10 15 9 14 8 9 6 2 2 1 33 1 115-6-1-24-14-20-12-13-8-11-6-8-6v-51l-1-14-6-7-10-6-7-3v-3l11-6 8-6 4-6z" fill="#FBFBFB"/>
<path transform="translate(1378,1132)" d="m0 0 5 1 13 8 14 8 17 10 18 11 11 7 1 1 1 89v52l-1 7-5-2-11-6-23-13-14-8-23-13-4-4-1-65-4-6-15-12 1-5 10-6 6-5 2-8 1-40z" fill="#FAFAFA"/>
<path transform="translate(1086,643)" d="m0 0 9 2 16 10 13 7-1 3-25 14-17 10-11 6-24 14-18 10-10 6-11 6-18 10-20 12-18 10-28 16-12 7-31 17-12 8-4 2h-5l-16-9-17-11v-3l16-10 11-6 17-9 16-9 36-21 11-6 14-8 14-7 21-12 24-14 8-4h3v-2l11-6 29-16 12-7 11-6z" fill="#FAFAFA"/>
<path transform="translate(1410,104)" d="m0 0h5l1 4 5 1 19 10 8 4-2 4-5 2v2l-5 2v2l-11 7-9 7h-2v2l-8 6-17 13h-2v2l-11 8-14 12-28 22-18 14-11 8-5-1-15-8-15-9-3-1 1-4 12-8 20-15 13-10 12-9 13-10 19-14 13-10 12-9 19-14 5-2v-2l4-2z" fill="#F9F9F9"/>
<path transform="translate(1584,658)" d="m0 0 5 1 10 7-1 3-14 9-18 10-10 6-11 6-16 9-13 8-19 11-17 10-11 7h-6l-17-10-15-9-17-10-16-9-10-6-11-6-27-15-10-6-10-5v-3l14-7h5l13 8 16 8 23 13 24 14 16 9 7 4 13 7h8l16-8 24-13 13-8 16-9 11-6 13-7 20-12z" fill="#F8F8F8"/>
<path transform="translate(1095,996)" d="m0 0 5 1 17 10 16 9 11 7 11 6 26 15 18 10 15 8 6-1 14-7 24-14 14-8 11-6 10-6 9-5 14-8 16-9 7 1 10 7-4 4-27 15-42 24-31 18-11 6-14 8-4 2-5-1-19-12-13-8-15-9-18-11-16-9-10-6-14-7-12-7-9-5-2-2 1-4 8-4z" fill="#F8F8F8"/>
<path transform="translate(1082,1333)" d="m0 0 4 1 11 8-5 5-12 6-23 14-14 9-11 6-16 10-17 10-18 10-14 7-5-1-10-6-22-12-19-10-30-18-13-8-24-14-9-5 1-4 7-6 5-1 18 11 13 8 10 5 35 20 18 10 10 6 12 6 4-1 14-7 27-16 10-6 11-6 19-11 11-6 13-8z" fill="#F8F8F8"/>
<path transform="translate(1583,1077)" d="m0 0h7l10 7-1 3-14 8-25 14-15 9-14 8-29 17-16 9-15 9-4 2-4-1-9-6-11-6-12-7-16-10-23-14-13-8-2-3-1-11 3-3 6 2 10 6 12 7 11 6 26 15 19 12 5 1 8-3 16-10 22-13 11-7 11-6 10-6 10-5 14-8z" fill="#F8F8F8"/>
<path transform="translate(1306,260)" d="m0 0 10 4 8 5 12 5 4 3-1 4-7 14-12 22-25 45-4 3-3 7h-2v-2l-2-1 2-5h3v-2l-3 1-2-1-2-6-2 1-1 2-7-1v-8h-2l-2-2-1-2h2l-2-3-4 3-3 5-2 5-3 5-1 4h-3v-6l14-25 9-16 7-14 9-16 12-22z" fill="#FAFAFA"/>
<path transform="translate(1582,870)" d="m0 0 5 1 9 6-1 4-21 12-10 6-11 6-10 6h-4v2l-17 9-28 17-22 13-3 2-5-1-16-10-18-11-16-10-13-8-11-6-12-8-3-6v-5l2-2 6 1 13 7 11 7 27 15 16 9 11 6 2 1h6l11-6 16-9 19-11 11-6 14-8 9-5 23-13z" fill="#F8F8F8"/>
<path transform="translate(1086,643)" d="m0 0 9 2 16 10 13 7-1 3-25 14-17 10-11 6-24 14-9 5h-6l2-1 1-3 7-3 2-2 2 1v-5h-4l-1 3h-3v-3l-5 3h-7v6h-2l-1-4-5-2-2-6-5-5h-2l-15 7h-3v2l-3 1-2-1v-2l20-11 9-5h3v-2l11-6 29-16 12-7 11-6z" fill="#F9F9F9"/>
<path transform="translate(479,1124)" d="m0 0h3l1 20v41l-7 6-15 9-11 6-17 9h-4v-35l-1-26 3-3 11-6 13-8z" fill="#FAFAFA"/>
<path transform="translate(1852,363)" d="m0 0 3 1v59l-9 6-11 6-16 10-10 6-7 3-1-1-1-42v-18l17-10 27-15z" fill="#FAFAFA"/>
<path transform="translate(1819,836)" d="m0 0h3l1 7v54l-4 4-10 6-14 7-17 10-7 4-2-1v-22l1-38 5-5 9-6 11-6 10-6 11-6z" fill="#FAFAFA"/>
<path transform="translate(1335,1204)" d="m0 0 5 1 8 6v3l-21 11-17 10-13 8-11 6-39 23-14 8-17 8-18-10-15-9-26-15-15-9-11-8-5-4-1-2v-6l3-1 16 8 21 11 23 13 18 10 4 3 8 1 10-4 13-8 22-13 14-7 7-5 11-6 23-13 15-9z" fill="#F7F7F7"/>
<path transform="translate(1020,409)" d="m0 0 3 1 1 57-5 5-8 5-16 8-21 12-4-1v-58l5-4 22-12 9-5z" fill="#FAFAFA"/>
<path transform="translate(360,1123)" d="m0 0 5 1 23 15 14 8 9 6 1 1 1 60-6-1-17-10-18-10-6-4-4-2-1-2-1-45z" fill="#FAFAFA"/>
<path transform="translate(1701,836)" d="m0 0 6 2 10 6 15 8 16 10 4 3v58l-5 1-17-10-14-7-14-9-1-1z" fill="#FAFAFA"/>
<path transform="translate(1791,319)" d="m0 0h7l20 11 11 7 10 5 5 3v3l-13 8-24 13-12 7-6-1-14-8-17-9-10-7-6-3v-3l8-4 15-8 10-6z" fill="#F9FAF9"/>
<path transform="translate(902,408)" d="m0 0 5 1 13 8 13 7 7 4 13 8 2 3-1 58-2 1-17-10-13-7-16-11-3-5z" fill="#FBFBFB"/>
<path transform="translate(962,363)" d="m0 0 5 1 24 14 14 8 9 5v4l-16 8-24 13-10 5-6-1-19-11-13-8-12-7-1-3 9-6 16-8 16-9z" fill="#F9F9F9"/>
<path transform="translate(420,1079)" d="m0 0 6 1 14 8 20 13 11 6v3l-10 6-11 6-18 10-7 4-5 2-14-8-12-8-15-9-7-4v-3l13-8 32-17z" fill="#F9F9F9"/>
<path transform="translate(1733,363)" d="m0 0 5 1 20 12 9 6 9 5 7 5 1 4 1 57-6-2-22-13-15-9-7-5-1-9-1-31z" fill="#F9F9F9"/>
<path transform="translate(1759,792)" d="m0 0 6 1 19 11 14 7 12 7v4l-16 10-20 12-11 5-4 1-22-13-20-13-4-3 1-4 13-8 14-7z" fill="#F9F9F9"/>
<path transform="translate(1009,691)" d="m0 0 4 4v2l4 2v5l6 2v4h2l-1-4 3-3h5l2-2h3v3h3l1-4h4l1 2-1 4-4 2-7 3-1 2 2 2-17 10-11 6-18 10-6 4h-2v-2l2-1-6-3 1-4h-2l-3-7-5-1-2 1-3-2-1-7 2-3 7-3 2-2h3v-2l5-3h3v-2l-2-2 3-1 5 1v-2l10-4z" fill="#E3E4E3"/>
<path transform="translate(878,760)" d="m0 0 2 1-6 4h-2v2l-1 1h4v-2h3l2 3 1 6 3 1v3l11 1 1 5 4-1v2l-4 1 1 3-9 5 3 2-16 9-8 6-8 1-16-9-17-11v-3l16-10 11-6 17-9z" fill="#FAFAFA"/>
<path transform="translate(1267,340)" d="m0 0 2 4v2l-1 1 2 1v2h2v8l7 1v-4l4 1 1 6h5v2h-3l-1 5 1 3h2l1-4 3-5 1 3-8 14-9 16-8 16-5 9-1-3v-3l-4-1v-3l-3 1-3-2-1 3-3-1 2-4-2-1 1-2h-5l1-4 4 3 2-5 2-1 2 1-2-5h2v-6l-3-4 1-2-2-1 1 7-2 3v5l-5 4h-2l-1-7 1-2 3-1v-4l-2-1v2h-2l1-4h3l1-10 3-2v-4l-6 9-1-2 7-13 1 4h3l1-6 3-4 2-5 3-5 3-2z" fill="#E3E4E3"/>
<path transform="translate(1123,592)" d="m0 0 1 4h2v-2l3-1 1 3 4-1v4l4 1 3 3h6l3 5v3h2l-2-7 3-4h2v5l3 1-1 4-2 2h-3l2 4 1-1 6-9 1 3-6 10-12 22-5 6-14-6-17-10-5-3 6-11 9-16z" fill="#E3E4E3"/>
<path transform="translate(1153,540)" d="m0 0h1v5l-3 6-2 2-2 5 4-1 5 5 5 6 2 1 1 5 4 1v3l-4-1v-2h-2v2h-2l2 5 6 1 1 3 3-4 1-3h2l1-4 2-1v6l-9 16-6 10-3 2-7 14-1-4 1-3-1-3 5-3v-3l-2-1v-5l-4 4 1 7h-2l-3-7h-6l-4-4-3-1v-4l-4 1-2-2h-2v2h-2v-6l11-19 7-14 8-14h3z" fill="#FAFAFA"/>
<path transform="translate(1164,517)" d="m0 0 1 4 3 1v2h3v7l5 1 2 3 2 8h4l4 2 1 6-1 4h-3l1 3-2 4h2v-3h2l-2 5-7 14-2-3-2 4-2 1v3l-5 4v-4h-6l-2-2v-4h2v-2h2l1 2 3 1v-3l-4-1-1-5-4-2-4-5-5-4-4 1 3-7 2-2 2-7h-2l2-6z" fill="#E3E4E3"/>
<path transform="translate(1306,260)" d="m0 0 10 4 8 5 12 5 4 3-1 4-7 14-8 14-1-4h2l1-5-7 1 1 3-2 1-3-5-2-2v-3l-7 1-3-2h2v-3h-6l-3-7-2-1 2-6 9-16z" fill="#F7F7F7"/>
<path transform="translate(1378,1132)" d="m0 0 3 1-1 1v35l-1 4v7l2 4-1 3-2 1v6l6 3 2 9 1 11 2 3v3l2 6-2 24-1 6h-2l-1 3-2-1-1-6v-41l-4-2 1 8v57l-2 3-1-65-4-6-15-12 1-5 10-6 6-5 2-8 1-40z" fill="#E3E4E3"/>
<path transform="translate(1390,133)" d="m0 0 1 3 5-2 1 3-1 4 5 1 1 2 16-1h5l-4 4-5 2v2l-8 6-17 13h-2v2l-8 5 1-4h-5l2-4-5-5-1-5-2-5 1-4h-4l-1 5h-4l1-5 5-5 4-2 1 1 3-5 5-3h2l-1 7-4 1-1 2 5 1v-2h6v-2h2z" fill="#E4E5E4"/>
<path transform="translate(1353,989)" d="m0 0 7 2 11 7 6 7 1 14v51l1 2-3-1-1-2v-10h-2l1 6-1 4-4 1 6 1 1 3 5 2v2l4 2 2 2 6 2v2l5 1 3 2h-2l1 4-3 2 4 2 1 2 6 1 6-2v6l1 4h-3l-9-5-5-2v-2l-5-2-8-4v-2l-3 1-3-1-3 1-1 2h-2l-1 4h-7v-9l5 1v2l3-1v-3h-7l-2-4v-7l1-3-2-7h2l-2-5 1-7 2-1 6 1v3l2-2 1-8-2-1v6h-1l-1-6 2-2-2-5-1-1v4h-3v3l-3 1v-4-9l4-3 1-3-3-1h2l1-2 2 2 2 3 1 6-1 2 1 4 1-1v-26l-1-9-4-6-4-2v-2l-6-2-6-3z" fill="#7E7F7C"/>
<path transform="translate(1368,1280)" d="m0 0 5 1-1 6h9v2l6 2 11 6v2h4l1 2 4 1 3 2v2l-8 1v5l-4-1-2-1v-2h-4v-2l-6-2v-2l-5-2-6-1-1 5 1 4-1 7v38l-1 9-5-2-2-3v-7l-1-3 1-3v-3l1-2-2-1 3-1 1-4h-3l-1-10v-36l2-6z" fill="#7E7F7C"/>
<path transform="translate(1456,759)" d="m0 0h2l2 4-1 31 1 117-1 1h-6l5 2 5-4-1-2 3-1h1l2-2 3 5 5 3h5 3v2h-4l2 1-1 4 3-1v2h-3v2l-9 6-4 2-5-1-8-4-12-8v-2l-4-2-3-4 4-2 4 2 8 1-14-8-1-2 6 2 8 5 6 2v-148z" fill="#7E7F7C"/>
<path transform="translate(878,760)" d="m0 0 2 1-6 4h-2v2l-1 1h4v-2h3l2 3 1 6 3 1v3l11 1 1 5 4-1v2l-4 1 1 3-9 5 3 2-12 7h-2v-2l3-2h3v-2l-9-1-1-7h-4l-6-1 1-7h-6l-2-3 5-6-8 4-3-1 14-8 11-6z" fill="#E3E4E3"/>
<path transform="translate(1305,199)" d="m0 0h8l3 1 3 3 6 2v3l5 1 1-3h3v4l4 1-17 13-12 9-4 2 2-4 2-1-1-2h-3l-1 3-2-5 1-3 3-2v-2l-3 1-1 2-2-1-1-6v-8l-3-1v-3l3-1 1-2z" fill="#E4E5E4"/>
<path transform="translate(649,1158)" d="m0 0h2l-1 6-2 5h-4l-1 8-2 2v4l-6 5-7-2 1 4h2v8l-3 8-3 2-2 6v2h-4v4h-4l-1-5 1-5 2-9 1-4h2v-2h2l1-6h-8l-1-5 5-4 5-1h6l3-6 2-6 2-5 11 1z" fill="#E3E4E3"/>
<path transform="translate(560,1207)" d="m0 0h2l1 3-2 6-2 2v8l-1 3 4 2-1-4 2-1v-4h3l1 3 2 1 1-2-1 4-12 21-1-2 2-5-7 11-4 8h-2v-2l-8-2 2-4h2v2h3v-3l3-1v-4l-1-1-2 2-2-8h2l1-5 1-3h2l2-5 2-4 2-1 1-4 1-3h2l1-4z" fill="#7D7E7B"/>
<path transform="translate(875,1091)" d="m0 0 5 1 1 3 2 2-10 7-7 3-2 3-11 4v-2h-4l1 4-5 4-5 1-1 2h-4-4l-1 6-1-4h-5v-3l11-8 10-6 11-6h2v-2l10-5 5-1v-2z" fill="#7E7F7C"/>
<path transform="translate(971,437)" d="m0 0h1l1 23h3l-1 9-1 1h3l3-1 1-5h3l1 3 4 2 3 5 2 1v5l-2 3h-3v2h-7l-2 4h-4l-1 4h-2v2l3 1-5 1-1-1v-58z" fill="#E3E4E3"/>
<path transform="translate(1456,129)" d="m0 0 7 2 1-2v4h3l-2 4v-2h-2l-1-2-5 1-3 4v2l5 1v4l-3 1-1 1-1 10 2 1-1-6h4l2 5 6-1-2 4h-6l-1 3-2-4-2 1-1 7-3 41-3 59-1 9h-1v-18l2-36 4-66 2-10-5 3h-2v-2l3-3h-3v2l-5 1-4-2-1 2-2-4-2-1 4-2 3-2 2 1v-5l3-1 3 2-1 4h3l1-4 3-1z" fill="#7F807D"/>
<path transform="translate(902,408)" d="m0 0 5 1 13 8 13 7 1 2-5-1v2l-9 1v6h-2l-1 4-1 2-3-1 1-3 2-1v-2l-5 1-2 3-2-2-1-7 3-6-1-2h-2l-1 48-2-3z" fill="#E5E6E5"/>
<path transform="translate(849,1309)" d="m0 0 7 1 4 1 2-2 5 1 8 3 3 3 6 1 4 6 6 4v9l-10-2-2 1-11-6-10-6 3-1 14 8-1-1v-2l-4-1v-2l-5-1-2-3-7-3-4-3-3-1v-2h-3z" fill="#E3E4E3"/>
<path transform="translate(1443,799)" d="m0 0 3 1 1 11v23l-1 7 1 10-1 18-5-1-2-6v-12l2-10-2-10-1-12 1-16z" fill="#E3E4E3"/>
<path transform="translate(1749,864)" d="m0 0 3 1v58l-5 1-10-6 3-1-4-5v-3l4-12 2-3 6 1-1-4 3-5 1-4h-2l-1-3 2-1v-3l-2-1v-2h2z" fill="#E4E5E4"/>
<path transform="translate(1370,789)" d="m0 0 4 2 1 10 1 57 1 3h-2l-4-5-2 4-1 3 5-2 5 6-2 2-3 1 1 2-1 2h-5l-1-4-4-1-1-26 2-6 1 2h2v-3h2l2 7-1 3 1 5 1-5v-55h-2z" fill="#7E7F7C"/>
<path transform="translate(1605,864)" d="m0 0 10 5 7 6 1 6v7l-8 2h-4v3l-4-1-1-3h-6l-5-1v-3h3l1-4 6-3-2-7 1-3z" fill="#7E7F7C"/>
<path transform="translate(893,450)" d="m0 0h2v2l2 1 3 3v2h-2l-1 4-2 2 4 1 1 7 6 1 2 3 3 1v2l6 2 1 3 6 1 8 5v5 3l-4-1 1-5-7 2-2-1-2-4h-5l-8-4-6-4-3-1-1-2-3-1-1-6 1-12 1-2z" fill="#7E7F7C"/>
<path transform="translate(1036,1383)" d="m0 0 2 1 1 4 9-2-1 3-5 3h-3v2l-4 2h-3l-1 3-5 3h-4v2l-8 4-10 6h-4l-1-4-4-2 15-9 7-4 11-7 3 2h-2l2 4 2 1v-5l-3-3h2v-2z" fill="#7E7F7C"/>
<path transform="translate(821,1149)" d="m0 0 6 1 13 8-2 1-10-6-4-1 2 18v5l4 2-3 4 1 3-2 28-1 15-1 10v63l-2-1-1-13z" fill="#E3E4E3"/>
<path transform="translate(1500,693)" d="m0 0h2l-1 4h-2l-1 3 2 1-8 5h-2v2l-5 2-11 6-8 3-6-1-7-6 2-4h-3v-5l5 1 2-1v3l4 1 3 1h7v-3h6l5-4 6-2 2-2 7-3z" fill="#7E7F7C"/>
<path transform="translate(904,1353)" d="m0 0 7 2 12 7 10 5v2l4 1v3l-5-1v3l6-1-2 6-4-1-3-1-1-2-4-1-11-6-15-9v-4l4-2h1z" fill="#7E7F7C"/>
<path transform="translate(1507,726)" d="m0 0 3 1v5h2l1-2h3v3l-6 3-10 7h-4v2l-3 2h-4v2l-3 2h-5l-1 4-6 2-2 2-3-4 3-2h3l-1-7 5-1 4-2v-2l8-5h2l1-3 12-6z" fill="#7E7F7C"/>
<path transform="translate(646,1059)" d="m0 0h2l1 4-3 4 1 2-1 2 6-1v4l-4-2-1 2-2-1-1 6h-2l-1-2-2 4 4 2v2l-3 3 2 6-5 7-3-1-4 2-5-1-2 4v3h-3v-5h2v-3h2v-4h2l1-5 1-3 4-1v-2-1l1-4 3-1v-4h2l2-7 3-1 1-5z" fill="#7D7E7B"/>
<path transform="translate(1732,428)" d="m0 0 5 2v2l6 2 12 7 11 6 5 4 9 4v2l4 1-1 6-6-1v-2l-5-1-9-5-5-3-1-3h-1l-3 1v-2h-4l-3-3-4-3v-2h2v-2l-5 2-2-2-5-1v-3h3l-3-1z" fill="#7E7F7C"/>
<path transform="translate(1382,1138)" d="m0 0 7 4 3 4 5 3v2h-5l1 14 1 8 3 1-1 5h-3l-1-3 1-3-5 1 1 3 3 3-1 3h-6l-1-4 1-4-2-5-2-4 1-2v-13l2-1-1-6-2-5z" fill="#E3E4E3"/>
<path transform="translate(1202,1096)" d="m0 0 4 2 1 1v147l-6-1-11-7-6-3 3-1 14 8 2 1 1-6v-28l1-13v-33l-1-12v-12l-2-2 1-9v-9l2-2-1-5h2l-1-10-2-4z" fill="#E3E4E3"/>
<path transform="translate(962,1277)" d="m0 0h3l2 4v15l1 8v11l-1 5 1 7-1 7h-5l-2-2v-14l-1-27 2-5-1-6z" fill="#7E7F7C"/>
<path transform="translate(565,1558)" d="m0 0 4 3v6 4 11l2 2-1 11-1 8 1 1v7l-1 4 2 1-1 5-2 7v5l2 1-5-1-1-6v-65z" fill="#7E7F7C"/>
<path transform="translate(1618,830)" d="m0 0 3 2 2 7-1 4-9 5-5 4-8 4-1 5h-2v-2h-2l-1-4-1 3-3-1v-2l-6 1 1-4 5-1v-2l12-6 2-3h5l4 1-2-3 4-2h3l1-2-3-1z" fill="#7E7F7C"/>
<path transform="translate(1074,1025)" d="m0 0h1l1 44 1 17h2l3-1 3 6v2l3-1 2 2h3l2 5-2 3v-2h-2v8l-6-2-11-8z" fill="#E5E6E5"/>
<path transform="translate(720,1658)" d="m0 0h1v6l1 1v10l1 12v11l-2 5-2 7-3-3-2-16v-26l1-4h5z" fill="#7E7F7C"/>
<path transform="translate(1540,1086)" d="m0 0 3 1-2 5h2v2l2 1h-2v2h-4v2h-3v2l-3 2h-5l-2 4h-4v2l-5 2-2-1v-2l-1-1-1 3 1 2-3 2h-3v-3l-4-2 1-3 5-2 1-2 4-1 5-3h2v-2l5-2 6-4 4 1 1 4h2l-1-8z" fill="#7D7E7B"/>
<path transform="translate(400,1078)" d="m0 0 6 2 1 3-4 2h-3v2l-11 6-7 3-5-2-2 6h-5l-1 4-3-1v-3l-6 2 2-5 6-3h2v-2l6-3h2l1 1v-2h2v-2l9-4 6-3h2l1 3z" fill="#7E7F7C"/>
<path transform="translate(1775,891)" d="m0 0h2v2h2l6 7 4 7 3 3-5 5-4 2h2l3 1-8 5h-2v-2l-4-1 1-4-2-4v-15z" fill="#E3E4E3"/>
<path transform="translate(1228,1039)" d="m0 0h2v7h5l1 4h-5l-2 4-11 5-7-1-4-3-7-3v-3-3l3 1v-2h-6v2h-4l-1-4 7-1 1-2 7 2 7 1 3 1-3 4 2 5 3 1 5-2 1-3h2v-6l-4-1v-1h5z" fill="#7E7F7C"/>
<path transform="translate(953,438)" d="m0 0 2 1-1 58-2 1-10-6 2-1-2-5 4-1 3 1v-4l-5-5 1-4h6l1-2-1-3-7-1 2-7 1-4 4-3 1-3z" fill="#E3E4E3"/>
<path transform="translate(874,1372)" d="m0 0 7 3 14 9 7 4 5 3-1 7h2v-2h2l2 6-5-1-14-7v-2l-4-1-3-1v-2h-3v-2l-2-1 3-4-8 2-3-4 2-2-2-3z" fill="#7E7F7C"/>
<path transform="translate(1290,841)" d="m0 0 4 1-5 5h-4l-1 3-16 9-3 1-2 2h-2l-3 3-4 1-1-3v-4-3l4-2h2v4h3v-2h-2l1-5 7-3h2l1-3h6v-3h2l2 3z" fill="#7E7F7C"/>
<path transform="translate(1054,795)" d="m0 0h3v174l-2-2-1-169-4 1z" fill="#E3E4E3"/>
<path transform="translate(951,1223)" d="m0 0h2l2 3v150l-8-4 3-1 2 1 1-47-1-99z" fill="#E3E4E3"/>
<path transform="translate(1203,1299)" d="m0 0 4 2 1 2v149l-5-1-10-6-5-4 6 1-2-3-4-2-1-3 4-2 4 3h2v2h2l1 5 3 1-1 6h3l1 1v-146l-3-3z" fill="#E3E4E3"/>
<path transform="translate(943,415)" d="m0 0 4 2 7 3 2 2 9 3h2l3-4 6-2 1 3 3 1v4h-4l-1 3h-3l-1 2-4 1v-3l-1 6-3-1v-3l-2-1-2 3-4-1 1-5h-3l-3-1-4 1 1-4-2-2-2 1-1 2-2-1 1-5-1-3z" fill="#7E7F7C"/>
<path transform="translate(864,1640)" d="m0 0h2v2l3 1-3 1 2 3-6 5-6 1-1 3-4 2-3 1-2-1-5 6-4 1-3-3v-5l6-4 7-4h3v-2l10-5z" fill="#7E7F7C"/>
<path transform="translate(1225,1302)" d="m0 0 2 1-1 8v143l9-6 3 1-9 6h-4l-2-12v-136z" fill="#7F807D"/>
<path transform="translate(1377,922)" d="m0 0 5 1-3 2 1 2-1 33-1 11-2 6-2 1-1 3h-2v3h3l1-2 5 6-1 4-2 3-4-1-7-4v-2l-4 1 1-4h3v-3h-3v2l-5 2-3-1 14-8 6-7 1-2z" fill="#E3E4E3"/>
<path transform="translate(1149,1221)" d="m0 0 6 2 18 10 4 2 1 5v3h-7l-2-1v-2l-5-1-10-5-6-4h-2l-2-6h4l2 2-3-4z" fill="#7E7F7C"/>
<path transform="translate(820,1146)" d="m0 0 6 2 1 2-6-1 1 2v140l1 8 1 2-4-2z" fill="#7F807D"/>
<path transform="translate(976,760)" d="m0 0h4l2 1-1 4-8 4-7 5-11 6-9 5-5 1v2l-4 1 1-4 3-2 3-3 6-2v-2h-2v-3l-2 2-1-5 7-2v6l3-1v-3l-2-2 2-1h11v-4l5 1h4z" fill="#7E7F7C"/>
<path transform="translate(1395,501)" d="m0 0 5 2 8 4 7 5 4 2 5 4 2 2 5 1 2 3-1 4-3 1-7-4-1-3h-5l-4-2v-2l-5-1-7-4-4-2 1-4v-2l-4-1v-2z" fill="#7E7F7C"/>
<path transform="translate(1110,1301)" d="m0 0 4 1h-3v2l4 1-1 3h-3v3l2 1-4 1-1 4-2-3-3-1 2 5h-3v-2l-3 1 2 9 3 2-1 3h-3v2l-5-2 2-2h-5l-2-6-1-2-4-3 5-2 5 2-1-6 4-3h4v-2l5-1v-2z" fill="#7E7F7C"/>
<path transform="translate(1487,381)" d="m0 0h5v2l5 1 5 4 6 2 2 2 11 6v2l2 1-3 1-5-3-6 1-2 2v-2l-6-2-5-3v-2h-4l-3-3-3-1-2-3v-3z" fill="#7E7F7C"/>
<path transform="translate(1357,1227)" d="m0 0h3l1 94v51l-2 5h-1v-78l-1-69-4 1z" fill="#E3E4E3"/>
<path transform="translate(1304,272)" d="m0 0 4 1 2 4-5 1-1 5 4 2 6 7 4-2 4-1 2 1v5l-2 4h2l1-2 1 3-7 1 1 3-2 1-3-5-2-2v-3l-7 1-3-2h2v-3h-6l-3-8h3l2-6z" fill="#E3E4E3"/>
<path transform="translate(1605,894)" d="m0 0 5 2 1 1 1 33 1 83v29l-4 2 1-2v-54l-1-91-8 2-5 2 2-3h2v-2z" fill="#7F807D"/>
<path transform="translate(1318,626)" d="m0 0 2 1v2h4v2l4 1 1 3 7 1v2l5 1v2h3l1 3 4 1-1 2-1 4v3l-5 1v-2l3-1-3-5v-2l-8 6-2 1 1-5-1-2-4-2v-2l-4-1v-3l-5-1-4-2v-2h-2l1-3h4z" fill="#7E7F7C"/>
<path transform="translate(1478,1175)" d="m0 0 3 1-5 4v73l1 74 3 2-2 1-3-2-1-21-1-53v-74z" fill="#7F807D"/>
<path transform="translate(1454,967)" d="m0 0 3 2 1 33 1 115-6-1-10-6 3-1 8 5h2v-81l-1-60-1-4z" fill="#E3E4E3"/>
<path transform="translate(1476,548)" d="m0 0 3 1-4 3v43l1 104 6-1 4-1-4 4h-8l-1-1v-149z" fill="#7F807D"/>
<path transform="translate(1355,1023)" d="m0 0 4 1v147l-1 2h-2l1-67v-62l-1-19z" fill="#E3E4E3"/>
<path transform="translate(1204,887)" d="m0 0 2 1 1 7v136l-1 6-4-1 2-2v-43l1-7v-36l-1-12 1-3-1-19z" fill="#E3E4E3"/>
<path transform="translate(1105,1358)" d="m0 0 2 1 1 16v132l-2 2v-149l-5 3 2 1 1-2-1 4-4 2-1-2-3-2z" fill="#E3E4E3"/>
<path transform="translate(1450,146)" d="m0 0h3l-3 42-3 58-3 41-2 29-4-1-3-3 4 1 2-10 1-26 2-26 2-43 1-9 1-22 3-28-2-2z" fill="#E3E4E3"/>
<path transform="translate(650,1305)" d="m0 0 3 3v2l3 1-1 2h-2l-1 6-4 6-3 5-5-4-5-1-1-4 4-7h2l1-5 3-3 1 2h-2l1 5 4-7z" fill="#7D7E7B"/>
<path transform="translate(1416,1137)" d="m0 0 2 1v2l4 2-2 3 6-2 5 3v2l5 2 4 2-1 3 4-1 4 4-3 1 1 4-4 1-1-2h-3v-2l-7-2-3-3-4-2-1-4h-2l-5-1z" fill="#7E7F7C"/>
<path transform="translate(1538,1297)" d="m0 0h3l1 4h2v5l-3 2h-2l-4 4-10 5-2-1-1 3-5 2-1-4 2-1 1-4-1-3 1-2 4-1 5-2 3-3 3 1v2l5-1v-3l-4 2 1-4 2 1z" fill="#7E7F7C"/>
<path transform="translate(892,1463)" d="m0 0 5 2 2 7v7l-3 11-1 1v8l-4 1-1-3-1-10 1-6-2-4v-6l1-4-2-2z" fill="#E3E4E3"/>
<path transform="translate(1393,882)" d="m0 0 5 4h2l1-2 3 2 3 1v3l2-2 1 3h5l1 4h5l5 4-2 2-2 1-1 2-2 1v-2l-5-1-1-3 2-1 4 1-1-2-5 1-2 2-4-2-15-9-4-2-2-4z" fill="#7D7E7B"/>
<path transform="translate(1074,812)" d="m0 0 9 3 7 4-4 2v2h-2l-1 3-1-4-2-1-1 3-3-4v139l2 5-4-4-1-81z" fill="#E3E4E3"/>
<path transform="translate(1790,409)" d="m0 0 4 1 2 2 1 14-1 8-1 16-5 1-1-3h2l-2-8-1-15 1-3-1-4 1-2v-6z" fill="#7E7F7C"/>
<path transform="translate(1185,1070)" d="m0 0 8 4v5l2-3h2v2h4v2l5 2v3l-4 2 3 4-5-1-11-5v-2l-6-2-3-3v-1l-5-1 1-4 8 2z" fill="#7D7E7B"/>
<path transform="translate(1606,476)" d="m0 0h3l1 63v85l-4 2v-2h2l-1-138v-3-5l-9 3h-3l6-4z" fill="#E3E4E3"/>
<path transform="translate(838,1165)" d="m0 0 5 1 7 3 9 5 6 3 3 2 1 4-10-1-6 1-1-3-10 1-1-4 3-5-4-1-3-3z" fill="#E3E4E3"/>
<path transform="translate(457,1121)" d="m0 0h5l-2 1 3 7-3 1v2l-7 3-1 1h-5l-2 4-8 1-4-1v-3h2v2h2l-2-4h2v-2h3l1-3 6-3 9-5z" fill="#7E7F7C"/>
<path transform="translate(1055,645)" d="m0 0 1 2 3 1 1 7-5 1-1 3h-3v-2h-3l1 4h-2v2l-4 1-3 1v-6l-5 5 1 3-4 2h-2l-1-3 3-9 4-1 3 2 1-5 1 4h3l-1-4-1-2 7-4 2 5h2v-5z" fill="#7E7F7C"/>
<path transform="translate(919,1418)" d="m0 0h5v2l6 1 2 1v2h3v-2l6 2 1 2-3 1v2l4 2-3 1-1 6-4-1-5-5-5-2-1-4-2-2-4-1 1 6-4 1-5-1 4-5h3v-2l2-1z" fill="#E3E4E3"/>
<path transform="translate(400,1163)" d="m0 0h2l1 2 1 12h2v3l-2 1-1 4v6l3 1-2 5-10-5h-5l1-4 4 1 3-11-1-6v-6z" fill="#E3E4E3"/>
<path transform="translate(1821,836)" d="m0 0h1l1 7v54l-1 2-2-1 1-3v-13h-3v-4l-5-1-3-5 3-2h2l1-9 1-4 2-4 1-1z" fill="#E4E5E4"/>
<path transform="translate(541,1286)" d="m0 0h3v2l3 1-3 7h-2v5l3 1v7l-1 3-3 3-4-1v-5l-2 4-2 3-3-1v-8h2l2-5 2-1-1-6 3-1 1-3 2 1-1-5z" fill="#E3E4E3"/>
<path transform="translate(1450,547)" d="m0 0 5 2 2 3v148l-5-1 3-1-1-22 1-14v-78l-1-29-2-5z" fill="#E3E4E3"/>
<path transform="translate(1456,129)" d="m0 0 7 2 1-2v4h3l-2 4v-2h-2l-1-2-5 1-3 4v2l5 1v4l-3 1-1-1-9-1v2l-5 1-4-2-1 2-2-4-2-1 4-2 3-2 2 1v-5l3-1 3 2-1 4h3l1-4 3-1z" fill="#7D7E7B"/>
<path transform="translate(1606,474)" d="m0 0 5 1v150l-2-1v-148l-12 3 2-3z" fill="#7F807D"/>
<path transform="translate(1837,357)" d="m0 0 4 1 1 1v5l-5 4-3 2h-3v2l-7 3-4 1v-4l-5-2 3-3h2v-2z" fill="#7E7F7C"/>
<path transform="translate(1355,811)" d="m0 0h4l1 124v27h-3v-149l-5 1z" fill="#7F807D"/>
<path transform="translate(1324,474)" d="m0 0 7 1 1 2-6-1-1 1-1 36v111l-2-2-1-58v-70l2-19z" fill="#7F807D"/>
<path transform="translate(1453,758)" d="m0 0 4 2 1 5v145l-2 1-2-2h3l-1-2-1-24v-34l-1-9 1-6-1-4 1-8v-61z" fill="#E3E4E3"/>
<path transform="translate(965,1042)" d="m0 0 6 1-1 4-5-1-2 3-7-1-1 9-8 4-2-1v2h-5l-4-4 2-1 2-4 7-3 9-5z" fill="#7D7E7B"/>
<path transform="translate(859,1481)" d="m0 0 5 1v154h-3l1-1v-152l-9 3 4-4z" fill="#7F807D"/>
<path transform="translate(1075,1151)" d="m0 0 3 1v3l3 1-1 4-5 1-1 2-9 4-1 2-5-1-7-2 2-4 5-3 5-1 2-3 6-3 1 3v5l1-3h2v-2h-2z" fill="#7E7F7C"/>
<path transform="translate(714,1037)" d="m0 0 5 1 1 2-2 2 1 2-2 6-4 5-1 4h-2l1 3-2 5h-2l-1 2-2-9v-9l1-5 1-3 3 2 4 1z" fill="#E3E4E3"/>
<path transform="translate(1773,848)" d="m0 0 2 4h-2l4 5h-3l-2 4-3-1-1 5-3 3h-4l1-5-4-1v-4h2v-2h-7v2l3 1v3h-2l-1-2-5-1-2-3 6-2h3v-2l10 1 3 5h2l-2-5 3-3h2z" fill="#7F807D"/>
<path transform="translate(1539,498)" d="m0 0h2l1 4 2 1 3-3 3 3-8 6-8 4h-4l-2 2v-2h-2l-1-2-4 1-2 2-1-3 3-1v-2l7-3 3-3z" fill="#7E7F7C"/>
<path transform="translate(624,1146)" d="m0 0 5 1 1 3-2 3h-2l1 2v7l-2 6-10-2-2-1 1-4 3-8 4-4z" fill="#E3E4E3"/>
<path transform="translate(1220,471)" d="m0 0 5 3 1 6-3 1-2 4 6 1-2 4v-3l-5 1-4 2-4-6-4 1-1-2 2-3 1-6 9-2z" fill="#E3E4E3"/>
<path transform="translate(1585,643)" d="m0 0 2 2v3h-3v3l3-2 4 1 2 2-1 3h-8l-8 3-5 4-3 1-2 2h-4l2-5v-4l5-1 3-4 4 1v-2h2 1l1-4 4 1z" fill="#7E7F7C"/>
<path transform="translate(879,803)" d="m0 0 1 2-11 7-1 2h-2l-1 4h-2l-2 5 1 2h-3v-2l-5-1-1-3-4 1-2-1v2h-3l-4-4v-4l6-1 2-2 5 3v5l3-2h3v-3l9-3z" fill="#7E7F7C"/>
<path transform="translate(1268,222)" d="m0 0 4 1 11 6 6 4 2 2v3l-6 2v-3h-2l1-3h-3l-2 2-4-1-1 3-4-2 3-5 1-1h-2l-1 2h-5l-1 2-2-2 1-5h3z" fill="#7E7F7C"/>
<path transform="translate(1434,940)" d="m0 0 4 2 8 3v2h2v2l2 1-1 2 3 1-1 6 2 1h-3l-5-2v-2l-4-1-11-7 1-5 5 1v-2h-2z" fill="#7E7F7C"/>
<path transform="translate(1150,1274)" d="m0 0 9 4 2 1 1 3h5l5 3 1 5 9 1 5 5-2 4-4 1-1-4h-3l-1-2h-3l-5-5-6-5-5-2-8-4-1-3z" fill="#E3E4E3"/>
<path transform="translate(1269,1264)" d="m0 0h2l-1 4 3-1v2l4-1v3h-3v2l-5 2-11 6-2 2-4-1 1-5-2-2 3-3 4-1 3-3 7-1z" fill="#7E7F7C"/>
<path transform="translate(1539,1125)" d="m0 0 4 1v10h-3l-2-2-1 6-3 1-2-3-6 1-1 1 3 1h3l-1 2h-3v2l-5-2-1-8 4-2h4v-2l5-2 1-2h4z" fill="#7D7E7B"/>
<path transform="translate(908,1185)" d="m0 0 6 2 6 4 7 5 4 2-1 4h-2l-1 2-6-2v-2l-4-1-11-8 2-1-1-4z" fill="#7E7F7C"/>
<path transform="translate(693,1024)" d="m0 0 5 1 1 5-4 8-3 1-7-3v9l-4 2-1 7-3 1-1-6 5-12h2v-2h2v-2l3 1 1-2h2v-2h2l-1-5z" fill="#E3E4E3"/>
<path transform="translate(1435,543)" d="m0 0 9 3 5 5h4v4h-3l-1 4-6 1-5-2-3-6v-5z" fill="#E3E4E3"/>
<path transform="translate(803,1426)" d="m0 0 4 1 2 4-1 2 4 4 3-1 2-2 3 1 4-1v2h4v2h-5v3l2-2h7l1 4-2 2-2-1h-4l-1 2h-2v-3h-5v-2l-7-2v-2l-4-1-3-3-1-2-3-1z" fill="#7E7F7C"/>
<path transform="translate(1133,1244)" d="m0 0 4 1 9 6 6 3 1 3h-2l1 3-2 2-5-1-5-2-1-2-4-1-3-4 1-3z" fill="#7E7F7C"/>
<path transform="translate(823,1358)" d="m0 0 4 1-2 1 1 7 1 1v22l-1 1-2 38-2-1v-25l1-41z" fill="#E3E4E3"/>
<path transform="translate(1202,884)" d="m0 0 4 2 2 3 1 149-4 1-3-2h4v-142l-1-7z" fill="#7F807D"/>
<path transform="translate(1305,496)" d="m0 0 3 1v134h-1l-1-102v-31h-2l-1 2v-3z" fill="#7F807D"/>
<path transform="translate(1861,335)" d="m0 0 4 1 6 5 2 6 1 30v54l-5 4 2-8v-65l-1-18-4-5z" fill="#E3E4E3"/>
<path transform="translate(1062,888)" d="m0 0 7 1-1 2v15l-1 1v9h-2v5l-3 1-1-4v-10-3l-1-5 1-3v-8z" fill="#7E7F7C"/>
<path transform="translate(1122,1128)" d="m0 0h2l1 14 1 40 1 11 1-3 3 1 2 7-3 1-2-1v2h2v2l-4-2-2-3-1-15z" fill="#E3E4E3"/>
<path transform="translate(1101,1041)" d="m0 0 2 1v2h5l4 1v2l7 3 2 2 3 1 2 3 5 1v6l-4-2v-2l-9 1-3 1 1-6-3-3-3 2-3-1v-2l-1-4h-5l-1-3z" fill="#E3E4E3"/>
<path transform="translate(1323,683)" d="m0 0 7 1 2 2-8-1v71l2 7-3-1-2-7v-46l1-25z" fill="#7F807D"/>
<path transform="translate(1790,839)" d="m0 0 1 2 6-1 3 1-2 4h-4v2l-9 5-5 4h-3l-1-8 3-3 3 1 5-6z" fill="#7F807D"/>
<path transform="translate(403,1149)" d="m0 0 4 1 5 4 1 60-6-1 3-1-1-36-1-5v-9l1-8-6-4z" fill="#E3E4E3"/>
<path transform="translate(1378,1303)" d="m0 0 4 2h-2v74l-3 8-1-2 1-5z" fill="#E3E4E3"/>
<path transform="translate(576,1482)" d="m0 0 2 1v55l2-1v4h-2l-1 91h-1l-1-149z" fill="#E3E4E3"/>
<path transform="translate(442,1145)" d="m0 0 2 1-11 7h-3l3 22-1 30-1 9 2 1h-4v-35l-1-26 3-3z" fill="#E3E4E3"/>
<path transform="translate(880,1563)" d="m0 0 5 1-3 1v64l-2 16h-2l1-10z" fill="#E3E4E3"/>
<path transform="translate(931,423)" d="m0 0 4 1 10 5 11 8v55l-1 7-5-1 3-2 1-57-1-3-5-2-8-5-9-5z" fill="#7F807D"/>
<path transform="translate(1368,1206)" d="m0 0 4 2 4 5 1 2 1 65 3 4-4-2-2-2-1-63-2-6z" fill="#7F807D"/>
<path transform="translate(565,1294)" d="m0 0h7l2 4v2l2 1-1 4-4 2-1 3 1 2-3 3-3-1 1-3-4-5 2-11z" fill="#E3E4E3"/>
<path transform="translate(1225,1311)" d="m0 0h1l1 136 1 3 4 1-4 3h-2l-1-6z" fill="#E3E4E3"/>
<path transform="translate(1318,338)" d="m0 0 2 4 3-1v3l-3 1-1 7-3 5-3 3v-2l-4 1-1-6 2-3-2-1 6-6-4-2z" fill="#7E7F7C"/>
<path transform="translate(1370,997)" d="m0 0 4 2 2 4h2l2 13v27l-1 25 3 5-4-2-1-1v-51l-1-14z" fill="#E3E4E3"/>
<path transform="translate(807,1340)" d="m0 0h1v73l-2 7-7-2-4-4 5 2 5 1 1-75z" fill="#7F807D"/>
<path transform="translate(917,720)" d="m0 0h2v2l4 1 2 2 4-4 4 1-1 4-11 6-8 3-3 3v-5l5-4 1-4-1-3h2z" fill="#7E7F7C"/>
<path transform="translate(1699,902)" d="m0 0 5 2-3 1 1 2 6-1 3 3 5 2v3l-5 3-10-4v-2l-5-2-2-4z" fill="#7F807D"/>
<path transform="translate(1019,1355)" d="m0 0 2 1v2l5-1 2 4-3 1v-3l-2 2-1 4h-2v-3h-3v2h2l-1 4-5 1-3 3-3-1-1-5 2-4v4l4-2-2-4z" fill="#7E7F7C"/>
<path transform="translate(823,1355)" d="m0 0 10 6-3 1-7-4 1 4-1 41v25l1 2-3-1-1-6 1-40v-27z" fill="#7F807D"/>
<path transform="translate(1385,413)" d="m0 0h3l3 4v4l-3 1-2-1v2h-3l-1 3-6 2h-2v2l-3 1-2-3 4-1 3-4-2-4 10-4z" fill="#7D7E7B"/>
<path transform="translate(657,1513)" d="m0 0 5 1-2 4 4-1 5 2v2l4 1 1 2-1 1 1 2-3 4-3-2 1-3h2l-1-2h-2l-1 3-5-1-6-3-2-4 4-3-2-2z" fill="#7F807D"/>
<path transform="translate(1017,1185)" d="m0 0 2 2 1 6-11 6-2 2-4 2h-3l-2-4 1-4h2l1 3 2 1-1-5 4-2 1-2 4-1 1 3 2 1-1-5z" fill="#7F807D"/>
<path transform="translate(1357,376)" d="m0 0 2 2 3 2-1 5h-2l-1 5-4 7-3 2-1-4 3-3-1-5-3-1 1-3 1-4h2l1-2z" fill="#7C7D7A"/>
<path transform="translate(1231,715)" d="m0 0h6l1 4-2 2 1 2h3l-1-4 5 1v2l5 1v2l6 2-1 2-9 1-2 2-1-3 2-4-9 1-3-2v-2h-2l2-4 1-1z" fill="#7D7E7B"/>
<path transform="translate(757,1700)" d="m0 0 3 1-3 4 2 1-1 5-5 1v2l-9 5-6 1 1-3-1-3 3-5 2 1 1 4 2 1v-4l7-1v-4l-2-1 2-2 3-1z" fill="#7F807D"/>
<path transform="translate(872,1458)" d="m0 0 5 2 3 2 3 8v39l-1 33-2-1v-48l-1-24-2-6z" fill="#E3E4E3"/>
<path transform="translate(1441,1061)" d="m0 0 4 1 1 1 1 10-1 8-7-1-1-4 1-9v-5z" fill="#E3E4E3"/>
<path transform="translate(1345,1014)" d="m0 0 2 2 3 2-1 5-7 4h-3v2l-3 1-4-1v-3l4 1 3-1v-3h-6v-3z" fill="#7F807D"/>
<path transform="translate(764,953)" d="m0 0 6 1v6h-3l-1 5-2 1-1 3-4 2-4-5v-3l4-1v-3l5-1z" fill="#E3E4E3"/>
<path transform="translate(1795,796)" d="m0 0 3 2v2l5-1 5 4 2 1-2 5-1 1h-6l-2-3-5-1v-2l-3-1 2-3z" fill="#7D7E7B"/>
<path transform="translate(1425,1105)" d="m0 0 7 3 9 6-1 4h-3l-2 3-8-4 4-1 1-2-1-3-5-1 1 5-2 1-2-1v-2l-2-1 1-4h3z" fill="#7E7F7C"/>
<path transform="translate(1747,360)" d="m0 0h2v2l8-1 2 2 10 4 1 3-3 1h-4l-2 2-3-1v-2l3-1-7 1v-3l-5-1-3-3z" fill="#7F807D"/>
<path transform="translate(1196,1126)" d="m0 0 3 4v25l-1 3-3-1v-8l-3-9 1-7 2-4z" fill="#E3E4E3"/>
<path transform="translate(1216,1305)" d="m0 0 2 1v9h2l-2 9 1 7v8l-2 5h-1l-1-12v-10l-1-5-1-4 2-7z" fill="#7F807D"/>
<path transform="translate(360,1123)" d="m0 0 5 1 6 4-3 1-6-4 1 52 1 10 4 1-2 1-4-2-1-2-1-45z" fill="#E3E4E3"/>
<path transform="translate(1810,387)" d="m0 0 2 1-8 6h-2v13l2 43-1 1 2 2-3 1-1-1-1-42v-18z" fill="#E3E4E3"/>
<path transform="translate(1606,1049)" d="m0 0 4 1-1 10-7 2-1-2 1-4-5 3-1 4-5-3v-3h3v-2l7-3 5-1z" fill="#7D7E7B"/>
<path transform="translate(606,1263)" d="m0 0 2 4h-2l2 3 3 2h-2v2l-5 2-2 2 5 1 3 1v2h-2l1 4-10-2v-2h2l-1-3-2-2 6-10z" fill="#7D7E7B"/>
<path transform="translate(1034,460)" d="m0 0 3 3-1 5 1 2-2 8-7 2 1-7h-3v-2l3-3 1-6z" fill="#7F807D"/>
<path transform="translate(599,1499)" d="m0 0 4 1v2l5 1v2l5 1 2 3-2 5h-5l-5-5v-3l-5-1z" fill="#E3E4E3"/>
<path transform="translate(888,1344)" d="m0 0h2l1 2h4v2l5 1 2 1v2l-6 2 1 3-2 1-7-3-1-3 6-1-4-1-5 2-3-4 3-2h4z" fill="#7E7F7C"/>
<path transform="translate(1199,692)" d="m0 0 1 3-2 5 2 2 1 3 5-1-3 3-11 6-5 3 1-4 5-9z" fill="#E4E5E4"/>
<path transform="translate(548,1230)" d="m0 0h4l1 3h3v4l-5-1 1 7-3 1v-2h-2l-1 4-2 2-2-8h2l1-5 1-3h2z" fill="#797A77"/>
<path transform="translate(1097,689)" d="m0 0 5 2 1-2 3 1-2 4-7 4-4 3-6 2v-5h3l1-6 4-2v2h2z" fill="#7E7F7C"/>
<path transform="translate(1314,668)" d="m0 0h2v4h6l2 2v3l2 1-3 2-2 3-2-1v-2h-3l-1 3-3-2 3-1-4-3v-5l4 1z" fill="#7D7E7B"/>
<path transform="translate(1112,615)" d="m0 0 2 1-2 4-2 5-1 3 4 1 8 5 8 4 1 2-5-1-11-4-10-6v-3l3-3z" fill="#F0F1F0"/>
<path transform="translate(1368,1025)" d="m0 0 4 2 2 9-2 4-2-1v4h-3v3l-3 1v-4-9l4-3 1-3-3-1h2z" fill="#7E7F7C"/>
<path transform="translate(998,481)" d="m0 0 2 1-22 13h-5v-2h2l1-5 4-1 2-3 7 1-1-3 6 1z" fill="#F3F4F3"/>
<path transform="translate(1259,548)" d="m0 0h3l1 5v8l-3 2h-2l-4 1v3h-3l1-6 1-2h2l1-4z" fill="#7E7F7C"/>
<path transform="translate(569,1202)" d="m0 0 2 2 4 3-1 6h-4l-1 6h-2v2h-3l1-10 1-6h2z" fill="#7E7F7C"/>
<path transform="translate(1420,1086)" d="m0 0 7 2 5 3 2 1v2l4-1v3h-3v2l-7-1-1-3-4-1-3-2v-2h-4v-2z" fill="#E3E4E3"/>
<path transform="translate(695,1105)" d="m0 0 6 2 1 7-2 7-5 1-5-6 1-4 3 2 3-5-2-1z" fill="#7D7E7B"/>
<path transform="translate(1700,836)" d="m0 0h1l1 61 1 2-3-1-3-3h-2v-2h3z" fill="#7F807D"/>
<path transform="translate(809,1335)" d="m0 0 2 1-4 6-1 75-2-2-1-8 1-12 1-55z" fill="#E3E4E3"/>
<path transform="translate(1251,381)" d="m0 0 3 1v3l2 3-1 6v3 2h-3l-3 5-4-2v-3l4-4 1-6 1-2z" fill="#FCFCFC"/>
<path transform="translate(565,1478)" d="m0 0h3l1 4-3 1 3 7-1 5 1 4-1 8v3h-2l-1 3-1-18v-16z" fill="#7F807D"/>
<path transform="translate(1189,1432)" d="m0 0 5 2 3 1v2h2l1 5 3 1v4l-10-2-5-4 6 1-2-3-4-2-1-3z" fill="#E5E6E5"/>
<path transform="translate(814,1276)" d="m0 0 2 3v5 3l1 5-2 2v3l-5-1-1-6 1-10 4-2z" fill="#7F807D"/>
<path transform="translate(882,901)" d="m0 0h1v5l-6 11h-2v4l-3 3-2 1-1-5 4-2 1-4-1-3-4-2 2-1v-2h3l1 3h2v-5l4 1z" fill="#7F807D"/>
<path transform="translate(1314,583)" d="m0 0h2l2 6-1 3 1 6-1 6 1 6-1 3h-3l-1-4v-20z" fill="#7F807D"/>
<path transform="translate(1368,812)" d="m0 0 1 3 2 7 1 4-2-1v5l-5 3h-2l1-6h3l-2-2-2-1v-8h2l1-3z" fill="#7F807D"/>
<path transform="translate(1731,361)" d="m0 0 6 1 1 2-5-1 2 52v9l-2-1-1-36-1-4z" fill="#7F807D"/>
<path transform="translate(1074,812)" d="m0 0 9 3 7 4-4 2v2h-2l-1 3-1-4-2-1-1 3-3-4-2 2z" fill="#E4E5E4"/>
<path transform="translate(1490,945)" d="m0 0 3 1 5 4v4h-3v2l-7 3-3 1-1-4 3-1 2-3h2l-1-2-4 1v-3z" fill="#7F807D"/>
<path transform="translate(1459,132)" d="m0 0 4 1v2l-4 1 1 4 5 3 1 2-9 2 2 5-2 1-2-1 1 6-3-1 1-13 5 1v-4l-5-1-1-3 3-3z" fill="#727370"/>
<path transform="translate(820,796)" d="m0 0 5 1-3 3 2 1v2l9 2-1 3-3 1-1 3-5-2 1-5h-4l-1 2-2-1v-2h-2l1-3 4-4z" fill="#7E7F7C"/>
<path transform="translate(690,1075)" d="m0 0 6 1 1 9-4 1-1 3-1-3-6-1 1-4h3v-5z" fill="#E3E4E3"/>
<path transform="translate(1125,1254)" d="m0 0 5 2 2 2-5 2-1 48-3 5-2-1 2-6 1-13z" fill="#E3E4E3"/>
<path transform="translate(1377,1130)" d="m0 0 4 1-3 3-1 39-2 8-5 4-1-2 4-4 1-5 2-43z" fill="#7F807D"/>
<path transform="translate(1346,700)" d="m0 0 4 1v2l4-1 1 4h-2l-1 4-7-1-5-4 2-4z" fill="#E3E4E3"/>
<path transform="translate(1338,808)" d="m0 0h3v4h-3l-1 4-2 4-5 2-4-5 5-5h2l3-3z" fill="#7E7F7C"/>
<path transform="translate(796,796)" d="m0 0h3v4l4 2-2 4 2 3-4 1-3-2-4 2-2-3 4-7h2z" fill="#7E7F7C"/>
<path transform="translate(1776,861)" d="m0 0 2 1-6 6-1 59h-2v-22l1-38 5-5z" fill="#E4E5E4"/>
<path transform="translate(776,995)" d="m0 0 1 2-11 19-5 9-1-3 3-4 1-4h2l-1-3-2 2h-2v-3h2v-2h2v-2l-2-1 2-2h4v3z" fill="#7D7E7B"/>
<path transform="translate(1388,914)" d="m0 0 4 1-1 4h3v-3l3-1 5 4v3l-5 1-7 1-2-5-2-1v-3z" fill="#7E7F7C"/>
<path transform="translate(687,1117)" d="m0 0h4l-1 4v3l1 5h-1l-1 6-6 1-1-8h3v2h2l-3-4 1-6 2-2z" fill="#7F807D"/>
<path transform="translate(1712,846)" d="m0 0 2 1 1 4 2-1 2-2v4l4-1 2 2v5l-3-1-1-2-3-1-1 3-5-1-3-4 1-4h2z" fill="#E3E4E3"/>
<path transform="translate(1401,943)" d="m0 0 5 1 3 3 6 2 3 3-5 3h-2v-2l-6-2-3-3z" fill="#E3E4E3"/>
<path transform="translate(1e3 371)" d="m0 0 10 5 1 5-4 1v2h-2l-4-5-3-1v-3h2z" fill="#7E7F7C"/>
<path transform="translate(1021,474)" d="m0 0h5l1 7h-2l-1 3h-2l-1 2h-2l-1-2-5 1-2-3 5-4 2 2 4-1z" fill="#7F807D"/>
<path transform="translate(786,814)" d="m0 0 5 1 2 3v3l-4 1-1 2-3 1v3l-2 1-1 2-1-6v-2l3-2 1-5z" fill="#7E7F7C"/>
<path transform="translate(702,1191)" d="m0 0 1 2-8 15-9 15-6 12-2 1 1-4 6-11 1-4h2l1-5 6-9z" fill="#E3E4E3"/>
<path transform="translate(757,997)" d="m0 0 2 1-1 5 2 5v3l-6 1-2-1v3l-3-1v-3h2l1-4z" fill="#7E7F7C"/>
<path transform="translate(1792,306)" d="m0 0 8 1-2 4-6 2-5 1-3-1-4 1 1-3z" fill="#7F807D"/>
<path transform="translate(1805,830)" d="m0 0h2l1 3 5 1-3 1-1 4-8 2-4-4 1-3 4 2v-2-3z" fill="#7F807D"/>
<path transform="translate(1468,1039)" d="m0 0 2 1 1 6v14l-5-5-1-4 1-4-1-4z" fill="#7E7F7C"/>
<path transform="translate(673,1697)" d="m0 0 6 1v2h2v2l4 1-4 2-2 4-3-1v-4l-3 1-1-3z" fill="#7D7E7B"/>
<path transform="translate(1270,1273)" d="m0 0 7 1-1 2-14 7-5 3-2-1 6-7 8-4z" fill="#767774"/>
<path transform="translate(1024,716)" d="m0 0h4l-1 4-12 6h-5v2l-2-1 5-5 3-1 1-2z" fill="#F4F4F4"/>
<path transform="translate(1380,1141)" d="m0 0h2l3 5-1 5h-2l1 4v10l-3 2z" fill="#FCFCFC"/>
<path transform="translate(1149,1424)" d="m0 0h2v2h2l-1 9 1 2h-3v-2h-4v-2h-4v-2l-3-1h3v-2l-2-1 4-1 2 4 1 1z" fill="#7E7F7C"/>
<path transform="translate(1179,1013)" d="m0 0 6 3 2 5 2-2 4 1v4h-8v-3h-5l-2-3v-3z" fill="#E3E4E3"/>
<path transform="translate(1335,399)" d="m0 0 1 2-11 19-6 11-5 9-1-3 5-8 1-4h2l2-6 5-9z" fill="#E3E4E3"/>
<path transform="translate(1172,1012)" d="m0 0 5 2v3l-2 2 11 6v2l6 2 3 3-4-1-12-7-13-8 3-1 3 2z" fill="#E3E4E3"/>
<path transform="translate(1220,509)" d="m0 0 2 3v7l-2 3h-2v3h3l1 3-3 1-3-1-2-6 3-2 1-7z" fill="#7E7F7C"/>
<path transform="translate(849,1473)" d="m0 0 4 1v2h2l-1 3h-4v2l2 1-3 1-2-4v3l-5-2-1-3h4v-2h3z" fill="#7F807D"/>
<path transform="translate(869,1637)" d="m0 0 3 3v2l3 2v2l-9 6-3-1 4-5-2-3 2-3 2 1z" fill="#727370"/>
<path transform="translate(1466,143)" d="m0 0 2 4h-2l1 3-2 3h-5l-4-4 4-4h6z" fill="#7F807D"/>
<path transform="translate(736,1149)" d="m0 0h2v4h-2l-1 6-1 2h-7l-1-2 2-4 8-4z" fill="#7E7F7C"/>
<path transform="translate(1104,814)" d="m0 0h3v3l5 1-1 3h-2v-2l-2 2v2l3-1 2 5-5-1-6-4v-2h3z" fill="#7F807D"/>
<path transform="translate(580,1469)" d="m0 0h2v2h2l2 3 1 6-1 2-8-4v-5l2-1z" fill="#7E7F7C"/>
<path transform="translate(657,1513)" d="m0 0 5 1-2 4 5 2v4l-9-1-2-4 4-3-2-2z" fill="#7F807D"/>
<path transform="translate(1261,346)" d="m0 0 1 3-2 2-2 5-3 5-1 4h-3v-6l5-9h3z" fill="#F4F5F4"/>
<path transform="translate(846,1375)" d="m0 0 4 1v3h5l2 3 4 1-4 2-4-2h-9v-7z" fill="#E3E4E3"/>
<path transform="translate(803,1426)" d="m0 0 4 1 2 4-1 2 6 5-4 1v-2l-4-1-3-3-1-2-3-1z" fill="#7F807D"/>
<path transform="translate(1441,1302)" d="m0 0 5 1v3l-7 1v2l4 1-6 1-3-3v-2h2v-3z" fill="#E3E4E3"/>
<path transform="translate(1056,1068)" d="m0 0h1v19l-4 1-7-4 2-1 4 2 1-5 2-1z" fill="#E3E4E3"/>
<path transform="translate(757,915)" d="m0 0 2 1-1 9-4 7h-3l1-7z" fill="#E3E4E3"/>
<path transform="translate(1124,1426)" d="m0 0 3 1-1 1-1 52h-1l-1-53z" fill="#7F807D"/>
<path transform="translate(1113,1152)" d="m0 0 2 1v2l4 3-1 5h-3l-1 3-2-4-1-1v-6h2z" fill="#7C7D7A"/>
<path transform="translate(1741,844)" d="m0 0h4v2h2v3l5 1-2 4h-8v-3l1-3-3-2z" fill="#7F807D"/>
<path transform="translate(823,767)" d="m0 0 3 1-15 9-12 8-4 5 1-4 2-4 9-5 12-8z" fill="#E3E4E3"/>
<path transform="translate(1525,401)" d="m0 0 5 2-1 7 4 1v2l2 1-4 1-5-3-1-2v-4l-1-3z" fill="#7E7F7C"/>
<path transform="translate(845,804)" d="m0 0 4 1 10 5 7-1 4-2 4-3 3 1-10 7-8 1-14-8z" fill="#E3E4E3"/>
<path transform="translate(715,1637)" d="m0 0 3 1v2h-2v3l2 1h3v3h-4v2h2v2h-2l1 6-2 2v-2l-2-1v-12z" fill="#7E7F7C"/>
<path transform="translate(776,1515)" d="m0 0h3l1 4-3 2v3h-6l-2-4h2v-2z" fill="#7F807D"/>
<path transform="translate(747,1014)" d="m0 0 4 1 1 1 2-2 1 4-2 4v2l-5-2-4-2 3-5z" fill="#7D7E7B"/>
<path transform="translate(1357,384)" d="m0 0 2 1-1 5-4 7-3 2-1-4 3-3-1-5z" fill="#7F807D"/>
<path transform="translate(919,374)" d="m0 0 4 1-1 3v4h-3l-1-3h-2l-3 3-3-1-1 3-1-3 7-5z" fill="#7F807D"/>
<path transform="translate(1243,1031)" d="m0 0h2l1 5h-4v2l-4 1-1 4-1-3h-5l1-3h5v-2z" fill="#7E7F7C"/>
<path transform="translate(1611,644)" d="m0 0 2 1-2 3v4l6 3 7 6-1 2-6-4v-2l-6-2-6-5 1-3z" fill="#E3E4E3"/>
<path transform="translate(1401,1076)" d="m0 0h5l3 3 4 2-1 4-11-5-2-3z" fill="#E3E4E3"/>
<path transform="translate(1270,1056)" d="m0 0 2 4-4 1h-2v5h-4v-2h-3v-3l7-2 1-2z" fill="#7E7F7C"/>
<path transform="translate(1231,715)" d="m0 0h6l1 4-2 2 1 2 5 1v1l-7 1-3-2v-2h-2l2-4 1-1z" fill="#7F807D"/>
<path transform="translate(1362,359)" d="m0 0 5 1 3 3-1 4-2 1v-5h-2l-1 3-3 1-2-1v-2h2z" fill="#7E7F7C"/>
<path transform="translate(1452,236)" d="m0 0h3l1 3 4 1v5l-4 1-4-1z" fill="#7E7F7C"/>
<path transform="translate(968,1497)" d="m0 0 2 2-1 8 1 4v2l-4 2-3-3 2-1-1-5 3-1v-7z" fill="#7D7E7B"/>
<path transform="translate(745,1113)" d="m0 0 1 3-9 16-6 10-1-3 6-11 4-6 4-8z" fill="#E3E4E3"/>
<path transform="translate(1138,1063)" d="m0 0 5 2 5 5v2l4 2-2 2-6-5-5-3-2-4z" fill="#E3E4E3"/>
<path transform="translate(1186,559)" d="m0 0h2l-2 5-7 14h-1l-1-6 4-6 2-4h3z" fill="#EDEEED"/>
<path transform="translate(777,1100)" d="m0 0 1 3-4 8h-2l-2 6-8 14-1-3 9-16z" fill="#E3E4E3"/>
<path transform="translate(1373,1047)" d="m0 0 3 1-1 9-3 1v-3h-6l1-3z" fill="#727370"/>
<path transform="translate(1296,1418)" d="m0 0h4v8l-8 2-1-2h2l-1-4z" fill="#7E7F7C"/>
<path transform="translate(1456,129)" d="m0 0 7 2 1-2v4h3l-2 4v-2h-2l-1-2-5 1-2 3-4-2 2-1z" fill="#7F807D"/>
<path transform="translate(1007,1065)" d="m0 0 5 2-1 3-1 2-1 5-5-2 1-9z" fill="#7E7F7C"/>
<path transform="translate(797,1043)" d="m0 0 5 2v4l-4 2-2-1-1 3-2-1v-3l3-2v-3z" fill="#7E7F7C"/>
<path transform="translate(1138,832)" d="m0 0 2 2v3h2l1-3v2l3 1-2 2h-4l-1 5-6-3 1-2h4v-3l-2-2z" fill="#7E7F7C"/>
<path transform="translate(1151,729)" d="m0 0 2 2-6 7-5-2-3-4 2-1h5 2 3z" fill="#7F807D"/>
<path transform="translate(761,990)" d="m0 0 3 2-1 2 4 1v2l-4 1v4l-2-1-2-3v-5h2z" fill="#7E7F7C"/>
<path transform="translate(1749,864)" d="m0 0 3 1v21l-1-4h-2l-1-3 2-1v-3l-2-1v-2h2z" fill="#E3E4E3"/>
<path transform="translate(1400,95)" d="m0 0 2 1 2 3 1 2v3l1 4-5 1 1-5-2-1 1-3-4-2z" fill="#7F807D"/>
<path transform="translate(436,1231)" d="m0 0 3 1-11 6-10 2-9-6 2-1 8 4 8-1z" fill="#E3E4E3"/>
<path transform="translate(775,934)" d="m0 0 4 2-3 7-4-1-1-6z" fill="#E3E4E3"/>
<path transform="translate(1306,359)" d="m0 0 5 2v3h-3l2 4-4 2-2-4-1-5z" fill="#7E7F7C"/>
<path transform="translate(1248,1241)" d="m0 0 3 1 1 3h-2v4l-8 3v-3l1-4 3-1v4l3-3h-2z" fill="#7F807D"/>
<path transform="translate(1507,1105)" d="m0 0 5 2 2 5-3 2h-3v-3l-4-2 1-3z" fill="#7F807D"/>
<path transform="translate(994,1198)" d="m0 0h3v4h2l-2 4-5 2-2-5 2-1 2 1z" fill="#7F807D"/>
<path transform="translate(1755,338)" d="m0 0h2v2l-8 4-5 3h4l3 5-6-2-4-4 2-2 7-3z" fill="#E3E4E3"/>
<path transform="translate(1162,1432)" d="m0 0 3 1 2 5-2 4-1-2-4-1-1 2-1-5 3-1 2 1z" fill="#7F807D"/>
<path transform="translate(712,1377)" d="m0 0h3l-1 5h2v2l-6 3-2-1 2-5v-3z" fill="#7F807D"/>
<path transform="translate(1528,1299)" d="m0 0 3 1-2 5-8 3-2-2 3-1v-3z" fill="#747572"/>
<path transform="translate(897,1178)" d="m0 0 1 3 4-1v2l2 1-2 2v3h-3v-2h-2l-1-6-4-1z" fill="#7E7F7C"/>
<path transform="translate(1622,843)" d="m0 0 2 1-5 5-11 7-3 1v3l-3-1 1-4h4v-2l4-2h3v-2l7-4z" fill="#7F807D"/>
<path transform="translate(1046,801)" d="m0 0h2l-2 4-6 2-11 7-4 2-3-1 12-7 11-6z" fill="#E3E4E3"/>
<path transform="translate(1086,1319)" d="m0 0 5 1 1 9h-2l-1-2-5 1v-3l2-2z" fill="#727370"/>
<path transform="translate(1408,1135)" d="m0 0h5l2 2v5l-1-2-7 1-2-2z" fill="#7E7F7C"/>
<path transform="translate(839,806)" d="m0 0 2 3 3 2h-4l-2 4v-2l-5 2-2-3 6-2v-2h2z" fill="#7E7F7C"/>
<path transform="translate(826,804)" d="m0 0 7 1-1 3-3 1-1 3-5-2 2-5z" fill="#7F807D"/>
<path transform="translate(1294,474)" d="m0 0 1 3-6 10-6 11-2 1 2-6 6-10 2-5z" fill="#E3E4E3"/>
<path transform="translate(1357,368)" d="m0 0 8 1-2 1-1 2v-2l-2 1 1 5h-2v-2l-6 3 2-5z" fill="#7F807D"/>
<path transform="translate(1318,338)" d="m0 0 2 4 3-1v3h-5v2h-2v-4h-6l2-2z" fill="#7D7E7B"/>
<path transform="translate(1230,1040)" d="m0 0h6l2 4-3 3-5-1-1-3z" fill="#727370"/>
<path transform="translate(1505,942)" d="m0 0 3 2 3 1-1 2h-4l-1 3-5 1 1-4 3-1z" fill="#7F807D"/>
<path transform="translate(1414,898)" d="m0 0 6 1 3-1 3 1-2 2-2 1-1 2-2 1v-2l-5-1-1-3z" fill="#7E7F7C"/>
<path transform="translate(737,888)" d="m0 0v3l-6 11-5 9-1-4 5-8 1-3h2l2-6z" fill="#E3E4E3"/>
<path transform="translate(1620,843)" d="m0 0h2l-2 4-3 2h-3v2l-4 2-3-1 7-6z" fill="#727370"/>
<path transform="translate(1171,511)" d="m0 0 3 3 1 6h-3l-4 2 1-5z" fill="#E3E4E3"/>
<path transform="translate(1355,268)" d="m0 0h2l1 6-2 6h-3l1-11z" fill="#7F807D"/>
<path transform="translate(733,1162)" d="m0 0 5 1-5 9h-3l1-5z" fill="#7F807D"/>
<path transform="translate(1413,891)" d="m0 0 3 1v3h5l2 4h-4l-1-2h-3l-2-2h-4v-2z" fill="#797A77"/>
<path transform="translate(1458,135)" d="m0 0h5l3 8-2 1-6-5z" fill="#7F807D"/>
<path transform="translate(1616,1212)" d="m0 0 1 2 5 1-3 3-2-1 2 8h-3l-1-3v-9z" fill="#7F807D"/>
<path transform="translate(1163,521)" d="m0 0h2l-1 9-3 1-2 5h-2l1-5z" fill="#FCFCFC"/>
<path transform="translate(1515,401)" d="m0 0 5 1v3l3 1-2 3v-2l-4 1-4-3z" fill="#7F807D"/>
<path transform="translate(1015,1070)" d="m0 0 3 1-2 5 2 1-2 3-4-1v-3-3z" fill="#7E7F7C"/>
<path transform="translate(1177,1015)" d="m0 0 3 1-1 3 6 2 1 4-4-1-9-5 4-2z" fill="#FCFCFC"/>
<path transform="translate(1113,821)" d="m0 0 4 1v3l3 1-2 5h-3l-1-3 1-1-2-1z" fill="#7F807D"/>
<path transform="translate(1188,709)" d="m0 0 1 3v2l8-5 2 1-13 9-2-1 1-4z" fill="#7F807D"/>
<path transform="translate(1539,498)" d="m0 0h2l1 4 2 1-5 3-3-1v-5z" fill="#797A77"/>
<path transform="translate(1344,423)" d="m0 0 1 3-1 3 7-4 4 1-14 7-1-3z" fill="#E4E5E4"/>
<path transform="translate(1322,163)" d="m0 0h2v5l-4-1v3l-5 4-2-2v-2h3v-4l5-2z" fill="#7F807D"/>
<path transform="translate(1307,829)" d="m0 0h9l-2 1-1 3-3-1v3h-4v-5z" fill="#7E7F7C"/>
<path transform="translate(1455,261)" d="m0 0 1 2h2v3h-3l2 5-2 1v-3h-5l1-5 4 1z" fill="#7F807D"/>
<path transform="translate(1450,743)" d="m0 0 5 1v2h4v2h2l-1 3-2-1-5-1v-4l-4-1z" fill="#7F807D"/>
<path transform="translate(1456,119)" d="m0 0 3 1 1 4-1 3h4v2l-5-1-5-7z" fill="#7E7F7C"/>
<path transform="translate(761,1698)" d="m0 0h5l-2 4 2 4-3 2-3-1z" fill="#7E7F7C"/>
<path transform="translate(1605,1275)" d="m0 0 2 1-8 5-11 6-3-1 10-6z" fill="#E3E4E3"/>
<path transform="translate(1116,1169)" d="m0 0 2 4v4l-6-2-1-5h4z" fill="#7D7E7B"/>
<path transform="translate(710,945)" d="m0 0 2 2 1 4 3 2-1 4-4-1-1-4-2-1z" fill="#7F807D"/>
<path transform="translate(1130,830)" d="m0 0 2 3h3l-1 4-1-1-1 3-4-1-2-2 2-2z" fill="#7E7F7C"/>
<path transform="translate(1601,461)" d="m0 0 4 1 7 1 1 3-4 1v-2l-8 1z" fill="#7E7F7C"/>
<path transform="translate(984,415)" d="m0 0 1 2 3 1-1 5-3 1-3-5v-3z" fill="#7F807D"/>
<path transform="translate(906,412)" d="m0 0h6l4 3v3l-4-1-7-3z" fill="#F4F5F4"/>
<path transform="translate(1085,1320)" d="m0 0 2 1v4h-3l-1 3-3-1-1-5z" fill="#7E7F7C"/>
<path transform="translate(558,1241)" d="m0 0 1 3-7 14-1-3 2-6z" fill="#767774"/>
<path transform="translate(606,1118)" d="m0 0 1 2-10 18-1-3 3-5 2-5z" fill="#E3E4E3"/>
<path transform="translate(646,1059)" d="m0 0h2l1 4-2 3h-2l-2 4v-7z" fill="#7C7D7A"/>
<path transform="translate(965,1042)" d="m0 0 6 1-1 4-5-1-5 1 2-4z" fill="#7E7F7C"/>
<path transform="translate(1165 1e3)" d="m0 0h3l3 10h-2v-3l-4 1-1-7z" fill="#E3E4E3"/>
<path transform="translate(1720,914)" d="m0 0 6 2v1l-5 1 1 3-2 1-4-1-1-3 2-2h3z" fill="#7F807D"/>
<path transform="translate(1436,696)" d="m0 0h2v2h2l-1 3h-2l2 3h-3l-4-3 1-3z" fill="#7F807D"/>
<path transform="translate(1619,565)" d="m0 0h2v7l-6-1v-4z" fill="#7A7B78"/>
<path transform="translate(1490,519)" d="m0 0 3 1-16 10h-2v-2l11-7z" fill="#E3E4E3"/>
<path transform="translate(1067,1047)" d="m0 0h2v11h-3l-1-9z" fill="#7F807D"/>
<path transform="translate(1158,608)" d="m0 0 1 3-5 8-2 3 1-7-1-3 5-3z" fill="#FCFCFC"/>
<path transform="translate(1539,415)" d="m0 0 2 1 4 1 1 3 3 1v2l-5-1-8-5z" fill="#7E7F7C"/>
<path transform="translate(1410,104)" d="m0 0h5l1 4 5 1 1 2-10-2-2-1z" fill="#E4E5E4"/>
<path transform="translate(591,1495)" d="m0 0 4 1v3h2v2l-4 2-2-2-1-5z" fill="#E3E4E3"/>
<path transform="translate(818,1124)" d="m0 0 6 3-2 4-6 1z" fill="#7F807D"/>
<path transform="translate(1540,1086)" d="m0 0 3 1-2 5h2v2l2 1h-2v2l-4-1v-4-5z" fill="#7F807D"/>
<path transform="translate(1613,1075)" d="m0 0 4 1 4 4-2 1v4l-4-1v-4h2z" fill="#7F807D"/>
<path transform="translate(765,1008)" d="m0 0 4 1-2 6-6 10-1-3 3-4 1-4h2z" fill="#7F807D"/>
<path transform="translate(1333,701)" d="m0 0 5 1 1 4-1 1h-5z" fill="#E3E4E3"/>
<path transform="translate(1153,540)" d="m0 0h1v5l-3 6-4 2 2-6 2-4h2z" fill="#FCFCFC"/>
<path transform="translate(905,419)" d="m0 0 5 1-2 5-2 6h-1z" fill="#FCFCFC"/>
<path transform="translate(1100,1048)" d="m0 0 5 1v5l-6-1z" fill="#E3E4E3"/>
<path transform="translate(885,1455)" d="m0 0 4 1v2l-5 3-3-1v-3z" fill="#E3E4E3"/>
<path transform="translate(1007,1362)" d="m0 0 1 4h3l1 5-5 1-1-6z" fill="#7F807D"/>
<path transform="translate(560,1313)" d="m0 0 4 2-1 4-4 1-1-5z" fill="#E3E4E3"/>
<path transform="translate(351,1104)" d="m0 0h2v6l3 1-6 1-1-6z" fill="#7F807D"/>
<path transform="translate(1817,909)" d="m0 0h5v4l-5 3-2 1 1-6z" fill="#7F807D"/>
<path transform="translate(647,1696)" d="m0 0 6 2 11 7-2 1-5-3-9-5z" fill="#E3E4E3"/>
<path transform="translate(608,1437)" d="m0 0 3 1-1 4h3l-1 3-6-2z" fill="#7E7F7C"/>
<path transform="translate(1515,1139)" d="m0 0 2 4 6 2-1 3h-5l-2-3z" fill="#7F807D"/>
<path transform="translate(796,1038)" d="m0 0 4 1 2 3v3l-5-2-1 2v-3z" fill="#727370"/>
<path transform="translate(1336,1022)" d="m0 0 4 1-1 3-4 2-3-3v-2z" fill="#727370"/>
<path transform="translate(1118,633)" d="m0 0 10 4 2 3-5-1-7-3z" fill="#FCFCFC"/>
<path transform="translate(1112,615)" d="m0 0 2 1-2 4-2 5h-3l2-5z" fill="#FCFCFC"/>
<path transform="translate(1047,1549)" d="m0 0h3l1 3h-2l-1 2v-2l-4 3h-3l2-4z" fill="#7F807D"/>
<path transform="translate(1113,1515)" d="m0 0 3 3-1 2-4 4-1-2 1-6z" fill="#7F807D"/>
<path transform="translate(641,1313)" d="m0 0 4 2-1 4-2-1-1 2-3-1 2-5z" fill="#727370"/>
<path transform="translate(1405,1309)" d="m0 0h5l-2 3v3l-5-1v-3z" fill="#7F807D"/>
<path transform="translate(1441,1294)" d="m0 0 5 5-1 2-8-4z" fill="#E3E4E3"/>
<path transform="translate(492,1155)" d="m0 0 2 1v4l-7 1 1-4z" fill="#7F807D"/>
<path transform="translate(394,1151)" d="m0 0 4 1 4 3v2l-4 1-2-5h-2z" fill="#E3E4E3"/>
<path transform="translate(1116,1142)" d="m0 0h2l1 3-2 5-6-1 3-2z" fill="#7F807D"/>
<path transform="translate(1099,1104)" d="m0 0 4 1 2 5-7-2z" fill="#E3E4E3"/>
<path transform="translate(1240,1042)" d="m0 0h4l-1 4h-3l-2 2-3-3 1-2z" fill="#7F807D"/>
<path transform="translate(1353,986)" d="m0 0h2l1 2 9 4 2 3-6-2-8-4z" fill="#E3E4E3"/>
<path transform="translate(1621,963)" d="m0 0h2v14l-2 1-1-14z" fill="#7F807D"/>
<path transform="translate(1792,808)" d="m0 0 5 1 11 6 1 2-4-1-13-7z" fill="#7F807D"/>
<path transform="translate(1120,645)" d="m0 0h3v9l-2 1-2-1 1-5h2z" fill="#7F807D"/>
<path transform="translate(1113,644)" d="m0 0 3 1-1 7h-3l-1-5z" fill="#7E7F7C"/>
<path transform="translate(1169,512)" d="m0 0h1v5l-2 5-3-1 1-5z" fill="#FCFCFC"/>
<path transform="translate(1543,507)" d="m0 0m-1 1 5 1-4 3-3 2h-3l2-4z" fill="#777875"/>
<path transform="translate(1537,424)" d="m0 0 6 2 10 6-3 1-9-5z" fill="#E3E4E3"/>
<path transform="translate(1308,172)" d="m0 0 4 2-3 5-6-2 1-2h4z" fill="#7F807D"/>
<path transform="translate(659,1519)" d="m0 0h5l1 5h-5z" fill="#737471"/>
<path transform="translate(364,1193)" d="m0 0 3 1v2h-2l1 5-5-2 2-5z" fill="#7F807D"/>
<path transform="translate(1444,1118)" d="m0 0 4 3-2 3-5 1-3-4 4 1 2 1z" fill="#7F807D"/>
<path transform="translate(645,1067)" d="m0 0 2 2-1 2 6-1v4l-4-2-1 2-3-3z" fill="#7F807D"/>
<path transform="translate(1402,923)" d="m0 0h4l-1 4-4-1-1 3-3-1 1-2h2v-2z" fill="#7F807D"/>
<path transform="translate(1545,907)" d="m0 0 2 1-4 3h-4v2h-2v-2h-2v-2z" fill="#E3E4E3"/>
<path transform="translate(1426,900)" d="m0 0 1 2-1 2 7-1-2 2h-3v2l-3 1-2-5z" fill="#7F807D"/>
<path transform="translate(861,797)" d="m0 0h2v2h6v3h-8z" fill="#E3E4E3"/>
</svg>
