<?xml version="1.0" encoding="UTF-8"?>
<svg version="1.1" viewBox="0 0 2048 2048" width="2048" height="2048" xmlns="http://www.w3.org/2000/svg">
<path transform="translate(0)" d="m0 0h2048v2048h-2048z" fill="#FAFAF9"/>
<path transform="translate(1330,179)" d="m0 0 9 3 1 3 7 2 9 6 11 6 11 7 8 4 18 10 20 10 5 3 11 7 6 6 2 5 1 44v983l-1 19-4 11-4 5-5 7-11 9-16 8-6 4-16 8-4 3-7 3-9 6-10 5-10 6-9 5-7 8-1 134-3 6-6 4-3 1h-19l-16-3-9 1-5 4h-2l-2 4-12 14-9 13h-2l-2 6-10 16-7 10-7 3-15-5-7-4-15-8-11-6-8-3-11-6-5-5v-9l1-5 3-43v-10l-9 1-10 5-5 3-9 6-9 5-13 8-6 4-6 3-15 9-6 4-6 3-9 5-11 6-9 5-5 3-12 7-5 3-6 3-9 5-5 3-14 8-18 10-9 6-8 4-4 3-6 3-5 3-8 5-6 3-18 10-13 8-13 7-4 3-6 3-9 5-4 3-14 7-8 5-13 8-6 3-4 3-6 3-10 6-9 5-11 6-8 5-22 12-9 5-6 3-10 6-10 5-2 2-9 1-7-2-4-3-6-3-9-6-11-7-6-3-9-5-5-3-9-5-6-3-11-7-7-3-1-3-6-1-5-4-5-3-9-6-4-4 1-8v-1041l1-11 3-5 10-8 16-8 5-3 16-9 4-3 6-3 10-6 9-5 10-7 7-3 13-8 5-3 10-5 5-3 9-5 10-6 14-9 8-3 10-7 8-4 9-5 10-6 17-9 15-9 12-7 10-6 11-7 6-3 10-7 16-8 11-6 10-7 14-9 5-3 6-3 11-7 16-8 6-4 5-3 18-10 17-10 10-6 16-9 3-3 7-3 9-6 8-4 3-3 7-3 4-3 7-3 6-3 2-3 8-3 3-3 8-4 9-5 9-6 7-3 4-3 7-3 5-3 6-4 6-3 4-3 6-3 9-5 5-3 6-3 9-6 9-4 5-3 8-5 6-3 11-7 6-3 4-3 6-3 18-10 4-3 12-6 6-4 6-3 9-5 10-5 4-3 16-8 7-3z" fill="#FAFAF9"/>
<path transform="translate(1330,179)" d="m0 0 9 3 1 3 7 2 9 6 11 6 11 7 8 4 18 10 20 10 5 3 11 7 6 6 2 5 1 44v983l-1 19-4 11-4 5-5 7-11 9-16 8-6 4-16 8-4 3-7 3-9 6-10 5-10 6-9 5-7 8-1 134-3 6-6 4-3 1h-19l-16-3-9 1-5 4h-2l-2 4-12 14-9 13h-2l-2 6-10 16-7 10-7 3-15-5-7-4-15-8-11-6-8-3-11-6-5-5v-9l1-5 3-43v-10l-9 1-10 5-5 3-9 6-9 5-13 8-6 4-6 3-15 9-6 4-6 3-9 5-11 6-9 5-5 3-12 7-5 3-6 3-9 5-5 3-14 8-18 10-9 6-8 4-4 3-6 3-5 3-8 5-6 3-18 10-13 8-13 7-4 3-6 3-9 5-4 3-14 7-8 5-13 8-6 3-4 3-6 3-10 6-9 5-11 6-8 5-22 12-9 5-6 3-10 6-10 5-2 2-9 1-7-2-4-3-6-3-9-6-11-7-6-3-9-5-5-3-9-5-6-3-11-7-7-3-1-3-6-1-5-4-5-3-9-6-4-4 1-8v-1041l1-11 3-5 10-8 16-8 5-3 16-9 4-3 6-3 10-6 9-5 10-7 7-3 13-8 5-3 10-5 5-3 9-5 10-6 14-9 8-3 10-7 8-4 9-5 10-6 17-9 15-9 12-7 10-6 11-7 6-3 10-7 16-8 11-6 10-7 14-9 5-3 6-3 11-7 16-8 6-4 5-3 18-10 17-10 10-6 16-9 3-3 7-3 9-6 8-4 3-3 7-3 4-3 7-3 6-3 2-3 8-3 3-3 8-4 9-5 9-6 7-3 4-3 7-3 5-3 6-4 6-3 4-3 6-3 9-5 5-3 6-3 9-6 9-4 5-3 8-5 6-3 11-7 6-3 4-3 6-3 18-10 4-3 12-6 6-4 6-3 9-5 10-5 4-3 16-8 7-3zm81 101-11 4-6 4-8 7-8 4-5 3-15 8-26 13-5 4-7 3-10 7-8 4-9 5-5 3-22 11-9 6-11 6-9 6-18 10-5 3-8 5-6 3-13 8-11 6-5 4-6 3-5 3-7 5-5 3-19 11-10 5-10 7-16 8-4 3-7 3-14 8-14 7-11 6-18 10-10 7-7 3-1 3-7 2-5 4-6 3-16 9-13 7-10 6-6 3-4 3-6 3-9 5-4 3-6 3-9 5-17 9-4 3-6 3-5 4-11 6-5 4-14 8-12 7-6 3-9 6-11 7-7 3-10 7-9 4-10 7-6 3-5 3-6 4-16 9-10 6-16 8-15 6-3 7v1019l4 4 5-1 7-5 7-3 6-3 5-2 9-5 10-6 10-7 6-3 9-6 10-5 9-5 4-3 6-3 10-6 7-3 10-8 16-8 3-3 7-3 4-3 14-7 3-2 7-1 2 5 5-4-4-3v-2l8-6 6-3v-2l6-2 6-4 6-3 18-10v-2l9-3 10-6 9-5 10-6 11-7 6-3 14-8 5-3 9-5 12-7 6-3 10-7 9-4 10-7 10-4 5-3 12-6 11-8 9-4 10-5 9-5 17-9 3-5 1-11v-46l-3-14-4-9-3-4-3-7-3-4-5-12-5-16-1-13-1-4-1-28 2-16 2-12 5-19 4-11 2-6 4-9 7-13 4-9 4-6 3-5 7-11 1-4 4-2 7-11 7-8 8-7 7-8 9-8 10-8 11-7 5-4 10-4 14-7 19-4h10l9 2 13 2 7 4 7 3 9 5 10 8 7 6 10 13 5 7 3 7 5 15 2 5 2 16 1 21-3 35-4 13-2 10-3 6-2 10-4 8-2 7-3 5-3 6-10 19-7 10-3 6-3 3-2 7 2 2h5l8-5 10-7 9-5 3-3 7-3 5-3 7-4 8-1 4-4 8-3 7-7 5-4 5-8 3-8v-772l-1-118v-53l1-30v-18l-1-13-4-3z" fill="#3E3E3D"/>
<path transform="translate(1087,565)" d="m0 0 13 1 4 4v2h8l7-2 14 1 14 3 17 2 13 7 8 6 5 5 7 6 6 10 4 9 3 12 6 15 2 15 1 24v33l-1 27-4 20-2 15-5 14-4 9-3 8-6 12-3 7-4 5-3 5-8 7-8 10-4 8-8 11-3 5-5 5-12 14-12 16-7 8-12 14-8 8-13 10-7 5-6 2-3 3-9 4-5 2-6 1h-18l-20-1-17-3-13-5-5-2-12-2-4-2-9-2-11-7-13-11-5-6-4-4-6-9-8-13-3-15-3-19v-42l1-17 2-9 2-13 4-13 3-15 3-7 3-13 5-14 3-9 8-15 6-9 10-13 11-13 6-8 15-15 6-8 6-7 3-4h2l2-5 9-11 7-8 9-8 7-8 8-6 5-3 4-3 14-5 8-4z" fill="#3E3E3D"/>
<path transform="translate(585,647)" d="m0 0 5 1 10 4 9 5 5 3 8 5 6 3 9 6 16 10 6 4 5 5 4 7v245l1 432v338l-1 1h-8l-13-7-10-6-8-4-4-3-6-3-13-8-10-7-5-5-5-8-1-84v-920l-2-6 1-7z" fill="#FAFAF9"/>
<path transform="translate(1324,208)" d="m0 0h8l16 8 8 5 7 3 11 8 14 7 5 3 9 3 3 5-1 4-5 5-10 6-7 2-6 4-16 7-5 3-5 1-1 3-8 4-9 5-9 6-14 7-8 6-14 7-5 3-6 3-4 3-5 3-10 5-9 6-16 9-4 3-8 3-9 6-9 5-6 3h-2l-2 4-16 8-10 7-16 8-3 3-7 3-4 3-6 3-17 10-5 3-7 5-5 3-9 4-4 3-8 4-18 10-13 8-6 4-6 3-4 3-7 3-8 4-3 3-7 2-1 3-8 4-11 6-11 7-7 3-9 4-4 4-13 7-4 3-22 11-9 6-22 14-7 3-4 3-16 8-4 3-6 3-16 9-10 7-16 9-5 3-6 3-4 3-11 6-13 7-11 7-10 6-7 5-7 3-10 7-6 2-5 4-15 8-4 3-7 3-14-5-9-6-10-5-4-3-6-3-5-3-19-10-5-3-6-5 2-7 10-4 9-4 6-4 6-3 5-3 11-7 11-6 11-7 6-3 20-12 11-6 6-4 16-8 3-1v-2l10-5 8-5 2-2 7-3 2-2 8-3 4-3 6-3 20-12 6-3 5-3 8-5 6-3 9-5 4-3 16-8 9-6 16-9 4-3 5-2 9-5 3-3 7-3 4-3 7-3 10-7 12-7 5-4 5-3 10-5 4-3 9-5 7-3 11-7 8-5 5-3 4-3 6-3 13-8 12-6 3-3 9-4 17-10 9-5 5-3 5-1 2-4 14-7 11-7 19-10 5-3 9-5 5-3 13-8 6-4 16-9 3-2 10-3 4-3 9-5 5-4 9-4 9-6 9-5 11-6 12-7 14-7 9-6 6-3h2l2-4 8-4z" fill="#FAFAF9"/>
<path transform="translate(1278,1121)" d="m0 0h23l7 2 11 3 10 7 6 7 6 9 5 11 5 16 1 11 1 3 1 13v11l-2 8-2 16-4 14-2 9-2 3-3 12-4 9-8 16-10 17-5 8-3 3-7 9-12 13-7 7-8 7-5 4-3 1-4 4-8 5-5 3-2 2-19 3-25-1-5 1-10-3-4-4-6-3-9-9-8-11-5-9-5-12-3-8-3-28 1-14 4-18 3-8 2-9 3-6 3-9 5-13 4-9 12-21 7-10 3-5 3-3 9-11 11-12 13-10 5-3 3-3 6-3 9-4 5-3 18-4z" fill="#3E3E3D"/>
<path transform="translate(1077,655)" d="m0 0 5 2 3 3 7 4 24 5 11 3 8 6 2 5v9l-1 4v12l1 23 1 6 1 38-7 14-7 9-6 8-7 8-18 22-6 8-3 6-3 5-2 5-5 6-11 11-3 1h-9l-13-3-6-2-12-2-7-3-9-2h-13l-5-3-2-3v-78l1-20 2-5 12-16 11-13 8-10 5-5 9-10 8-11 10-12 7-8 5-6h2l2-4 7-6z" fill="#FAFAF9"/>
<path transform="translate(1278,1121)" d="m0 0h23l7 2 11 3 10 7 6 7 6 9 5 11 5 16 1 11 1 3 1 13v11l-2 8-2 16-4 14-2 9-2 3-3 12-4 9-8 16-10 17-5 8-3 3-7 9-12 13-7 7-8 7-5 4-3 1-4 4-8 5-5 3-2 2-19 3-25-1-5 1-10-3-4-4-6-3-9-9-8-11-5-9-5-12-3-8-3-28 1-14 4-18 3-8 2-9 3-6 3-9 5-13 4-9 12-21 7-10 3-5 3-3 9-11 11-12 13-10 5-3 3-3 6-3 9-4 5-3 18-4zm-15 35-12 4-8 5-10 5-9 7-11 9-5 6-10 13-4 6-5 9-3 7-4 8-3 10-3 9-2 9-2 5-1 6v34l5 11 2 5 3 3 9 11 9 8 11 6 12 2 16-1 10-2 3-3 9-3 5-3 4-2 4-4 3-2v-2l5-2 7-7 5-4 8-10 7-10 10-17 5-10 3-11 2-5 5-33v-11l-3-13-2-10-3-4-3-7-8-7-4-4-6-4-13-6-4-1z" fill="#FAFAF9"/>
<path transform="translate(1321,990)" d="m0 0 11 6 4 5 1 6-8 7-6 3-4 3-5 3-10 5-4 3-14 7-4 3-6 3-27 15-11 6-16 8-4 1v2l-10 4-10 7-16 9-10 7-6 3-4 3-6 3-10 6-18 10-9 6-10 6-18 9-10 6-9 5-11 6-8 6-8 4-12 7-6 3-10 6-18 10-4 3-5 3-36 20-10 6-10 5-11 6-9 5-6 3h-2l-1 3-10 5-9 5-11 7-6 3-9 5-5 3-13 8-9 5-13 8-7 5-7 3-3 2-10 1-10-3-2-4 1-5 4-8 10-7 10-6 4-1v-2l9-6 8-4 10-6 9-5 8-4 4-3 7-3 9-5 10-6 12-7 6-3 11-7 7-3 4-3 5-3 10-5 7-3 7-4 6-2 4-4 7-3 10-7 6-3 3-3 9-4 10-6 7-3 9-5 10-7 10-5 25-15 13-8 6-3 11-7 7-3 9-7 8-3 10-7 8-4 9-5 9-6 10-5 13-8 11-5 5-2 5-4 9-5 8-5 10-6 10-5 5-3 9-4 4-3 7-3 15-8 11-6 15-9 6-3z" fill="#3E3E3D"/>
<path transform="translate(1321,892)" d="m0 0 7 3 6 8 1 4-5 6-6 4-2 2-7 3-4 3-5 3-17 10-11 7-7 3-10 7-9 4-4 3-6 3-13 8-12 7-5 3-6 3-9 5-5 3-11 6-3 3-7 3-4 3-6 3-19 11-8 4-4 3-6 3-5 3-8 5-6 3-9 6-9 4-9 6-16 8-13 7-2 2-8 3-10 7-8 4-4 3-6 3-9 5-11 7-6 2v2l-9 4-4 3-7 3-9 5-10 6-18 10-11 7-6 3-9 5-5 3-6 3-9 5-4 3-14 7-6 4-11 6-7 4-5 4-6 3-4 3-6 3-10 6-10 5h-6l-6-3-5-2-1-1v-6l9-11 9-6 6-3 13-8 14-7 4-3 7-3 13-8 14-7 3-3 8-4 9-5 11-7 6-3 10-7 18-10 9-6 7-3 10-7 16-8 5-4 8-4 9-6 8-4 10-6 16-8 4-3 8-4 9-3 1-3 18-9 5-4 14-7 2-2 8-3 9-5 13-8 5-3 10-5 10-7 8-4 13-8 13-7 10-6 9-5 5-3 6-3 5-3 11-6 10-7 9-4 4-3 24-12 4-3 9-4 8-4 4-3 7-3 10-8z" fill="#3E3E3D"/>
<path transform="translate(1061,592)" d="m0 0 6 1 6 4 6 1 13-2h10l13 2 7 4 13 5h8l6-1 13 2 11 7 7 7 1 2v9l-9 9-9 11-5 6h-7l-9-7-9-3-3-2-10-3-3-2-15-2-13-2-2-1h-21l-3 3-7 1-10 9-8 10-5 5-6 8h-2l-2 6-5 5-7 8-5 5-5 6-5 5-6 7-3 3-9 12-4 6-5 9-6 10-3 4-5 10v7l3 6 2 17 1 29v31l-3 7-9 7-7 3-7 6-5 1-2-6-1-10v-35l1-23 2-10 2-9 3-12 2-2 3-10 4-12v-13l4-16 3-6 12-14 7-8 4-2 7-8 4-2 8-10h2l2-5 9-9 9-11 16-20 4-6 3-3 8-11 5-7 3-3z" fill="#FAFAF9"/>
<path transform="translate(1273,1183)" d="m0 0h17l10 8 3 4 4 23-1 16-4 21-4 8-5 11-3 6-7 10-6 8-7 8-8 9-6 4-4 3-18 6-14-1-9-4-7-6-6-14v-23l3-10 2-12 4-10 2-6 3-5 3-7 6-10 12-14 13-11 10-6z" fill="#FAFAF9"/>
<path transform="translate(1298,1373)" d="m0 0 5 1 1 2v119l-2 5-6 5-12 1-10-3-7 1-6-1-8 4-7 11-2 7-3 1-2 7-4 5-3 4-6-1-1-3 1-27v-84l-2-10 3-5 4-2 14-1 9-3 9-4 2-2 5-2 6-5 4-1 2-4 8-7 5-5z" fill="#FAFAF9"/>
<path transform="translate(1053,1243)" d="m0 0h5l6 7v7l-8 10-6 2-2 4-15 10-6 3-9 5-5 3-6 3-2 2-8 3-4 3-7 4-10 6-6 3-23 13-5 4-9 4-4 3-6 3-9 5-5 3-8 5-16 8-14 8-12 6-5 4-6 3-10 6-11 7-11 6-14 8-8 3h-6l-6-7-1-2v-7l12-11 8-5 8-6 8-4 9-6 7-3 4-3 7-3 17-9h2l1-3 9-4 9-5 19-11 10-6 6-3 3-3 7-3 5-4 8-5 11-5 5-3 16-8 6-4 5-2 8-5h2v-2l11-4 11-8 7-3 3-3 16-8z" fill="#3E3E3D"/>
<path transform="translate(1057,1340)" d="m0 0 6 3 6 8-1 5-10 7-12 8-8 5-7 3h-2l-2 4-7 3-4 3-6 3-4 3-6 3-9 5-13 8-6 4-6 3-4 3-6 3-18 10-8 4-11 6-10 7-9 5-8 4-4 3-16 8-9 4-6 4-7 3-8 5-10 6-11 7-5 3-11 7-12 3-8-4v-13l13-11 8-4 10-7 6-3 11-8 8-4 10-6 16-8 9-5 4-3 6-3 5-3 5-2 3-3 6-3 17-9 3-3 8-3 4-3 6-3 9-5 10-6 8-4 4-3 6-3 9-4h2v-2l10-5 8-5 10-5 9-5 5-3 17-9z" fill="#3E3E3D"/>
<path transform="translate(967,883)" d="m0 0 5 2 5 5 3 2 13 2 12 1 8 2 19 1 12 3 10 3 4 8v15l-2 12-3 5-5 2-35-5-12-2-6-2-19-1-9-2-13-5-10-6-1-3-4-2-1-2v-7l3-5 5-6 10-8 4-3z" fill="#FAFAF9"/>
<path transform="translate(1177,1406)" d="m0 0 18 3 7 2 1 1 1 42-1 89v18l-2 2h-8l-11-7-8-6-3-4v-59l2-44 1-31 2-5z" fill="#FAFAF9"/>
<path transform="translate(1155,797)" d="m0 0h6l9 3 5 4v5l-6 9-10 13-8 11-4 6-15 16-5 7-7 6-4 6-8 10-7 10-4 4-7 9-6 5-5-3 2-14 7-17 10-16 10-14 4-4 7-9 3-3 4-6 7-10 7-11 3-1 2-7 6-7z" fill="#FAFAF9"/>
<path transform="translate(1183,662)" d="m0 0 5 1 3 4 2 25v31l-2 27-3 13-3 7-8 7-10 5-2-2-1-4v-93l3-6 5-6z" fill="#FAFAF9"/>
</svg>
