<?xml version="1.0" encoding="UTF-8"?>
<svg version="1.1" viewBox="0 0 2048 2048" width="2048" height="2048" xmlns="http://www.w3.org/2000/svg">
<path transform="translate(0)" d="m0 0h2048v2048h-2048z" fill="#FAFAFA"/>
<path transform="translate(914,170)" d="m0 0h15l26 6 21 5 29 5 13 5 19 10 24 14 27 15 24 14 26 15 17 10 8 6 1 2v12l-2 13v2l4 1 16 9 34 21 14 8 19 12 17 10 7 7 9 15 14 26 16 30 9 16 8 17-3 9-8 11-7 8 1 2 14-8 11-6 28-17 11-6 27-14h8l16 8 25 14 40 24 13 8 11 6 8 5 7-1 11-7 14-7 16-9 30-15 5-2h6l12 6 13 8 20 12 13 8 17 10 14 8 16 9 13 8 9 5 5 6 1 5 1 41v54l-2 37-2 18-7 6-17 10-15 9-13 8-11 6-24 13-10 6-19 9-17 9-1 4v112l-4 7-5 4-19 10-22 13-14 8-22 12-24 13-14 9-11 6-13 8-5 2-5-1-16-8-15-8-14-7-21-12-10-6-11-6-13-8-14-7-13-8-11-6-32-18-6-3-6-1-2 6-5 12v8l10 8 20 14 28 21 5 4 1 6-17 43-22 55-10 23-8 22-4 6-1 1h-40l-24-2-19-2-12 22-6 9-5 9-11 18-14 21 1 7 14 32 9 22 7 14 2 11-4 7-9 10-11 12-9 10-16 17-9 10-3 4h-2l-2 4-7 8h-2l-2 4-7 7-7 8-11 12-4 4h-11l-12-7-36-18-19-10-5-3h-5l-7 7-12 8-15 11-5 3-1 2-3 32-7 64-3 9-10 6-21 10-19 10-21 9-11 5-30 11-13 4-5-1-11-6-17-10-14-8-12-7-11-6-21-12-8-5-5-1-2 5-8 16-9 17-11 18-6 8-2 2h-9l-24-7-42-11-36-12-16-8-16-9-14-8-10-6-9-5-22-13-11-6-25-14-14-9-3-3v-11l1-11-5-5-16-10-18-11-14-9-11-6-15-9-19-12-12-8-6-7-7-10-12-20-6-11-10-18-12-23-5-11v-14l7-11 9-12 10-15 10-14 13-18 10-13 1-5-12-7-16-9-19-11-17-10-14-8-16-10-11-7-2-7-1-68v-61l1-16 5-7 23-12 11-7 14-7 17-11 17-10 2-2 6-41 6-33 1-4v-8l-22-13-20-13-14-9-6-7-1-6 10-27 11-28 6-15 3-7 7-20 5-12 5-15 8-19 9-6h25l8 1 47 3 8-13 15-27 10-16 12-19 3-4-2-10-16-41-7-18-4-12-1-12 7-8 14-15 9-11 7-7 7-8 6-7 15-15 7-8 16-17 16-16 7-1 13 5 12 7 16 8 15 9 9 5 8 5 5-2 10-7 20-12 7-5 5-3 3-4 6-56 6-49 5-5 9-5 25-12 14-5 12-5 53-21 9-3 7 1 17 9 21 12 22 13 11 6 19 11 12 6h4l13-24 10-18 7-12 4-6z" fill="#757573"/>
<path transform="translate(1054,265)" d="m0 0 7 1 32 10 17 5 29 9 2 2-1 9-7 26-6 21-5 15-3 10-3 9-1 6v11l4 2 14 11 8 6 14 12 5 4v2l4 2 11 11 7 3 9-6 15-13 11-9 10-9 13-10 10-8 7-6 4 2 10 18 6 12 7 11 15 30 5 12v6l-11 14-10 13-8 12-14 18-11 14-6 9-2 6 1 8 7 28 5 17 4 14 3 17v6l-5 4-38 18-20 9-27 12-16 8-31 14-6 4-4-2-2-17-5-20-7-19-8-18-12-20-12-16-10-11-5-6-11-9-10-8-9-6-11-6-20-9-17-5-14-3-13-2h-38l-25 4-27 7-26 10-11 5-16 8-13 7-18 11-16 12-13 10-14 12-10 8-5 6-4 4h-2v2h-2v2l-14 14-9 11-11 13-24 34-9 15-8 13-7 14-10 19-14 34-11 33-7 28-5 24-6 33-3 27-1 10v44l3 33 3 19 6 24 9 27 9 21 9 16 10 15 6 8 11 13 16 16 11 8 14 10 22 11 20 7 9 3 22 4h40l25-5 27-7 22-8 16-7 18-10 16-10 17-12 12-9 3-1v-2l14-11 8-8 8-7 19-19 7-8 13-16 8-11 13-18 16-24 6-11 14-25 8-17 5-10 10-26 5-6 19-8 10-3 7-3 16-6 17-7 14-7 9-3 14 1 16-8 14-8 3-2 4 1-2 9-2 6v10l3 5 13 8 20 9 23 13 4 4-2 9-7 15-15 37-14 36-4 10-5 13-4 6-14-1-27-1-14-2-13-1h-13l-9 16-15 26-15 24-12 19-8 14 1 8 6 15 8 19 7 15 8 19 3 5-1 4-7 8h-2v2h-2l-2 4-10 10-7 8-6 7h-2v2h-2l-2 4-8 8-1 2h-2l-2 4-7 7-1 2h-2l-2 4-7 8h-2l-2 4-9 9-5-5-10-11-7-8-14-15-7-8-5-6-3-2h-8l-6 4-4 3h-2v2l-30 23-36 24-5 5-4 38-4 34-2 26-1 6-16 8-17 9-22 10-18 7-21 7-6 1-2-5-6-44-5-33-4-8-4-2-38 3-42 1-6 4-5 8-15 30-9 17-6 11-15 29-2 2-11-1-30-8-15-5-13-4-16-5-2-4 8-28 7-24 6-21 6-23 1-7-5-6-14-11-10-9-13-12-9-9-8-7-3-2-7 1-14 10-14 12-13 11-10 9-14 11-10 8h-4l-30-54-10-19-5-10 1-4 7-10 10-13 10-15 11-14 10-13 13-19 2-4-1-11-9-32-5-18-5-25-3-13-3-1h-14l-36 7-20 4-12 1-1-1-2-41v-76l5-5 15-8 14-7 15-9 16-8 18-10 7-5 3-13 7-44 8-43v-14l-9-6-19-10-15-9-18-11-5-4 1-9 18-46 12-30 8-21 5-15 3-4 24 1 29 3 15 1h19l5-5 9-16 13-23 17-28 12-19 2-5v-8l-5-16-13-34-7-16-6-14 1-4 9-11 12-12 7-8 10-10 7-8 6-8h2v-2h2l2-4 9-10 9-11 7-8 4 1 2 1v2h2v2h2l7 8 22 22 4 5v2h2l7 8 6 4h6l9-6 17-13 13-11 11-8 13-10 16-11 4-7 2-11 3-35 6-54 5-5 14-6 14-5 12-5 13-5 15-7 19-9 6-3h4l4 15 7 39 5 25 4 9 4 3 12-1 19-2 54-3 6-5 5-10 5-13 10-18 10-19 12-22 5-10z" fill="#FAFAFA"/>
<path transform="translate(913,570)" d="m0 0h14l7 10 6 9 8 18 10 30 7 29 2 5 5 2 16 11 2 2v9l-3 27-3 24-3 33-3 27v30l4 5 5 3v2l5 2 11 8v2l-20 6-32 12-7 5h-2l-2 6-13 34-9 19-7 14-8 14-11 18-19 28-11 13-7 8-11 13-1 2h-2l-2 4-23 23-11 9-13 11-14 10-21 14-15 9-23 11-14 6-19 6-21 3-9 1h-16l-14-2-4-4-6-12-10-27-6-19-6-28-3-23-1-12v-53l3-30 3-20 6-26 8-32 3-7 6-21 10-25 8-18 11-20 6-11 10-16 9-14 10-14 8-11 7-9 8-9 8-10 9-9 5-6h2v-2h2v-2h2v-2h2v-2l8-7 4-2v-2l8-7 11-9 13-10 28-19 10-5 17-9 17-7 19-6 16-4z" fill="#FAFAFA"/>
<path transform="translate(955,901)" d="m0 0 6 1 17 9 9 5 22 12 14 9 14 8 14 9 11 6 9 6 4 3-2 9-10 25-8 18-8 14-9 15-11 17-6 8-3 5-10 14-10 13-3 5h-2l-2 4-9 10-1 2h-2l-2 4-29 29-11 9-14 12-13 9-15 10-20 12-12 6-13 5-15 5-27 7-18 3-11 1h-22l-17-2-18-5-15-6-17-8-24-16-19-19-3-6 3-2 19-1 18-3 23-6 20-8 15-7 15-8 19-13 17-12 5-2v-2l8-6 6-5h2v-2l10-8h2v-2h2v-2l8-7 9-9 8-7 4-4h2l2-4 14-14 13-17 12-17 13-20 8-14 10-18 10-22 5-14 5-12 3-8z" fill="#FAFAFA"/>
<path transform="translate(1585,591)" d="m0 0h4l1 11v297l-3 3-17 9-33 18-10 6-14 8-13 8-11 6-14 8-10 5-4-1v-299l2-7 9-6 17-10 28-16 17-10 26-15 17-10z" fill="#FAFAFA"/>
<path transform="translate(1405,475)" d="m0 0 5 1 13 7 20 12 9 5 12 7 11 6 21 12 43 25 11 6 11 7 12 7 6 2v2l-26 15-23 13-10 6-14 8-24 14-13 8-14 7-4 1-8-5-11-6-14-8-17-10-19-12-14-8-24-14-10-6-11-6-28-16-11-7 1-4 11-7 24-13 10-6 11-6 17-9 13-8 23-13z" fill="#FAFAFA"/>
<path transform="translate(1266,562)" d="m0 0 4 1 11 6 18 10 26 15 18 11 24 14 18 10 26 15 24 14 7 6 1 241v64l-4 1-9-6-14-7-24-14-20-11-24-14-22-12-17-10-12-8 1-3 13-8 14-7 10-6 17-10 13-7 10-6 11-6 15-9 3-3 2-13 2-28v-34l-2-54-3-18-2-9-5-2-24-14-16-9-16-10-22-13-18-11-21-14-10-7-5-3v-12l1-9z" fill="#FAFAFA"/>
<path transform="translate(1384,692)" d="m0 0h3l1 70v49l-5 5-25 14-27 15-33 18-14 8-16 9-12 7-11 6-25 14-5 3-4-1-1-42v-73l2-7 16-9 14-7 19-10 16-8 30-18 17-10 23-12 16-9 11-6z" fill="#FAFAFA"/>
<path transform="translate(1009,697)" d="m0 0 5 1 11 7 14 7 15 9 11 6 17 10 22 15 5-1 17-8 5-2h6l-3 5-4 5-1 5 1 68v37l-1 26-1 1-15 1-6 2-4 2-9-4-14-8-22-12-28-17-18-12-14-10-3-3v-12l6-54 4-33 2-24z" fill="#FAFAFA"/>
<path transform="translate(297,636)" d="m0 0 7 2 16 9 26 14 17 10 18 10 15 9 16 10 2 2-1 7-8 19-6 16-7 18-5 11-5 14-5 12-9 24-3 1-10-6-19-9-12-7-11-6-15-8-21-12-24-14-3-3 2-6 9-23 15-40 8-21 9-25 3-7z" fill="#F9F9F9"/>
<path transform="translate(500,353)" d="m0 0 4 1 27 14 16 9 10 5 13 8 14 8 11 6 10 6 12 6 1 3-9 11-8 8-1 2h-2l-2 4-10 10-7 8-2 3h-2l-2 4-16 17-9 10-8 10h-2l-2 4-2 2-6-1-24-13-21-12-20-12-14-7-16-9-19-10-2-4 55-55 7-8 6-7h2v-2h2l2-4 5-6h2l2-4z" fill="#FAFAFA"/>
<path transform="translate(1721,580)" d="m0 0 4 1 1 55v68l-3 3-8 4-15 9-16 8-24 14-33 18-14 8h-4l-1-66v-50l1-8 9-6 24-13 21-12 11-6 14-8 25-14z" fill="#FAFAFA"/>
<path transform="translate(207,971)" d="m0 0 4 1 7 5 14 7 24 14 22 13 11 7 14 7 22 12 1 1v11l-1 14v67l1 25-4 1-10-5-16-10-20-12-17-10-45-25-6-5-2-74v-43z" fill="#FAFAFA"/>
<path transform="translate(314,1177)" d="m0 0 14 7 11 7 16 10 11 6 25 14 14 8 17 10 8 6 1 4-12 15-13 17-12 16-14 19-5 5-6-2-17-10-23-13-24-13-12-7-11-6-18-11-4-3 1-6 9-14 14-19 11-15 8-11 9-13z" fill="#F9F9F9"/>
<path transform="translate(437,548)" d="m0 0 5 2 25 14 19 11 11 6 13 8 22 12 16 10 4 3 5 2-1 5-7 10-10 16-6 11-10 17-7 14-3 3-6-1-10-6-19-12-13-8-14-8-11-6-17-9-14-9-9-5-8-6 1-5 6-9 6-11 9-16 9-15 10-14z" fill="#FAFAFA"/>
<path transform="translate(923,191)" d="m0 0 4 1 11 6 25 16 21 12 23 12 16 9 14 8-2 6-11 20-13 23-12 23-6 11-5-2-24-13-21-12-10-6-14-7-4-3-5-26-6-15-4-3-7-3-1-3 8-16 21-36z" fill="#FAFAFA"/>
<path transform="translate(759,196)" d="m0 0 8 1 12 7 14 7 24 14 14 8 18 10 16 9 9 5 1 4-2 2-13 5-33 15-20 9-25 10-6-2-24-14-22-13-24-14-18-10-19-11-3-2v-2l15-6 36-15 14-5 12-5z" fill="#FAFAFA"/>
<path transform="translate(652,252)" d="m0 0 6 1 11 6 20 12 13 8 28 15 16 10 11 6 10 8 2 2-4 40-3 43-3 1-13-8-11-6-26-14-12-7-11-6-28-15-15-9 1-13 5-38 1-11 1-24z" fill="#FAFAFA"/>
<path transform="translate(311,820)" d="m0 0 6 1 16 8 17 9 12 7 16 8 10 6 11 6 12 7 22 11v7l-3 11-4 21-4 31-1 10-5 1-21-12-11-6-22-13-19-11-39-22-5-4v-11l4-27 5-30 2-7z" fill="#F9F9F9"/>
<path transform="translate(286,914)" d="m0 0h5l15 8 15 9 17 10 11 7 11 6 10 6 11 6 16 9 9 5-1 3-19 10-21 12-12 7-16 10-5-1-14-9-11-6-18-11-12-7-22-12-36-20v-3l10-7 19-11 17-10 16-9z" fill="#F9F9F9"/>
<path transform="translate(1328,648)" d="m0 0 8 4 35 21 3 2-2 4-19 9-22 12-10 6-9 5-20 12-17 10-14 7-16 9-11 6-31 16-6-1-25-13-11-7-2-5 23-13 30-16 8-5 11-6 21-12 24-13 19-12 13-8z" fill="#F9F9F9"/>
<path transform="translate(1607,499)" d="m0 0 6 2 9 6 11 6 17 9 15 9 11 7 9 5 14 8 8 5 8 4-2 4-18 10-14 8-26 15-27 15-16 8h-4v-39l-2-10-7-7-16-9-15-10-14-8-5-3 1-3 21-12 12-7 9-5z" fill="#FAFAFA"/>
<path transform="translate(953,571)" d="m0 0 16 3 18 6 25 12 16 11 10 9 13 12v2h2l10 14 11 18 8 17 8 22 2 8 1 13-2 1-13-8-23-12-24-14-26-14-19-11-3-4-7-27-8-24-12-25-4-6z" fill="#FAFAFA"/>
<path transform="translate(503,1394)" d="m0 0h5l11 7 16 8 15 8 9 5 4 1-1 7-10 30-10 35-6 16-6-1-24-14-14-7-19-11-14-8-16-10-20-11-1-4 4-2 9 3h5l10-9 11-8 5-4h2v-2l12-9 11-10 8-7z" fill="#F9F9F9"/>
<path transform="translate(633,356)" d="m0 0 5 1 10 5 11 7 10 5 27 16 39 22 15 8-1 4-12 9-19 14-13 11-11 9-5-4v-2h-2l-11-14-16-17-10-11-7-8-6-5-14-8-21-13-4-3 1-4 10-7 16-10z" fill="#F9F9F9"/>
<path transform="translate(1155,324)" d="m0 0 5 1 11 6 10 6 18 10 13 8 19 11 10 6 4 2-2 4-13 11-10 8-10 9-11 9-10 9h-2v2h-2l-1 3-4-1-5-5-16-15-10-8-11-9-2-4 8-29 5-15 4-15z" fill="#F9F9F9"/>
<path transform="translate(1018,870)" d="m0 0h6l10 6 10 5 14 9 25 15 16 10 9 3 13-1 10-4 8-4 6 1 16 8-1 4-23 11-23 12-18 8-6 1-11-6-12-7-19-12-10-6-9-6-11-6-14-8-25-15-1-3 13-5 7-3z" fill="#F9F9F9"/>
<path transform="translate(1150,766)" d="m0 0 4 1 16 9 12 7 7 4 2 2v119l-6-1-19-10-11-6-6-4-1-4 1-33z" fill="#F9F9F9"/>
<path transform="translate(419,472)" d="m0 0 5 3 23 13 27 14 24 14 27 14 6 8 9 24 9 22-1 5-14-8-20-12-24-13-41-24-9-5-5-11-6-14-5-13-6-15z" fill="#FAFAFA"/>
<path transform="translate(270,1287)" d="m0 0 4 1 11 6 27 15 13 8 11 6 15 8 11 6 7 5 8 13 6 11 9 15 10 17 7 12-1 3-14-7-13-9-9-5-19-12-17-11-17-10-9-6-20-30-10-17-8-13-2-3z" fill="#F8F8F8"/>
<path transform="translate(758,1461)" d="m0 0h13l4 20 5 36 1 12-5-1-11-7-20-12-18-11-15-8-9-5 1-6 5-13 2-1 33-2z" fill="#FAFAFA"/>
<path transform="translate(341,636)" d="m0 0h16l23 2 11 6 15 9 39 23 12 7 9 7v1h-10l-24-3-16-8-19-11-18-11-15-9-11-6-12-6z" fill="#FAFAFA"/>
<path transform="translate(409,1167)" d="m0 0h7l3 9 5 26 5 16-1 3-11-7-15-9-19-11-15-9-7-3v-4l33-8z" fill="#F8F8F8"/>
<path transform="translate(1266,562)" d="m0 0 4 1 11 6 18 10 5 4-4-1-15-7v7l4 1 1 5 2 1v-2h4l1 5h6l3 3-1 4 5 2 2 3 6 1v2l7 2 1 4 4 1 2 2-3 1-11-1 3 1v2l6 2v2l-6-2-19-12-16-10-17-12-5-3v-12l1-9z" fill="#E5E5E5"/>
<path transform="translate(1129,861)" d="m0 0h1l1 25 4-1 2 1-1-4-3-1 1-7 3 3v2l4 1 3 6v2l3 1v1 4l-3 1-1 4h-5l-2-4h-3l-1 4v3h-3l-1 1 2 1v2l7-1 1 2-9 5-5 2 2 1v-2h5l-4 3-12 3h-7l-6-2 1-3-2-9 4-3h2l1-4h-5-4v-2l5-1-4-2 4-1 4-3 5-1 15-1z" fill="#7D7E7B"/>
<path transform="translate(953,571)" d="m0 0 16 3 18 6 25 12 3 3-4-1-12-6-4-1 1 4 3-1 2 2-2 4h-3l-1-2-5-2v3h2l-2 6-3 8-6 3h-2l-4-5-1-3-3 2 1 2-2 2-11-24-7-12z" fill="#F9F9F9"/>
<path transform="translate(341,636)" d="m0 0h16l23 2 11 6 15 9 12 7-3 1-8-4v-2l-4-1-10-6h-3l1 2-1 2 7 1v3l3 2-5 2-7-1-6-3v2h2v2l-5-2-15-9-11-6-12-6z" fill="#E5E5E5"/>
<path transform="translate(1274,615)" d="m0 0 4 1 21 13 10 7-1 4-19 9-4 2h-3l-5-19-2-4z" fill="#F9F9F9"/>
<path transform="translate(1597,776)" d="m0 0h1l1 6 2 1v3l4-1 2-2v4l5-1 1 2-3 2-1 4v112l-2 3v-57l-1-44-1 15-6 1v3h-2l-2-6h2l-1-5v-11l-2-1 1-4-1-3 2-1-2-4 1-5-1-2v-7h3z" fill="#7D7E7B"/>
<path transform="translate(1440,663)" d="m0 0 2 1 1 241v64l-4 1 1-2-1-211v-44z" fill="#E5E5E5"/>
<path transform="translate(724,389)" d="m0 0h5v2l5 1 3 1 1 4-5 1-1 6 5-1 1-5 6-1 6 4h6l4 2h2v-14h1v15l-4 2 3 1 8-3v7l-1 1 4 2v3l-3-1-2 3-5-1-1 4v-3l-6-2h-3l1-7h-2v2l-4-1-1-4 1-2-2 1-5 1 1 5-7-2-3-2-4-1v-3l-4-1 2 4-6-2-4-4h4v-4l4-2-2-1z" fill="#7D7E7B"/>
<path transform="translate(992,206)" d="m0 0 9 1 20 8 16 9 4 3 11 6 26 16 1 3-4-1-17-6-16-8-14-8-11-6-18-10-7-6z" fill="#F5F5F5"/>
<path transform="translate(1275,1062)" d="m0 0 2 4h2l2 4-3 2 1 3 3 1-3 8h-2v5h-2l-1 4v-2h-3l2 4-1 6-2 2-2-2-1 2h-2l-1-2-4 4 4 1v4l-4 1-1-3h-2l-2-3-2 1 1-4 6-15 6-16 3-3 3-5 3 1z" fill="#767674"/>
<path transform="translate(1356,647)" d="m0 0h2v2h4v2l3-1 10 7 7 3 5 3v2l3-1 2 2v3l-3 1 2 7h6l-1 5-5 1-5-7-3-1-1 3-4 2v3h-4l-1 3-1-4 3-1h-4l-2-2 4-2 1-2-3-1 2-1 2 1v2l2-2-5-4-5-2-3-3-4-2-1-2-4-1-3-3-3-2v-2h2v2h4v-2h7l-4-1z" fill="#7D7E7B"/>
<path transform="translate(403,760)" d="m0 0 3 1-2 4 3 1-2 4-1 6h-4l3-6h-2l-3 4-4-1v3h4v4l-3 3 4 4-4 5 1 4h-2l-1 3-1-2h-5v2l3 1 3 5-5 5-3-1v-2h-3l1 4-2 5-2 1-1 6h-5l-1-4 1-2h2l-1-4 4-10 3-2-1-3 2-1 1-5h2l1-8 2-2 1-5 2-3 2-6 3-5z" fill="#7D7E7B"/>
<path transform="translate(1463,663)" d="m0 0h1v256l1 39 2 5-2 1-1 4 1 2-4-1v-299z" fill="#E5E5E5"/>
<path transform="translate(920,320)" d="m0 0 4 1 10 7 11 6 10 6 4 2-2 2-14 2-14 3-5-1-1-1-2-17z" fill="#FBFBFB"/>
<path transform="translate(1167,913)" d="m0 0 2 1 4 4-2 2h-1l-1 5v3l1 2-1 6-4-1-1-3h-2l-1 4 1 4h-5v-2l-3-1 1 3-5 3-2-3h-6l-1-1-1 1h-6l-3 3h-2l1-4 2-1-2-2 19-10 11-5 1-3h3z" fill="#7D7E7B"/>
<path transform="translate(346,1038)" d="m0 0 2 4v82l1 19v13l19-3 12-3 18-3 13-3 10-1 11 1v2h2l4 11 5 25 2 9 3 9 3 12 3 10v6l-2-3-11-40-5-25-3-13-3-1h-14l-36 7-20 4-12 1-1-1-2-41v-76z" fill="#E5E5E5"/>
<path transform="translate(498,499)" d="m0 0 4 2 7 3 2 4-4 2v2l10-4v2l5 1 1 4-4 1h-2l1 4 5-1 3-1 1-3 1 2-3 5v2h-7l4 3 3 3-6-2-23-12-17-10 4-1v2l5 1 1-3 4 1 3-3z" fill="#787876"/>
<path transform="translate(615,791)" d="m0 0 1 3-9 21-8 21-9 29-8 34-8 44-3 27-1 10v44l3 33 3 19 3 12v5l-2-2-6-29-3-30-1-34 1-26 3-26 3-16 1-8 3-13 3-18 3-10 1-9 3-8 3-14h2v-5l4-10 4-13 5-11 6-15z" fill="#E5E5E5"/>
<path transform="translate(614,857)" d="m0 0h1v6l-3 7-1 8-3 9-3 14-2 7-4 16-3 21-1 5-2 18v73l1 3 2 15 4 23 4 16 8 24 3 8 4 10-1 3-8-20-10-30-6-28-3-23-1-12v-53l3-30 3-20 6-26 8-32 3-7z" fill="#E5E5E5"/>
<path transform="translate(384,660)" d="m0 0h4v2l6 2 13 8 13 7 10 5-1-2-5-2-1-4 5-1 6 4 6-2 1 2h-2v2l4-2 5 2 1-1-4-1-12-7-9-6 2-1 21 12 16 10 3 4h-10l-24-3-16-8-19-11-13-8z" fill="#E6E6E6"/>
<path transform="translate(887,278)" d="m0 0h4l4 15 7 39 5 25 4 9 4 3 12-1 19-2 54-3 6-5 5-10 5-13 10-18 1 3-7 12-10 24-7 8-5 2-60 3-15 2h-9l-6-5-4-9-2-10-2-13-2-9-1-9-1-2-1-9-3-12-2-9v-4l-8 3-14 7-9 4-3-1 15-7z" fill="#E5E5E5"/>
<path transform="translate(549,558)" d="m0 0h2l1 4 1-2 4-1v3l3 3 2 7 3 9 2 4v5h2l1 5h-5l-2-4v-3l-2-2-3 5-5 2-1-2 2-9 1-1-4 1v-3l-2-1-3-7v-7l-2-1 1-2 3-1z" fill="#7D7E7B"/>
<path transform="translate(453,540)" d="m0 0 7 2v2l6 1 4 2v2h3v2l4 1v2h3v2l5 1v6l3 2 4-4 1 1v6l-2 1v-4l-1 2v4l-5-1v4l-6-2-10-6 3-1 5 2v2l5 2v-2l-4-2-1-3h3l1-5 1-2-5 1v5l-4 1-1-3-5-1-5-2-3-2v-4l-3-1v-2l3-3-3-1-1 3-2-2z" fill="#7D7E7B"/>
<path transform="translate(748,178)" d="m0 0h5l-3 2-57 23-14 5-15 7-18 8-7 5h-2l-2 11-5 41-6 56-6 7-6 2 3-4 3-1 1-3h3v-10l1-5 1-15 1-1 1-15 1-5 1-14 1-3 1-16 1-1 1-13 2-10 6-5 17-9 12-5 11-5 37-14 11-5 14-5z" fill="#E5E5E5"/>
<path transform="translate(975,582)" d="m0 0h5l10 5h3 2l1 4 3-1 2 2-2 4h-3l-1-2-5-2v3h2l-2 6-3 8-6 3h-2l-4-5-1-5 1-5-4-2h4 3l1-9-4-1z" fill="#E5E5E5"/>
<path transform="translate(758,1461)" d="m0 0h13l4 20 5 36 1 12-5-1-11-7-8-5 3-1 16 10 3 2-8-53-1-2v-10l-17 2-3 1-14 1-2 1-12 1-12-1 1 5h2v2h-5l2 6-5 3 5 3v2l5 1 6 3 13 7 12 8 1 2-5-2-15-9-15-8-9-5 1-6 5-13 2-1 33-2z" fill="#E5E5E5"/>
<path transform="translate(459,1435)" d="m0 0h4l-1 6-5 1v10h-2l1 5 4 1v6l-3 1v2l5 2 3 3-4-1-20-12-5-4 3-1-2-2 6-1 1-5 5-1v-2l5-4h2v-2h3z" fill="#E7E7E7"/>
<path transform="translate(1733,652)" d="m0 0 1 4 3 1v9l3 5 1 2-1 6-1 7 1 5-3 15 3 1v4h-3l-1 4-7 1v-2l4-4-1-8v-14l-1-21 1-4v-4z" fill="#7E7F7C"/>
<path transform="translate(1312,716)" d="m0 0h3l1 4 5 2-4 4-7 4h-3v2l-11 6-5 1-2 2-1-4v-2h-4l1 3h-3l-2-5 7-4 1-2-3-1 9-5 2 1-4 3 2 4-1 2-3 1h2l6-1-1-4-2-1 1-2h2l1-2 5 2-1-3 3-3h4l1 3h3l1-2-4-2z" fill="#7D7E7B"/>
<path transform="translate(269,725)" d="m0 0 2 1v8l-4 4 1 5h-3v17l-1 3-2 1 9 6 10 6 11 6 5 3-2 1-18-10-24-14-3-3 1-3 2-1 3-5 4-3 2-4 1-6 2-6 2-2z" fill="#E5E5E5"/>
<path transform="translate(1267,564)" d="m0 0 6 2 8 5-2 6h-4l-3-1 2 7 1 2 5 3 8 5v2l5 2 4 2 9 9-4-1-15-9-7-5-7-3-1-4-6-2v-16z" fill="#F9F9F9"/>
<path transform="translate(1302,497)" d="m0 0 2 1v5l1 2-1 5 1 4-3 2-4-1-1 2h3v5l-3-2v-2l-3 1-1 2 3 1-5 2-1-2-2 2h-3-3l-3 3h-3v-3l2-1 5-9 2-3h2l2-4h4l-1 5h2v-2h2v-2h2v-3h-3l1-3v2h5l-1-2-2-2z" fill="#7D7E7B"/>
<path transform="translate(1161,772)" d="m0 0 6 2 10 6 11 6 3 3v119l-6-1-5-4 8 2v-115l-8-6-12-6-7-5z" fill="#E5E5E5"/>
<path transform="translate(909,297)" d="m0 0 5 1 3 3 8 3 5 3v2l6 1 2 1-1 2-4 1-1 3-3-2-3 4-6-5-5 1-1 4-4-2 2-6v-6l-5-1z" fill="#7D7E7B"/>
<path transform="translate(318,1034)" d="m0 0 5 2 3 2v11l-1 14v67l1 25-4 1-10-5-16-10-3-3 4 1 9 6 9 5 5 2v2h4l-1-10-1-29-1-15v-29l1-2 1-25 1-5-6-4z" fill="#E5E5E5"/>
<path transform="translate(404,874)" d="m0 0 6 1v2l9 3 2 5h-2l1 2 4-1-1 9 2 1 2-4 1 3-2 3-5 1-1 5h-4l-1-3 2-8-2-6-6-2-5-2-2-4h-2v2l-6-2 1-4z" fill="#E5E5E5"/>
<path transform="translate(1389,660)" d="m0 0h5v2l5 2 5 5 2 7 2 12 2 30 1 7v56l-1 13-1 3-1 19-2 9-7 5-3-1 8-6 2-13 2-28v-34l-2-54-3-18-2-9-5-2-7-4z" fill="#E5E5E5"/>
<path transform="translate(1144,762)" d="m0 0h1l1 6 2 1-1-3 1-1h6l-1 2-3-1v84l-1 35 3 3 5 4-4-1-5-3-1-2v-23l1-33v-37-3l1-10h-2l-1-3 2-1-2-4-3 4 1 4-3 3-2-6v-6l4-1 1-3h-3l1-2-2-2z" fill="#7E7F7C"/>
<path transform="translate(1740,553)" d="m0 0 4 2 2 2 2 6v118l-2 25-2 9-7 6-3 2-3-1 10-7 1-1 3-32 1-23v-54l-1-41-2-7z" fill="#E5E5E5"/>
<path transform="translate(203,936)" d="m0 0 3 1-14 8-3 5-1 16v61l1 68 1 7-3-2-1-36-1-10v-92l2-13 5-7 3-2h3v-2z" fill="#E5E5E5"/>
<path transform="translate(775,1438)" d="m0 0h9l4 3-1 2-5-3-38 3-42 1-6 4-5 8-15 30-9 17-6 11-7 13-1-3 9-16 1-3h2l1-4 3-8h2l3-9 4-7 2-5 9-17 1-4h2v-3l6-5 5-2h31z" fill="#E5E5E5"/>
<path transform="translate(1127,751)" d="m0 0h2v21l1 52v37l-1 26-1 1-15 1-6 2-4 2-7-3 2-2 3 2 5-1 4-2h17v-22l1-11v-19l-1-19-1-4 1-7-1-45z" fill="#E5E5E5"/>
<path transform="translate(1009,697)" d="m0 0 5 1 11 7 14 7 10 6-3 1-10-6-15-8-3-2-1 9 1 2h-2l2 6-2 6-2 7h-2v-27l4-1-1-3-5-3-4 42-2 17-2 2 1-14 4-42z" fill="#E5E5E5"/>
<path transform="translate(406,1237)" d="m0 0 5 1v2h3l3 4v2h4l1-2 2 7-2 4 4-4h2l1-4 2-1-1 4-11 14v-3l-1-1-3 2-4 4-3-1 1-7h3l2-4-4-1-1-3 2-1-1-4-4-6z" fill="#E5E5E5"/>
<path transform="translate(762,315)" d="m0 0 4 2 3 3-4 40-3 43-3 1-8-5 3-1 5 3 2-19 1-22 1-5v-17l-2 2-1-7 1-2-1-8 4-2v-4h-2z" fill="#E6E6E6"/>
<path transform="translate(1009,873)" d="m0 0 3 1-12 5-6 1v2l8-1v2h3l-1 3-4-1-1 5-4-2 1 2 3 1 1 2h3v2l-5 1-1-2-3-1v2h2v2l-5-2-12-7-1-3 13-5 7-3z" fill="#E5E5E5"/>
<path transform="translate(1232,776)" d="m0 0 3 1-10 6-4 2h-3v2l-5 2v98l1 4-1 2v15l-2 1-1-42v-73l2-7 16-9z" fill="#E5E5E5"/>
<path transform="translate(844,278)" d="m0 0 4 1-2 1 3 3-2 4-2 2 1 4-4-1v-4h-4l-1 4-2-1 1 6-5 2 1-4-6-5 1 3-4 3h-6l-2-3 6-4 3-1 2-2 7-2 1 3 1-5z" fill="#7D7E7B"/>
<path transform="translate(1275,1062)" d="m0 0 2 4h2l2 4-3 2 1 3 3 1-3 8h-2v5h-2l-1 4v-2h-3l2 4-1 6-2 2-2-2-1 2h-2l-1-2-4 1 1-5 4-1-2-1 1-7 3-1 2 2 4-2 1-8-1-4-3-2 5-1-1-8z" fill="#7D7E7B"/>
<path transform="translate(399,638)" d="m0 0h4v5h5l1 3 4 1-1-7 5 1v2l5 1v2h4v2h4l1 4h-5l1 4 2 2-3 1v2l-3-1-3-2 1-2-1-1-3-2-5-1v-4l-5-1-5 1v-2l-4-2-2-4h2z" fill="#7A7B78"/>
<path transform="translate(466,1425)" d="m0 0 2 1-8 8-1 3h-3v2l-4 1-1 3h-2v2l-5 1-1 5-4 2 1 2h-6l-11-6-1-4 4-2 9 3h5l10-9 11-8z" fill="#F4F4F4"/>
<path transform="translate(988,695)" d="m0 0h1v10l-3 22-5 52-3 27v32l-3-3-1-9 2-32h2v-13l3-30 1-16 2-13z" fill="#E5E5E5"/>
<path transform="translate(400,978)" d="m0 0 4 1 2 1-1 3-19 10-5 3-2-1 2-2-8 4h-5v-3l2-4 7-2 1-3 7-1 3-1 1-3 5 3v2l8-3v-2z" fill="#E5E5E5"/>
<path transform="translate(320,1342)" d="m0 0 4 1 1 5h6l2 3v3l5-1 2 1v4l-3 1-1 3 5 2-1 3h-2v-2h-2l-1-2-5-3-6-2-1-3-7-2-1-4 4-1z" fill="#E5E5E5"/>
<path transform="translate(300,1162)" d="m0 0h5l2 2v5l-1 1h2v-3h2l-2-4h3l3 5v5l-4 1-1 2h-5l3 2-2 1 2 2h-2l-2 4-4-1-8 2v-4l6-1 2 1-2-6 2-2v-3l-2-1h2v-7z" fill="#7C7D7A"/>
<path transform="translate(306,799)" d="m0 0 3 2v2l3 1-2 4 3 5v2l-6 1-1-1-2 3-1-3-2 1 1 3-2 3h-5l-1-1 1-13 3 1 1-6 3-1 2-2v7l4 1-3-8z" fill="#7D7E7B"/>
<path transform="translate(1123,250)" d="m0 0 4 1 13 8 11 6 11 7 3 3v18l-1 2v7l11 6 14 9 9 5 14 9 15 9-2 1-21-12-14-9-25-15-3-1-1-4 2-11v-12l-5-5-16-10-11-6-8-5z" fill="#E5E5E5"/>
<path transform="translate(1279,1092)" d="m0 0 1 4-3 7-4 11-3 9-5 6-2 1h-22l-27-1-20-2-3-1h-8v2l-3 1-4 6-1-2 5-9 4-1 16 2 24 2h40l5-8 9-25z" fill="#E5E5E5"/>
<path transform="translate(1062,966)" d="m0 0h5l2 3h3l-1 6h2v-7l2 1-2 9-7 18-2-4v-3h-2l-1-6 1-7 1-2v-6z" fill="#E5E5E5"/>
<path transform="translate(312,842)" d="m0 0 2 2 1 9-1 11v8l-2 4 2 4-1 1h-6l-1 4v-2h-2l1-11 1-3h2v-14h2l1-10z" fill="#E5E5E5"/>
<path transform="translate(339,1331)" d="m0 0 16 6 4 3 3 1 1 5h-5l-4-3-13 1-5 1-2-3 1-4 2-5z" fill="#E5E5E5"/>
<path transform="translate(498,499)" d="m0 0 4 2 7 3 2 4-4 2 1 4-3 1-5-1-3-1-1-2-4-1 1 1 2 3-6-2-10-6 4-1v2l5 1 1-3 4 1 3-3z" fill="#7E7F7C"/>
<path transform="translate(940,1392)" d="m0 0 2 1-7 5-3 31-1 6-1 17-3 22-3 25-3 6-8 5-3-1 10-6 2-8 9-82 1-14 5-5z" fill="#E5E5E5"/>
<path transform="translate(207,971)" d="m0 0 3 1-2 6 1 18v93h-1l-2-74v-43z" fill="#E5E5E5"/>
<path transform="translate(1325,972)" d="m0 0 3 3-1 4-12 31-5 12-3 9-3 6-3 9-5 11-3 10-10 21-2 4-1-3 8-18 5-12 13-33 19-48z" fill="#E5E5E5"/>
<path transform="translate(572,455)" d="m0 0h4l1 5-6 5-6 7-3 1-5 7-4 3v2h-3l-1-5 3-4 2 1 1-7h6l-1-1 2-4v-6l3-1 3 3h2z" fill="#E5E5E5"/>
<path transform="translate(918,1379)" d="m0 0 2 1-6 6-4 38-4 34-2 26-1 6-2-1 1-18 2-22 1-3 5-53 3-9z" fill="#E5E5E5"/>
<path transform="translate(1041,863)" d="m0 0h4v2h3v2l5 2-2 3 2 4-10 2v-2l-5-1-3-1v-2h-4v-2h-2l1-3h2l1-2h2l1 5 3-1-3-4z" fill="#7D7E7B"/>
<path transform="translate(1616,639)" d="m0 0 2 1-7 5v121l9-5 3 1-10 6h-4l-1-66v-50l1-8z" fill="#E5E5E5"/>
<path transform="translate(647,347)" d="m0 0 3 1-1 6h4l1-4 4 1 5 3 6 4v2h5l-4 5v5l-3-1 1-7h-4l-1-6-5 1 1 6-7-2-2-2-3-1-4-2-2-4 6-2z" fill="#7D7E7B"/>
<path transform="translate(527,708)" d="m0 0 1 2-4 6-2 1h-20l-51-5-17-1-3 9-2 2 1-6 4-7 24 1 29 3 15 1h19l5-5z" fill="#E5E5E5"/>
<path transform="translate(713,1148)" d="m0 0h2l-1 5h-6v2l5 1-1 3 2 1-5 1v2l-3-1 1-2-4-1h-2l-1 2h5l-1 3-7 1v-2l-6-1-1-1v-5h2v3h3v-2h2v-3l4-1 1-1 4-1z" fill="#7D7E7B"/>
<path transform="translate(435,458)" d="m0 0 5 1 13 7 23 13 5 3 3-2v4l10 6 14 7 10 6 13 7 4-2 3-2-2 4-2 2-6-1-24-13-21-12-20-12-14-7-14-8z" fill="#E5E5E5"/>
<path transform="translate(411,873)" d="m0 0 4 1 18 9v7l-3 11-4 21-4 31-1 10-5 1-3-3 5 1 2-16 1-3 2-16 3-18 1-3 1-11h2l1-8 1-3-5-1-14-7z" fill="#E5E5E5"/>
<path transform="translate(1150,1155)" d="m0 0 7 1-1 4-2 3h-2l-2 9-3 1-1 3-4 1-4-5h2l1-2h2l-1-5-3-1 2-5 3-2v2h3v4l4-1-2-3z" fill="#7D7E7B"/>
<path transform="translate(675,270)" d="m0 0 3 1 2 2 5 1 3 4 9 3 2 1v2l4 1 4 2v3l-6-1-5-1-4-1-7-2-3-6v-3h-6l-2-4z" fill="#E5E5E5"/>
<path transform="translate(1313,444)" d="m0 0 4 4 9 17v3h2l2 5v8l-9 14-5 6 4-1 9-5 2-2 7-3 4-1-5 4-16 9-10 5v-4l9-11 6-9 2-7-12-25-3-5z" fill="#E5E5E5"/>
<path transform="translate(271,1242)" d="m0 0h3l1 3-1 3 6-1v6l-2 4 2 1-1 4-10-4-4-4 2-7 3-2z" fill="#E5E5E5"/>
<path transform="translate(337,1098)" d="m0 0h1l1 8 2 3 1 11-4-4-1 5h2l3 1-1 2v5l-3-1v2l-3 1-3-5v-11l1-4h2l1-9-2-1z" fill="#7D7E7B"/>
<path transform="translate(650,408)" d="m0 0h3l1 2h5l1 5v4l3 1-2 4h-2v3l4 2 7 8 9 10 2 5-5-5-16-17-10-11v-2h2v2h2l-1-5-3-1-1-4z" fill="#E5E5E5"/>
<path transform="translate(977,629)" d="m0 0 2 2 7 26 9 6 10 5 19 10 4 2v-7l4-1-1 10 8 5-1 2-29-16-12-7-11-6-3-4-6-23z" fill="#E5E5E5"/>
<path transform="translate(955,176)" d="m0 0h6l11 3 22 3 16 4 10 4 15 8 17 10 6 4-2 1-25-14-17-9-13-4-35-6-11-3z" fill="#E5E5E5"/>
<path transform="translate(362,1390)" d="m0 0h3v2l4 2 3 3-4 9h-4v-2l-6-2-5-4 5-4 1-3z" fill="#7E7F7C"/>
<path transform="translate(715,1140)" d="m0 0 4 1-14 6-19 6-21 3-9 1h-16l-14-2-4-4-3-6 1-2 6 9 10 2h23l13-1 20-4 12-4z" fill="#E5E5E5"/>
<path transform="translate(731,280)" d="m0 0 6 1 7 3v2l6 2 1 5-3 1-1 4-3 1-6-4-2-3v-4l2-2-4-3v-2z" fill="#7D7E7B"/>
<path transform="translate(301,1007)" d="m0 0 6 2 5 3-1 6h2l-1 7h-5l-1-2-5-2v-4l-2-1 1-4v-1z" fill="#7C7D7A"/>
<path transform="translate(1274,615)" d="m0 0 4 1 11 7-3 1-7-4v-2h-2l1 11 3 2 2 15h6l6-3h3v-2l8-3 1-2h2l-1 4-19 9-4 2h-3l-5-19-2-4z" fill="#E5E5E5"/>
<path transform="translate(256,750)" d="m0 0 2 1v6l6 3v3l-2 1 9 6 10 6 11 6 5 3-2 1-18-10-24-14-3-3 1-3 2-1z" fill="#eee"/>
<path transform="translate(567,1403)" d="m0 0 4 2v2l4 1 5 6-3 3-4 1v3h-2v-2l-6 1 1-8-3-3 1-4z" fill="#7B7C79"/>
<path transform="translate(1197,809)" d="m0 0 1 4h2v8l-2-1v7l1 5v10h2v2h2l-1 6-1 2h-3l-1 3-1-4-1-13v-24z" fill="#7D7E7B"/>
<path transform="translate(421,479)" d="m0 0 2 1 15 37 4 9 15 8 10 6 11 6 6 4-2 1-25-14-17-10-5-11-6-14-5-13-3-7z" fill="#E5E5E5"/>
<path transform="translate(404,432)" d="m0 0h2l1 5 4 1 1 3-3 2-1 3-7 1h-3v2l1 3h-3l-2-4 1-6 4-5 5 1v-2l-2-1z" fill="#7E7F7C"/>
<path transform="translate(870,562)" d="m0 0 2 2 1 9-4 1h-1l-4 2-6 1-2-2v-7h2l1-2 7 1v-3z" fill="#7C7D7A"/>
<path transform="translate(936,906)" d="m0 0h2l1 1h3l-1 2-3 1-1 2 2 1v7l-1 5 3-1-1 4-1-1v6l-3 7h-3l-1-4 2-1h-2v-2h3l-3-1v-2l-2-1 2-3h3v-8l-2-2 2-6z" fill="#7D7E7B"/>
<path transform="translate(1155,324)" d="m0 0 5 1 11 6 10 6 7 4-3 1-5-2v-2l-4-1-16-9-5-2-1 8-9 29-1 5-3 8-1-4 6-20 5-16 2-8z" fill="#E5E5E5"/>
<path transform="translate(1599,563)" d="m0 0 5 2 6 8 1 45 16-8 10-6 4-2 3 1-18 10-14 7h-4v-39l-2-10-7-7z" fill="#E5E5E5"/>
<path transform="translate(283,787)" d="m0 0 3 1v3l2-2 2 2 1-1h5v3l-5 1 1 6v-5l3-1v7l-3 3v-2l-5 1-2-1v-2l-4-2 3-1-3-1v-2l-3-1 4-3z" fill="#7D7E7B"/>
<path transform="translate(1256,359)" d="m0 0 4 1 9 5 1 3h2v2h2l3 5 7 12 1 3 2 1 9 19 6 11 1 5-3-3-8-16-13-24-8-12-8-7-7-4z" fill="#E5E5E5"/>
<path transform="translate(1028,220)" d="m0 0 5 2 8 5 11 6 26 16 1 3-4-1-17-6 3-2 1-1-10-6-7-4-9-5-8-5z" fill="#E5E5E5"/>
<path transform="translate(414,422)" d="m0 0h8l1 5-5 6-2 1-1 3h-5l-2-2v-3l-2-1 3-3 4 2 1-2-4-2z" fill="#7C7D7A"/>
<path transform="translate(1300,981)" d="m0 0 2 1-2 9-7 15-15 37-4 11h-1v-5l2-7h2v-5l5-10 2-6 3-8v-2h2l1-4 5-13 4-9z" fill="#E5E5E5"/>
<path transform="translate(894,241)" d="m0 0 1 4v3l6 1 3 1 6 11 4 14 3 20 5 2 14 7 4 4-6-2-18-10-2-6-4-21-6-15-4-3-7-3-1-3z" fill="#E5E5E5"/>
<path transform="translate(516,508)" d="m0 0 1 2 5 1 1 4-4 1h-2l1 4 5-1 3-1 1-3 1 2-3 5v2h-8l-4-5-4-3 1-5z" fill="#7C7D7A"/>
<path transform="translate(1077,666)" d="m0 0 3 4 9 24 3 11 1 13-2 1-13-8-17-9 3-1 21 11 5 3-1-12-9-27-3-7z" fill="#E5E5E5"/>
<path transform="translate(349,1295)" d="m0 0 3 1 5 5 4-1h3l2 3v3l3-1v8l-4-1-2-2-6-2v-4l-5-1-5-3z" fill="#E5E5E5"/>
<path transform="translate(1039,916)" d="m0 0h6v2h4v2l6-2v2l3 1 1 5-3 2h-3v-5l-7 2 2 3-5-2-6-4 3-2z" fill="#E6E6E6"/>
<path transform="translate(953,571)" d="m0 0 16 3 18 6 25 12 3 3-4-1-12-6-4-1v-2h-4v-2l-5-1-6-1v-2l-12-2-1 2-1-4h-9l-2-1 2 6-4-4-1-4z" fill="#E5E5E5"/>
<path transform="translate(925,323)" d="m0 0 4 2 18 10 12 7-2 2-14 2-14 3-5-1v-1l17-3 5-2 6-1h-6l1-3-10-6-10-5v-2h-2z" fill="#E5E5E5"/>
<path transform="translate(681,452)" d="m0 0h2v2l5-2 2 1v3h-3l2 3 2-4 5-1 2 6 5-2v-2l3 1-12 10-5-4v-2h-2l-6-8z" fill="#E7E7E7"/>
<path transform="translate(484,551)" d="m0 0 4 1 10 6 10 5 11 6 15 9 13 8-1-7 2 2 1 7h-3l-22-13-14-8-20-11-6-4z" fill="#E5E5E5"/>
<path transform="translate(739,436)" d="m0 0 1 3h2l-2 4-2-1 2 3-1 7-1-2-3 1-3-4-6 3-1-1-3 3-1-3 9-8 5-1h2z" fill="#7C7D7A"/>
<path transform="translate(520,1356)" d="m0 0 7 3 8 7 14 14 2 1v2l4 2 2 4-8-6-15-15-8-7-3-2-7 1-14 10-8 7h-2v-2l10-8 6-5z" fill="#E5E5E5"/>
<path transform="translate(804,1239)" d="m0 0 2 1v3l4 1v4h-7v2l13-2 1 3-7 1-1 1-12 1-1-9 6-1v-4z" fill="#7E7F7C"/>
<path transform="translate(309,823)" d="m0 0h1v8l-2 15-1 2-1 11-1 1-1 12-1 1-2 22 3 2-1 2-4-3v-11l4-27 5-30z" fill="#E5E5E5"/>
<path transform="translate(389,440)" d="m0 0 2 1-1 2 1 12 10 28 11 27-1 4-4-10v-2l-2-1-3-9-8-21-3-8-4-14v-6z" fill="#E5E5E5"/>
<path transform="translate(287,610)" d="m0 0h31l43 3 9 1 3-2-2 4-26-2-21-1-8-1h-25l-5 3-2-1z" fill="#E5E5E5"/>
<path transform="translate(1119,815)" d="m0 0 3 1v13l-1 17-1 2h-2l-2-12 1-6-1-2v-6z" fill="#E5E5E5"/>
<path transform="translate(322,830)" d="m0 0 6 2h2l2 4 4-1 1 2 5 1-1 5-4 1v-3l-8-1-2-4h-2v2l-4 2-1-1v-7z" fill="#E5E5E5"/>
<path transform="translate(1148,892)" d="m0 0 2 3 3 2h-6v2l-3 2-1 3-7-2 1 3-7 1v-2l-4-2 3-1h3l-1-3 2-3h3l2 3 5 1 1-4z" fill="#747472"/>
<path transform="translate(466,1425)" d="m0 0 2 1-8 8-1 3h-3v2l-4 1-1 3h-2v2l-7 1v2h-11v-2h9l10-9 11-8z" fill="#eee"/>
<path transform="translate(962,1355)" d="m0 0h2l-1 4v2h1v5h-3l-1 2h-5v3l-3-1-4-1-1-3 5-2v-3l4-1 2-3z" fill="#7D7E7B"/>
<path transform="translate(720,212)" d="m0 0 3 1-12 5-9 4-10 4-11 5-11 4 8 6-2 1-10-6v-2l15-6 36-15z" fill="#E5E5E5"/>
<path transform="translate(235,968)" d="m0 0 4 2 1 3-2 2v8l-6-1-1-3-3-1-1-2h2v-5l5-1z" fill="#7D7E7B"/>
<path transform="translate(1408,453)" d="m0 0 7 2 11 5v2l5 1 16 9 9 6 3 1v2l-6-2-24-14-15-8-3-1h-10v-2z" fill="#E5E5E5"/>
<path transform="translate(1404,624)" d="m0 0 5 1 3 1v2l5 2 2 4-3-1-4 1 1 3-2 1h-6l-2-7 3 1v-2l3-3-4-1z" fill="#7C7D7A"/>
<path transform="translate(985,1360)" d="m0 0 5 2-3 1 2 2h3v-5l1 3h3v4l-2 2h4v-2l4 1v2h2v5h-3l1-4h-3v3l-7-2-3-2v-3l-4-1-1-4z" fill="#7D7E7B"/>
<path transform="translate(546,621)" d="m0 0h2v3h-2l-1 6-5 7h-2l-1 5-1 3h-4l1-5 3-1-1-8 6-3 3-5z" fill="#E5E5E5"/>
<path transform="translate(1293,900)" d="m0 0h3v4l8 2 1-4h4l1 3v-3h2v4h5l-1 2-7 2-1 3-6-2v-2h-2l-2-2-6-4z" fill="#7D7E7B"/>
<path transform="translate(380,831)" d="m0 0h3l-1 7 3-1 1 3 3 1-5 1h-3l-1 2-4 1-2-2v-3l-4-1v-3l7 1 1-5z" fill="#7D7E7B"/>
<path transform="translate(759,196)" d="m0 0 8 1 12 7 6 3-3 1-17-9h-6l-11 5-10 4-10 3-5 1 4-3 16-6z" fill="#E5E5E5"/>
<path transform="translate(587,1119)" d="m0 0 2 3 10 24 10 18 10 15 1 3h-2l-14-22-7-12-6-13-3-10-1-1z" fill="#E5E5E5"/>
<path transform="translate(857,559)" d="m0 0h6l-4 2-26 10-11 5-16 8-6 2v-2l16-8 12-5 13-6z" fill="#E5E5E5"/>
<path transform="translate(558,1514)" d="m0 0h1l1 5h2v2h5v2h5l8 3 22 7 13 4v1l-8-1-17-5-31-10-2-4z" fill="#E5E5E5"/>
<path transform="translate(1264,1074)" d="m0 0 1 3-5 12-5 13-4 6-14-1-27-1v-1h36l4 2 2-5 4-8 7-19z" fill="#E5E5E5"/>
<path transform="translate(251,915)" d="m0 0 4 1 1 2h2l1 7h-2v2l-5 1v-4l2-1-3-2-2 4-5 2-1-2 1-5 5-3h2z" fill="#7D7E7B"/>
<path transform="translate(458,660)" d="m0 0 5 1 10 5v2l6 2v2l4 1 15 10 12 7 3 2-6-1-10-6-19-12-13-8-7-4z" fill="#E5E5E5"/>
<path transform="translate(1009,873)" d="m0 0 3 1-12 5-6 1v3l-4 3h-2l-2 4-3-1-4-1-1-3 13-5 7-3z" fill="#E5E5E5"/>
<path transform="translate(940,308)" d="m0 0 4 1 7 3v2l4 1 10 6 4 1v2l5 1 6 4 11 6 2 1 1-3 1 2-2 3-5-2-24-13-21-12z" fill="#E5E5E5"/>
<path transform="translate(733,389)" d="m0 0 6 2 15 9-4 2-6-4-6 1v5h-6l-1-3 2-3 4-1v-4h-3z" fill="#777875"/>
<path transform="translate(1183,376)" d="m0 0 3 1v3l2 4 5-1 2 3h1v6l-3 1-2 4h-6v-4l4-2h4v-4l-5 1-3-1-2-3-1-7z" fill="#E5E5E5"/>
<path transform="translate(1058,213)" d="m0 0 4 1 13 7 12 7 11 6 14 8 4 4-6-2-24-14-25-14z" fill="#E5E5E5"/>
<path transform="translate(408,1314)" d="m0 0v3l-8 11-3 6-3 1 6 14 5 10v2h2l2 5-1 3-12-23-4-8 1-4 7-10z" fill="#E5E5E5"/>
<path transform="translate(416,1168)" d="m0 0 2 4 6 30 5 16-1 3-11-7-2-2 4 1 6 4-1-6-4-16-3-17-1-2z" fill="#E5E5E5"/>
<path transform="translate(222,1104)" d="m0 0h5l3 4-1 2-4-2 4 8-1 3-5-1-6-3v-3l3-1 1-3h2z" fill="#7D7E7B"/>
<path transform="translate(816,285)" d="m0 0 4 1-18 8-20 8-6-2-17-10 3-1 16 9 3 1 10-3 24-10z" fill="#E5E5E5"/>
<path transform="translate(424,665)" d="m0 0 6 2 13 8 11 6 11 8 1 2h-10v-2l3-1v-2l-4-1-2-1v-2h-4v-2l-4-1-12-7-9-6z" fill="#E5E5E5"/>
<path transform="translate(996,1323)" d="m0 0h10l9 8 6 7v2h2v2h2l8 10 4 4-1 2-8-8-7-8-9-10-4-5-3-2h-8l-6 4-4 3-2-1 7-6z" fill="#E5E5E5"/>
<path transform="translate(453,492)" d="m0 0 6 2 22 12 28 16-3 1-15-8-11-7-12-6-12-7-3-1z" fill="#E5E5E5"/>
<path transform="translate(887,209)" d="m0 0 1 2-12 22-5 1-19-10-10-6 3-1 12 7 14 7 3 1 7-14z" fill="#E5E5E5"/>
<path transform="translate(1131,741)" d="m0 0h6l-3 5-3 2 2-5-11 5-7 2v2l-10 3-3-1v-2l-4-1-4-3 1-2 9 6 5-1 17-8z" fill="#E5E5E5"/>
<path transform="translate(1571,519)" d="m0 0h2v2l-4 2h-3v2l-9 5h-3v2h-2v2l5 2 9 5 13 8v2l-5-2-14-9-11-6 1-3z" fill="#E5E5E5"/>
<path transform="translate(382,1198)" d="m0 0 9 3 2 4h-6l-1 9-2 1-1-2-3-1v-2h-4l2-6 3 1 1 3v-4l4-2-5-1z" fill="#7E7F7C"/>
<path transform="translate(454,558)" d="m0 0 6 2 23 13 14 8 11 7-3 1-14-9-11-6-12-7-14-7z" fill="#E5E5E5"/>
<path transform="translate(290,1144)" d="m0 0 5 5 1-1 4-1 1 4-3 1-1 4-6 1v-2l-3-1 1-4-2-1 1-4z" fill="#7D7E7B"/>
<path transform="translate(1602,773)" d="m0 0 3 2 2 2 3 1v2h-2l-1 4-2 2h-4v-3l-3-1v-6z" fill="#747472"/>
<path transform="translate(899,1495)" d="m0 0 5 5-2 4-2 6-5 2 1-6v-4l-3 1-2 1v-4h2v-2z" fill="#7D7E7B"/>
<path transform="translate(785,1099)" d="m0 0 2 1-10 8-20 13-15 9-4 2-3-1 12-7 14-8 16-11 3-3z" fill="#E5E5E5"/>
<path transform="translate(1144,762)" d="m0 0h1l1 6 2 1-1-3 1-1h6l-1 2-3-1-1 7h-4l-2 4 1 3-3 3-2-6v-6l4-1 1-3h-3l1-2-2-2z" fill="#7D7E7B"/>
<path transform="translate(419,644)" d="m0 0h3v2h4v2h4l1 4h-5l1 4 2 2-3 1v2l-3-1-3-2 1-2-1-1-1-2 3-2-1-3h-2z" fill="#7D7D7B"/>
<path transform="translate(1472,489)" d="m0 0 4 1 12 7 11 6 18 11 4 4-5-2-14-8-17-10-13-8z" fill="#E5E5E5"/>
<path transform="translate(1613,770)" d="m0 0h4v3l-3 2-2 1v2h2l1 5-7 1v-4h2v-2h-5l-1-3 5-3z" fill="#7D7E7B"/>
<path transform="translate(923,191)" d="m0 0 4 1-4 2-6 11-11 19-8 13-1-2 10-18 9-15 5-9z" fill="#E5E5E5"/>
<path transform="translate(625,1159)" d="m0 0 4 1-1 5-3 3-1 3h-3v2h-3l-1-3-2-1 1-3 4 1 1-4h2v-3z" fill="#7C7D7A"/>
<path transform="translate(304,1150)" d="m0 0 5 3v2h-2l1 3 4-1v5l-6 1-3-4-5-3 1-3 4-1z" fill="#7D7E7B"/>
<path transform="translate(999,1086)" d="m0 0 5 1v6h3v-2h2l-2 4-4 4 1-3-4-1 1 4h-3l-2-5z" fill="#E5E5E5"/>
<path transform="translate(613,1149)" d="m0 0 5 1 4 9-4-1 1-3h-3l1 9h-5l-1-4-2-5 5-1-2-3z" fill="#7E7F7C"/>
<path transform="translate(727,1468)" d="m0 0h8l4 2-9 2h-2l-1 3-3 1-1-2-7-1-1-3z" fill="#E5E5E5"/>
<path transform="translate(1390,460)" d="m0 0 3 1-24 13-22 13h-2v-2l28-16z" fill="#E5E5E5"/>
<path transform="translate(1239,917)" d="m0 0 4 1-2 9-2 6-1 10-2-1v-9l1-5 1-2h2l-1-5-4 1-8 5-3-1z" fill="#E5E5E5"/>
<path transform="translate(1690,524)" d="m0 0 5 1 5 3 12 7 11 6 11 7-3 1-13-8-11-6-12-7z" fill="#E5E5E5"/>
<path transform="translate(1607,499)" d="m0 0 6 2 9 6 11 6 2 2-4-1-10-5-7-5-4-2-6 1-14 8-3-1 14-8z" fill="#E5E5E5"/>
<path transform="translate(417,1383)" d="m0 0h2l7 14 8 13 6 10v-2l3 1-2 2h-4l-20-36z" fill="#E5E5E5"/>
<path transform="translate(317,1016)" d="m0 0 5 2 6 4-1 3-1-2-3 2h-4l2 4h-4l-1-4-1-3 3-2-2-1z" fill="#7D7E7B"/>
<path transform="translate(1072,617)" d="m0 0h2l5 6 2 4 4 5 12 22-1 4-7-14-11-17-6-8z" fill="#E5E5E5"/>
<path transform="translate(427,948)" d="m0 0 3 1 2 4 2-2h4l1 4-2 6h-3v-3l-5-1-3-5z" fill="#7D7E7B"/>
<path transform="translate(384,660)" d="m0 0h4v2l6 2 13 8 13 7 4 4-4-1-23-13-13-8z" fill="#E5E5E5"/>
<path transform="translate(1157,1133)" d="m0 0 1 4h4l2-2 2 4 2 1-2 4-3 3h-2l1-3-3-1-1-2-4-1 1-4z" fill="#7E7F7C"/>
<path transform="translate(650,408)" d="m0 0h3l1 2h5l1 5-1 1-1 7h-2v-2h-2l-1-7-3-1-1-4z" fill="#E9E9E9"/>
<path transform="translate(683,388)" d="m0 0 4 1 1 3 2-1 4 2 1 3 2 1v6l-4 1 1-4 1-2h-2v-3l-6 2-4-2-1-6z" fill="#E5E5E5"/>
<path transform="translate(677,357)" d="m0 0 4 1 17 9 21 12 3 1v2l-5-2-19-10-21-12z" fill="#E5E5E5"/>
<path transform="translate(298,1175)" d="m0 0 2 1 2-1 5 2-2 2 2 2h-2l-2 4-4-1-8 2v-4l6-1 2 1-2-6z" fill="#7D7E7B"/>
<path transform="translate(977,949)" d="m0 0h6l5 2v2h-3l-1 5-8-1-1-2z" fill="#E5E5E5"/>
<path transform="translate(771,381)" d="m0 0h1l1 11 2 1-1 2-3 3-3-1-1-5-1-3 2-5h3z" fill="#7E7F7C"/>
<path transform="translate(865,253)" d="m0 0 4 1 5 3 1 4-2 2-13 5-15 7-3-1 14-7 16-7 1-2-5-2z" fill="#E5E5E5"/>
<path transform="translate(984,1113)" d="m0 0 5 1-3 1v3l3-1-2 4-6 7h-2l-2 4v-3l1-2h2l-1-2h-2v-4l5 2-2-4 3-1z" fill="#E5E5E5"/>
<path transform="translate(1289,517)" d="m0 0 4 2v2l3 1-5 2-1-2-2 2h-3-3l-3 3h-3v-3l5-5h3l2 2v-3z" fill="#7D7E7B"/>
<path transform="translate(1344,888)" d="m0 0 4 5 1 3 2 1-4 4-3 1-3-4 1-6z" fill="#E5E5E5"/>
<path transform="translate(1160,436)" d="m0 0 4 2 11 11 7 3 9-6 5-3v2l-13 10-4-1-3-1v-2l-4-2-12-12z" fill="#E5E5E5"/>
<path transform="translate(769,404)" d="m0 0 1 3-1 5 4 2v3l-3-1-2 3-6-2-1-5 5 1 1-6-2-1z" fill="#7D7E7B"/>
<path transform="translate(612,390)" d="m0 0 4 1 9 5 4 2v2l4 1 9 6 8 8-1 2-10-10-16-9-11-7z" fill="#E5E5E5"/>
<path transform="translate(386,812)" d="m0 0h3l-1 7h-2v6l-2 1-1 3h-4l1-6h3v-8h2z" fill="#7E7F7C"/>
<path transform="translate(1122,357)" d="m0 0 1 4-7 21-1 6v11l-3-2v-11h2v-9l4-9z" fill="#E5E5E5"/>
<path transform="translate(992,206)" d="m0 0 9 1 20 8 7 4-3 1-9-5-11-4-7-2v2l-4-2z" fill="#E5E5E5"/>
<path transform="translate(356,1386)" d="m0 0 5 2-1 2-3-1-2 5-6-1 2 1v2h-3l-2-5-2-1 2-2 8 1v-2z" fill="#7B7C79"/>
<path transform="translate(283,787)" d="m0 0 3 1v3l2-2 2 2 1-1h5v3l-7 1v2h-3l-1-2-4 2v-2l-3-1 4-3z" fill="#7B7C79"/>
<path transform="translate(399,638)" d="m0 0h4v5h5l1 3 3 1-2 1-3-1-5 1v-2l-4-2-2-4h2z" fill="#7D7E7B"/>
<path transform="translate(892,1501)" d="m0 0 5 1 1 2h-2l1 6-4 2-3-1 1-4-3-1v-3l3-1z" fill="#747472"/>
<path transform="translate(964,1349)" d="m0 0 1 2 4 1v3l-3-1-1 2-4 1-3 1-2 3-4-1 4-5z" fill="#777875"/>
<path transform="translate(344,661)" d="m0 0 5 2 14 8 18 10 3 3-4-1-14-8-14-7-8-5z" fill="#E5E5E5"/>
<path transform="translate(1103,908)" d="m0 0h6v6l1-2h5l-2 2 7 2v1h-8l-3 1-5-1 1-3z" fill="#747472"/>
<path transform="translate(1310,659)" d="m0 0 1 2-12 7-18 12-4 2-3-1 18-11 16-10z" fill="#E5E5E5"/>
<path transform="translate(1296,522)" d="m0 0h8v2l3 3-2 2-5 1-2-1v3h-2l-2-5 2-1z" fill="#7D7E7B"/>
<path transform="translate(620,364)" d="m0 0 2 1-8 6-5 3-7 5h-2v3l5 2 7 5-2 1-12-8 1-4 10-7z" fill="#E5E5E5"/>
<path transform="translate(376,1405)" d="m0 0 4 1 2 4-1 2 2 1-1 3h-2v-2h-2v-2l-7-2-2-3 2-1 4 1z" fill="#7D7E7B"/>
<path transform="translate(1111,695)" d="m0 0 2 2 3 10 2 17 4-2 3 1-6 4-4-2-2-17-2-8z" fill="#E5E5E5"/>
<path transform="translate(1688,546)" d="m0 0 6 2 13 8 8 4-2 4-5 3-2-1 4-3h2v-2l-12-6-5-3v-2l-4-1z" fill="#E5E5E5"/>
<path transform="translate(875,1193)" d="m0 0 8 2v3l-11 3-3-3z" fill="#E5E5E5"/>
<path transform="translate(939,1178)" d="m0 0h3l1 4h3v3l-6 1 1 3-3 1v-5l-2-1h2v-2h-2v-3z" fill="#7E7F7C"/>
<path transform="translate(1405,475)" d="m0 0 5 1 13 7 6 4-3 1-7-4v-2l-4-1-6-3-5 1-9 5-3-1 12-7z" fill="#E5E5E5"/>
<path transform="translate(1021,282)" d="m0 0 1 2-12 22-8 15-1-3 10-19 5-9z" fill="#E5E5E5"/>
<path transform="translate(1066,242)" d="m0 0 9 5 4 4-3 1-11-5-7-2 3-2 5 1z" fill="#E6E6E6"/>
<path transform="translate(1602,788)" d="m0 0 1 2 4-1-1 4-3-1v4h2v-2h2l-1 8h-4l-3-10h2z" fill="#747472"/>
<path transform="translate(1151,925)" d="m0 0h6l-4 4-9 4h-2v2h-5l4-5z" fill="#767774"/>
<path transform="translate(935,583)" d="m0 0 4 5 7 14 6 16-1 4-2-5-7-19-6-11z" fill="#E5E5E5"/>
<path transform="translate(1147,897)" d="m0 0h5l-1 4-3 1-1 3 3 2v2h-2v-2h-4v-2h-5v-2h4v-3l4-1z" fill="#7E7F7C"/>
<path transform="translate(307,641)" d="m0 0 5 2 14 7 14 8-3 1-12-6v-2l-6-1-9-6z" fill="#E5E5E5"/>
<path transform="translate(1267,527)" d="m0 0h2l-2 4-20 26-1-3 2-3h2l2-4 11-14z" fill="#E5E5E5"/>
<path transform="translate(1018,298)" d="m0 0h2l2 6h2l1-2 1 5v4l-7-1-1-3-2-1 3-2z" fill="#7C7D7A"/>
<path transform="translate(1114,942)" d="m0 0 4 1-17 8-8 3-6-1-3-3 5 1 6 1v-2l9-3z" fill="#E5E5E5"/>
<path transform="translate(1269,899)" d="m0 0h6v1h-5l-1 5-4 7-2 12 3 2v2l-4-2-1-1v-8l5-12z" fill="#E5E5E5"/>
<path transform="translate(293,968)" d="m0 0 6 3-1 3 2 2 1 3-4 1-2 2-2-4v-4h2v-2l-3-1z" fill="#E5E5E5"/>
<path transform="translate(406,595)" d="m0 0 1 3-12 21v2l3 2v2l-5-2-1-5 7-10 6-11z" fill="#E5E5E5"/>
<path transform="translate(310,1351)" d="m0 0 9 5 20 12 2 3-5-2-17-10-9-6z" fill="#E5E5E5"/>
<path transform="translate(1070,977)" d="m0 0h1l-1 9-2 5h-3v-9z" fill="#F5F5F5"/>
<path transform="translate(1111,889)" d="m0 0h12l5 1-3 2-14 1-4 1 2-4z" fill="#747472"/>
<path transform="translate(991,632)" d="m0 0 7 2 3 3 2 1v3h-2l-1 2h-2v-3l-4-1v-2l-2-1 1-2-3-1z" fill="#E5E5E5"/>
<path transform="translate(361,1313)" d="m0 0 4 1 3 1v2h4l1-2h6v-2h2l-2 4-4 4-6-2-8-5z" fill="#E7E7E7"/>
<path transform="translate(966,1358)" d="m0 0 2 4v7h-2l-2 4-7 1v-3l5-2v-2h3l1-6-2-1z" fill="#7D7E7B"/>
<path transform="translate(293,1285)" d="m0 0 3 1-2 4 1 5 2 1-5-1-5-3v-2l-5-1v-3l3 1v2h4v2l3-3z" fill="#7E7F7C"/>
<path transform="translate(936,906)" d="m0 0h2l1 1h3l-1 2-3 1-1 2 2 1v7l-3 1-1-3-2-2 2-6z" fill="#7E7F7C"/>
<path transform="translate(1144,780)" d="m0 0 4 2-1 2-3 1-1 6 1 5-4 2-1-5 1-3-1-2 1-2h2z" fill="#7E7F7C"/>
<path transform="translate(449,682)" d="m0 0h4v2l6 2v2l2 1h-10l-3-2z" fill="#FBFBFB"/>
<path transform="translate(585,487)" d="m0 0v3l-8 8-3 4h-2l-2 4-7 7-2-1 9-9 7-8z" fill="#E5E5E5"/>
<path transform="translate(571,1407)" d="m0 0 4 1 5 6-3 3-4 1v3h-2v-2l-2-1 4-7z" fill="#7D7E7B"/>
<path transform="translate(1016,909)" d="m0 0 4 1 11 6 2 1v-4l4 1v7l-7-3-14-8z" fill="#E5E5E5"/>
<path transform="translate(362,639)" d="m0 0h15l6 2v2l2 1-3 2-2-3-4 1-5-1-1-2-8-1z" fill="#FBFBFB"/>
<path transform="translate(1472,633)" d="m0 0 3 1-21 12-4-1-7-4 2-1 6 3 6-1 11-7z" fill="#E5E5E5"/>
<path transform="translate(533,587)" d="m0 0 5 1 6 2v5l-1-2-4 1-7-2 2-1-3-2z" fill="#7C7D7A"/>
<path transform="translate(993,559)" d="m0 0h5l8 4 17 9 1 2-4-1-16-8-11-5z" fill="#E5E5E5"/>
<path transform="translate(1109,1328)" d="m0 0 8 2v-2h2v4h-3l-1 3-8-1 1-5z" fill="#7E7F7C"/>
<path transform="translate(1328,912)" d="m0 0 5 1v3l-8 2v5h-2l-2-4 3-5z" fill="#7D7E7B"/>
<path transform="translate(498,588)" d="m0 0 3 1 1 2 4 2-1 6-4-2-3-2z" fill="#E5E5E5"/>
<path transform="translate(401,1293)" d="m0 0 1 3 7-1 2 1v4l-8 1-1-4-3-1z" fill="#7E7F7C"/>
<path transform="translate(342,949)" d="m0 0h2v6l6-2v3l1 3-3 3-4-1-1-10-2-1z" fill="#E5E5E5"/>
<path transform="translate(1296,721)" d="m0 0m-1 1m-2 1h2v3l3 1v4l2 1-5 1-3-1-1 3-2-4 4-2v-2l-2-2z" fill="#747472"/>
<path transform="translate(823,597)" d="m0 0 3 1-10 6-10 5-7 5-3-1 12-8 10-5z" fill="#E5E5E5"/>
<path transform="translate(1620,773)" d="m0 0 8 1-2 4-4-1-1 4-5 1 2-6z" fill="#7D7E7B"/>
<path transform="translate(1400,625)" d="m0 0h4l-2 6-3 3-2-1v-2h-4l1-3h6z" fill="#7D7E7B"/>
<path transform="translate(408,428)" d="m0 0 5 2 3 4-1 3h-5l-2-2v-3l-2-1z" fill="#7D7E7B"/>
<path transform="translate(927,193)" d="m0 0 4 1 18 11 6 4-3 1-7-5-7-4-11-7z" fill="#E5E5E5"/>
<path transform="translate(1149,1145)" d="m0 0h3v2l4-2 4 4-1 2h-2-5v-2l-5 2v-2h2z" fill="#7E7F7C"/>
<path transform="translate(362,1391)" d="m0 0 2 3h3l-2 6h2v2l-7-1 1-9z" fill="#747472"/>
<path transform="translate(703,256)" d="m0 0 4 1 15 8 7 5-2 1-21-12z" fill="#E5E5E5"/>
<path transform="translate(718,197)" d="m0 0v3l-1 3-8 1-3-1 1-3 10-2z" fill="#7D7E7B"/>
<path transform="translate(1305,902)" d="m0 0h4l1 3v-3h2v4h5l-1 2-6 1-6-2z" fill="#7B7C79"/>
<path transform="translate(1197,809)" d="m0 0 1 4h2v8l-2-1-1 7h-1l-1-13z" fill="#7C7D7A"/>
<path transform="translate(762,389)" d="m0 0h1v15l-5 3-1-2-5-2v-2l6 1 4 1z" fill="#7A7B78"/>
<path transform="translate(1229,395)" d="m0 0 1 4 2 6-7-1-1-5v-2z" fill="#7C7D7A"/>
<path transform="translate(632,1197)" d="m0 0 7 6 13 13h-3l-5-5-3-2v-2l-4-2-5-6z" fill="#E5E5E5"/>
<path transform="translate(637,768)" d="m0 0 6 2-4 3-1 3-3 1-1-3-3-1v-4l6 1z" fill="#7D7E7B"/>
<path transform="translate(429,696)" d="m0 0 2 4 2 3-4 1-2 3-2-2h-2v-2h2l2-6z" fill="#7E7F7C"/>
<path transform="translate(544,487)" d="m0 0h4l-2 5-4 2v4l-5-1 5-8h2z" fill="#E5E5E5"/>
<path transform="translate(419,472)" d="m0 0 5 3 14 8-4 1v-2l-4-1-8-4-2 2-2-5z" fill="#E6E6E6"/>
<path transform="translate(918,936)" d="m0 0 1 2-8 16-4 7-1-4h2l1-4 6-12 1-4z" fill="#E5E5E5"/>
<path transform="translate(536,662)" d="m0 0h2v9l-3 2-1-3h-2v-4z" fill="#7E7F7C"/>
<path transform="translate(724,402)" d="m0 0 4 2v3h6l3 6-6-2-5-3-4-5z" fill="#777775"/>
<path transform="translate(996,1350)" d="m0 0 5 2 3 4-1 4-7-5-1-4z" fill="#ECECEC"/>
<path transform="translate(1162,703)" d="m0 0 2 2-10 5-13 6-3-1 11-6 10-4h3z" fill="#E5E5E5"/>
<path transform="translate(692,672)" d="m0 0h2l-2 4-9 10-5 5 2-5 9-10 1-2h2z" fill="#E5E5E5"/>
<path transform="translate(994,622)" d="m0 0 8 1v5l-7-1-2-3z" fill="#E5E5E5"/>
<path transform="translate(920,320)" d="m0 0 4 1 1 2h-2l1 8v16h-1l-2-17z" fill="#E5E5E5"/>
<path transform="translate(312,1291)" d="m0 0 4 1 1 3h-2v12h-1v-5h-2l-1-4 3-1v-2h-2z" fill="#7E7F7C"/>
<path transform="translate(812,1238)" d="m0 0 4 1 4 2 2 4-9-1-2-1z" fill="#7D7E7B"/>
<path transform="translate(318,1011)" d="m0 0 6 2 12 7 3-2 3 1-5 3-5-1-14-9z" fill="#E5E5E5"/>
<path transform="translate(885,993)" d="m0 0v3l-12 18-2 1 2-5 3-5 2-4 6-7z" fill="#E5E5E5"/>
<path transform="translate(241,980)" d="m0 0 4 1 5 5v2h3v2l-7-1-1-5-4-1z" fill="#7E7F7C"/>
<path transform="translate(998,1367)" d="m0 0 4 1v2h2v5h-3l1-4h-3v3l-4-1 2-4z" fill="#7E7F7C"/>
<path transform="translate(1156,896)" d="m0 0 5 1 1 2-3 2 1 4-6-3 1-5z" fill="#7E7F7C"/>
<path transform="translate(422,652)" d="m0 0h3l2 4 2 2-3 1v2l-3-1-3-2 1-2-1-1-1-2z" fill="#7E7F7C"/>
<path transform="translate(560,513)" d="m0 0v3l-7 9h-2v10l-2-3-1-5 11-13z" fill="#E5E5E5"/>
<path transform="translate(552,362)" d="m0 0 4 1-1 4-1 3-3 1-2 3-1-2 1-6h3z" fill="#7E7F7C"/>
<path transform="translate(326,1359)" d="m0 0 5 1 5 3v2h2l1 3-5-2-8-5z" fill="#FBFBFB"/>
<path transform="translate(303,1287)" d="m0 0 5 1 3 2-7 3h-4l2-4z" fill="#7E7F7C"/>
<path transform="translate(1513,947)" d="m0 0 3 2 3 1-1 4-3-1 1 3-3 1-2-4z" fill="#7D7E7B"/>
<path transform="translate(1026,853)" d="m0 0h2v2l6 1v3l-3 1-3-2v3l3 1h-4l-2-5z" fill="#7E7F7C"/>
<path transform="translate(1295,445)" d="m0 0h3v2h2l2 5 1 4h-3l-3-4v-4h-2z" fill="#7E7F7C"/>
<path transform="translate(298,1167)" d="m0 0 2 8-4 2-1-3h-2v-4z" fill="#747472"/>
<path transform="translate(382,957)" d="m0 0 3 1 2 6h-4l-3-1v-2l-2-1z" fill="#7C7D7A"/>
<path transform="translate(1139,931)" d="m0 0 2 1-5 5-5 6h-2l1-4 2-1-2-2z" fill="#7A7B78"/>
<path transform="translate(1255,890)" d="m0 0h5l1 5 3 1 1 3h-5l-2-3 1-3-4-1z" fill="#7D7E7B"/>
<path transform="translate(989,882)" d="m0 0h5l-4 4h-2l-2 4-6-3 3-3h6z" fill="#FAFAFA"/>
<path transform="translate(1058,601)" d="m0 0h2v2h2v2h2v2h3l1 5 3-1 1 6-5-4-7-8z" fill="#E5E5E5"/>
<path transform="translate(466,1431)" d="m0 0h2l1 2 5 3-1 2-6-1-3-2z" fill="#E5E5E5"/>
<path transform="translate(308,1163)" d="m0 0h3l3 5v5h-3v-2l-3-1v-3h2z" fill="#7D7E7B"/>
<path transform="translate(745,430)" d="m0 0 3 1h-2v2l6-1 1 4-2 3-4-2v-3l-3-1z" fill="#7C7D7A"/>
<path transform="translate(926,267)" d="m0 0 5 1 4 1h2v2l-5 1-1 3-2-1-1-5h-2z" fill="#E5E5E5"/>
<path transform="translate(1134,262)" d="m0 0 2 1v2l4 1-1 3-6 2-1-8z" fill="#7E7F7C"/>
<path transform="translate(664,241)" d="m0 0 1 3 6-1 1 3-4 4-4-2z" fill="#7D7E7B"/>
<path transform="translate(294,816)" d="m0 0 4 1h4l-2 5h-5l-1-1z" fill="#7E7F7C"/>
<path transform="translate(382,1198)" d="m0 0 9 3 2 4h-7v-3l-5-1z" fill="#7D7E7B"/>
<path transform="translate(627,1174)" d="m0 0 3 3-2 6-3-1v-4l-3-1 2-2h2z" fill="#7E7F7C"/>
<path transform="translate(1147,912)" d="m0 0 4 1 10 5-1 4-7 2 5-5-11-6z" fill="#E5E5E5"/>
<path transform="translate(1043,810)" d="m0 0h6l1 6h-5z" fill="#E5E5E5"/>
<path transform="translate(341,801)" d="m0 0 4 2h5v4h-5l-6-3z" fill="#E5E5E5"/>
<path transform="translate(297,791)" d="m0 0 6 2 4 3v2h-6v-2l-4-1z" fill="#7E7F7C"/>
<path transform="translate(1282,518)" d="m0 0 3 3-1 3h-2l-3 3h-3v-3l5-5z" fill="#7E7F7C"/>
<path transform="translate(676,362)" d="m0 0 3 1 1 3-2 4-3 1-2-2v-3l2-1z" fill="#7E7F7C"/>
<path transform="translate(936,1376)" d="m0 0h9v3l-3 1v4h-2l-1-4-3-1z" fill="#7D7E7B"/>
<path transform="translate(813,1166)" d="m0 0 9 1 1 2-9 2-1 2z" fill="#E5E5E5"/>
<path transform="translate(1257,1103)" d="m0 0 4 2 3 1v4l-4 1-1-3h-2l-1-4z" fill="#7D7E7B"/>
<path transform="translate(1269,1076)" d="m0 0 3 1 1 3-2 5h-4z" fill="#7D7E7B"/>
<path transform="translate(230 1e3)" d="m0 0 7 1 2 3-1 2h-2v-2h-5l-1 3-1-1v-5z" fill="#E5E5E5"/>
<path transform="translate(241,972)" d="m0 0h4l1 3 4 1v2h-3l-1 2-5-4z" fill="#7E7F7C"/>
<path transform="translate(951,569)" d="m0 0 5 1 8 1 5 2v1l-9-1-7-1-1 4-2-5z" fill="#7E7F7C"/>
<path transform="translate(738,396)" d="m0 0h2v2l-2 1v5h-6l-1-3 2-3z" fill="#747472"/>
<path transform="translate(960,306)" d="m0 0h5l1 5-4 2-3-6z" fill="#E5E5E5"/>
<path transform="translate(886,1502)" d="m0 0 2 1 1 3 2 1-1 4 2 1-4 1-2-4v-3l-2-2z" fill="#7D7E7B"/>
<path transform="translate(1316,883)" d="m0 0h3l-2 4-2 2h-7l3-4z" fill="#E5E5E5"/>
<path transform="translate(1241,677)" d="m0 0 4 2 2 2v3h-3l-2 3-3-1 3-1z" fill="#7D7E7B"/>
<path transform="translate(334,1102)" d="m0 0h2l1 5-2 4-3 1-2-2h2l1-5z" fill="#747472"/>
<path transform="translate(237,966)" d="m0 0 5 2 6 3v1h-8l-3-3z" fill="#787876"/>
<path transform="translate(262,914)" d="m0 0 4 1 2 4h-2l-1 3h-2l-2-4z" fill="#7E7F7C"/>
<path transform="translate(1074,905)" d="m0 0 10 5v3l-10-4z" fill="#E5E5E5"/>
<path transform="translate(961,560)" d="m0 0 4 1-1 6-5 1-1-1-1-3h4z" fill="#7D7E7B"/>
<path transform="translate(1287,514)" d="m0 0h4l2 5-7-1v3l-3-1 2-4z" fill="#747572"/>
<path transform="translate(501,503)" d="m0 0 3 1-2 7-4-2v-5z" fill="#747472"/>
<path transform="translate(1142,405)" d="m0 0 2 1-1 9-3-2v-2h-2v-2h2z" fill="#7E7F7C"/>
<path transform="translate(602,395)" d="m0 0h6l-2 4h-2v5l-3-1z" fill="#7E7F7C"/>
<path transform="translate(300,1294)" d="m0 0 3 3h4v5l-10-5z" fill="#7E7F7C"/>
<path transform="translate(219,1052)" d="m0 0 2 1 1 7-4 2-1-7z" fill="#E5E5E5"/>
<path transform="translate(948,555)" d="m0 0 3 3 1 4h-2v5l-2-4v-2h-3l1-3z" fill="#7E7F7C"/>
<path transform="translate(738,444)" d="m0 0 2 1-1 7-1-2-3 1-2-5z" fill="#7E7F7C"/>
<path transform="translate(733,389)" d="m0 0 6 2 4 4-5 1-1-3h-3z" fill="#797977"/>
<path transform="translate(412,1285)" d="m0 0h3v8h-5v-5h2z" fill="#7E7F7C"/>
<path transform="translate(802,1117)" d="m0 0 5 1v2l-5 4-3-1 2-5z" fill="#E5E5E5"/>
<path transform="translate(984,1113)" d="m0 0 5 1-3 1-2 7-4-2 1-2h2z" fill="#E8E8E8"/>
<path transform="translate(639,795)" d="m0 0 1 3-3 5-4 10-2 1 1-4 5-12z" fill="#E5E5E5"/>
<path transform="translate(1150,413)" d="m0 0 3 1-1 7-6-2 2-4z" fill="#7E7F7C"/>
<path transform="translate(967,312)" d="m0 0 5 1-1 7-4-1-1-4z" fill="#E5E5E5"/>
<path transform="translate(790,1242)" d="m0 0 4 1-1 2-3 1-2 3-5-2 2-2 2 1 1-3z" fill="#7E7F7C"/>
<path transform="translate(287,1221)" d="m0 0h6l-3 7h-3z" fill="#E5E5E5"/>
<path transform="translate(334,1026)" d="m0 0h2v3l3 1-2 2h-5l-1-4z" fill="#7E7F7C"/>
<path transform="translate(953,872)" d="m0 0h6l-4 2-10 6h-3l7-6z" fill="#E5E5E5"/>
<path transform="translate(1016,853)" d="m0 0 1 3h6l-1 5-7-3z" fill="#7D7E7B"/>
<path transform="translate(1376,684)" d="m0 0h6l1 2 3 2-7 2z" fill="#7D7E7B"/>
<path transform="translate(1145,402)" d="m0 0 4 2 1 5-4 2z" fill="#7E7F7C"/>
<path transform="translate(713,308)" d="m0 0 3 1 4 5-4 4-2-4z" fill="#E5E5E5"/>
<path transform="translate(345,1388)" d="m0 0h4l3 4-3 1 2 1v2h-3l-2-5-2-1z" fill="#7E7F7C"/>
<path transform="translate(271,1246)" d="m0 0 5 5-2 1 1 3-2 1v-2l-4-2v-2h2z" fill="#FBFBFB"/>
<path transform="translate(356,1241)" d="m0 0 10 1-1 4-6-2z" fill="#E5E5E5"/>
<path transform="translate(272,1151)" d="m0 0 4 1 12 7 1 2-5-2-9-5z" fill="#E5E5E5"/>
<path transform="translate(1414,860)" d="m0 0h5v3l-1 3-5-1z" fill="#E6E6E6"/>
<path transform="translate(384,604)" d="m0 0 5 2v3l-3 1-5-1 1-4z" fill="#7E7F7C"/>
<path transform="translate(903,239)" d="m0 0h2l1 7h-3l-3-2 2-4z" fill="#E5E5E5"/>
<path transform="translate(272,1312)" d="m0 0 4 1 1 4-2 3v-2l-4-2z" fill="#7E7F7C"/>
<path transform="translate(282,944)" d="m0 0 4 1h-3l2 7-5-1v-5h2z" fill="#E5E5E5"/>
<path transform="translate(318,918)" d="m0 0 1 2-1 5h-2l-1-2-5-1 1-3 2 1z" fill="#7E7F7C"/>
<path transform="translate(1080,848)" d="m0 0 5 2-1 2-5 1-1 2h-2l1-5z" fill="#E5E5E5"/>
<path transform="translate(623,787)" d="m0 0 3 1 3-1-1 3-4 2v3h-2l-1-5z" fill="#7E7F7C"/>
<path transform="translate(1534,611)" d="m0 0 5 1v3l-8 3v-3h2z" fill="#7E7F7C"/>
<path transform="translate(965,596)" d="m0 0 2 1 3 6 3 2-2 1 1 2-2 2-5-11z" fill="#E5E5E5"/>
<path transform="translate(454,557)" d="m0 0 5 1 8 4 2 3-6-2-9-5z" fill="#7D7E7B"/>
<path transform="translate(739,436)" d="m0 0 1 3h2l-2 4-2-1v3l-3-1 2-4z" fill="#7D7E7B"/>
<path transform="translate(1030,296)" d="m0 0 2 2-1 4-2 4h-2l-1-6 3-1z" fill="#7D7E7B"/>
<path transform="translate(288,1159)" d="m0 0 9 3 1 5-2 3-2-1 1-5-7-4z" fill="#7E7F7C"/>
<path transform="translate(1103,915)" d="m0 0 1 2h6l3-1 6 1-4 2h-7l-6-2z" fill="#7E7F7C"/>
<path transform="translate(343,873)" d="m0 0 3 4-4 1-5-1v-2z" fill="#E5E5E5"/>
<path transform="translate(1393,815)" d="m0 0h3l1 3-2 4-4 1 1-4z" fill="#7E7F7C"/>
<path transform="translate(1144,780)" d="m0 0 4 2-1 2-3 1-1 4-4-1 1-2h2z" fill="#7D7E7B"/>
<path transform="translate(1088,658)" d="m0 0 4 2 2 7 1 3-2 1-3-8-2-1z" fill="#7D7E7B"/>
<path transform="translate(1062,648)" d="m0 0 2 1v3l3 2-2 4h-2v-3h-2z" fill="#E5E5E5"/>
<path transform="translate(852,567)" d="m0 0 2 2-5 1v4l-4-1v-3z" fill="#7E7F7C"/>
<path transform="translate(491,509)" d="m0 0 6 2v2l5 1 1 2-5-1-7-4z" fill="#747472"/>
</svg>
