<?xml version="1.0" encoding="UTF-8"?>
<svg version="1.1" viewBox="0 0 1024 1024" width="1024" height="1024" xmlns="http://www.w3.org/2000/svg">
<path transform="translate(0)" d="m0 0h1024v1024h-1024z" fill="#FEFEFE"/>
<path transform="translate(508,94)" d="m0 0 6 1 24 12 23 13 11 6 5-1 17-8 16-8 14-8 14-6h7l17 9 21 12 12 7 11 6 16 9 14 7 12 7 14 7 19 11 18 10 11 7 10 5 12 7 2 3 1 65 4 4 17 8 6 4 1 11 1 63 6 5 9 5 2 5 1 24v45l-3 6-25 14-19 11-1 74-3 5-16 10-14 7-8 5-11 6-14 8-11 6-10 6-11 6-18 10-17 9-17 10-11 6-27 15-8 4h-6l-16-8-21-12-16-8-3-2-5 1-12 7-11 6-24 13-6 3-7-1-14-7-18-11-14-7-10-6-6-4h-7l-8 11-1 5v6l-12 14-8 10h-2l-2 4-12 13-9 11-11 12-2 3h-2l-2 4-12 13-7 9-5 5-13 15-12 13-7 8-13 16-13 14-7 8-3 4h-2l-2 4-9 10-6 8-12 13-1 2h-2l-2 4-9 9-7 9-7 8-3 2-7-1-10-5-20-12-17-10-11-6-6-7-9-32-6-22v-12l13-15 2-3h2l2-4 8-10h2l2-4 12-13 9-11 12-13 7-8 8-10h2l2-4 13-14 1-2h2l2-4 9-10 9-11 9-10 7-8 9-10 7-8 11-12 2-3h2l2-4 9-10 7-9h2l2-4 8-9-1-4-10-7-1-1-1-74-3-3-15-9-21-12-6-4-2-6 1-69 6-7 10-6 1-1 1-51 1-20 3-5 16-8 7-4 2-68 4-4 16-8 10-6 10-5 12-7 11-6 16-9 11-6 24-13 18-10 24-13 17-10 14-7z" fill="#6B6B6B"/>
<path transform="translate(572,208)" d="m0 0 6 1 14 8 28 17 14 8 10-3 7 3 15 8 27 16 18 11 14 7 9 6 12 7 12 8 2 3 1 20 1 2 10 4 1 1 1 17-1 10-6 5-2 3v71l-10 7-14 8-10 5-12 7-14 7-20 11-14 7-16 10-10 5-13 7h-9l-14 7-12 7-17 8-4 2-8-1-18-11-11-6-12-7h-10l-16-9-15-8-14-8-14-7-12-7-14-7-23-13-15-8-10-6-1-71-5-6-2-1-1-3v-23l1-3 9-5 2-6 1-13 5-5 16-10 23-14 9-6 20-12 26-16 14-9h6l5 2h7l11-7 10-7 20-12z" fill="#6B6B6B"/>
<path transform="translate(572,208)" d="m0 0 6 1 14 8 28 17 14 8 10-3 7 3 15 8 27 16 18 11 14 7 9 6 12 7 12 8 2 3 1 20 1 2 10 4 1 1 1 17-1 10-6 5-2 3v71l-10 7-14 8-10 5-12 7-14 7-20 11-14 7-16 10-10 5-13 7h-9l-14 7-12 7-17 8-4 2-8-1-18-11-11-6-12-7h-10l-16-9-15-8-14-8-14-7-12-7-14-7-23-13-15-8-10-6-1-71-5-6-2-1-1-3v-23l1-3 9-5 2-6 1-13 5-5 16-10 23-14 9-6 20-12 26-16 14-9h6l5 2h7l11-7 10-7 20-12zm0 13-14 8-18 11-14 7-15 9-14 8-16 10-17 10-20 12-5 4-1 2v143l1 7 4 4 11 6 10 6 11 6 18 10 12 7 11 6 10 6 11 6 28 17 10 4 10-4 23-13 6-4 3-1v-2l5-1 16-10 11-6 18-10 11-7 11-6 20-12 2-2v-153l-8-6-15-9-11-6-18-11-11-6-18-10-11-7-10-5-14-8-16-9z" fill="#FEFEFE"/>
<path transform="translate(348,555)" d="m0 0h6l7 5 9 5 21 13 6 4v5l-8 7-12 13-9 11-15 16-7 8-8 10h-2l-2 4-10 11-1 2h-2l-2 4-9 10-7 9-5 5-4 5h-2l-2 4-9 10-2 3h-2l-2 4-12 13-7 8-12 14-8 10h-2l-2 4-10 11-9 11-13 15h-2l-1 3-7-1-10-6-27-16-4-2-1-3 1-2h2l2-4 18-20 1-2h2l2-4 10-11 1-2h2l2-4 15-16 9-11 9-10 7-8 8-10h2l2-4 13-14 1-2h2l2-4 11-13 2-3h2l2-4 5-6h2l2-4 2-3h2l2-4 11-12 8-10 10-11 8-10h2l2-4 11-12z" fill="#FEFEFE"/>
<path transform="translate(574,236)" d="m0 0 7 2 9 5 13 8 14 7 8 5 11 6 40 24 12 7 2 4-11 7-11 6-32 19-27 16-18 10-11 7-5 1-11-6-18-10-26-16-14-7-18-11-11-6-16-10v-2l14-9 11-6 32-19 16-10 11-6 24-13z" fill="#FEFEFE"/>
<path transform="translate(697,315)" d="m0 0 2 1v127l-6 5-18 10-19 11-18 11-11 6-16 9-20 12-5 4h-4v-127l4-4 32-19 16-10 11-6 32-19 10-6 6-4z" fill="#FEFEFE"/>
<path transform="translate(452,316)" d="m0 0h5l10 7 12 7 11 6 18 10 11 7 11 6 18 10 20 12 1 2v126l-4 1-32-19-16-9-24-14-14-8-14-7-11-7-2-2z" fill="#FEFEFE"/>
<path transform="translate(406,596)" d="m0 0 2 1 9 34 1 10-8 10-5 7h-2l-2 4-14 15-9 10-9 11-9 10-9 11-16 17-9 10-10 11-7 8-12 14-10 11-5 7h-2l-2 4-10 11-7 8-9 10-9 11-11 12-7 8-5 6-4 1-4-15-5-16-3-13 6-8 13-14 7-8 12-14 3-4h2l2-4 9-10 7-8 3-4h2l2-4 13-14 1-2h2l2-4 12-13 9-11 9-10 7-8 13-14 1-2h2l2-4 9-10 9-11 7-9 5-5 24-26 4-5z" fill="#FEFEFE"/>
<path transform="translate(815,488)" d="m0 0h5l1 18v13l-1 22-3 3-14 7-18 11-11 6-24 13-20 11-12 7-14 7-20 12-12 7-10 5-17 10h-4v-55l8-5 17-9 12-7 11-6 10-6 11-6 24-13 12-7 14-7 23-13 15-9 10-5z" fill="#FEFEFE"/>
<path transform="translate(372,453)" d="m0 0h6l24 12 14 8 22 12 14 8 16 8 15 8 14 8 8 5 15 8 7-1 16 8 13 8 1 4-10 7-18 10-11 7-6-1-12-7-11-6-28-15-13-8-14-7-16-9-17-10-14-7-14-8-14-7-15-9-6-3 1-5 15-8 12-7z" fill="#FEFEFE"/>
<path transform="translate(772,453)" d="m0 0h7l16 9 14 8 2 1v5l-17 10-14 7-9 5-14 8-14 7-21 13-10 5-28 16-14 7-8 5-11 6-14 7-5-1-11-5-12-7-11-6-7-4 2-4 11-7 10-5 7-4h11l14-7 13-8 11-6 14-8 16-8 15-8 12-7 10-5 17-10 17-8z" fill="#FEFEFE"/>
<path transform="translate(639,109)" d="m0 0 10 4 12 7 14 7 8 5 11 6 13 7 17 9 12 7 14 7 9 5 11 6 13 8 16 8 11 7 2 3-9 6-27 15-23-12-12-7-11-6-10-6-11-6-16-9-14-7-12-7-11-6-9-3-8 4-4 3-5-1-15-9-11-6-16-10 1-4 16-8 21-10z" fill="#FEFEFE"/>
<path transform="translate(508,109)" d="m0 0 9 3 15 8 16 8 11 6 3 4-18 10-14 7-11 7-6 1-10-6-7 1-17 9-21 12-15 9-10 5-16 10-11 6-27 15-3 2-5-1-15-9-10-5-9-6 1-3 14-8 16-8 12-7 14-7 23-13 16-9 11-6 10-6 14-7 9-5 14-8 14-7z" fill="#FEFEFE"/>
<path transform="translate(648,172)" d="m0 0 7 1 12 7 14 8 23 13 10 5 16 9 10 6 17 10 5 3v4h-2v49l-1 1-7-1-10-7-22-13-21-12-8-5-11-6-21-12-11-6-1-2v-50z" fill="#FEFEFE"/>
<path transform="translate(497,171)" d="m0 0h4v53l-9 6-25 15-26 16-9 5-15 9-21 13-5 2-1-1-1-47-2-2v-5l7-6 10-5 12-7 14-7 12-7 10-5 40-24z" fill="#FEFEFE"/>
<path transform="translate(508,91)" d="m0 0 10 4 12 6 19 10 13 7 10 5 8-1 2-2 10-4 12-7 24-12 5-2 6-3h5l11 6 15 8 16 10 11 5v2l5 1v2l5 1 10 6 6 3 19 10 8 4v2l5 1 6 3v2l5 1 10 6 11 6 15 8v2l5 1 10 6 9 5 2 1v2l5 1 4 5 1 66 5 3 5 2 14 7 3 4 1 21 1 54 4 1 6 3v2l4 2 2 3 1 7v66l-3 5-21 12h-3v2l-6 3-6 4h-3v2l-5 1v74l-3 5-4 3h-2v2l-8 4-2 2-5 2-5 1v2l-10 5-8 5h-3v2l-10 5-11 6-10 6-6 3-4 1v2l-8 4h-3v2l-5 1v2l-5 1v2l-10 5-17 9-6 4h-4v2l-6 3-17 10h-3v2l-8 4-2 2-5 2-6 3-1 1h-10l-2-2-10-4-8-5-2-1v-2l-5-1-9-5-11-6-7-3-7 1-2 2h-4v2l-6 3-15 9-10 5-6 4-7 3h-8l-2-2-5-2-25-15-5-2v-2l-6-1v-2l-5-1-10-6-6-4-4 1-3 4h-2l-1 4-1 1-1 12-10 12h-2l-2 4-4 5h-2l-2 4-5 7h-2l-1 3h-2l-2 4-4 5-5 5-7 9-3 3h-2l-2 4-5 6h-2l-1 3h-2l-2 4-8 10h-2l-2 4-4 5h-2l-2 4-8 10h-2l-1 3h-2l-2 4-4 5h-2l-2 4-8 10h-2l-1 3h-2l-2 4-4 6-7 8h-2l-1 3h-2l-3 6h-2l-1 3h-2l-2 4-2 3h-2l-2 4-5 6h-2l-4 8h-2l-2 4-4 5-3 3h-2l-2 4-13 14-1 2h-2l-2 4-9 11-3 3h-12l-10-6-6-3v-2l-5-2-9-5-6-3v-2l-5-1-5-3v-2l-5-1-9-5-3-4-3-8-2-9-1-1-2-10-3-10-4-13-2-9v-8l3-5h2l1-3h2l2-4 9-11 4-5 5-5 4-5h2l2-4 2-3h2l2-4 5-6h2l3-6h2l2-4 8-10h2l1-3h2l1-3h2l1-3h2l1-4 6-7h2l2-4 4-5 3-3h2l2-4 8-10h2l1-3h2l2-4 7-9h2l2-4 7-8 1-2h2l1-3h2l1-3h2v-3l5-5 2-3h2l1-3h2l2-4 4-5h2l1-3h2l2-4 8-10h2l1-3h2l2-4 9-11 4-5 4-4v-3l-7-4-3-3-2-7v-68l-3-3-7-4v-2l-5-1v-2l-5-1-12-7-9-5-4-4-2-3v-48l1-22 2-7 5-4 9-5 1-1 2-73 6-5 17-8 3-2 1-65 4-6 4-1v-2l6-1v-2l16-8 9-5 12-7 11-6 7-4h3v-2l8-4h3v-2l10-5 8-5h3v-2l16-8 6-4h4v-2l6-3 5-1v-2l10-5 3-2h3v-2l10-5 22-12 5-1v-2zm0 3-16 8-36 20-44 24-15 9-14 7-13 8-14 7-8 5-11 6-15 8-5 3-2 2-2 68-7 4-12 6-6 4-1 3-1 20-1 51-9 6-7 6-1 2-1 69 3 7 15 9 11 6 17 10 1 2 1 74 9 7 3 2-1 4-9 10v2h-2l-9 11-9 10v2h-2l-7 8-12 13-7 8-9 10-8 10-10 11-9 11-3 3v2h-2l-7 8-9 10v2h-2l-9 11-12 13-7 8-12 14-10 11v2h-2l-9 11-1 3h-2l-9 11-6 7v12l4 15 7 24 5 17 8 7 20 11 27 16 10 5h5l7-6 11-14 10-10v-2h2l7-8 9-10 6-8 8-9v-2l3-1 7-8 12-14 9-10 9-11 12-13 7-8 13-15 7-8 11-12 6-7v-2h2l7-8 13-15 9-10 7-8v-2h2l9-11 9-10 2-3v-8l3-6 6-8h7l7 5 14 7 9 5 23 14 11 5 7-1 11-6 19-10 9-5 14-8 4 1 17 8 15 9 18 10 5 2h6l16-8 13-8 11-6 18-10 12-7 14-7 9-5 13-8 11-6 10-6 14-7 11-7 10-5 12-7 11-6 9-6 2-4 1-74 15-9 11-6 18-10 3-6v-45l-1-24-2-5-10-6-5-4-1-63-1-11-9-5-17-9-1-2-1-65-5-5-16-9-11-6-13-8-14-7-13-8-14-7-9-5-14-8-10-5-17-10-14-7-11-7-11-6-17-9h-7l-15 7-19 10-28 14-5-1-10-5-23-13-24-12z" fill="#D5D6D6"/>
<path transform="translate(452,554)" d="m0 0 5 2 15 8 14 8 14 7 7 4 1 2 1 29v24l-5 1-17-10-14-7-9-5-12-7-1-2-1-52z" fill="#FEFEFE"/>
<path transform="translate(580,560)" d="m0 0 7 1 13 8 14 7 9 5 5 4 1 54-5 1-8-5-16-9-14-7-5-4-1-2-1-26v-24z" fill="#FEFEFE"/>
<path transform="translate(562,561)" d="m0 0 4 1 1 2-1 52-5 4-22 12-14 8-4-1v-54l5-4 11-6 18-10z" fill="#FEFEFE"/>
<path transform="translate(572,208)" d="m0 0 6 1 14 8 28 17 14 8 10-3 7 3 15 8 27 16 18 11 14 7 9 6 12 7 12 8 2 3 1 20 1 2 10 4 1 1 1 17-1 10-6 5-2 3v71l-10 7-14 8-10 5-12 7-14 7-20 11-14 7-16 10-10 5-13 7h-9l-14 7-12 7-17 8-4 2-8-1-18-11-11-6-12-7h-10l-16-9-15-8-14-8-14-7-12-7-14-7-23-13-15-8-10-6-1-71-5-6-2-1-1-3v-23l1-3 9-5 2-6 1-13 5-5 16-10 23-14 9-6 20-12 26-16 14-9h6l5 2h7l11-7 10-7 20-12zm0 2-6 3v2l-5 1-10 6-5 2v2l-6 2-12 8v2l-4 1v2l-5 1-1 1h-6l-6-3-6 1-7 4v2l-4 1-10 6v2l-4 1-5 2-1 2-14 7v2l-5 2-13 8-11 7-3 1-1 2-4 1-1 2-14 7v2l-5 2-4 2v2l-3 1-1 12-3 9-10 5v26l5 2 2 4 1 3 1 70 12 7 11 6 6 3h2v2l5 2 22 12 6 4 10 4 3 2h3v2l10 5 6 2v2l9 4h2v2l5 2 7 4h3v2l11 5h9l16 10 5 1v2l5 1v2l10 5 6 4h6l20-10 6-4 4-1v-2l6-2 13-6 3 2 4-1 6-4 5-2 12-7 9-5 5-2v-2l10-4v-2l5-1 12-6v-2l5-1 6-3 6-4 5-2 10-5v-2l6-2 5-2v-2l5-1 10-6 6-3v-2l3-1v-70l2-4 6-4v-27l-8-2-4-4-1-2-1-20-7-5h-2v-2l-5-1v-2l-9-5-10-6-15-8-9-5h-2v-2l-5-1v-2l-5-1v-2l-18-10-1-2-5-2-6-3-13-7-6 1-1 1h-8l-10-7-8-4-1-2-5-2-9-5-1-2-5-2-12-7-4-2z" fill="#D5D6D6"/>
<path transform="translate(773,258)" d="m0 0h5l10 5 17 7 8 4 10 4 15 8v4l-12 6-16 7-16 9-14 9-5-2-2-4-1-15v-41z" fill="#FEFEFE"/>
<path transform="translate(371,258)" d="m0 0h5l1 9-1 48-3 4h-6l-16-10-16-7-10-5-16-7 1-4 10-5 11-5 13-6z" fill="#FEFEFE"/>
<path transform="translate(566,151)" d="m0 0 2 1v42l-5 5-12 7-11 6-11 7-5 4h-2l-1-2v-46l7-5 21-10z" fill="#FEFEFE"/>
<path transform="translate(582,153)" d="m0 0h5l16 9 14 8 9 4 2 3v45l-5-1-32-19-9-6-1-2-1-15v-14l1-11z" fill="#FDFDFD"/>
<path transform="translate(329,487)" d="m0 0 6 1 48 27 3 3-2 4-12 14-8 8-5-1-7-4h-7l-5 5h-6l-5-3-1-2v-51z" fill="#FEFEFE"/>
<path transform="translate(571,219)" d="m0 0h7l8 4v2l5 1 10 6 6 4 5 2 25 15 5 2v2l5 1v2l5 1 6 4 4 1v2l6 2 29 17 6 3v2l4 1 5 4 2 3v150l-4 6-6 4h-4l-1 3-9 5-5 1v2l-5 1v2l-8 4h-2v2l-5 1v2l-10 5-6 4h-4v2l-6 3-12 7h-3v2l-5 1v2l-15 9-14 7-7 5h-5v2l-3 1-3-1v-2l-5-1-6-3-10-6-4-2v-2l-5-1-7-5-3-1v-2l-5-1v-2l-5-1-10-6-6-4-5-2-12-7-3-1v-2l-5-1-16-9v-2l-5-1v-2l-5-1-10-6-6-4-3-4v-151l4-2v-2l5-1 1-3 11-6h3v-2l10-6 9-5 10-6 6-4h3v-2l5-1v-2l12-7h3v-2l8-4h3v-2l10-5 5-1 1-3 9-5 5-1 1-3h4l1-3 5-2zm1 2-14 8-18 11-14 7-15 9-14 8-16 10-17 10-20 12-5 4-1 2v143l1 7 4 4 11 6 10 6 11 6 18 10 12 7 11 6 10 6 11 6 28 17 10 4 10-4 23-13 6-4 3-1v-2l5-1 16-10 11-6 18-10 11-7 11-6 20-12 2-2v-153l-8-6-15-9-11-6-18-11-11-6-18-10-11-7-10-5-14-8-16-9z" fill="#D5D6D6"/>
<path transform="translate(581,265)" d="m0 0h12l10 3 10 6 7 6 3 5v12l-6 8-8 5-10 3h-33l-10 4-5-2-6-5 1-5 12-6 5-1h33l7-4v-9l-4-2-9-4h-7l-5 2h-10l-5-4-1-5 1-2 7-3z" fill="#6B6B6B"/>
<path transform="translate(866,385)" d="m0 0 2 1 1 35v15l-3 3-19 10-8 5-5 1-1-1v-50l5-4 22-12z" fill="#FEFEFE"/>
<path transform="translate(282,386)" d="m0 0 5 1 27 15 2 2v49l-3 2-18-10-11-6-4-3 1-49z" fill="#FEFEFE"/>
<path transform="translate(494,361)" d="m0 0 9 1 12 6 10 9 6 9 4 11v16l-3 6-8 5-8 4-1 10h-5l-9-6v-15l4-5 10-5 3-1 1-2v-7l-2-7-5-5-6-4-7-2-4 7-5 1-7-4-2-3 1-9 3-5z" fill="#6B6B6B"/>
<path transform="translate(820,351)" d="m0 0 10 4 12 7 16 8 1 4-10 6-12 7-11 6-4 1-12-5-9-5-15-10 2-5 20-12z" fill="#FEFEFE"/>
<path transform="translate(326,351)" d="m0 0h7l17 11 13 8-1 5-18 10-11 7-9 1-18-10-15-9 1-5 16-8 12-7z" fill="#FEFEFE"/>
<path transform="translate(149,803)" d="m0 0 5 1 27 16 8 5 3 4 8 33 1 5h-5l-10-7-20-11-6-5-6-16-5-19z" fill="#FEFEFE"/>
<path transform="translate(846,299)" d="m0 0h4v51l-6-1-14-8-6-3h-13l-11-5-5-3 1-5 16-9 21-10z" fill="#FEFEFE"/>
<path transform="translate(328,405)" d="m0 0 9 2 5 4 9 5 16 10 3 4-1 7-6 5-28 17-6 1-2-3-1-50z" fill="#FEFEFE"/>
<path transform="translate(300,299)" d="m0 0 4 1 10 5 15 7 16 8 10 6-2 5-15 7-11-1-11 5-12 7h-4z" fill="#FEFEFE"/>
<path transform="translate(406,596)" d="m0 0 2 1 9 34 1 10-8 10-5 7h-2l-2 4-14 15-9 10-9 11-9 10-9 11-16 17-9 10-10 11-7 8-12 14-10 11-5 7h-2l-2 4-10 11-7 8-9 10-9 11-11 12-7 8-5 6-4 1-4-15-5-16-3-13 6-8 13-14 7-8 12-14 3-4h2l2-4 9-10 7-8 3-4h2l2-4 13-14 1-2h2l2-4 12-13 9-11 9-10 7-8 13-14 1-2h2l2-4 9-10 9-11 7-9 5-5 24-26 4-5zm-3 4v3l-3 1-7 9-8 8v2l-3 1v2h-2l-4 5-2 1v3l-3 1-1 4h-2l-3 4v2l-3 1-6 8-5 5-1 3-3 1-3 5-5 4-9 11-6 6v2l-3 1-6 7v2h-2l-7 9v2h-2l-6 7v2l-3 1v2h-2l-9 11-1 3-3 1v2h-2l-3 4v2l-3 1-4 5-5 5-6 7v2l-3 1-6 7v2h-2l-9 11-1 3h-2l-4 5-2 1v3l-3 1v2h-2l-8 10-2 4-3 1v2h-2v12l2 4 2 7 2 10 2 5 1 7 1-2 3-1v-2l3-1 6-8 5-4 3-5 4-5 5-4v-3l3-1v-2h2l9-11 4-4v-2h2l3-3v-3h3v-3l3-1 7-9 2-4 3-1 3-5 5-5 1-3h2l4-6 5-4 3-3v-3h2l8-10 5-5v-2l3-1v-2h2l4-5 5-4 7-9 8-9v-2l3-1v-2h2l7-9v-2h2l4-6 5-4 3-4v-2h2l4-5v-2l3-1v-2l3-1v-2l3-1 6-8 5-5 4-6 5-5-1-9-1-1-4-20-2-3-1-8z" fill="#D5D6D6"/>
<path transform="translate(397,526)" d="m0 0h5l8 5 14 7 8 6-1 4-6 7h-2l-2 4-9 10-2 3-5-1-27-16-1-5 8-10h2l2-4z" fill="#FEFEFE"/>
<path transform="translate(816,406)" d="m0 0h5l1 1v49l-1 3h-5l-8-5-11-6-16-9-3-5 1-5 7-5 11-6 12-8z" fill="#FEFEFE"/>
<path transform="translate(348,555)" d="m0 0h6l7 5 9 5 21 13 6 4v5l-8 7-12 13-9 11-15 16-7 8-8 10h-2l-2 4-10 11-1 2h-2l-2 4-9 10-7 9-5 5-4 5h-2l-2 4-9 10-2 3h-2l-2 4-12 13-7 8-12 14-8 10h-2l-2 4-10 11-9 11-13 15h-2l-1 3-7-1-10-6-27-16-4-2-1-3 1-2h2l2-4 18-20 1-2h2l2-4 10-11 1-2h2l2-4 15-16 9-11 9-10 7-8 8-10h2l2-4 13-14 1-2h2l2-4 11-13 2-3h2l2-4 5-6h2l2-4 2-3h2l2-4 11-12 8-10 10-11 8-10h2l2-4 11-12zm2 1-3 4v2h-2l-4 5-2 1v3l-3 1-4 5v2h-2l-6 7v2l-3 1v2h-2l-7 9-3 3v2h-2l-4 6-5 5-7 9-5 5v2h-2l-4 5-5 5-4 5v2h-2l-3 3v3l-3 1-8 10-4 4v2l-3 1v2h-2l-7 9-5 5-1 3h-2l-3 4v2l-3 1-3 3v3h-2l-9 11-4 5-5 4-3 3v3l-3 1v2h-2l-9 11-4 4v2l-3 1v2h-2l-3 4v2l-3 1-8 10-4 4v2l-3 1v2l-3 1-1 4 4 3h3v2l15 9 5 1v2l9 5 6 3 5-2 6-6v-2h2l3-4v-2l3-1 3-4v-2h2l8-10 2-4h2l9-11 1-3h2l6-7v-2l3-1 7-9 2-4 3-1v-2h2l4-6 5-4 3-4v-2h2l8-10 8-8v-2h2l9-11 4-5 5-5v-2l3-1 7-9 2-4 3-1v-2h2l3-4v-2l3-1 9-11 6-6v-2l3-1v-2l3-1 3-4v-2h2l9-11 1-3h2l4-5 2-1v-3l3-1v-2h2l7-8 2-1v-3l-16-10-5-3h-2v-2l-5-1v-2l-9-5-6-4z" fill="#D5D6D6"/>
<path transform="translate(452,316)" d="m0 0h5l10 7 12 7 11 6 18 10 11 7 11 6 18 10 20 12 1 2v126l-4 1-32-19-16-9-24-14-14-8-14-7-11-7-2-2zm3 3v125l4 3h3v2l5 1v2l6 1v2l9 4h2v2l5 2 6 4h4l1 3 4 1 1 2 6 3h3v2l5 1v2l10 5 8 5h3v2l5 1v2l5 2 4 2 1 2 5 1v2l5 3h2v-124l-3-3h-3v-2l-10-5-8-5h-2v-2l-9-4h-2v-2l-5-3h-4l-1-3-5-2-6-4h-3v-2l-10-5-11-7-5-1v-2l-10-5-10-6z" fill="#D5D6D6"/>
<path transform="translate(697,315)" d="m0 0 2 1v127l-6 5-18 10-19 11-18 11-11 6-16 9-20 12-5 4h-4v-127l4-4 32-19 16-10 11-6 32-19 10-6 6-4zm-3 3-9 5v2l-6 2-5 2-1 2-11 6-12 7-11 7-5 3-4 1-1 2-4 1-1 2-9 4v2l-5 1v2l-5 2-4 2v2l-5 1-10 6-2 2v124l4-1 5-4 5-3 4-1 1-2 14-7v-2l6-2 9-5 11-7 9-5 5-2 1-2 5-3 4-1v-2l5-1v-2l6-2 9-5 9-6 1-119-1-6z" fill="#D5D6D6"/>
<path transform="translate(819,215)" d="m0 0h2v47l-7-1-10-5-22-9-2-2 1-4 12-10 20-12z" fill="#FEFEFE"/>
<path transform="translate(815,488)" d="m0 0h5l1 18v13l-1 22-3 3-14 7-18 11-11 6-24 13-20 11-12 7-14 7-20 12-12 7-10 5-17 10h-4v-55l8-5 17-9 12-7 11-6 10-6 11-6 24-13 12-7 14-7 23-13 15-9 10-5zm2 1-8 5-4 1-1 2-5 2-17 10-3 1v2l-5 2-16 8v2l-5 1-11 6-16 8v2l-6 2-15 8-20 12-5 2-1 2-5 1-1 2-20 10v2l-6 1-5 5v51l1-2 6-1v-2l5-1v-2l5-1v-2l5-1v-2l6-2 5-2v-2l5-1 20-12 6-4 10-4 1-2 10-4v-2l5-2 10-5 11-6 6-4 10-4v-2l6-2 5-2 1-2 11-6 8-4v-2l5-1 6-3v-2l5-1 2-2v-51z" fill="#D5D6D6"/>
<path transform="translate(330,216)" d="m0 0 7 3 14 9 9 6 7 7v5l-16 7-19 9-4-1v-43z" fill="#FEFEFE"/>
<path transform="translate(574,236)" d="m0 0 7 2 9 5 13 8 14 7 8 5 11 6 40 24 12 7 2 4-11 7-11 6-32 19-27 16-18 10-11 7-5 1-11-6-18-10-26-16-14-7-18-11-11-6-16-10v-2l14-9 11-6 32-19 16-10 11-6 24-13zm-2 3-6 3v2l-5 2-10 5-9 5-12 7-5 2v2l-5 2-9 5v2l-4 1-9 5-12 7-10 6-4 2v2l-5 1v2l-3 1 3 1v2l6 3 6 4h3v2l5 1v2l10 5 9 5h2v2l5 2 12 7h3v2l6 3 6 4h3v2l10 5 5 2v2l5 1v2l10 5 1 1h5v-2l6-2 6-4 3-1v-2l5-1v-2l6-2 4-2v-2l5-1v-2l4-1 6-4 5-2 20-12 4-2v-2l5-1v-2l6-2 18-10 2-1v-2l3-1-3-3-7-4h-2v-2l-5-2-10-6-18-11-11-7-5-1v-2l-9-4h-2v-2l-5-2-11-6-15-9-5-1v-2z" fill="#D5D6D6"/>
<path transform="translate(508,109)" d="m0 0 9 3 15 8 16 8 11 6 3 4-18 10-14 7-11 7-6 1-10-6-7 1-17 9-21 12-15 9-10 5-16 10-11 6-27 15-3 2-5-1-15-9-10-5-9-6 1-3 14-8 16-8 12-7 14-7 23-13 16-9 11-6 10-6 14-7 9-5 14-8 14-7zm0 2-10 6-6 3-5 2v2l-6 2-5 2v2l-6 2-15 8-9 5-2 1v2l-5 1-6 4-4 1-1 2-5 2-12 7-3 1v2l-6 2-5 2v2l-6 1v2l-5 1-12 7-5 3-4 1-1 2-5 2-6 3-13 7-1 2 6 3h3v2l10 5 13 8 9-1 8-5 10-6 3-1v-2l5-1 20-12 6-4 4-1v-2l6-2 4-2v-2l5-1 11-7 10-5 12-7 11-6 8-1 5 1v2l5 3 5-1 17-10 9-4v-2l5-1 9-5v-2l-11-6h-2v-2l-17-8-12-6z" fill="#D5D6D6"/>
<path transform="translate(639,109)" d="m0 0 10 4 12 7 14 7 8 5 11 6 13 7 17 9 12 7 14 7 9 5 11 6 13 8 16 8 11 7 2 3-9 6-27 15-23-12-12-7-11-6-10-6-11-6-16-9-14-7-12-7-11-6-9-3-8 4-4 3-5-1-15-9-11-6-16-10 1-4 16-8 21-10zm0 3-12 6-5 2-8 4-4 1v2l-6 1v2l-6 2-8 4v2l5 2 6 4h3v2l5 1v2l10 5 5 2v2l6 3h6l1-3 4-1 2-1h10l12 7 6 4 5 2 6 3 15 8 6 2v2l10 5 10 6 6 2v2l14 7 12 7 8 4h3v2l9 4 6-2 5-2v-2l6-2 9-5 8-5-1-2h-2v-2l-5-1v-2l-16-8-11-6-15-9-8-4h-3v-2l-9-4h-2v-2l-10-5-6-4-5-2-11-6-15-8-6-2v-2l-9-4h-2v-2l-10-5-6-4-5-2-6-3z" fill="#D5D6D6"/>
<path transform="translate(772,453)" d="m0 0h7l16 9 14 8 2 1v5l-17 10-14 7-9 5-14 8-14 7-21 13-10 5-28 16-14 7-8 5-11 6-14 7-5-1-11-5-12-7-11-6-7-4 2-4 11-7 10-5 7-4h11l14-7 13-8 11-6 14-8 16-8 15-8 12-7 10-5 17-10 17-8zm3 1-20 10-12 7-3 1v2l-5 1-6 3v2l-5 1-9 5-13 7-5 2v2l-6 1v2l-6 2-5 2v2l-5 1v2l-5 1-11 7-14 7-7 5-8 3h-4v-2l-5 2-20 10v2l-5 1-3 3 5 1v2l10 5 10 6 6 2v2l6 1v2h10l2-2 4-1v-2l6-2 10-5v-2l5-1v-2l5-1 12-6v-2l5-1 10-6 6-3 5-2 1-2 14-7v-2l5-1v-2l5-1v-2l5-1 9-5 11-6 8-5 4-1v-2l6-2 5-2v-2l6-2 5-2v-2l5-1 10-6v-3l-14-7-1-2-5-2-9-5z" fill="#D5D6D6"/>
<path transform="translate(372,453)" d="m0 0h6l24 12 14 8 22 12 14 8 16 8 15 8 14 8 8 5 15 8 7-1 16 8 13 8 1 4-10 7-18 10-11 7-6-1-12-7-11-6-28-15-13-8-14-7-16-9-17-10-14-7-14-8-14-7-15-9-6-3 1-5 15-8 12-7zm2 1-13 7-5 2v2l-5 1v2l-6 2-4 2 1 4 11 6 5 3h3v2l20 10h2v2l5 2 6 2v2l5 2 7 4h3v2l10 5 3 2h3v2l10 5 6 2v2l5 2 12 7 11 6h3v2l16 8 9 5h2v2l5 1v2l9 4 8-1 7-5 11-6 8-4v-2l5-2 3-1v-2h-2v-2l-9-5-6-2v-2l-5-2-6-2h-9l-2-2-5-2-4-2-1-2-5-2-6-4h-3v-2l-6-3-15-8-6-2v-2l-5-2-6-3-6-2v-2l-5-2-19-10-11-6-12-7-6-2v-2l-5-2-6-3z" fill="#D5D6D6"/>
<path transform="translate(648,172)" d="m0 0 7 1 12 7 14 8 23 13 10 5 16 9 10 6 17 10 5 3v4h-2v49l-1 1-7-1-10-7-22-13-21-12-8-5-11-6-21-12-11-6-1-2v-50zm3 2-1 1v50l10 5 10 6 12 7h3v2l10 5 9 5h2v2l5 1v2l5 2 25 15 14 9h2v-49l3-1-3-1v-2l-5-3h-4l-1-3-4-1-1-2-9-5-6-4-5-2-12-7h-3v-2l-15-7h-2v-2l-10-5-10-6-12-7z" fill="#D5D6D6"/>
<path transform="translate(435,562)" d="m0 0 2 1v47l-7 7-4-1-4-14-4-16 1-7 3-1 1-3h2l2-4z" fill="#FEFEFE"/>
<path transform="translate(497,171)" d="m0 0h4v53l-9 6-25 15-26 16-9 5-15 9-21 13-5 2-1-1-1-47-2-2v-5l7-6 10-5 12-7 14-7 12-7 10-5 40-24zm-1 3-3 1v2l-4 1-11 7-9 5-5 2-1 2-8 4v2l-6 2-5 2v2l-5 1-9 5-8 5-10 4-1 2-5 2-12 7-3 1v2l-3 1 2 3 1 47 3 1 16-10 20-12 9-5v-2l6-2 4-2v-2l5-1v-2l5-1v-2l4-1 11-7 9-5 10-6 5-2 1-4v-25l1-22z" fill="#D5D6D6"/>
<path transform="translate(577,263)" d="m0 0h19l3 2 7 2 9 6 6 5 3 4 1 4v10l-5 9-8 6-8 3-7 1h-33l-8 4-5-1-7-5-2-3 1-5 5-4 6-3 7-2 2-1h10l6 2h13l9-3 1-7h-2v-2l-4-2-6-2h-6l-8 2h-8l-3-1-4-4-1-6 5-5 9-3zm4 2-13 3-5 2-1 5 4 5 2 1h10l5-2h7l9 4 4 2v9l-7 4h-33l-9 3-8 4-1 5 9 7 12-4h33l10-3 10-7 4-6v-12l-6-8-10-7-6-3-8-2z" fill="#D5D6D6"/>
<path transform="translate(492,359)" d="m0 0h11l3 2 6 2v2l4 1 10 8 3 5 2 1 1 5h2l3 9v21l-5 7-4 3-6 2-5 1v11l-2 3-6-2-9-6-2-3v-11l3-8 9-6 7-1v-10l-4-7-7-4v-2l-7-1-1 5-4 4h-5l-9-6v-15l6-7 5-2zm2 2-10 6-3 7v6l5 5 4 2 5-1 4-7 9 3 7 5 3 5 1 5v7l-1 2-11 5-5 4-1 2v15l9 6h5l1-10 15-8 3-5 1-2v-16l-4-11-6-9-7-7-12-7-6-2z" fill="#D5D6D6"/>
<path transform="translate(452,554)" d="m0 0 5 2 15 8 14 8 14 7 7 4 1 2 1 29v24l-5 1-17-10-14-7-9-5-12-7-1-2-1-52zm1 2-1 1 1 50 2 3 12 6h3v2l16 8 9 5h2v2l4 1 1 2 4 1v-52l-5-3h-3v-2l-6-1v-2l-9-4h-2v-2l-4-1-1-2-4-1-1-2-5-1-1-2-10-4z" fill="#D5D6D6"/>
<path transform="translate(580,560)" d="m0 0 7 1 13 8 14 7 9 5 5 4 1 54-5 1-8-5-16-9-14-7-5-4-1-2-1-26v-24zm1 2v20l2 31 3 3h3v2l10 5 6 2v2l4 1 1 2 5 1 1 2 10 4v-51l-6-4h-3v-2l-10-5-9-5-5-3h-2v-2l-5-2z" fill="#D5D6D6"/>
<path transform="translate(773,258)" d="m0 0h5l10 5 17 7 8 4 10 4 15 8v4l-12 6-16 7-16 9-14 9-5-2-2-4-1-15v-41zm3 2-1 1v45l1 12h6l10-7 4-3 10-4 1-2 5-1v-2l7-2 17-8-3-4-5-2-7-4-11-4-7-4-13-5-8-4z" fill="#D5D6D6"/>
<path transform="translate(562,561)" d="m0 0 4 1 1 2-1 52-5 4-22 12-14 8-4-1v-54l5-4 11-6 18-10zm1 1-1 2-5 2-12 7-3 1v2l-6 2-5 2v2l-5 2-3 2v52l1-2h5l1-2 4-1 1-2 10-4v-2l5-1v-2l6-2 5-2v-2h3v-54z" fill="#D5D6D6"/>
<path transform="translate(582,153)" d="m0 0h5l16 9 14 8 9 4 2 3v45l-5-1-32-19-9-6-1-2-1-15v-14l1-11zm1 1v39l1 3 5 2 6 4h3v2l15 9 5 1v2l4 1 1 2 3-1v-40l-3-3-6-1v-2l-10-5-9-5h-2v-2l-5-1v-2l-5-2z" fill="#D5D6D6"/>
<path transform="translate(866,385)" d="m0 0 2 1 1 35v15l-3 3-19 10-8 5-5 1-1-1v-50l5-4 22-12zm-6 5-2 2-4 1v2l-6 1v2l-5 1v2l-6 2-2 2v47l4-1 5-2v-2l4-1 19-10v-23l-2-23z" fill="#D5D6D6"/>
<path transform="translate(566,151)" d="m0 0 2 1v42l-5 5-12 7-11 6-11 7-5 4h-2l-1-2v-46l7-5 21-10zm-3 3-2 2-4 1v2l-6 2-5 2v2l-6 1v2l-6 1v2l-6 1v2l-4 1-1 1v43l4-1 8-5v-2l5-1 10-6 9-5 6-4 2-34v-7z" fill="#D5D6D6"/>
<path transform="translate(329,487)" d="m0 0 6 1 48 27 3 3-2 4-12 14-8 8-5-1-7-4h-7l-5 5h-6l-5-3-1-2v-51zm1 2v50l5 1v2h5l5-5 4-1 7 1v2l5 2 2 2 4-5 2-1v-3h3v-3l3-1 6-8v-2h2v-2h-2v-2l-10-5-6-2v-2l-5-1v-2l-5-1v-2l-10-5-6-4z" fill="#D5D6D6"/>
<path transform="translate(282,386)" d="m0 0 5 1 27 15 2 2v49l-3 2-18-10-11-6-4-3 1-49zm2 2-1 25v22l3 3h4v2l8 4h3v2l10 5 3 1v-47l-3-1v-2l-5-1v-2l-5-2-6-2-1-2-5-3h-4z" fill="#D5D6D6"/>
<path transform="translate(371,258)" d="m0 0h5l1 9-1 48-3 4h-6l-16-10-16-7-10-5-16-7 1-4 10-5 11-5 13-6zm3 1-3 2-6 2-13 5-10 5-3 1v2l-6 1v2l-6 1-6 3-7 3-2 3 12 6 6 2 8 4 5 2 12 6 7 4h2v2l4 2h4l1-2 2-17v-39z" fill="#D5D6D6"/>
<path transform="translate(328,405)" d="m0 0 9 2 5 4 9 5 16 10 3 4-1 7-6 5-28 17-6 1-2-3-1-50zm1 3 1 50 4-2 4-1v-2l5-1v-2l6-2 9-6 5-2v-2h3v-10l-3-3-5-2-6-4h-3v-2l-6-4h-3v-2l-6-3z" fill="#D5D6D6"/>
<path transform="translate(846,299)" d="m0 0h4v51l-6-1-14-8-6-3h-13l-11-5-5-3 1-5 16-9 21-10zm-1 3-9 4v2l-5 1-7 4-10 4-2 2-5 2-6 4-4 1v4l5 2 8 4h12l6 2 6 3 12 7h1v-46z" fill="#D5D6D6"/>
<path transform="translate(149,803)" d="m0 0 5 1 27 16 8 5 3 4 8 33 1 5h-5l-10-7-20-11-6-5-6-16-5-19zm3 4 1 10 3 9 3 10 3 7 8 6h3v2l8 4h3v2l9 5 4 2v-7l-3-12-2-6-2-7-2-5h-2v-2l-6-3-4-1v-2l-5-1v-2l-5-1v-2l-8-4h-2v-2z" fill="#D5D6D6"/>
<path transform="translate(779,385)" d="m0 0 11 6 11 7v3l-9 6-9 5h-5l-1-25z" fill="#FEFEFE"/>
<path transform="translate(816,406)" d="m0 0h5l1 1v49l-1 3h-5l-8-5-11-6-16-9-3-5 1-5 7-5 11-6 12-8zm0 2-10 7-7 4-7 5-4 1-1 2-5 2-1 5 2 4 11 6h3v2l5 1v2l6 1v2l5 1v2l5 1 1-27 1-21z" fill="#D5D6D6"/>
<path transform="translate(820,351)" d="m0 0 10 4 12 7 16 8 1 4-10 6-12 7-11 6-4 1-12-5-9-5-15-10 2-5 20-12zm-1 3-10 5-6 4-4 1v2l-5 2-4 2-1 3 10 7 8 5 10 5 1 1h8l11-7 5-2v-2l5-1 6-3v-2h3l-1-4-15-7h-2v-2l-5-2-6-3-6-2z" fill="#D5D6D6"/>
<path transform="translate(326,351)" d="m0 0h7l17 11 13 8-1 5-18 10-11 7-9 1-18-10-15-9 1-5 16-8 12-7zm4 1-9 4-5 2-1 2-5 2-10 5v2l-6 2 1 3h3v2l6 3 6 4h3v2l10 5 1 1h7v-2l6-2 20-12 3-1v-4l-7-4h-2v-2l-4-1-1-2-8-4z" fill="#D5D6D6"/>
<path transform="translate(367,386)" d="m0 0h3v25l-2 1-16-9-4-4 6-5z" fill="#FEFEFE"/>
<path transform="translate(300,299)" d="m0 0 4 1 10 5 15 7 16 8 10 6-2 5-15 7-11-1-11 5-12 7h-4zm1 3v45h2v-2l5-1v-2l6-1v-2l5-1 8-4 5 1 1 1h6l1-3 6-1v-2h5l1-4-9-5-14-7-8-3h-3v-2l-6-1v-2l-9-4z" fill="#D5D6D6"/>
<path transform="translate(819,215)" d="m0 0h2v47l-7-1-10-5-22-9-2-2 1-4 12-10 20-12zm-2 3-1 3-4 1-10 6-4 2v2l-5 1v2l-4 2-6 5v3l10 4h3v2l13 5 7 2v2h3v-41z" fill="#D5D6D6"/>
<path transform="translate(397,526)" d="m0 0h5l8 5 14 7 8 6-1 4-6 7h-2l-2 4-9 10-2 3-5-1-27-16-1-5 8-10h2l2-4zm2 2-5 5-6 7v2h-2l-6 8v4l7 4h2v2l5 1v2l5 2 6 4h5l9-11 11-12v-2l-6-3h-2v-2l-9-4h-2v-2l-5-3z" fill="#D5D6D6"/>
<path transform="translate(330,216)" d="m0 0 7 3 14 9 9 6 7 7v5l-16 7-19 9-4-1v-43zm0 2v42l4-2 11-4v-2l7-2 6-2v-2l7-1-1-4-4-5-6-4h-2v-2l-5-2-5-4-4-1-1-2-5-2z" fill="#D5D6D6"/>
<path transform="translate(435,562)" d="m0 0 2 1v47l-7 7-4-1-4-14-4-16 1-7 3-1 1-3h2l2-4zm-3 6-6 7v2h-2l-4 5 1 8 2 7 2 5 2 10 3 3 6-8-1-39z" fill="#D5D6D6"/>
<path transform="translate(501,442)" d="m0 0 7 1 6 4 1 1v13l-6 1-7-4-1-2z" fill="#6B6B6B"/>
<path transform="translate(534,315)" d="m0 0 7 1 5 5-1 4-3 3-4 2-7-1-6-5 1-5 4-3z" fill="#6B6B6B"/>
<path transform="translate(501,439)" d="m0 0 10 2v2l5 2 1 2v15l-5 3-8-3-4-2-2-4v-15zm0 3v14l3 3 5 3 6-1v-13l-5-4-4-2z" fill="#D5D6D6"/>
<path transform="translate(779,385)" d="m0 0 11 6 11 7v3l-9 6-9 5h-5l-1-25zm0 3v10l1 10 4 1 12-7 4-3-8-4-1-2-5-2z" fill="#D5D6D6"/>
<path transform="translate(531,313)" d="m0 0h10l5 4v2h2v6l-3 4-5 2-1 1h-7l-2-1v-2l-4-1-3-3 1-7h2l1-3zm3 2-7 3-2 2 1 5 5 4 7 1 6-4 2-2-1-5-6-4z" fill="#D5D6D6"/>
<path transform="translate(367,386)" d="m0 0h3v25l-2 1-16-9-4-4 6-5zm1 2-6 3-5 4-7 4 6 4h3v2l6 3 4 1v-21z" fill="#D5D6D6"/>
<path transform="translate(435,562)" d="m0 0 2 1v44h-1l-1-11v-28h-3l-1 3-3-1z" fill="#D5D6D6"/>
<path transform="translate(359,342)" d="m0 0 4 1v9l-4 1-7-5 1-3z" fill="#DDDEDE"/>
<path transform="translate(788,342)" d="m0 0 7 3v4l-4 3h-4v-9z" fill="#E0E1E1"/>
<path transform="translate(616,623)" d="m0 0h4l1 7h-5l-2-4z" fill="#D5D6D6"/>
<path transform="translate(435,562)" d="m0 0 2 1v5l-2 1-3-1-1 3-3-1z" fill="#D8D9D9"/>
<path transform="translate(369,521)" d="m0 0 4 2-1 4h-5v-5z" fill="#D5D6D6"/>
</svg>
