<?xml version="1.0" encoding="UTF-8"?>
<svg version="1.1" viewBox="0 0 1024 1024" width="1024" height="1024" xmlns="http://www.w3.org/2000/svg">
<path transform="translate(0)" d="m0 0h1024v1024h-1024z" fill="#FCFCFC"/>
<path transform="translate(663,85)" d="m0 0 7 1 17 10 21 12 13 8 11 6 16 9 11 7 3 3 1 95 5 2 13 8 28 16 19 11 4 4v81l8 6 17 10 15 9 11 6 17 10 2 4v86l-7 6-27 15-17 10-10 6-11 6-12 7-1 200-2 6-8 6-33 18-21 12-20 12-11 6-14 8-11 6-45 26-21 12-24 14-11 6-14 8-24 13-16 9-17 10-14 8-5 3h-5l-14-9-14-7-13-8-17-9-14-8-14-9-11-6-5-3-2-4-1-100-14 8-32 18-17 10-24 14-6-1-23-13-15-9-19-10-10-6-28-16-6-4-2-3v-211l-6 1-13-7-12-7-11-6-21-12-17-10-3-3v-91l6-5 16-9 14-8 23-13 14-8 12-7 16-8 14-8 25-14 7-4 11-6 1-8 6-5 25-14 22-13 11-6 16-9 10-5 22-13 11-6 29-16 16-9 10-6 11-6 24-13 23-13 12-7 11-6 45-25 19-11 22-12 18-10 21-12z" fill="#646464"/>
<path transform="translate(596,754)" d="m0 0 5 1v98l-4 4-22 12-17 10-11 6-10 6-11 6-15 9h-2v-102l13-8 21-12 27-15 15-9z" fill="#FCFCFC"/>
<path transform="translate(698,696)" d="m0 0h4l1 23v76l-9 6-20 12-14 8-25 14-16 10-7 3v-103l45-25 24-14 16-9z" fill="#FBFBFB"/>
<path transform="translate(215,526)" d="m0 0h5l10 6 14 8 19 11 11 6 17 10 9 5v104l-5-1-11-7-11-6-16-9-24-14-21-12v-98z" fill="#FCFCFC"/>
<path transform="translate(803,638)" d="m0 0 2 1v99l-7 5-14 7-24 14-10 6-11 6-10 6-11 6h-3l-1-14v-85l8-6 19-10 15-9 22-12 11-7z" fill="#FBFBFB"/>
<path transform="translate(212,641)" d="m0 0 4 1 14 7 10 6 14 8 17 10 10 6 11 6 8 5v102l-2 1-18-11-15-9-27-15-24-14-2-2z" fill="#FCFCFC"/>
<path transform="translate(411,753)" d="m0 0 11 6 16 9 24 14 10 6 11 6 14 9v102l-5-2-16-9-11-6-17-10-23-13-15-9-1-4 1-98z" fill="#FBFBFB"/>
<path transform="translate(394,643)" d="m0 0 4 1-1 101-6 4-16 8-24 14-11 7-11 6-14 8-4-1 1-101 14-8 43-24 15-9z" fill="#FCFCFC"/>
<path transform="translate(411,636)" d="m0 0 14 7 11 7 1 15 4 5 15 8 22 13 11 6 8 5 1 85-1 2-5-2-16-9-24-14-21-12-19-11-2-2v-102z" fill="#FCFCFC"/>
<path transform="translate(568,151)" d="m0 0 5 1 15 9 21 12 24 14 14 8-2 4-14 7-23 13-22 13-11 6-9 5-6-1-11-7-11-6-18-10-17-10-16-9-1-3 32-18 27-15z" fill="#FBFBFB"/>
<path transform="translate(471,205)" d="m0 0 5 1 18 10 24 14 29 16 4 2v3l-27 15-16 9-28 16-11 6-4-1-43-25-21-12-10-6v-3l18-10 17-10 11-6 27-15z" fill="#FBFBFB"/>
<path transform="translate(663,98)" d="m0 0 6 1 11 6 15 9 16 9 21 12 10 6v3l-10 6-11 6-21 12-14 7-21 12-3 2h-5l-16-10-18-10-19-11-15-9-7-4 1-3 11-6 23-12 15-9 14-8 11-6z" fill="#FBFBFB"/>
<path transform="translate(376,259)" d="m0 0h5l15 9 26 15 17 10 10 6 7 4-3 3-13 7-39 22-28 16-12-6-11-7-26-15-27-16v-4l22-13 16-8 19-11 11-6z" fill="#FBFBFB"/>
<path transform="translate(321,467)" d="m0 0 6 1 17 10 13 8 9 5 1 2 1 48 4 4 24 13 1 1v56l-5-2-11-6-20-12-11-7-11-6-23-13-4-3v-94z" fill="#FBFBFB"/>
<path transform="translate(597,663)" d="m0 0h3v76l-9 6-22 12-17 10-12 7-9 5-14 8-8 4-1-3 1-79 10-2 18-10 19-11 11-6 25-14z" fill="#FBFBFB"/>
<path transform="translate(803,546)" d="m0 0 2 1v77l-17 9-24 14-32 18-15 8-3-1v-75l8-5 26-14 11-7 11-6 24-14z" fill="#FBFBFB"/>
<path transform="translate(699,605)" d="m0 0h3v77l-13 7-24 14-22 12-17 10-13 8-2-2 1-76 3-3 33-18 24-14 14-8 11-6z" fill="#FCFCFC"/>
<path transform="translate(460,314)" d="m0 0 2 1v82l-27 15-16 9-14 8-24 14h-3v-82l5-4 21-11 22-13 11-6z" fill="#FBFBFB"/>
<path transform="translate(555,261)" d="m0 0 3 1v81l-8 5-19 10-21 12-32 18-3 1-1-1-1-80 3-3 19-10 13-8 17-9 15-9 11-6z" fill="#FBFBFB"/>
<path transform="translate(748,153)" d="m0 0 2 1v81l-14 9-33 18-24 14-11 6h-2v-83l21-12 11-6 10-6 14-7 23-13z" fill="#FBFBFB"/>
<path transform="translate(651,207)" d="m0 0h3v81l-3 3-22 12-24 14-25 14-7 4h-3v-82l23-13 24-14 11-6z" fill="#FBFBFB"/>
<path transform="translate(288,316)" d="m0 0 6 2 26 15 35 20 10 6 1 1 1 82-4 1-11-7-19-11-24-14-16-9-5-3z" fill="#FCFCFC"/>
<path transform="translate(602,575)" d="m0 0h2v71l-10 7-11 6-17 9-15 9-25 14-3 2h-3v-72l16-9 11-6 24-13 17-10z" fill="#FBFBFB"/>
<path transform="translate(696,522)" d="m0 0 4 1v69l-49 28-27 15-6 4h-3v-70l9-6 25-14 23-13 11-6 12-7z" fill="#FBFBFB"/>
<path transform="translate(816,290)" d="m0 0h4v62l-1 8-10 7-22 12-16 9-10 6-22 12h-3v-70l13-8 24-13 17-10 23-13z" fill="#FAFAFA"/>
<path transform="translate(627,397)" d="m0 0 2 1v69l-10 7-33 18-22 13-14 7-5 2v-70l9-6 25-14 14-8 12-7 11-6z" fill="#FBFBFB"/>
<path transform="translate(792,468)" d="m0 0h3v69l-14 9-17 10-25 14-15 9-10 5h-3v-69l10-7 22-12 15-9 33-18z" fill="#FCFCFC"/>
<path transform="translate(722,343)" d="m0 0h2v71l-7 5-11 6-13 7-23 13-22 12-4 3h-3v-71l11-7 14-7 13-8 28-15z" fill="#FCFCFC"/>
<path transform="translate(531,451)" d="m0 0h2l1 30-1 39-3 3-24 14-14 8-23 13-16 9h-3v-70l5-4 14-7 16-9 18-10 24-14z" fill="#FCFCFC"/>
<path transform="translate(886,415)" d="m0 0h4v69l-9 6-25 14-23 13-18 10-5 3h-3l-1-69 7-5 11-6 14-8 11-6 25-14z" fill="#FBFBFB"/>
<path transform="translate(634,478)" d="m0 0 6 1 11 7 11 6 16 9 14 9-1 3-27 15-13 8-11 6-13 7-15 9-5-1-16-9-15-9-17-10-6-4 1-3 22-12 23-13 10-6 14-7z" fill="#FBFBFB"/>
<path transform="translate(729,424)" d="m0 0 6 1 22 13 22 12 9 6-1 3-11 6-15 9-33 18-22 13-8-4-13-8-19-11-14-8-4-4 9-6 17-9 23-13 27-15z" fill="#FBFBFB"/>
<path transform="translate(467,407)" d="m0 0h5l14 8 24 14 16 9v4l-24 13-14 8-23 13-19 11-6-2-19-11-11-7-11-6-12-7v-2l46-26 18-10z" fill="#FBFBFB"/>
<path transform="translate(540,531)" d="m0 0 7 3 24 14 16 9 9 6v3l-11 7-11 6-10 6-11 6-29 16-8 5-4-1-29-17-10-6-11-6-4-2v-3l17-10 13-7 45-25z" fill="#FBFBFB"/>
<path transform="translate(564,353)" d="m0 0 5 1 24 14 11 7 11 6 6 3 1 3-11 7-11 6-18 10-15 9-11 6-15 8-5-1-24-14-23-13-6-4v-3l23-13 19-10 15-9 17-9z" fill="#FBFBFB"/>
<path transform="translate(659,300)" d="m0 0 6 1 16 9 21 12 13 8 2 3-15 9-23 13-16 9-24 14-7 1-16-10-25-14-13-8 2-4 11-6 24-13 24-14 16-8z" fill="#FBFBFB"/>
<path transform="translate(824,371)" d="m0 0 7 1 11 7 11 6 24 14 5 3v3l-27 15-10 6-26 15-17 10-16-8-17-11-11-6-12-7v-4l17-10 14-8 12-7 11-6 12-7z" fill="#FBFBFB"/>
<path transform="translate(754,246)" d="m0 0 6 1 21 12 17 10 14 8v4l-11 6-23 12-11 7-11 6-10 6-17 8-11-7-11-6-17-10-15-9-1-3 21-12 24-13 12-7 11-6z" fill="#FBFBFB"/>
<path transform="translate(128,414)" d="m0 0 6 1 16 10 23 13 12 7 5 3 1 13-1 59-6-1-11-7-11-6-16-9-17-10-1-2z" fill="#FCFCFC"/>
<path transform="translate(448,589)" d="m0 0 5 1 22 12 24 14 9 6 1 6v65l-4 1-14-8-10-6-14-8-14-7-5-5z" fill="#FBFBFB"/>
<path transform="translate(211,370)" d="m0 0 5 1 9 6 14 7 15 9 17 10 1 14v58l-5-1-26-15-18-10-11-6-1-2z" fill="#FBFBFB"/>
<path transform="translate(380,463)" d="m0 0 12 6 25 15 11 6 10 6v73l-5-2-24-13-29-17-1-1v-72z" fill="#FAFAFA"/>
<path transform="translate(312,581)" d="m0 0 5 1 22 12 13 8 11 6 10 6 21 12 2 3-8 5-26 15-27 15-20 12h-3z" fill="#FBFBFB"/>
<path transform="translate(249,476)" d="m0 0 4 2 17 9 5 3h5l18-11 2 1v79l-5-2-16-9-14-8-16-9-18-11 1-3 13-8 2-3 1-29z" fill="#FCFCFC"/>
<path transform="translate(196,368)" d="m0 0h4v68l-1 2-7-1-17-10-13-8-24-14v-4l25-14 12-7 11-6z" fill="#F9F9F9"/>
<path transform="translate(274,326)" d="m0 0h2v66l-4-1-27-15-13-8-14-8 1-3 10-6 14-7 14-9 14-7z" fill="#FBFBFB"/>
<path transform="translate(284,411)" d="m0 0 5 1 16 9 22 13 1 2v14l-9 6-10 6-22 12h-4v-62z" fill="#FCFCFC"/>
<path transform="translate(203,450)" d="m0 0 15 8 17 10 2 2v30l-5 5-27 15-3 1v-70z" fill="#FCFCFC"/>
<path transform="translate(409,567)" d="m0 0 4 1 11 6 12 7 1 14v40l-4 1-22-13-2-2z" fill="#FCFCFC"/>
<path transform="translate(299,571)" d="m0 0h2l1 2 1 86h3l2 2 2 15 1 3h5l-3 4-4 2-4 6-2-1-1 21 1 40 2-2 3 5 1 7v7l-1 3h-3l-1 2-1-2-1 21-2 2-4-1 3-1 1-102-5-2-1-2 4 1-4-4-11-6-2-1v-2h2l1-3 8 4v-2l5 2 3 1z" fill="#6D6D6D"/>
<path transform="translate(215,526)" d="m0 0h5l10 6 14 8 19 11 11 6 17 10 9 5v104l-5-1-11-7-11-6-16-9-15-9 3-1 14 8 5 3 11 7 14 7 7 5 3 1v-33l-3-1v-4h3l-2-4-1-1v-14h2l1-43h-2v-2l-6-2h-2l1 3-2 1-6-2 1-4 2-1-5-4-10-5v-2l-4-1-8-3v-2l-6-2-13-8-14-8-6-3v-2h-3v2h-2v98l4 1 6 3v2l-5-2-7-4v-98z" fill="#E5E5E5"/>
<path transform="translate(340,442)" d="m0 0 5 2 12 7 7 4 2 2 1 20-3 1-14-8-14-9 2-5 1-13z" fill="#FCFCFC"/>
<path transform="translate(151,513)" d="m0 0 5 2 10 6 10 5 16 9 5 1h3l1 211 1 3 5 2 11 7 11 6 16 9 1 2-4-1-18-10-15-9-3-1v-2l-5-2-3-5v-207l-5-1-17-9-8-5-7-3v-2l-4-1-6-3z" fill="#E5E5E5"/>
<path transform="translate(313,330)" d="m0 0 5 2 16 9 21 12 10 6 1 1 1 82-4 1-11-7-19-11-15-9 3-1 10 6 3-1 1-2h2l2-5 3 4-1 2 2 1-4 2-1 2-1 1 4 1v2h4v2h2l2-6 6 2 2 4-1 4-1 1 3 1v2l6 2v-10l-1-7h-2v-2h-7l-6-4 4-3 7 3 1 1 3-4 1 5v-58l-16-9-15-9-8-4-4 1-2-5-6-3z" fill="#E5E5E5"/>
<path transform="translate(284,411)" d="m0 0 5 1 16 9 22 13 1 2v14l-9 6-10 6-22 12h-4v-62zm1 1v61l8-4 16-9 14-8 3-2v-15h-3l-1-2 1 9h-5l-1 3-3-5 2-4 1-4 2-1-21-12-12-7z" fill="#E5E5E5"/>
<path transform="translate(298,479)" d="m0 0 2 1v79l-5-2-16-9-14-8-16-9-13-8 3-1 11 7 6 3 1-4-2-1 2-5 2-2-1-6 2-5 2 4v5l3 4-1 2-4 2 3 1-3 1-1 4v2l5 2 13 8 10 6 3 1v2l4 1 5 3v-75l-7 2v2l-11 6h-7l-8-4v-2l5 2 4 2h5z" fill="#E5E5E5"/>
<path transform="translate(128,414)" d="m0 0 6 1 16 10 23 13 3 3-4-1-7-4-5-1-2-2-5-4-16-9-7-4 1 32v38l11 6 6 2v2l6 2 4 2 5 4 14 8 4 2v2l-5-2-16-9-21-12-10-6-1-2z" fill="#E5E5E5"/>
<path transform="translate(212,641)" d="m0 0 4 1 14 7 10 6 14 8 1 2-4-1-21-12-17-9 1 8 1 58-1 33 5 2 4 2v2l4 1 3 1v2l4 1 10 6-2 1-27-15-3-3z" fill="#E5E5E5"/>
<path transform="translate(409,567)" d="m0 0 4 1 11 6 12 7 1 14v40l-4 1-22-13-2-2zm2 3v51l9 6h3v2l12 6v-52l-8-5-11-7z" fill="#E5E5E5"/>
<path transform="translate(300,706)" d="m0 0h1l1 5 1 40 2-2 3 5 1 7v7l-1 3h-3l-1 2-1-2-1 21-2 2-4-1 3-1z" fill="#6E6E6E"/>
<path transform="translate(394,643)" d="m0 0 4 1-1 101-6 4-10 5-2-1 8-5 7-4h2l-1-12v-86l-10 5-15 9-12 7-4 2-3-1 25-14 14-9z" fill="#E5E5E5"/>
<path transform="translate(854,372)" d="m0 0 4 1 42 24 3 4 1 6v70l-1 13-8 7-12 6-2-1 14-8 6-5v-86l-1-4-5-2-13-8-11-6-16-9z" fill="#E5E5E5"/>
<path transform="translate(349,669)" d="m0 0h2v2l-14 7-11 7-11 6-1 99 1 2-4-1 1-101 14-8 18-10z" fill="#E5E5E5"/>
<path transform="translate(611,745)" d="m0 0h1l1 102 6-2-1 2 4 1 1 3-10 7-4 2h-5l-1-4h2l1-4 4-4z" fill="#6E6E6E"/>
<path transform="translate(612,745)" d="m0 0h2v100l19-11 2 1-16 10-7 3z" fill="#E5E5E5"/>
<path transform="translate(471,601)" d="m0 0 5 2 27 15 5 4 1 6v65l-4 1-14-8-4-4 4 1 2-4v5l10 6 4 2-1-13v-56l-13-8-22-12z" fill="#E5E5E5"/>
<path transform="translate(211,640)" d="m0 0 3 1h-2l1 101 2 3-4-1v2l6 2 1 4h-4v-3l-4 1v-2l-3 1-3-3v-7l1-3 6-2-1-76-2-3 1-4 1-2v-7z" fill="#6E6E6E"/>
<path transform="translate(274,326)" d="m0 0h2v66l-4-1-27-15-13-8-14-8 1-3 2 1-1 2 4 1 13 7 15 9 21 12v-60l-4 1z" fill="#E5E5E5"/>
<path transform="translate(637,640)" d="m0 0h2v2l-14 7-9 5h-2v69l-1 7 14-8 8-5 3 1-17 10-8 5-2-2 1-76 3-3 11-6z" fill="#E5E5E5"/>
<path transform="translate(522,796)" d="m0 0h2v2l-9 5-4 1 1 99 4-1-5 4h-2v-102z" fill="#E5E5E5"/>
<path transform="translate(447,789)" d="m0 0 9 2 1 3-1 2 2 4 3 3-4 2-2 6h-5l-6-4 4-1-2-4v-4h-6l1-4z" fill="#E6E6E6"/>
<path transform="translate(203,450)" d="m0 0 15 8 17 10 2 2v30l-5 5-9 5h-2v-2l11-6 2-1v-31l-14-8-9-5-7-4v65l7-4 3 1-10 6h-2v-70z" fill="#E5E5E5"/>
<path transform="translate(563,597)" d="m0 0h2v2l-11 6-24 13-7 4-1 69 5-3 2 1-6 4h-3v-72l16-9 11-6z" fill="#E5E5E5"/>
<path transform="translate(531,451)" d="m0 0h2l1 30-1 39-3 3-5 3-2-1 7-5 1-49-1-17-16 9-15 9-7 4-3-1 14-8 24-14z" fill="#E5E5E5"/>
<path transform="translate(706,721)" d="m0 0 4 1 1 9v24l-1 6-4 1-1-3v-36z" fill="#6E6E6E"/>
<path transform="translate(312,581)" d="m0 0 5 1 7 4-3 1-6-4v90l5-3 3 1-8 5h-3z" fill="#E5E5E5"/>
<path transform="translate(491,297)" d="m0 0h2v2l-11 6h-3v2l-3 1 1 78 15-8 2 1-16 9-3 1-1-1-1-80 3-3z" fill="#E5E5E5"/>
<path transform="translate(497,803)" d="m0 0h2v103l-4 1v-2h2z" fill="#6E6E6E"/>
<path transform="translate(411,753)" d="m0 0 11 6 16 9 15 9-3 1-15-9-14-8-10-6 1 41v21l-1 38 5 2 11 6v2l-5-2-12-7-1-4 1-98z" fill="#E5E5E5"/>
<path transform="translate(302,561)" d="m0 0 5 2 3 5 7 3 3-1 5 4-2 1v2l-6 1-11-2-10-10v-3z" fill="#6D6D6D"/>
<path transform="translate(492,700)" d="m0 0 5 2 1 85-1 2-5-2-16-9-43-25 3-1 16 9 15 9 9 5 11 7 9 5-1-84-3-1z" fill="#E5E5E5"/>
<path transform="translate(563,517)" d="m0 0h2v2l-8 4v2l22 13 13 8 9 5 8 5 6-2 7-5 22-12h2v-2l14-7 2 1-11 7-11 6-13 7-15 9-5-1-16-9-15-9-17-10-6-4 1-3z" fill="#E5E5E5"/>
<path transform="translate(532,700)" d="m0 0 2 1-11 7-8 3-4-1 1 80-3 1-1-3 1-79 10-2z" fill="#E5E5E5"/>
<path transform="translate(411,636)" d="m0 0 14 7 11 7 1 15 4 6-5-2-1-2-1-15-3-3-3-1v-2l-4-1-7-4-4-1v-2h-2l1 7v93l7 4v2l-5-2-4-3v-102z" fill="#E5E5E5"/>
<path transform="translate(672,371)" d="m0 0h2v2l-31 17v67l20-11 3 1-21 12-4 1v-71l11-7 14-7z" fill="#E5E5E5"/>
<path transform="translate(211,370)" d="m0 0 5 1 9 6 14 7 11 7-2 1-16-9-6 1-1-4-2-1v-2l-4-1-2-1v-2h-3l-1 9v60l4 1 3 1v2l-6-2-3-3z" fill="#E5E5E5"/>
<path transform="translate(598,752)" d="m0 0 4 1v101l-1 2-2-1 1-4v-96l-3-2z" fill="#6E6E6E"/>
<path transform="translate(802,637)" d="m0 0 5 1v100h-3v-99h-2z" fill="#6E6E6E"/>
<path transform="translate(268,402)" d="m0 0 3 1 1 14v58l-5-1-26-15-3-3 6 2 16 9 10 6v-69h-2z" fill="#E5E5E5"/>
<path transform="translate(472,484)" d="m0 0 2 1-11 7-10 5-1 68 7-4 2 1-8 5h-3v-70l5-4 14-7z" fill="#E5E5E5"/>
<path transform="translate(841,441)" d="m0 0 1 2-14 7-13 8-5 3h-2l1 12v55l2 1-4 1-1-69 7-5 11-6 14-8z" fill="#E5E5E5"/>
<path transform="translate(797,255)" d="m0 0 4 1 27 15 5 5 1 82 6 4v2l-5-2-4-4v-81l-8-6-25-14z" fill="#E5E5E5"/>
<path transform="translate(713,513)" d="m0 0 2 1-2 3v65l17-9 7-4 2 1-15 9-10 5h-3v-69z" fill="#E5E5E5"/>
<path transform="translate(722,343)" d="m0 0h2v71l-7 5-3-1 6-4h2v-68l-11 6-4 1 3-3z" fill="#E5E5E5"/>
<path transform="translate(262,669)" d="m0 0 5 2 13 7 17 10 3 2v102l-2 1-8-5 3-1 6 4v-100l-5-2-14-8-4-2v-2l-4-1-9-5z" fill="#E5E5E5"/>
<path transform="translate(651,207)" d="m0 0h3v81l-3 3-4 1 4-4 1-79-3-1z" fill="#E5E5E5"/>
<path transform="translate(176,441)" d="m0 0 5 2 8 4 1 1 1 13-1 59-6-1-3-3 4 1 2 1 1-55v-14l-12-6z" fill="#E5E5E5"/>
<path transform="translate(448,589)" d="m0 0 5 1-3 1 1 69 3 2v2l4 1 3 3-6-2-5-3-2-3z" fill="#E5E5E5"/>
<path transform="translate(352,484)" d="m0 0 5 2 9 5 1 2 1 48 4 4 14 8-2 2-6-4-1 5h-1l-1-6-2-1v-2l-5-2-3-3v-50l-6-2-7-4z" fill="#E5E5E5"/>
<path transform="translate(429,678)" d="m0 0 6 1 1 2h5l2 3 7 3v3l-5 1-1-2-4-1-1 3-1-5h-2l-1 5 5 5-5-1-4-3v-6l-5-1v-2l3-2z" fill="#E5E5E5"/>
<path transform="translate(222,673)" d="m0 0h3l3 5v2l11-1 4 2-1 1h-6l-2 6-4 2-5-6v-3l-8 2v-9z" fill="#E5E5E5"/>
<path transform="translate(386,554)" d="m0 0 6 2 5 3v56l-5-2-11-6-6-4 3-1 13 8 3 1 1-3-1-48-8-4z" fill="#E5E5E5"/>
<path transform="translate(503,846)" d="m0 0 2 1 1 4v27l-2 9-2-2-1-15v-17z" fill="#6E6E6E"/>
<path transform="translate(364,358)" d="m0 0 3 1 1 13v72l-4 1v-2l2-1-1-82z" fill="#6E6E6E"/>
<path transform="translate(246,776)" d="m0 0 6 2 20 11 25 15 8 4 5-1 23-13h2v2l-9 5-11 6-5 3h-6l-19-10-7-5-10-5v-2l-4-1-14-7z" fill="#E5E5E5"/>
<path transform="translate(627,397)" d="m0 0 2 1v69l-4 2v-2h2l-1-67-3 2-3-1z" fill="#E5E5E5"/>
<path transform="translate(340,442)" d="m0 0 5 2 12 7 7 4 2 2 1 20-3 1-14-8-14-9 2-5 1-13zm1 2-1 11-2 6 20 12h3v2l4 1v-17l-4-4-6-4h-3v-2h-4v-2z" fill="#E5E5E5"/>
<path transform="translate(157,454)" d="m0 0 2 3h3l2 4-1 2h5l2-3 2 1-1 5h-3l-2 4-5 1-3 1-5-1 3-1-1-7v-6z" fill="#E5E5E5"/>
<path transform="translate(502,754)" d="m0 0h3l1 2v27l-3 2-2-1v-28z" fill="#6E6E6E"/>
<path transform="translate(308,373)" d="m0 0 4 1 1 4-3 1-2 7-6-1-5-4 1-5 4-2z" fill="#E9E9E9"/>
<path transform="translate(378,462)" d="m0 0 3 1-1 1-1 72h-2v-73z" fill="#6E6E6E"/>
<path transform="translate(437,781)" d="m0 0 2 1-1 4h-2v2l4 1v5l-4 1-1 3-4-2-5-1v-5l4-3 5-3z" fill="#E5E5E5"/>
<path transform="translate(228,435)" d="m0 0 10 1 5 4-5 1v3l4 1-1 4h-8l-2-6-1-2 1-3h-4z" fill="#E5E5E5"/>
<path transform="translate(395,641)" d="m0 0h4l-1 105h-3l1-1 1-101-3-2z" fill="#6E6E6E"/>
<path transform="translate(234,467)" d="m0 0 4 2 1 33 6 1v4l-6 3-6-1v-2l-3-2 5-3 1-2v-30z" fill="#6E6E6E"/>
<path transform="translate(757,778)" d="m0 0 2 1-11 7-9 5-16 9-25 14-4 1 3-3 16-9 17-10 11-6z" fill="#E5E5E5"/>
<path transform="translate(240,621)" d="m0 0h5l8 10-1 5-4-1v-2h-5l-3-4z" fill="#E5E5E5"/>
<path transform="translate(764,443)" d="m0 0 6 2 18 11-1 3-11 6-15 9-11 6-4 1 4-4 11-6 10-6 11-6 3-2-7-5-11-6z" fill="#E5E5E5"/>
<path transform="translate(704,584)" d="m0 0 3 1 3 9v10l-4 1-4-8 1-11z" fill="#6E6E6E"/>
<path transform="translate(391,250)" d="m0 0h2l4 4 25 14 11 7 7 3v2l4 1 6 3v2l-5-2-23-13-21-12-10-6z" fill="#E5E5E5"/>
<path transform="translate(341,563)" d="m0 0 4 2 4-2v3l1 6 2 2-10-1h-8v-4l5-1v-3z" fill="#E5E5E5"/>
<path transform="translate(483,705)" d="m0 0 2 1 5 6 1 5-2 6h-5l-3-9 1-8z" fill="#E5E5E5"/>
<path transform="translate(288,316)" d="m0 0 6 2 5 4-4-1-4-2-1 3v77h-2z" fill="#E5E5E5"/>
<path transform="translate(378,637)" d="m0 0 3 1-24 14-22 12-10 6h-2v-2l11-6 18-10 13-8 12-6z" fill="#E5E5E5"/>
<path transform="translate(614,603)" d="m0 0h1v36l-5 2-2-3 1-9 4-1z" fill="#6E6E6E"/>
<path transform="translate(249,476)" d="m0 0 4 2 13 7-4 2-4-4-7-3-1 26-3 5-3-1 3-4 1-29z" fill="#E5E5E5"/>
<path transform="translate(345,599)" d="m0 0 5 2 13 7 10 6 21 12 2 3-6 4h-2v-2l5-3-27-15-11-7-7-3v-2l-3-1z" fill="#E5E5E5"/>
<path transform="translate(217,691)" d="m0 0 1 3 3-1 3 3 2 7-3 7-5-2 1-4h-1l-2-9z" fill="#E6E6E6"/>
<path transform="translate(462,891)" d="m0 0h5l11 7v3l-1 2-6-2-10-6z" fill="#6E6E6E"/>
<path transform="translate(431,867)" d="m0 0 4 1 12 6 9 6 21 12 8 4v2l-6-2-16-9-13-8-19-11z" fill="#E5E5E5"/>
<path transform="translate(356,346)" d="m0 0 4 1h3l2-1 8 4 4-1-3 3h-4v3l-4 1-11-6z" fill="#6D6D6D"/>
<path transform="translate(680,296)" d="m0 0 4 1 22 12 11 7 12 7h5l-4 3-11-6-17-10-22-13z" fill="#E5E5E5"/>
<path transform="translate(371,756)" d="m0 0 4 1-24 14-11 7-11 6-4 1v-2l4-2h3v-2l7-4h3v-2l7-4h3v-2l12-6z" fill="#E5E5E5"/>
<path transform="translate(697,520)" d="m0 0 4 1 1 71h-3v-69l-2-1z" fill="#6E6E6E"/>
<path transform="translate(556,259)" d="m0 0 3 1v83h-1l-1-81-2-2z" fill="#6E6E6E"/>
<path transform="translate(245,759)" d="m0 0 3 1v2l6 2 7 4 4 1v2h3v2l6 2 13 9 3 1v2l-5-2-20-12-21-12z" fill="#E5E5E5"/>
<path transform="translate(228,718)" d="m0 0 3 1 2 5 1 3-1 8-9-4 5-10h-6v-2z" fill="#E5E5E5"/>
<path transform="translate(619,180)" d="m0 0 5 2 10 6 11 6 2 1-2 4-14 7-7 4-2-1 11-7 10-5 1-2-5-2-10-6-10-5z" fill="#E5E5E5"/>
<path transform="translate(397,553)" d="m0 0h3l1 5-2 1-1 57-3-1h2l-1-56-2-2h3v-2l-2-1z" fill="#6E6E6E"/>
<path transform="translate(680,489)" d="m0 0 4 1 19 11 7-1 15-9 3 1-22 13-8-4-13-8-5-3z" fill="#E5E5E5"/>
<path transform="translate(676,811)" d="m0 0 2 1-3 2 4 1-1 5-5 3h-3l-2-4-4-1z" fill="#6D6D6D"/>
<path transform="translate(437,293)" d="m0 0 5 2 13 7v3l-15 8-14 8h-2v-2l10-5 15-9 3-2-11-6-4-2z" fill="#E5E5E5"/>
<path transform="translate(448,675)" d="m0 0 6 2 24 14 11 6 3 3-6-2-9-5-2 1-3-4-3-1v-2l-4-1-10-6-7-3z" fill="#E5E5E5"/>
<path transform="translate(283,409)" d="m0 0 4 1-3 2-1 62 4 1-5 1v-66z" fill="#6E6E6E"/>
<path transform="translate(394,749)" d="m0 0 4 1-1 5-7 4h-4l-1-4 1-2z" fill="#6E6E6E"/>
<path transform="translate(458,610)" d="m0 0 6 1 2 6v5h-5l-1-4 1-2h-5l-2 2 1-6z" fill="#E5E5E5"/>
<path transform="translate(337,456)" d="m0 0v3 2l13 8-2 1 3 5-5-2-6-2-2-3v-4l-4-4z" fill="#6D6D6D"/>
<path transform="translate(349,424)" d="m0 0 6 2 2 4-1 4-6 1-2-3v-7z" fill="#E6E6E6"/>
<path transform="translate(206,388)" d="m0 0 2 2v11l-1 2 1 9-1 2h-2l-1-24z" fill="#6E6E6E"/>
<path transform="translate(596,371)" d="m0 0 5 2 10 6 10 5 1 3-11 7-6 3h-2v-2l10-5 4-3h2v-2l-5-2-12-7-3-1v-2h-3z" fill="#E5E5E5"/>
<path transform="translate(410,628)" d="m0 0h6l4 2v2l6 2-4 3-5-1-6-4z" fill="#6D6D6D"/>
<path transform="translate(418,605)" d="m0 0 1 2h2v-2h2l-1 4 5-1 1 2-5 3v3l2 3-3 1-3-3-2-3z" fill="#E5E5E5"/>
<path transform="translate(244,550)" d="m0 0 4 2v6l-4 3h-6l2-6z" fill="#E6E6E6"/>
<path transform="translate(799,495)" d="m0 0 4 2 1 14-3 2-2-1z" fill="#6E6E6E"/>
<path transform="translate(264,640)" d="m0 0 2 1-1 4 3 3-1 4-2 1-7-4 1-6z" fill="#E5E5E5"/>
<path transform="translate(311,445)" d="m0 0 1 3-3 3-4 2-8-1-1-5 5-1z" fill="#E5E5E5"/>
<path transform="translate(775,298)" d="m0 0 3 1-11 7-11 6-10 6-6 3h-2v-2l11-6 13-7z" fill="#E5E5E5"/>
<path transform="translate(436,581)" d="m0 0h1l1 10v46l-4 1v-2l2-1z" fill="#6E6E6E"/>
<path transform="translate(233,521)" d="m0 0 9 5-2 2 1 2h-4v2l-5-2-2-3v-3l5 1v-2h-2z" fill="#6D6D6D"/>
<path transform="translate(469,731)" d="m0 0 5 1 3 2-5 4-1 4h-5l2-10z" fill="#E5E5E5"/>
<path transform="translate(537,893)" d="m0 0 4 2v3l-7 4h-4v-2l-2-1z" fill="#6E6E6E"/>
<path transform="translate(241,716)" d="m0 0 4 2 1 4h-3l-2 3 2 3-6-1v-8z" fill="#E5E5E5"/>
<path transform="translate(761,486)" d="m0 0 1 2-11 6-12 7-11 6-3-1 23-13 10-6z" fill="#E5E5E5"/>
<path transform="translate(477,629)" d="m0 0h5l4 7v2l-4 1-4-4-3-1 1-4z" fill="#E5E5E5"/>
<path transform="translate(326,636)" d="m0 0 2 4v2l3 1-2 4 1 7 3 2v2l-4-1-3-8-2-8z" fill="#E5E5E5"/>
<path transform="translate(460,632)" d="m0 0 6 1 1 4-3 3-5-2-2 2h-4l1-2 2 1 1-4 3-1z" fill="#E5E5E5"/>
<path transform="translate(470,638)" d="m0 0 4 1 2 6v7l-5-2h-1z" fill="#E5E5E5"/>
<path transform="translate(272,635)" d="m0 0 5 1-2 9h-4l-2-1 1-7z" fill="#E5E5E5"/>
<path transform="translate(756,769)" d="m0 0 3 1-2 4-8 5-4 1 2-5z" fill="#6D6D6D"/>
<path transform="translate(427,753)" d="m0 0 6 2 5 5-6 2-5-2-1-6z" fill="#6E6E6E"/>
<path transform="translate(342,624)" d="m0 0 1 3 5-1 1 2 3 1v2l-2 1-2 4-6-5z" fill="#E5E5E5"/>
<path transform="translate(459,744)" d="m0 0 2 1-1 2 5 3-1 4-1 1h-6l-1-6 2-1z" fill="#E5E5E5"/>
<path transform="translate(858,502)" d="m0 0 2 1h1l4 1 3 2-8 4-4-2v-2l-5 1 1-2z" fill="#6D6D6D"/>
<path transform="translate(328,493)" d="m0 0h5l2 2-1 5-1 1h-5l-1-1z" fill="#E5E5E5"/>
<path transform="translate(278,784)" d="m0 0 5 2 5 5-6 1-3-1v-2h-3v-4z" fill="#6E6E6E"/>
<path transform="translate(325,730)" d="m0 0 2 2 4 1-4 4 3 6-4 4-2-1z" fill="#E5E5E5"/>
<path transform="translate(370,585)" d="m0 0 5 1-1 4 1 2h-5-3l-1-3-4-2z" fill="#E5E5E5"/>
<path transform="translate(154,474)" d="m0 0 7 2-2 5-6 2-2-4z" fill="#E5E5E5"/>
<path transform="translate(455,811)" d="m0 0 5 1 1 2-7 1-4 1-2-1 1 2 8 1v1h-10l-1-4z" fill="#E5E5E5"/>
<path transform="translate(284,578)" d="m0 0h8l-1 2h-2l2 5-7-1-2-5z" fill="#E5E5E5"/>
<path transform="translate(294,407)" d="m0 0 6 1 3 2v3l-5 1-5-3z" fill="#6E6E6E"/>
<path transform="translate(265,491)" d="m0 0 4 1-1 3-4 5-3 1-3-1v-2l4-4h2z" fill="#E7E7E7"/>
<path transform="translate(147,414)" d="m0 0 5 1 1 3 2 1-5 3-4-2-1-5z" fill="#6E6E6E"/>
<path transform="translate(300,427)" d="m0 0 3 1 2 3v6l-4-1v-3l-2 1-2-2v-3z" fill="#E5E5E5"/>
<path transform="translate(362,547)" d="m0 0 9 1v4l-1 2-5 1-2 1z" fill="#E5E5E5"/>
<path transform="translate(174,470)" d="m0 0h4v5l-3 3h-3v-3l-3-1z" fill="#E5E5E5"/>
<path transform="translate(321,384)" d="m0 0h3l4 6-10 2v-5z" fill="#E5E5E5"/>
<path transform="translate(319,547)" d="m0 0 5 1 4 4-2 5-4-3v-2l-3 1z" fill="#E5E5E5"/>
<path transform="translate(238,666)" d="m0 0 6 1 1 4-6 1-4-2v-2z" fill="#E6E6E6"/>
<path transform="translate(464,648)" d="m0 0h2l-1 8h-2v-2l-7 2-1-2z" fill="#E5E5E5"/>
<path transform="translate(350,614)" d="m0 0 5 1 2 2-5 2-3 3-2-4z" fill="#E5E5E5"/>
<path transform="translate(440,838)" d="m0 0 5 1 4 3-6 2-3-1-1-4z" fill="#E5E5E5"/>
<path transform="translate(318,730)" d="m0 0h2v13l-2 5-2-1 2-3h-2l1-4 1-2z" fill="#E5E5E5"/>
<path transform="translate(338,539)" d="m0 0h5l-1 6-3 1-3-2z" fill="#E5E5E5"/>
<path transform="translate(297,332)" d="m0 0h2v2l8-1 1 4-2 1h-6l-3-4z" fill="#E5E5E5"/>
<path transform="translate(334,684)" d="m0 0 3 1v2l-1 5h-3l-1-4-2-1z" fill="#E5E5E5"/>
<path transform="translate(222,638)" d="m0 0h5l6 4v3l-8-2v-4z" fill="#6E6E6E"/>
<path transform="translate(278,625)" d="m0 0 9 3-1 4-6-1-2-3z" fill="#E5E5E5"/>
<path transform="translate(217,585)" d="m0 0 1 2 5 1-3 6h-2l-1 2z" fill="#E5E5E5"/>
<path transform="translate(392,484)" d="m0 0h7l-2 4v3h-3l-3-6z" fill="#E5E5E5"/>
<path transform="translate(893,444)" d="m0 0h2l2 5-1 6h-2l-1-2z" fill="#6E6E6E"/>
<path transform="translate(217,372)" d="m0 0 12 7 1 3-4-1-3-2v-2l-4-1-2-1z" fill="#E6E6E6"/>
<path transform="translate(589,139)" d="m0 0h2v2l-6 2 3 3 5 3-2 1-9-5 1-3z" fill="#E5E5E5"/>
<path transform="translate(235,644)" d="m0 0 5 2 2 3-4 2-4-4z" fill="#6E6E6E"/>
<path transform="translate(408,531)" d="m0 0h5l1 5h-6l-2-4z" fill="#E5E5E5"/>
<path transform="translate(438,843)" d="m0 0h2l2 3v5h-3l-2-2z" fill="#E5E5E5"/>
<path transform="translate(461,822)" d="m0 0 6 1-3 5-4-1z" fill="#E5E5E5"/>
<path transform="translate(323,693)" d="m0 0 5 5 2 3h-6l-1-1z" fill="#E5E5E5"/>
<path transform="translate(367,732)" d="m0 0h3l-1 7-5 1 1-4z" fill="#E5E5E5"/>
<path transform="translate(221,486)" d="m0 0 3 1v6l-5 1 1-7z" fill="#E5E5E5"/>
<path transform="translate(427,841)" d="m0 0 5 1-4 4-4 1-1-5 4 1z" fill="#E5E5E5"/>
<path transform="translate(423,516)" d="m0 0 4 2-1 5-3 2-1-7z" fill="#E5E5E5"/>
<path transform="translate(319,554)" d="m0 0 1 4-1 5h-3v-8z" fill="#E6E6E6"/>
<path transform="translate(322,512)" d="m0 0 3 1v6l-2 1-2-1v-6z" fill="#E5E5E5"/>
<path transform="translate(483,805)" d="m0 0 2 1-1 5h-3l1-2-6 1 4-3z" fill="#E6E6E6"/>
<path transform="translate(283,755)" d="m0 0 1 3-1 6v3l-4-2-1-3 3-2z" fill="#E5E5E5"/>
</svg>
