<?xml version="1.0" encoding="UTF-8"?>
<svg version="1.1" viewBox="0 0 1024 1024" width="1024" height="1024" xmlns="http://www.w3.org/2000/svg">
<path transform="translate(0)" d="m0 0h1024v1024h-1024z" fill="#FCFCFC"/>
<path transform="translate(562,79)" d="m0 0 6 2 11 6 14 8 11 6 3 3 1 133 5-2 15-9 10-4 6 1 13 8 11 6 19 11 22 12 8 5 11 6 19 11 11 6 16 9 8 5 11 6 27 15 19 12 10 5 17 10 9 6 1 1v313l-8 6-34 20-11 6-6 3-9-1-12-6-16-10-11-6-13-8-11-6-13-8-14-7-11-7-8-4-7-5-11-6-16-9-21-13-10-5-25-15h-8l-16 10-11 6-18 11-10 5-13 8-1 1-1 244-5 5-17 10-16 9-16 10-11 6-18 11-11 6-18 11-8 2h-6l-15-8v-2l-5-2-15-9-14-7-9-5-13-8-11-6-16-9-20-12-10-5v-2l-5-1-16-10-11-6-16-9-8-5-11-6-19-11-11-6-6-4-2-3v-316l5-5 10-6 14-7 11-7 11-6 28-17 11-6 19-11 13-8 10-5 15-9 2-3v-183l4-4 11-6 18-11 11-6 18-10 16-10 11-6 16-9 9-5 13-8 11-6 26-15 21-13 11-6 18-11 11-6z" fill="#676767"/>
<path transform="translate(591,120)" d="m0 0 3 1 1 57-1 104-7 6-15 8-6 4-14 7-11 7-11 6-18 11-14 7-15 10-22 12-12 7-21 12-10 6-11 6-23 14-9 5-4-1v-140l1-22 5-4 10-5 17-10 13-8 11-6 18-11 22-12 21-12 15-9 12-7h3v-2l9-5 17-10 11-6 21-12 11-7z" fill="#FBFBFB"/>
<path transform="translate(185,506)" d="m0 0 5 1 20 12 11 6 13 8 10 5 12 7 11 6 15 8 5 3 1 1v141h-4l-22-13-11-6-20-12-12-7-14-7-11-7-9-5-1-121v-19z" fill="#FBFBFB"/>
<path transform="translate(186,663)" d="m0 0 6 1 10 7 15 9 10 5 12 7 11 6 21 12 9 5 7 5 1 2v138l-3 1-20-12-9-5-18-11-14-7-17-10-19-11-3-2-1-32v-106z" fill="#FBFBFB"/>
<path transform="translate(302,572)" d="m0 0 11 5v2l5 1 17 10 10 6 11 6 17 9 15 10 11 6 5 4v138l-5 1-8-5-18-10-24-14-29-17-17-9-2-3-1-138z" fill="#FBFBFB"/>
<path transform="translate(515,728)" d="m0 0h4v140l-5 4-14 8-8 4-16 10-10 5-11 7-11 6h-3v2l-8 4-11 7-5 1-1-1v-136l2-5 10-6 11-6 10-6 11-6 21-12 16-10 11-6z" fill="#FCFCFC"/>
<path transform="translate(301,730)" d="m0 0h5l12 7 14 7 16 10 22 12 20 12 12 7 1 1 1 9v130l-2 2-5-2-19-12-10-5-21-12-22-13-16-9-8-6-1-79v-29z" fill="#FBFBFB"/>
<path transform="translate(515,572)" d="m0 0 4 2v138l-5 4-19 10-21 13-11 6-19 11-11 6-12 7-3 1-2-1v-138l5-5 25-14 12-7 11-6 13-8 11-6z" fill="#FCFCFC"/>
<path transform="translate(860,372)" d="m0 0 4 1v127l-1 11-21 13-13 8-14 7-21 13-11 6-13 8-5 3-5-1v-138l5-4 12-6 8-5 11-6 13-8 11-6 18-10 16-10z" fill="#FCFCFC"/>
<path transform="translate(408,501)" d="m0 0 6 1 10 6 11 6 13 8 14 7 17 10 27 15 6 3-1 5-14 7-11 6-19 11-18 11-11 6-22 13-7 3-12-6-6-4-11-6-8-5-18-11-14-7-26-16-4-2-1-4 11-7 11-6 18-10 20-12 11-6 18-10z" fill="#FCFCFC"/>
<path transform="translate(753,301)" d="m0 0 10 4 9 5 13 8 9 5 15 9 14 7 16 10 11 6 5 4-1 3-15 9-12 6-18 11-11 6-23 14-11 6-8 5-6-1-16-10-11-6-15-9-16-9-17-10-19-10-3-3v-2l14-9 11-6 18-11 22-12 21-12 11-7z" fill="#FCFCFC"/>
<path transform="translate(293,435)" d="m0 0h5l10 7 33 18 16 9 11 7 10 5 11 7 5 3 2 3-5 4-11 6-14 8-11 6-10 6-12 6-28 17-8 5-7-1-11-7-11-6-17-9-21-13-11-6-14-8-11-6-1-3 8-5 21-12 11-7 11-6 32-18 11-7z" fill="#FCFCFC"/>
<path transform="translate(637,368)" d="m0 0 5 1 14 7 11 7 14 7 15 9 12 7 11 6 13 8 8 4v4l-17 9-21 13-11 6-18 10-27 16-3 2h-8l-17-10-10-5-16-10-13-8-14-7-26-16-1-3 17-10 11-6 19-11 11-6 21-12 16-10z" fill="#FCFCFC"/>
<path transform="translate(522,435)" d="m0 0h6l7 5 22 12 21 12 12 7 9 5 14 9 11 6 1 4-9 5-20 12-10 5-15 9-10 5-21 13-14 8-4-1-11-7-11-6-16-9-21-13-14-7-11-6-13-8-1-4 7-5 14-7 14-8 16-9 21-13 11-6z" fill="#FCFCFC"/>
<path transform="translate(555,320)" d="m0 0 5 1 28 17 11 6 16 9 9 6v3l-10 6-18 10-17 10-23 14-14 7-20 11-11 7-8 4-7 5-11 6-18 11-14 7-16 10-18 11-8 4-6-1-8-5-11-6-23-14-11-6-16-9-14-8-8-5-4-2 1-5 16-8 5-3h5l19 10 6 3h7l12-6 13-8 4-2 4 1 11 6 7 3 14 8 10 5 16 10h9l21-12 11-7 11-6 10-6 11-6 19-11 9-5 2-3v-6l-5-5-9-5-12-7-1-2v-31l6-4 11-6z" fill="#FCFCFC"/>
<path transform="translate(637,236)" d="m0 0 6 1 11 7 10 5 17 10 13 8 11 6 14 8 10 5 10 6-1 5-16 8-15 9-11 6-18 10-22 13-10 7-2 1h-9l-21-12-21-13-14-7-8-5-1-3 20-12 11-6 5-4 1-34 4-4 13-8 10-5z" fill="#FCFCFC"/>
<path transform="translate(803,560)" d="m0 0 4 1v123l-3 3-15-8-17-10-18-10-21-13-11-6-14-8-2-2v-67l3-1 14 8 14 7 12 7 6 3 5-2 18-10 16-10z" fill="#FBFBFB"/>
<path transform="translate(562,93)" d="m0 0 6 2 13 8 5 3-1 4-18 10-12 7-11 6-18 11-11 6-16 9-13 8-11 6-21 12-16 10-11 6-18 11-11 6-18 10-12 7h-7l-12-8-6-3v-4l10-6 28-17 11-6 19-11 11-6 16-9 8-5 11-6 15-9 16-10 22-12 18-11 11-6 21-12z" fill="#FCFCFC"/>
<path transform="translate(558,78)" d="m0 0h10l15 9v2l5 1 12 6 8 6 1 2 1 130 10-5 4-1v-2l12-6h7l10 6 12 7 3 1v2l5 1v2l5 1 17 10 3 1v2l5 1 25 15 5 2v2l5 1 12 7 11 6 12 7 17 10 11 6 8 4v2l4 1 10 5v2l4 1 25 15 5 2v2l5 1 4 2v2l5 1 6 5 2 5v307l-3 7-18 10-10 6-6 4h-4l-1 3-14 7-6 4h-6l-12-6v-2l-5-1v-2l-5-1-29-17-17-10-11-6-14-8-3-1v-2l-5-1-10-6v-2l-5-1v-2l-4-1-10-5v-2l-5-1v-2l-5-1v-2l-5-1v-2l-5-1-9-6-5-2v-2l-5-1-14-8-10-6v-2l-5-1-6-4-4 1-6 3-20 12-9 5-5 1v2l-15 9-5 2-6 4h-3v243l-3 6-10 6-11 7-11 6-15 9-9 5-17 10-12 7-6 4h-4v2l-13 8-8 4h-11l-2-2-7-3-12-7v-2l-4-1-12-7-3-1v-2l-5-1-10-6-6-3-15-9-10-5v-2l-5-1-22-13-2-2-5-2-17-10-14-8-3-1v-2l-6-2-10-6-9-5-15-9-9-5-16-8v-2l-5-1-4-3v-2l-4-1-2-4v-317l5-5 9-6 12-6h3v-2l9-5 6-3 17-10 5-3h2v-2l6-3h3l1-3 22-12 3-2h3v-2l6-3 4-1v-2l10-5 17-10h3v-2l2-2v-181l4-7 10-5 6-4h3v-2l5-1v-2l10-5 7-4h3v-2l6-3 7-4h2v-2l11-6h3v-2l5-1v-2l15-8 10-6 12-7h3v-2l8-4 3-2h3v-2l10-5 10-6 6-4h3v-2l5-1v-2l8-4 7-5 5-2 14-9 10-5 20-12zm4 1-16 8-21 12-16 10-11 6-27 16-20 12-11 6-18 10-17 10-16 9-18 11-11 6-16 9-16 10-5 3-2 2v184l-5 4-19 11-11 6-21 12-11 7-11 6-28 17-11 6-14 8-11 6-6 4-1 2v316l5 5 11 7 10 5 20 12 10 5 9 6 10 5 17 10 10 6h3v2l14 7 23 14 16 9 28 16 12 6 18 11h2v2l15 8 10-1 7-3 23-14 11-6 18-11 11-6 18-11 8-4 16-10 4-4 1-244 5-4 11-6 18-10 16-10 11-6 8-5h8l21 13 14 7 23 14 8 5 11 6 12 7 6 4 11 6 14 8 11 6 13 8 11 6 13 8 11 6 13 8 10 4 9-1 11-7 10-5 10-6 22-13 3-3v-313l-5-4-13-8-11-6-16-9-20-12-20-11-9-5-18-11-11-6-18-10-15-9-10-5-6-4-33-18-11-7-11-6-8-4-9 2-22 13h-2l-1-133-8-6-17-9-18-10z" fill="#E3E3E2"/>
<path transform="translate(860,527)" d="m0 0h4v134l-2 4-27 16-12 7-3-1v-135l7-6 17-10z" fill="#FCFCFC"/>
<path transform="translate(744,438)" d="m0 0 5 1v50l-5 4-17 9-16 9-27 16-11 6-13 8-12 6-2-1-1-48 4-4 23-14 11-6 15-9 16-9 16-10z" fill="#FCFCFC"/>
<path transform="translate(630,505)" d="m0 0 4 1v47l-2 4-10 5-21 13-11 6-26 16-14 7-15 9-3 1-1-1v-51l7-5 10-5 10-6 10-5 27-16 13-8 11-6z" fill="#FCFCFC"/>
<path transform="translate(555,320)" d="m0 0 5 1 28 17 11 6 16 9 9 6v3l-10 6-18 10-17 10-23 14-14 7-20 11-11 7-8 4-7 5-11 6-18 11-14 7-16 10-18 11-8 4-6-1-8-5-11-6-23-14-11-6-16-9-14-8-8-5-4-2 1-5 16-8 5-3h5l19 10 6 3h7l12-6 13-8 4-2 4 1 11 6 7 3 14 8 10 5 16 10h9l21-12 11-7 11-6 10-6 11-6 19-11 9-5 2-3v-6l-5-5-9-5-12-7-1-2v-31l6-4 11-6zm-158 93-8 5-5 2-12 7-5 2-5-1-24-12-4-1-17 8-4 2 1 4 11 6 13 8 9 5 6 3 7 4h2v2l10 5 15 9 7 4h2v2l5 2 6 4 6-1 4-2v-2l6-2 14-9 9-5 5-2v-2l5-1v-2l9-3 7-5 11-6 13-8 9-5 3-2v-2l-5 1v2l-6 2-9 6-5 2-9 5v2l-6 2h-6l-11-6-12-7h-2v-2l-9-4h-2v-2l-24-12z" fill="#FCFCFC"/>
<path transform="translate(334,234)" d="m0 0 5 1 8 4 9 6 3 3v161l-5 1-11-7-9-5-1-6v-157z" fill="#FBFBFB"/>
<path transform="translate(676,545)" d="m0 0h5l7 5 5 3 1 68-4 1-17-10-23-14-22-12-7-4-2-4 11-7 11-6 13-8 11-6z" fill="#FBFBFB"/>
<path transform="translate(520,340)" d="m0 0h2l1 2v21l-1 2h-2v2l-15 8-17 10-10 6-11 6-16 9-5 2-2-1 1-20 3-5 16-10 13-8 11-6 16-9 12-7z" fill="#FCFCFC"/>
<path transform="translate(745,505)" d="m0 0 4 1v62l-5 1-8-5-13-8-10-5-20-12-1-4 10-5 16-10 22-12z" fill="#FBFBFB"/>
<path transform="translate(555,320)" d="m0 0 5 1 28 17 11 6 16 9 9 6v3l-10 6-18 10-17 10-23 14-14 7-20 11-11 7-8 4-7 5-11 6-18 11-14 7-16 10-18 11-8 4-6-1-8-5-11-6-23-14-11-6-16-9-14-8-8-5-4-2 1-5 16-8 5-3h5l19 10 6 3h7l12-6 13-8 4-2 4 1 11 6 7 3 14 8 10 5 16 10h9l21-12 11-7 11-6 10-6 11-6 19-11 9-5 2-3v-6l-5-5-9-5-12-7-1-2v-31l6-4 11-6zm-2 3-8 5-7 4v29l3 3 5 3h3v2l9 4h2v2l5 4v10l-5 4-8 4v2l-5 1-10 6-5 2v2l-4 2h5l6-3v-2l6-2 5-2v-2l5-1 10-6 14-9 10-5 12-7 3-1v-2l5-1v-2l5-1 6-4v-3h-2v-2l-11-6-13-8-5-3-4-1-1-2-5-2-7-4h-2v-2l-8-4-2-2zm-156 90-8 5-5 2-12 7-5 2-5-1-24-12-4-1-17 8-4 2 1 4 11 6 13 8 9 5 6 3 7 4h2v2l10 5 15 9 7 4h2v2l5 2 6 4 6-1 4-2v-2l6-2 14-9 9-5 5-2v-2l5-1v-2l9-3 7-5 11-6 13-8 9-5 3-2v-2l-5 1v2l-6 2-9 6-5 2-9 5v2l-6 2h-6l-11-6-12-7h-2v-2l-9-4h-2v-2l-24-12z" fill="#E3E3E2"/>
<path transform="translate(591,120)" d="m0 0 3 1 1 57-1 104-7 6-15 8-6 4-14 7-11 7-11 6-18 11-14 7-15 10-22 12-12 7-21 12-10 6-11 6-23 14-9 5-4-1v-140l1-22 5-4 10-5 17-10 13-8 11-6 18-11 22-12 21-12 15-9 12-7h3v-2l9-5 17-10 11-6 21-12 11-7zm-1 2v2l-5 1v2l-5 1v2l-5 2-5 3-4 1v2l-6 2-15 9-14 7v2l-5 1v2l-5 2-9 5-6 4-5 2-4 2v2l-5 1v2l-5 1v2l-4 1-5 2v2l-6 2-5 2v2l-5 1-5 4-4 1-1 2-5 2-4 2v2l-10 4v2l-4 1-6 4-4 1v2l-6 2-4 2v2l-5 1v2l-5 1v2l-4 1-5 2v2l-6 2-5 2v2l-4 2-1 1-1 27v131l6-2 10-6 9-5 11-7 3-1v-2l5-1v-2l5-1 12-7 3-1v-2l6-2 9-5 6-4 4-1v-2l5-2 10-5v-2l5-1 5-4 14-7 10-6 5-2 1-2 8-4v-2l5-1 2-2 8-4 6-4 4-1v-2l5-2 10-5 10-6 17-10 1-86v-74z" fill="#E3E3E2"/>
<path transform="translate(528,375)" d="m0 0h6l11 7v3l-14 9-16 9-12 7-11 6-23 14h-6l-12-7 1-4 18-10 13-8 11-6 13-8 11-6z" fill="#FCFCFC"/>
<path transform="translate(302,572)" d="m0 0 11 5v2l5 1 17 10 10 6 11 6 17 9 15 10 11 6 5 4v138l-5 1-8-5-18-10-24-14-29-17-17-9-2-3-1-138zm0 3 1 29 3 3-3-1v106l9 5 5 1v2l14 7 1 2 5 1v2l5 2 9 6 5 1v2l5 1v2l10 5 7 4h3v2l9 4 1 2 5 2 4 1 1-25v-109l-1-3-5-2-6-2v-2l-5-2-4-1v-2l-10-6-3-1-1-2-5-2-10-5-9-5h-2v-2l-4-1-1-2-5-2-6-4h-3v-2l-10-5-6-4z" fill="#E3E3E2"/>
<path transform="translate(301,730)" d="m0 0h5l12 7 14 7 16 10 22 12 20 12 12 7 1 1 1 9v130l-2 2-5-2-19-12-10-5-21-12-22-13-16-9-8-6-1-79v-29zm2 2v20 2 54l2 2v5l-2 3v50l11 6 5 3h3v2l9 5 7 4 11 6h2v2l4 1 1 2 5 2 12 7h3v2l5 1v2l8 4 10 7h2v-129l-1-9-11-6-6-2v-2l-6-3h-3v-2l-5-1v-2l-5-1v-2l-5-1v-2l-9-5-10-6-5-1v-2l-10-5-13-7h-3v-2z" fill="#E3E3E2"/>
<path transform="translate(515,572)" d="m0 0 4 2v138l-5 4-19 10-21 13-11 6-19 11-11 6-12 7-3 1-2-1v-138l5-5 25-14 12-7 11-6 13-8 11-6zm-2 3-8 5-13 8-18 10v2l-5 1-10 6-10 5v2l-6 2-15 9-4 1v2l-5 2-1 5v106l1 26 5-2 6-4 4-1v-2l5-2 5-3 5-2 17-10 12-7 25-15 5-2 8-5 1-21-1-116z" fill="#E3E3E2"/>
<path transform="translate(186,663)" d="m0 0 6 1 10 7 15 9 10 5 12 7 11 6 21 12 9 5 7 5 1 2v138l-3 1-20-12-9-5-18-11-14-7-17-10-19-11-3-2-1-32v-106zm1 2-1 3 1 134 7 4h3v2l8 4 5 3h2v2l6 3h3v2l5 1v2l9 4h2v2l5 2 12 7h3v2l5 1v2l9 5 12 7h3v-102l-1-33-3-3-11-6h-2v-2l-5-1v-2l-8-4-3-2h-3v-2l-5-1v-2l-10-5-7-4h-3v-2l-9-4h-2v-2l-5-3-4-1-1-2-5-2-3-1v-2l-5-1v-2z" fill="#E3E3E2"/>
<path transform="translate(562,93)" d="m0 0 6 2 13 8 5 3-1 4-18 10-12 7-11 6-18 11-11 6-16 9-13 8-11 6-21 12-16 10-11 6-18 11-11 6-18 10-12 7h-7l-12-8-6-3v-4l10-6 28-17 11-6 19-11 11-6 16-9 8-5 11-6 15-9 16-10 22-12 18-11 11-6 21-12zm-2 3-29 17-12 7-10 5v2l-6 2-9 5-10 6-8 5v2l-5 1-6 4-4 1v2l-5 1v2l-5 2-10 6-5 2v2l-4 1-5 2v2l-6 2-9 5-6 4-5 2-20 12-8 4v2l-6 2-22 13 1 2h2v2l5 2 9 6h5l11-6 17-10 14-8 3-1v-2l5-1v-2l6-2 14-9 9-4v-2l5-1 11-7 9-5 20-12 9-4v-2l5-1v-2l5-1v-2l5-1 10-6 9-5v-2l5-1v-2l5-1 9-5v-2l6-2 10-6 10-5 5-2-3-4-11-6-5-3z" fill="#E3E3E2"/>
<path transform="translate(860,372)" d="m0 0 4 1v127l-1 11-21 13-13 8-14 7-21 13-11 6-13 8-5 3-5-1v-138l5-4 12-6 8-5 11-6 13-8 11-6 18-10 16-10zm0 2-6 3v2l-5 1-5 4-9 5-12 7-3 1v2l-5 1-25 15-9 5-6 3-5 2v2l-6 2-2 2 1 17v117l2 1 5-3 4-1v-2l5-2 17-10 16-9 10-6 6-3 9-5v-2l5-1v-2l5-2 9-5 5-3 1-5v-131z" fill="#E3E3E2"/>
<path transform="translate(515,728)" d="m0 0h4v140l-5 4-14 8-8 4-16 10-10 5-11 7-11 6h-3v2l-8 4-11 7-5 1-1-1v-136l2-5 10-6 11-6 10-6 11-6 21-12 16-10 11-6zm-1 3-6 3v2l-5 1-10 6-17 10-12 7-15 9-5 2v2l-4 1-10 5v2l-6 2-5 4-1 10v119l1 8 1-2 4-1 6-4 4-1v-2l5-2 15-8 17-10 8-4v-2l4-1 6-4 4-1 1-2 14-7 8-5 1-1v-136z" fill="#E3E3E2"/>
<path transform="translate(185,506)" d="m0 0 5 1 20 12 11 6 13 8 10 5 12 7 11 6 15 8 5 3 1 1v141h-4l-22-13-11-6-20-12-12-7-14-7-11-7-9-5-1-121v-19zm2 2-1 4 1 133 7 5 11 6 13 7 6 4h4v2l8 4h2v2l5 1v2l9 5 15 8 5 2v2l5 1v2l5 3h4v-131l-2-7-2-2-5-2-7-4h-3v-2l-10-5-10-6-6-3-17-10-6-3h-2v-2l-9-4-11-7-7-4z" fill="#E3E3E2"/>
<path transform="translate(334,234)" d="m0 0 5 1 8 4 9 6 3 3v161l-5 1-11-7-9-5-1-6v-157zm2 3v160l6 3 6 4h3v2l6 1v-158l-8-6-11-6z" fill="#E3E3E2"/>
<path transform="translate(408,501)" d="m0 0 6 1 10 6 11 6 13 8 14 7 17 10 27 15 6 3-1 5-14 7-11 6-19 11-18 11-11 6-22 13-7 3-12-6-6-4-11-6-8-5-18-11-14-7-26-16-4-2-1-4 11-7 11-6 18-10 20-12 11-6 18-10zm-2 3-7 5-11 6-12 7-5 2v2l-6 2-15 9-14 7v2l-5 1v2l-5 1-10 6-5 2 1 2h2v2l11 6 9 6h3v2l5 1v2l14 7 3 2h3v2l5 1v2l8 4 7 5 11 6 12 7 1 1h6l8-5 3-1v-2l5-1v-2l4-1 10-6 10-5v-2l5-1v-2l5-1 10-6 14-8v-2l5-1 9-5 10-5v-2l-10-4-8-5h-2v-2l-5-1v-2l-10-5-12-7h-3v-2l-10-5-15-8-8-5h-2v-2l-5-1v-2l-5-2-1-1z" fill="#E3E3E2"/>
<path transform="translate(753,301)" d="m0 0 10 4 9 5 13 8 9 5 15 9 14 7 16 10 11 6 5 4-1 3-15 9-12 6-18 11-11 6-23 14-11 6-8 5-6-1-16-10-11-6-15-9-16-9-17-10-19-10-3-3v-2l14-9 11-6 18-11 22-12 21-12 11-7zm0 2-6 3v2l-5 1v2l-5 2-10 5-17 10-3 1v2l-5 1-10 6-17 10-12 7-4 2v2l-3 1 4 4 5 3 7 3 11 6h2v2l5 2 6 4h3v2l10 5 25 15 9 5 10 6 7-3 17-10 12-7 4-2v-2l6-2 15-9 5-2v-2l4-1 5-2v-2l6-2 13-7 6-3-3-4-11-6h-3v-2l-8-4-7-5-5-2-15-9-5-1v-2l-5-1v-2l-6-3h-3v-2l-10-5-9-5z" fill="#E3E3E2"/>
<path transform="translate(293,435)" d="m0 0h5l10 7 33 18 16 9 11 7 10 5 11 7 5 3 2 3-5 4-11 6-14 8-11 6-10 6-12 6-28 17-8 5-7-1-11-7-11-6-17-9-21-13-11-6-14-8-11-6-1-3 8-5 21-12 11-7 11-6 32-18 11-7zm1 2-6 3-17 10-14 8-3 1v2l-6 2-9 5-30 18-9 5-5 2 5 4 10 6 12 6 7 5 10 5 6 4h3v2l10 5 12 7 11 6h2v2l5 1v2l5 2 4-1 9-5 4-2v-2l5-1v-2l5-1 6-4 3-1v-2l6-2 25-15 4-1v-2l5-1v-2l6-2 5-2v-2l4-1 6-3 4-3-5-3h-3v-2l-10-5-5-2v-2l-5-1v-2l-5-2-29-17-6-3-15-8-9-5-1-2z" fill="#E3E3E2"/>
<path transform="translate(522,435)" d="m0 0h6l7 5 22 12 21 12 12 7 9 5 14 9 11 6 1 4-9 5-20 12-10 5-15 9-10 5-21 13-14 8-4-1-11-7-11-6-16-9-21-13-14-7-11-6-13-8-1-4 7-5 14-7 14-8 16-9 21-13 11-6zm2 1-2 2-10 4-8 5-12 7-25 15-9 5-5 2v2l-5 2-5 3-5 2-6 3-5 3v3l9 6 14 7 11 6 14 8 10 6 17 10 11 6h2v2l5 2 3 2 7-1v-2l5-2 15-9 9-5 5-2v-2l10-4v-2l5-1 10-6 10-5v-2l6-2 10-6 8-4-4-4-6-3h-3v-2l-7-4h-2v-2l-5-1v-2l-10-5-15-9-8-4h-2v-2l-5-2-15-9-5-1v-2l-8-4z" fill="#E3E3E2"/>
<path transform="translate(637,368)" d="m0 0 5 1 14 7 11 7 14 7 15 9 12 7 11 6 13 8 8 4v4l-17 9-21 13-11 6-18 10-27 16-3 2h-8l-17-10-10-5-16-10-13-8-14-7-26-16-1-3 17-10 11-6 19-11 11-6 21-12 16-10zm-2 3-6 4v2l-5 1-10 6-18 10v2l-6 2-15 8-17 10-8 5-10 4 4 4 7 4 11 7 10 5 6 2v2l11 6 12 7 25 15 5 2 6 4 5-1 10-6 4-2v-2l5-1v-2l5-1 10-6 10-5v-2l6-2 9-5 10-6 4-2v-2l6-2 9-5 6-3 2-3-14-7-7-5h-3v-2l-5-1v-2l-10-5-10-6-5-1v-2l-10-5-20-12-5-1v-2l-5-2-1-1z" fill="#E3E3E2"/>
<path transform="translate(803,560)" d="m0 0 4 1v123l-3 3-15-8-17-10-18-10-21-13-11-6-14-8-2-2v-67l3-1 14 8 14 7 12 7 6 3 5-2 18-10 16-10zm1 2-15 9-14 7v2l-5 2-9 5-1 1h-8l-3-2h-3v-2l-10-5-7-4-5-2-10-6-5-1-1-2v65l5 4 6 3h3v2l10 5 6 2v2l6 3h3v2l5 1v2l7 4h2v2l10 5 7 4h3v2l10 5 10 6 4 1v-122z" fill="#E3E3E2"/>
<path transform="translate(637,236)" d="m0 0 6 1 11 7 10 5 17 10 13 8 11 6 14 8 10 5 10 6-1 5-16 8-15 9-11 6-18 10-22 13-10 7-2 1h-9l-21-12-21-13-14-7-8-5-1-3 20-12 11-6 5-4 1-34 4-4 13-8 10-5zm0 2-2 2-4 1v2l-5 2-9 5-6 4-1 1-2 34-5 5-29 17-2 2 19 10 6 2v2l5 2 6 4h3v2l5 1v2l5 1v2l5 1v2l11 6 6-1 6-3v-2l4-1 16-10 12-7 15-9 5-2v-2l5-1 17-10 9-5 5-2v-3l-5-2-6-3-15-9-5-1v-2l-10-5-17-10h-3v-2l-8-4h-2v-2l-5-2-7-4h-2v-2l-10-5z" fill="#E3E3E2"/>
<path transform="translate(555,320)" d="m0 0 5 1 28 17 11 6 16 9 9 6v3l-10 6-18 10-17 10-23 14-14 7-20 11-11 7-6 3-2-1 3-3h2l1-4h3v-2l6-3 4-5 11-6 19-11 9-5 2-3v-6l-5-5-9-5-12-7-1-2v-31l6-4 11-6zm-2 3-8 5-7 4v29l3 3 5 3h3v2l9 4h2v2l5 4v10l-5 4-8 4v2l-5 1-10 6-5 2v2l-4 2h5l6-3v-2l6-2 5-2v-2l5-1 10-6 14-9 10-5 12-7 3-1v-2l5-1v-2l5-1 6-4v-3h-2v-2l-11-6-13-8-5-3-4-1-1-2-5-2-7-4h-2v-2l-8-4-2-2z" fill="#E3E3E2"/>
<path transform="translate(860,527)" d="m0 0h4v134l-2 4-27 16-12 7-3-1v-135l7-6 17-10zm-2 3-20 12-14 8-2 8v33l-1 47v22l1 24h5l7-5 3-1v-2l5-1v-2l5-1 5-4 9-5 1-2v-131z" fill="#E3E3E2"/>
<path transform="translate(744,438)" d="m0 0 5 1v50l-5 4-17 9-16 9-27 16-11 6-13 8-12 6-2-1-1-48 4-4 23-14 11-6 15-9 16-9 16-10zm0 3-14 7v2l-4 1-6 4-4 1-1 2-11 6-12 7-10 5v2l-5 2-10 6-14 7v2l-5 1v49l1-2 6-2 9-5 10-6 15-8 11-7 3-1v-2l5-1v-2l10-4v-2l5-1 6-4 5-2 11-6 1-2v-46z" fill="#E3E3E2"/>
<path transform="translate(630,505)" d="m0 0 4 1v47l-2 4-10 5-21 13-11 6-26 16-14 7-15 9-3 1-1-1v-51l7-5 10-5 10-6 10-5 27-16 13-8 11-6zm0 2-8 5-3 1v2l-6 2-9 5-10 6-4 2v2l-10 4v2l-4 1-16 8v2l-5 1-10 6-5 2v2l-6 2-1 2-1 46h5l16-10 10-5 15-9 9-5v-2l4-1 10-5v-2l5-2 9-5 12-7 3-1v-2h2v-47z" fill="#E3E3E2"/>
<path transform="translate(676,545)" d="m0 0h5l7 5 5 3 1 68-4 1-17-10-23-14-22-12-7-4-2-4 11-7 11-6 13-8 11-6zm0 2v2l-6 2-9 5-5 2v2l-5 1v2l-6 2-9 5v2l-5 1v2l-4 1-5 2 3 4 6 3h3v2l5 1v2l10 5 25 15 8 4h2v2l4 3h4l-1-42v-22l-3-3-6-3h-2v-2z" fill="#E3E3E2"/>
<path transform="translate(520,340)" d="m0 0h2l1 2v21l-1 2h-2v2l-15 8-17 10-10 6-11 6-16 9-5 2-2-1 1-20 3-5 16-10 13-8 11-6 16-9 12-7zm-2 3-11 7-9 5-10 5v2l-5 1-11 7-9 5-13 8v2l-3 1v20l12-7 9-5 17-10 3-1v-2l5-1 17-10 3-1v-2l4-1 3-3 1-20z" fill="#E3E3E2"/>
<path transform="translate(745,505)" d="m0 0 4 1v62l-5 1-8-5-13-8-10-5-20-12-1-4 10-5 16-10 22-12zm-1 2-1 2-4 1-1 2-14 7v2l-5 1-9 5v2l-6 2-8 4 1 4 4 1v2l5 1v2l5 2 12 7h3v2l8 4h2v2l5 1v2l4 1 1-1v-58z" fill="#E3E3E2"/>
<path transform="translate(528,375)" d="m0 0h6l11 7v3l-14 9-16 9-12 7-11 6-23 14h-6l-12-7 1-4 18-10 13-8 11-6 13-8 11-6zm0 2v2l-6 2-10 6-9 5-10 6-9 5-12 7-3 1v2l-6 2-8 4-1 4 9 4 1 2h4l1-2 11-6 11-7 5-2 1-2 5-2 10-6 10-5 10-6 4-2v-2l5-2 1-3-8-5z" fill="#E3E3E2"/>
<path transform="translate(589,339)" d="m0 0 5 2 21 12 9 6v3l-10 6-18 10-17 10-23 14-14 7-7 4-2-1 3-3h3v-2l8-4h3v-2l10-5 10-6 9-6 10-5 12-7h3v-2l5-1v-2l10-5 1-2-2-1v-2l-4-1-25-15z" fill="#E3E3E2"/>
<path transform="translate(429,393)" d="m0 0 4 1v9l-1 8-2 1-12-6-2-4 7-6z" fill="#E3E3E2"/>
<path transform="translate(536,170)" d="m0 0 5 1-1 8-3 2h-13l-1-1v-7l12-2z" fill="#E3E3E2"/>
<path transform="translate(528,409)" d="m0 0m-2 1h2v2h5v2l-16 9-9 5-5 2 3-4h2l1-4h3v-2l6-3 4-5z" fill="#E9E9E8"/>
<path transform="translate(326,782)" d="m0 0h5l1 5 2 2 1 3 2 1v3l2 1-4 2-4-1-7-5 1-9z" fill="#E3E3E2"/>
<path transform="translate(231,543)" d="m0 0 3 1h-2v2l6 4-1 5-3 3h-6l-5-4 2-6v-3l5-1z" fill="#E3E3E2"/>
<path transform="translate(430,395)" d="m0 0h1v14l-5-1-7-4 2-4z" fill="#FCFCFC"/>
<path transform="translate(569,233)" d="m0 0 5 1 3 2 4-2v3h-2l-1 2h-2l-1 4-7 1-2-10z" fill="#E3E3E2"/>
<path transform="translate(350,786)" d="m0 0 1 2-2 3 1 9-1 2-7-1-1-3-2-1 2-1 3-7 5-2z" fill="#E3E3E2"/>
<path transform="translate(229,589)" d="m0 0h3v2l3 1 1 2h2l-1 4-2 1-5-3-4 3h-3l1-5 2-4z" fill="#E3E3E2"/>
<path transform="translate(547,210)" d="m0 0 7 2 1 5-3 5-5 1-1-12z" fill="#E3E3E2"/>
<path transform="translate(242,739)" d="m0 0 7 1-3 3 2 6-10-1-1-3 1-3z" fill="#E3E3E2"/>
<path transform="translate(249,741)" d="m0 0 5 1 5 2v5l-4 4 2 3-3 1-2-4-3-2v-2h4l-2-5z" fill="#E3E3E2"/>
<path transform="translate(525,242)" d="m0 0 2 4 2 3-4 4-1-3-5-1-3-1v-3z" fill="#E3E3E2"/>
<path transform="translate(265,752)" d="m0 0 3 3 2 4h-4l-1 3h-7l-2-3 2-3 6-1z" fill="#E3E3E2"/>
<path transform="translate(343,771)" d="m0 0 7 1 6 2-4 2 2 2h-10l-1-2-2-1z" fill="#E3E3E2"/>
<path transform="translate(327,769)" d="m0 0 5 2v3l-10 5h-2l2-5 2-4z" fill="#E3E3E2"/>
<path transform="translate(212,735)" d="m0 0 6 2-1 10-1-3-5-1-2-5z" fill="#E3E3E2"/>
<path transform="translate(246,594)" d="m0 0h7l2 4-1 2h-5l-3 4v-2h-2l1-7z" fill="#E3E3E2"/>
<path transform="translate(379,874)" d="m0 0 8 1-1 5-6 3 1 3-4-2v-4l2-1z" fill="#E3E3E2"/>
<path transform="translate(576,208)" d="m0 0 6 4-2 5-2 2-7-6 1-2h3z" fill="#E3E3E2"/>
<path transform="translate(247,803)" d="m0 0h6l6 5-1 2-8 1 1-5-5-1z" fill="#E3E3E2"/>
<path transform="translate(353,846)" d="m0 0 3 2v2l5 1 1 5-6-2-4 2-1-7z" fill="#E3E3E2"/>
<path transform="translate(405,236)" d="m0 0 7 1 3 2-1 5-5-1-4-4-3-2z" fill="#E3E3E2"/>
<path transform="translate(337,703)" d="m0 0h11l-1 5-14-2z" fill="#E3E3E2"/>
<path transform="translate(527,187)" d="m0 0 5 2-3 5h-5l-1-5z" fill="#E3E3E2"/>
<path transform="translate(515,176)" d="m0 0h6l1 2v4l4 2v2l-4 1-3-3v-2l-2-4z" fill="#E3E3E2"/>
<path transform="translate(320,807)" d="m0 0 1 3 5-1 2 1-1 4h-3l-5-3-3 2-2-2 3-1z" fill="#E3E3E2"/>
<path transform="translate(259,650)" d="m0 0 4 2v3l-2 4-3-1v-2l-1-4z" fill="#E3E3E2"/>
<path transform="translate(228,735)" d="m0 0h12l3 2-10 2z" fill="#E3E3E2"/>
<path transform="translate(383,649)" d="m0 0 4 1v2h2v6l-3 2z" fill="#E3E3E2"/>
<path transform="translate(389,680)" d="m0 0h1l1 7-4 4-2-9z" fill="#E3E3E2"/>
<path transform="translate(377,631)" d="m0 0 1 4-5 2h-4l1-4z" fill="#E3E3E2"/>
<path transform="translate(555,264)" d="m0 0h5l-2 4-4 1-6-1 3-3z" fill="#E3E3E2"/>
<path transform="translate(402,242)" d="m0 0 7 1 2 4-1 1h-8l3-1-1-3z" fill="#E3E3E2"/>
<path transform="translate(367,857)" d="m0 0 1 4-4 3-5-2 5-4z" fill="#E3E3E2"/>
<path transform="translate(366,787)" d="m0 0 6 1-4 6-5-1 2-1z" fill="#E3E3E2"/>
<path transform="translate(490,221)" d="m0 0 4 2v4l-4 1-3-3 1-3z" fill="#E3E3E2"/>
<path transform="translate(327,632)" d="m0 0v3l-5 6-3-1 1-3-1-2z" fill="#E3E3E2"/>
<path transform="translate(401,368)" d="m0 0 3 1-1 5-3 1v-3l-6-1v-1z" fill="#E3E3E2"/>
<path transform="translate(407,269)" d="m0 0 2 2 2 1-4 4-6-2 4-4z" fill="#E3E3E2"/>
<path transform="translate(329,706)" d="m0 0 3 1-2 4-6 1-1-3z" fill="#E3E3E2"/>
<path transform="translate(220,560)" d="m0 0h3v7l-2 3-2-5z" fill="#E3E3E2"/>
</svg>
