<?xml version="1.0" encoding="UTF-8"?>
<svg version="1.1" viewBox="0 0 1024 1024" width="1024" height="1024" xmlns="http://www.w3.org/2000/svg">
<path transform="translate(0)" d="m0 0h1024v1024h-1024z" fill="#FDFDFD"/>
<path transform="translate(462,78)" d="m0 0 7 1 32 18 27 15 24 14 10 6 11 6 18 10 20 12 4 5 1 7 10 7 20 11 20 12 11 7 5 5 1 12v207l-3 6-16 9-17 10h-2l-1 18 9 2 24 13 24 14 14 8 19 11 17 10 16 9 19 11 13 8 4 4v135l-4 5-24 13-23 13-6 2v42l-1 11-1 2h-2l-1 3-16 8-22 12-21 12-16 8-28 15-36 20-14 7-10 6-29 16-22 12-14 7-23 13-33 17-10 6-11 6-14 8-8 3-6-1-14-8-16-10-11-6-5 1-16 9-15 8-5 2-6-1-10-5-16-10-6-4-12-6-26-16-11-6-19-11-21-12-20-12-11-6-10-6-3-3-1-3v-133l8-6 14-8 19-10 21-12 8-4 1-61 10-7 23-12 23-13 15-8 11-6 6-4v-65l-11-7-10-7-2-21-16-10-15-8-11-7-3-3v-219l5-5 10-6 25-14 9-5 2-31 10-7 23-12 28-16 11-6 28-15 16-9 15-8 12-7 10-5z" fill="#626365"/>
<path transform="translate(728,574)" d="m0 0h3l1 31 6 1 12-7 14-7 14-8 10-5 1 2v113l-10 6-24 13-9 5h-4l-1-59h-6l-3 3-1 77v40l-3 3-18 10-15 8-14 7-44 24-35 19-12 7-14 7-22 12-24 13-12 7-14 7-16 9-24 13-17 10-28 14-1-2v-102l-1-4h-6l-3 3-1 59-22 12-23 13-27 14-5 1v-113l10-6 14-7 16-9 30-16 12-7h2l1-3 1-44 8-5 20-11 14-7 16-9 12-7 4-2h3l1 50 3 3 6-1 23-12 16-9 17-9 23-13 26-14 11-6 16-9 27-15 1-1 1-51 8-5 10-6 14-7 14-8z" fill="#FDFDFD"/>
<path transform="translate(666,228)" d="m0 0 2 1v200l-15 9-11 6-10 6-2 3-1 72-4 4-23 13-11 6-24 13-18 10-14 8-31 17h-3l-1-66-2-4-8 1-12 7-14 7-10 6h-3v-199l9-6 20-11 11-6 23-13 20-11 14-8 44-24 23-13 22-12 12-7 11-6z" fill="#FDFDFD"/>
<path transform="translate(260,245)" d="m0 0 6 2 21 12 24 14 17 10 11 6 52 30 17 10 14 8 15 9 2 2v197l-5-1-17-10-23-13-17-10-22-13-11-6-23-13-20-12-17-9-24-15-1-2v-195z" fill="#FDFDFD"/>
<path transform="translate(462,94)" d="m0 0h5l14 8 15 9 26 14 14 9 14 7 14 9 14 7 13 8v4l-13 8-22 12-16 9-25 14-19 11-11 6-17 9-16 9-4 2-5-1-10-6-28-16-26-15-24-14-24-13-13-8 2-4 31-16 15-9 11-6 21-11 11-7 23-12 12-7 10-5z" fill="#FDFDFD"/>
<path transform="translate(168,744)" d="m0 0 4 1 14 8 15 9 24 13 16 10 25 14 14 8 20 12 14 8 4 3 1 60v26l-1 26-5-1-23-13-34-20-16-9-14-8-29-17-13-8-10-5-5-3-1-2z" fill="#FDFDFD"/>
<path transform="translate(322,591)" d="m0 0 6 2 13 8 26 15 16 9 24 14 14 8 20 12 14 8 25 15 6 3v2l-28 15-14 8-14 7-13 8-8 3-11-7-9-5-24-14-16-9-34-20-23-13-38-22-7-5 3-3 18-10 23-12 15-9z" fill="#FDFDFD"/>
<path transform="translate(248,692)" d="m0 0 6 2 12 7 15 9 11 6 15 9 19 11 14 8 43 25 11 7 4 2v3l-25 13-22 12-24 13-5 1-14-9-11-6-38-22-24-14-14-8-43-25-3-2 2-4 12-5 24-14 17-9 15-9z" fill="#FCFCFC"/>
<path transform="translate(605,553)" d="m0 0 2 1v82l-10 7-23 12-22 12-10 6-14 7-11 7-10 5h-3l-1-9-7-5-9-5-19-11v-63l4 1 12 7 9 5 6-1 24-13 16-9 24-13 18-10 14-8z" fill="#FDFDFD"/>
<path transform="translate(613,190)" d="m0 0 5 1 24 14 17 10v4l-23 13-24 13-23 13-10 6-11 6-24 13-23 13-15 8-16 9-27 15-16 9-6-1-24-14-28-16-17-10-26-15-19-11-24-14-23-13-13-8v-2l25-14 4-3 3 1 2 8 10 6 8 4 25 15 18 10 11 7 14 7 7 5 11 6 29 17 11 6 6-1 26-14 15-9 14-7 23-13 29-16 15-9 14-7 24-14 1-1z" fill="#FBFBFB"/>
<path transform="translate(329,519)" d="m0 0 4 1 18 10 24 14 14 8 41 24 23 13 3 2v63l-5-2-25-14-15-9-16-9-13-8-27-15-13-8-12-7-1-1z" fill="#FEFEFE"/>
<path transform="translate(240,644)" d="m0 0 5 1 16 9 17 10 15 9 23 13 13 8 11 6 25 14 15 9 12 7 11 7 1 1 1 11v18l-3 1-20-12-25-14-13-8-25-14-13-8-28-16-24-14-4-2-5 1-4 1-1-1z" fill="#FDFDFD"/>
<path transform="translate(599,178)" d="m0 0 2 1 1 29-5 5-17 10-27 15-46 26-11 6-14 8-11 6-15 8h-3v-33l22-12 14-8 18-10 17-10 11-6 23-12 23-13z" fill="#FBFBFB"/>
<path transform="translate(641,515)" d="m0 0 4 1 15 9 26 15 15 9 18 11 3 2-1 3-27 15-23 13-11 6-6-1-19-12-11-6-6-4v-29l5-5 15-8 2-5z" fill="#FCFCFC"/>
<path transform="translate(311,186)" d="m0 0 4 1 9 5 21 12 16 9 15 9 11 6 10 6 11 6 14 8 17 10 1 2 1 31-6-1-17-10-10-6-15-8-17-10-23-13-24-14-17-10-1-1z" fill="#FDFDFD"/>
<path transform="translate(618,642)" d="m0 0 5 1 13 8 9 5v3l-22 12-10 6-14 7-13 8-21 11-22 12-25 14-11 6-3-1v-28l16-9 11-6 17-9 22-12 28-15 17-10z" fill="#FCFCFC"/>
<path transform="translate(306,484)" d="m0 0 4 1 25 14 11 7 11 6 25 14 24 14 35 20 4 2 5-1 15-9 14-7 7-4 3 1 1 54-5-1-11-7-11-6-20-11-21-12-16-10-11-6-10-6-11-6-16-9-24-14-15-9-11-7-2-2z" fill="#FDFDFD"/>
<path transform="translate(644,492)" d="m0 0 6 1 16 9 11 6 27 15 17 10 16 9 35 21 9 6-3 3-23 12-9 5h-4l-1-28-40-24-26-15-17-10-14-8-1-2v-9z" fill="#F6F6F6"/>
<path transform="translate(619,590)" d="m0 0 4 2 10 6 11 6 8 5v37l-4-1-24-13-5-3-1-3v-35z" fill="#FEFEFE"/>
<path transform="translate(486,543)" d="m0 0h1v35h-2v8l2 2 1 6h-2v-2l-4-1-6-3v-2l-5-1-10-6-3-1v-2h-4v-2l-4-1-3-1v-2h-3v-2l-4-1-6-3v-2l5-1v2l10 2v-2h3v-2h4v-2l11-6z" fill="#FEFEFE"/>
<path transform="translate(329,519)" d="m0 0 4 1 18 10 24 14 14 8 41 24 23 13 3 2v63l-5-2-25-14-15-9-16-9-13-8-27-15-13-8-12-7-1-1zm1 3 1 58 5 4 11 6 13 8 22 12 4 1v2l4 2h3v2l7 4h3v2l11 6 16 9 19 11 4 3h2v-60l-25-14h-2l-3 3-2 1-2-6h-3l-1-3h2v-2h-3v-2l-10-5-4-1v-2l-11-6h-3v-2l-14-7-11-7-15-9-7-4h-3v-2l-4-2z" fill="#DDDDDF"/>
<path transform="translate(432,344)" d="m0 0 5 2 2 2v197l-5-1-17-10-23-13-17-10-22-13-11-6-19-11 3-1 8 4v2l4 1 10 6 14 7 8 5 11 7 10 5v2l4 1 3 1v2l4 1 3 1v2l4 1 10 5v2l4 1 11 6v-194l-4-2z" fill="#DDDDDF"/>
<path transform="translate(264,216)" d="m0 0 3 1-10 6-9 5-2 3v219l5 4 11 7 14 7 13 8-4 1v-2l-4-1-6-3v-2l-4-1-11-5v-2l-4-1-10-7-3-5v-216l3-5 10-7z" fill="#DDDDDF"/>
<path transform="translate(188,707)" d="m0 0 3 1-17 9-17 10-2 2v133l3 5 11 7 11 6 16 9 21 12 17 10 13 8 11 6 5 4-4-1-9-5-11-6-14-8-13-8-10-6-11-6-6-3v-2l-4-1-11-6-12-7-6-7v-135l3-3 11-6 10-6z" fill="#DDDDDF"/>
<path transform="translate(260,245)" d="m0 0 6 2 3 3-8-2 1 195 4 1 6 3v2l6 2 10 6 14 8 9 5 4 2v2l-6-2-10-6-18-10-21-13-1-2v-195z" fill="#DDDDDF"/>
<path transform="translate(451,348)" d="m0 0h1v197l13-7 11-6 17-9h5l3 3 2 5v62l6-2 11-7 14-7 8-5 4-2 3 1-14 8-31 17h-3l-1-66-2-4-8 1-12 7-14 7-10 6h-3z" fill="#DDDDDF"/>
<path transform="translate(187,755)" d="m0 0 5 2 12 7 14 7 11 7 9 5 24 14 18 10 20 12 14 8 4 3 1 60v26l-1 26-5-1-7-4 3-1 7 4v-43l-1-67-14-7-14-9-16-9-6-3v-2l-4-1-10-6-7-3v-2l-4-1-6-3v-2l-4-1-9-5-8-5-12-6-11-7-3-1z" fill="#DDDDDF"/>
<path transform="translate(460,77)" d="m0 0h9l14 8 10 6 11 6 16 9 1 2-6-2-19-11-11-6-18-10-7 1-13 7-16 9-11 6-23 12-16 9-21 12-14 7-23 13-19 10-6 5h-2l-1 31-12 7h-2v-2l10-5 1-1 1-23 2-8 11-8 16-8 16-9 14-8 11-6 7-4h3v-2l12-6h3v-2l10-5 12-7 16-8 12-7 10-5z" fill="#DDDDDF"/>
<path transform="translate(311,186)" d="m0 0 4 1 9 5 17 10-3 1-8-4v-2l-4-1-3-1v-2h-3v-2h-4v-2h-2l-1 29 6 2 10 6 21 12 13 8 3 1v2l4 1 7 3v2h3v2l4 1 9 5 11 6 19 10 9 6 5 3v-28l-7-5-10-5v-2l5 2 14 8 1 2 1 31-6-1-17-10-10-6-15-8-17-10-23-13-24-14-17-10-1-1z" fill="#DDDDDF"/>
<path transform="translate(405,917)" d="m0 0 2 1v29l-2 1-16-9-9-6 2-4 19-10z" fill="#FDFDFD"/>
<path transform="translate(383,528)" d="m0 0 6 2 24 14 26 15 6 3 5-1 15-9 14-7 7-4 3 1 1 54-5-1-11-7-11-6-9-5 4-1v2l4 1 14 7v2l4 1 6 3-1-3-1-6 1-5h2l-1-34-19 10-8 5h-3v2h-4v2h-3v2h-5l-5-2v-2h-3v-2l-4-1-6-3v-2l-4-1-14-8-16-9-9-5z" fill="#DDDDDF"/>
<path transform="translate(168,744)" d="m0 0 4 1 9 5-4 1v-2l-4-1-2-1v109l14 8 22 13 4 2v2l-5-2-14-8-12-7-11-6-1-2z" fill="#DDDDDF"/>
<path transform="translate(281,667)" d="m0 0 6 2 7 5 11 6 39 22 26 15 13 8 9 5 11 7 1 1 1 11v18l-3 1-18-11 3-1 4 2v2l4 1 8 4-1-26-4-2v-2l-4-1-10-6-11-6-11-7-7-3v-2l-4-1-6-3v-2l-4-1-3-1v-2h-4v-2l-4-1-6-3v-2l-4-1-14-7v-2l-4-1-14-8-7-5z" fill="#DDDDDF"/>
<path transform="translate(736,525)" d="m0 0 4 1 10 6 11 6 10 6 11 6 17 10 5 4 1 91v24l-1 24-5 5-4 2-3-1 9-6 1-2v-135l-1-3-6-2-16-10-17-10-11-6-15-9z" fill="#DDDDDF"/>
<path transform="translate(626,250)" d="m0 0h2v2l-10 5-23 13-12 7-10 5-11 6-9 5h-3v2l-10 5-15 9-12 6-14 8-11 7-4 2h-3v2l-12 6-3-1 14-8 11-6 23-13 20-11 14-8 44-24 23-13z" fill="#DDDDDF"/>
<path transform="translate(666,228)" d="m0 0 2 1v200h-2l1-199-10 6-12 6-3-1 13-7z" fill="#DDDDDF"/>
<path transform="translate(605,553)" d="m0 0 2 1v82l-10 7-17 9-2-1 10-6 14-8h2l1-81-12 6-5 3-3-1 10-6z" fill="#DDDDDF"/>
<path transform="translate(787,579)" d="m0 0 2 2v113h-3v-112l-1-2z" fill="#DDDDDF"/>
<path transform="translate(413,838)" d="m0 0 6 3 1 2v103l14-7 13-7 3 1-22 12-9 4-1-2v-102l-1-4-6-1z" fill="#DDDDDF"/>
<path transform="translate(619,590)" d="m0 0 4 2 10 6 11 6 8 5v37l-4-1-24-13-5-3-1-3v-35zm1 2v35l9 6 10 5 10 6h2v-34l-3-2h-3v-2l-11-6h-3v-2l-9-5z" fill="#DDDDDF"/>
<path transform="translate(345,513)" d="m0 0 4 1 3 1v2l4 1 3 1v2h3v2h4v2l4 1 3 1v2h3v2l4 1 11 6 38 22 4 1 3 1h-2v2l4 1 6 3v2h3v2l4 1 3 1v2l-6-2-17-10-21-12-10-6-14-8-23-13-18-11z" fill="#DDDDDF"/>
<path transform="translate(240,644)" d="m0 0 5 1 16 9 6 4-4 1v-2h-3v-2l-4-1-3-1v-2l-4-1-7-4v33l2 1v-2h8l11 6 13 8 10 6 10 5v2h3v2l-5-2-25-14-13-8-6-3-5 1-4 1-1-1z" fill="#DDDDDF"/>
<path transform="translate(306,484)" d="m0 0 4 1 25 14 11 7 11 6 16 9-4 1v-2h-4v-2l-4-1-3-1v-2l-4-1-3-1v-2l-4-1-16-9-19-11-4-1v2l5 2 15 10 16 9 1 2-6-2-17-10-14-9-2-2z" fill="#DDDDDF"/>
<path transform="translate(613,190)" d="m0 0 5 1 15 9-3 1-11-7-4-1v23l-4 5-11 6-14 8-8 5-14 7-5 3-3-1 17-10 14-7 24-14 1-1z" fill="#DDDDDF"/>
<path transform="translate(468,599)" d="m0 0 4 1 12 7 9 5h6v2h-8l-14-9-7-3v60l4 1 10 5v2l-6-2-10-6z" fill="#DDDDDF"/>
<path transform="translate(786,712)" d="m0 0 2 1-13 8-27 15-1 51-6 7-8 3-8 5-3-1 10-6 9-4 1-2h2l1-13 1-42 28-15 10-6z" fill="#DDDDDF"/>
<path transform="translate(296,216)" d="m0 0 3 1 2 8 10 6 8 4 30 18-3 1-11-6v-2h-3v-2l-4-1-10-6-14-7-6-5-2-6-11 7-11 6-3 2 8 6-2 1-10-6v-2l25-14z" fill="#DDDDDF"/>
<path transform="translate(641,515)" d="m0 0 4 1 8 5-3 1-7-5-1 16-8 6-13 7-1 30 5 2 11 6 4 2v2l-5-2-11-6-6-4v-29l5-5 15-8 2-5z" fill="#DDDDDF"/>
<path transform="translate(406,842)" d="m0 0h2l-1 61-22 12-16 9h-2v-2l12-6 15-9 10-5 1-1v-55z" fill="#DDDDDF"/>
<path transform="translate(341,203)" d="m0 0 6 2 26 15 10 6 11 6 12 7-4 1v-2l-4-1-3-1v-2h-5v-2l-5-2-10-6-11-5-2 2-2-2-6-1v-3l3-1-2-1v-2l-4-1-10-5z" fill="#DEDEE0"/>
<path transform="translate(239,617)" d="m0 0 3 1-15 9-1 1-1 61-5 3-13 7-2-1 7-5 10-5 2-61 11-8z" fill="#DDDDDF"/>
<path transform="translate(405,917)" d="m0 0 2 1v29l-2 1-16-9-3-3h4v2l4 1 3 1v2l4 1 4 2v-25l-8 4-4 1v2l-5 2h-3v2l-2 1v2l-3-1 2-4 19-10z" fill="#DDDDDF"/>
<path transform="translate(560,660)" d="m0 0 3 1-14 8-11 6-17 9-10 6-4 2h-3l-1-9-7-5-9-5-3-3 4 1 12 7 5 4 1 8 16-9 12-7 4-2h3v-2l10-5z" fill="#DDDDDF"/>
<path transform="translate(221,887)" d="m0 0h4v2l4 1 10 5v2l4 1 10 5 26 16 11 6 9 5v2l-5-2-23-13-20-12-16-9-14-8z" fill="#DDDDDF"/>
<path transform="translate(618,642)" d="m0 0 5 1 13 8 9 5v3l-20 11h-2v-2l10-5 9-5-4-4-7-3v-2l-4-1-6-3v-2l-7 6-4 2h-3v2l-10 5-4 1v2l-4-1 26-15z" fill="#DDDDDF"/>
<path transform="translate(603,155)" d="m0 0 4 1 8 6 3 9v2l5 2 15 9 11 6 14 9 10 5v2l-5-2-16-9-13-8-18-10-6-5-1-7-5-5-6-4z" fill="#DDDDDF"/>
<path transform="translate(640,845)" d="m0 0h2v2l-11 6-23 12-12 7-10 5-8 5-11 6-3-1 17-10 14-7 10-6 23-12z" fill="#DDDDDF"/>
<path transform="translate(299,707)" d="m0 0 4 1 14 7v2l4 1 6 3v2l4 1 25 14 4 2v2l6 2 4 2v2l-6-2-15-9-28-16-17-10z" fill="#DDDDDF"/>
<path transform="translate(720,802)" d="m0 0 2 1-10 6-17 9-10 6-9 5-7 3-5 3h-3v2l-12 6-3-1 21-12 16-8 24-13z" fill="#DDDDDF"/>
<path transform="translate(650,211)" d="m0 0 6 2 4 3-1 3-23 13-24 13-14 8h-2v-2l14-7 10-6 20-11 14-8 3-2-7-5z" fill="#DDDDDF"/>
<path transform="translate(372,705)" d="m0 0 4 1 7 3v2l4 1 20 12h7l11-7 10-5 9-5 3 1-14 8-11 6-12 6-8-4-16-10-14-8z" fill="#DDDDDF"/>
<path transform="translate(361,303)" d="m0 0 6 2 24 14 17 10 14 8 10 6-3 1-11-6v-2l-4-1-11-6-13-8-9-5-16-9z" fill="#DDDDDF"/>
<path transform="translate(516,123)" d="m0 0 6 2 14 9 14 7 14 9 14 7 10 6-3 1-12-7-14-7v-2l-4-1-10-5v-2l-4-1-14-8-11-7z" fill="#DDDDDF"/>
<path transform="translate(322,591)" d="m0 0 6 2 13 8 10 6-3 1-11-7-11-6-3-1-12 5-14 8-12 7-4-1 17-9 16-9z" fill="#DDDDDF"/>
<path transform="translate(504,706)" d="m0 0h1v27l14-7 11-7 4-2h3v-2l16-8 3 1-24 13-15 9-10 5-3-1z" fill="#DDDDDF"/>
<path transform="translate(283,258)" d="m0 0 6 2 15 9 24 14 11 6 5 4-4-1-14-7v-2l-4-1-10-5v-2l-4-1-14-8-11-6z" fill="#DDDDDF"/>
<path transform="translate(417,119)" d="m0 0h2v2l-14 7-9 6-14 7-11 6-8 5-4 2-3-1 10-6 11-6 21-11 11-7z" fill="#DDDDDF"/>
<path transform="translate(264,622)" d="m0 0h2v2l-11 6-4 3 11 7 21 12 11 6v2l-5-2-25-14-16-10v-3z" fill="#DDDDDF"/>
<path transform="translate(593,253)" d="m0 0 3 1-13 8-10 5-16 9-22 12-2-1 10-6 20-11 12-7 4-2h3v-2z" fill="#DDDDDF"/>
<path transform="translate(462,94)" d="m0 0h5l14 8 13 8-3 1-8-5-3-1v-2l-4-1-10-6-4 1-10 6-14 7-5 3-3-1 10-6 14-7z" fill="#DDDDDF"/>
<path transform="translate(695,797)" d="m0 0 3 1-14 8-16 8-18 10-7 4-2-1 8-5 11-6 12-7 10-5z" fill="#DDDDDF"/>
<path transform="translate(726,575)" d="m0 0h2v2l-14 7-17 10-11 6h-3v2l-8 4-3-1 10-6 14-7 14-8z" fill="#DDDDDF"/>
<path transform="translate(680,438)" d="m0 0 1 2-14 8-17 10-3 2-1 16h-2v-16l4-4 24-13z" fill="#DDDDDF"/>
<path transform="translate(532,247)" d="m0 0 3 1-23 13-11 6-19 11-3-1 13-8 14-7 8-5h3v-2l10-5z" fill="#DDDDDF"/>
<path transform="translate(670,532)" d="m0 0 6 2 35 21 11 7-1 2-16-10-9-5-20-12-6-4z" fill="#DDDDDF"/>
<path transform="translate(294,660)" d="m0 0 4 1 14 7 7 4v2l4 1 24 14 1 2-6-2-15-9-13-8-11-6-9-5z" fill="#DDDDDF"/>
<path transform="translate(518,893)" d="m0 0 3 1-14 8-14 7-16 9-6 2 3-3 21-12 14-7z" fill="#DDDDDF"/>
<path transform="translate(597,210)" d="m0 0 3 1-13 8-10 6-22 12-2-1 13-8 10-6 11-6h3v-2z" fill="#DDDDDF"/>
<path transform="translate(642,673)" d="m0 0 2 1-10 6-17 10-14 7-5 3-3-1 14-8 10-5 16-9z" fill="#DDDDDF"/>
<path transform="translate(588,164)" d="m0 0 4 2-2 4-18 10-21 12-2-1 10-6 13-8 11-6h3v-2l3-1 1-2h-2z" fill="#DDDDDF"/>
<path transform="translate(289,477)" d="m0 0 2 1 2 21 11 7 8 5-3 1-12-7-6-5-2-8z" fill="#DDDDDF"/>
<path transform="translate(363,262)" d="m0 0 6 2 10 6 11 6 11 7 9 5-4 1v-2l-4-1-13-8-11-6-14-8z" fill="#DDDDDF"/>
<path transform="translate(307,580)" d="m0 0 3 1-10 6-11 6-21 11-5 3-2-1 10-6 11-6 13-7z" fill="#DDDDDF"/>
<path transform="translate(620,670)" d="m0 0 3 1-10 6-14 7-13 8-6 3-2-1 10-6 13-8 14-7z" fill="#DDDDDF"/>
<path transform="translate(783,581)" d="m0 0 2 1-13 8-10 6-10 5-9 5-3-1 10-6 14-7 14-8z" fill="#DDDDDF"/>
<path transform="translate(536,902)" d="m0 0 2 1-14 8-13 7-9 5-3-1 10-6 14-7z" fill="#DDDDDF"/>
<path transform="translate(377,223)" d="m0 0 5 2 15 9 9 5-4 1v-2l-4-1-3-1v-2h-5v-2l-5-2-8-5z" fill="#DDDDDF"/>
</svg>
