<?xml version="1.0" encoding="UTF-8"?>
<svg version="1.1" viewBox="0 0 1024 1024" width="1024" height="1024" xmlns="http://www.w3.org/2000/svg">
<path transform="translate(0)" d="m0 0h1024v1024h-1024z" fill="#FCFCFC"/>
<path transform="translate(293,81)" d="m0 0h6l18 10 16 8 10 6 1 2 1 38 4 3 22 9 14 7 24 10 15 7 16 7 6 6 1 9h5l9-5 8 1 15 7 16 7 15 7 16 7 14 7 23 10 19 10 2 2v123l-5 4-9 5v3l12 6 3 3 1 3v125l-5 5-8 5v3l8 3 5 4 1 18 8-1 17 8 32 16 46 22 16 7 19 10 14 7 7 4h6l9-5 13-8 11-6 3-2h5l16 9 17 10 10 6 2 3 1 61 8 11 17 28 11 17 12 18 7 10 6 11 8 11 3 5v9l-18 14-16 13-26 20-9 6-16 8-19 11-5-2-3-4-1-37-9-5h-5l-20 11-12 7-11 6-13 8-22 12-5 1-6-3-17-9-14-7-7-5-2-6-1-28-1-2-17-8-23-11-32-16-25-12-16-7-14-7-23-11-8-4-2-4-1-9-6 1-8 2-14-5-14-7-19-9-8-5-14-7-16-9-8-4-14-8-5-4-2-3v-136l8-6 4-4-4-3-3-1v-2l-3-1-2-3v-127l5-5 8-5-1-3-17-8-4-4-1-13-7 3-4 2-9-1-16-7-15-7-28-12-14-7-9-4-6 1-12 7-10 5-16 10h-8l-17-8-16-8-9-5-3-4-1-45-9-3-27-13-14-7-5-4-1-2v-115l8-7 26-15 17-10 11-6 19-11 14-7 6 1 16 7 14 7 9 4 6-1 18-11 11-6z" fill="#686868"/>
<path transform="translate(511,639)" d="m0 0 6 1 30 15 17 9 23 11 25 13 13 8 1 29v79l-4 1-16-8-15-8-16-7-15-7-44-21-5-4z" fill="#FBFBFB"/>
<path transform="translate(380,569)" d="m0 0 9 1 19 9 17 9 19 9 14 7 17 10 2 2v117l-2 1-12-5-17-10-12-6-21-12-19-10-11-6-2-4z" fill="#FBFBFB"/>
<path transform="translate(375,271)" d="m0 0 19 9 13 5 16 8 19 9 16 8 17 9 1 1v100l-3 2-19-9-14-7-23-11-28-12-14-7-2-3v-101z" fill="#FBFBFB"/>
<path transform="translate(383,419)" d="m0 0 9 4 16 8 48 23 16 8 5 3v107l-6-1-21-10-16-8-42-20-10-5-1-106z" fill="#FBFBFB"/>
<path transform="translate(597,580)" d="m0 0 7 1 12 7 19 9 16 7 14 7 16 7 14 7 16 7 1 4-17 10-18 10-22 13-15 10-6 3h-8l-16-8-19-9-12-7-16-8-17-9-14-7-11-6 1-5 19-11 22-13 15-9 10-5z" fill="#FCFCFC"/>
<path transform="translate(243,211)" d="m0 0 9 3 11 5 18 8 15 7 27 12 14 7 1 1v101l-3 1-11-4-15-7-16-7-14-7-17-7-14-7-5-2-1-2v-101z" fill="#FBFBFB"/>
<path transform="translate(575,415)" d="m0 0h3v107l-5 4-19 11-11 6-23 13-15 9-11 6-4-1v-104l4-5 24-13 17-10 16-9 16-10z" fill="#FCFCFC"/>
<path transform="translate(461,212)" d="m0 0h6l10 5 17 8 17 7 15 7 11 5 18 8 12 6-5 5-13 8-10 5-9 6-10 5-17 10-14 8-6 3-6-1-19-10-17-8-16-7-19-10-23-11-3-3 5-4 19-9 15-9 16-9 20-12z" fill="#FCFCFC"/>
<path transform="translate(573,270)" d="m0 0 3 1 1 100-3 4-11 6-16 9-17 10-28 17-9 5h-4v-103l5-4 19-11 11-6 16-9 17-10z" fill="#FCFCFC"/>
<path transform="translate(827,659)" d="m0 0 3 1v49l-5 5-16 9-4 6-5-1-10-6-6-3h-6l-15 8-14 7-3 1-1 17 1 72 5 3 23 12 2 4-18 10-13 8-14 7-14 9-3-1-1-16v-50l1-85 10-7 38-22 16-9 11-6 16-9 16-10z" fill="#FCFCFC"/>
<path transform="translate(328,153)" d="m0 0 5 1 15 7 23 10 15 7 28 12 8 4 2 4-10 6-14 7-14 8-16 9-11 7-14 7-10-3-16-7-14-7-16-7-14-7-12-5-11-6 1-4 15-9 11-6 16-9 9-5 21-12z" fill="#FCFCFC"/>
<path transform="translate(758,753)" d="m0 0 5 1 14 8 16 8 14 8 9 1 1-3 1-21h3l18 30 9 14 11 18 7 10 5 8v6l-38 28-8 6h-2v2l-4 2-2-2v-18l-1-9-5-5-20-11-16-8-17-9-1-1v-61z" fill="#FBFBFB"/>
<path transform="translate(294,79)" d="m0 0 7 1 15 8 3 1v2l5 1 6 3v2l5 1 8 4 1 3h2l1 2 1 38 7 3v2l7 1 12 5 13 7 13 5 18 8 6 3 12 5 6 3v2l4 2 2 5 1 6 11-6 5-1 8 4 11 5 8 4 10 4 8 4 11 4 7 3v2l6 1v2l6 1 7 4 10 4 14 7 10 4 9 6 1 4 1 25v95l-4 5-10 6 3 3 8 4 4 5v128l-5 5-7 4v2l6 2v2l4 1 2 3v16h10l6 3v2l6 1v2h5l8 5 16 8 10 4 10 5 3 1v2l6 1 7 4 10 4 7 4 5 2 14 7 10 4v2l5 1 10 5v2l5 1 6 4 4-1 13-7 12-7 4-1v-2l5-1v-2l8-1 11 6 12 7 10 6 5 2v2l5 1v2l3 1 1 18v45l10 13 1 4h2l6 11 7 11 4 6v3h2l4 7v2h2l3 5v3h2l1 5h2l8 12 11 18 4 5 5 9-1 7-4 4-4 3h-2v2l-12 9h-2v2l-12 9h-2v2l-12 9-7 6h-3v2l-9 6-14 7-11 6-11 7-6-1v-2l-4-2-1-37-1-2-8-4-6 1-16 9-6 4-5 2-4 2-2 2-11 6-12 7-7 4h-3v2l-11 6-7-1-12-7-13-6-3-1v-2l-4-1-10-6-3-5v-32l-9-3-10-5-11-5-17-8v-2l-5-1-16-8-7-3v-2h-5l-2-2-5-1v-2l-9-3-9-5-11-4-13-7-5-2-24-12-4-4-1-10-8 4h-6l-14-6-15-7-15-8-14-7v-2l-5-1-6-3-19-10-16-9-7-5-3-5v-136l5-6 5-2 1-2-8-5-3-4v-128l3-5 7-5 3-1-18-9v-2l-3-1-2-4v-9h-2v2l-6 3h-9l-20-10-6-2-12-6-13-5-15-7-4-1v-2l-5-1-6-3-1-1h-6l-8 5h-3v2l-10 5-10 6-3 1v2l-6 3h-6l-6-3v-2l-6-1v-2l-7-1-15-8-6-3-6-4-2-2-1-44-13-7-5-2-15-7-2-1v-2l-6-1v-2l-5-1-6-3-3-3-1-74v-41l2-6 11-8 11-6h2v-2l6-3h3v-2l5-1v-2l10-5 15-9 9-5 7-4h3v-2l12-6h7l16 8h2l1 2 11 4 10 5 5-1 10-6 6-4h3v-2l10-5 12-7zm-1 2-22 12-24 14-6-1-34-16-5-2-6 1-14 7-17 10-21 12-16 9-20 12-5 5v115l5 5 9 5 16 8 17 8 9 3 1 45 4 5 28 14 13 6h8l23-14 12-6 5-3 6 1 17 8 28 12 15 7 16 7 7 3h6l7-4 4-1 1 13 4 4 17 8 1 3-11 7-2 3v127l3 4h2v2l6 3v3l-10 7-1 1v136l5 5 9 6 12 7 16 8 14 8 10 5 17 9 16 7 8 4 9 2 8-3h4l1 9 2 4 16 8 25 12 15 7 18 8 44 22 19 9 15 7 6 3 1 2 1 28 3 7 11 7 21 10 9 5 5 1 10-5 11-7 11-6 13-8 14-7 21-12 7 1 7 4 1 37 4 5 4 1 14-8 9-5 17-9 17-13 16-13 13-10 18-14v-9l-16-24-4-7-10-15-17-26-12-20-9-14-4-5-1-61-5-5-15-9-22-12-3-2h-5l-11 7-11 6-14 8h-6l-18-10-21-10-14-7-16-7-14-7-46-22-22-11-8 1-1-18-6-5-7-2 1-4 11-7 1-2v-125l-3-5-6-4-8-4 2-3 10-5 3-3v-123l-9-6-21-10-15-7-13-6-27-12-16-7-15-7-7-3-7 1-7 4h-5l-1-9-5-5-14-7-17-7-8-4-17-7-10-5-28-12-2-2-1-38-4-4-20-11-14-7-7-4z" fill="#E4E5E4"/>
<path transform="translate(173,174)" d="m0 0 7 2 15 8 6 3 1 2v151l-4 1-17-9-8-5-1-29v-122z" fill="#FBFBFB"/>
<path transform="translate(673,710)" d="m0 0 4 1 16 8 8 5v152l-3 1-21-11-5-4v-149z" fill="#FBFBFB"/>
<path transform="translate(117,157)" d="m0 0 5 1 23 11 12 6 2 2 1 72v24l-3 2-11-6-15-8-14-7-1-2v-94z" fill="#FBFBFB"/>
<path transform="translate(329,121)" d="m0 0h2l1 7v11l-9 4-14 8-11 6-18 10-20 12-7 4-11 7-10 5-2 2-1 4v119l4 3 5 3v3l-20 10h-3l-1-4v-146l4-4 22-13 16-10 11-6 42-24 17-10z" fill="#FCFCFC"/>
<path transform="translate(793,633)" d="m0 0 8 1 17 9 4 3-2 4-12 7-11 6-14 8-11 6-21 12-17 10-11 6-13 7-1 1h-5l-21-13-2-3 21-13 14-8 11-6 13-8 11-6 19-11 11-6z" fill="#FCFCFC"/>
<path transform="translate(293,95)" d="m0 0 5 1 10 6 12 6 2 3-17 10-16 9-35 20-17 10-25 15-6 1-22-12-2-4 13-8 21-12 27-16 17-10 18-10 9-6z" fill="#FCFCFC"/>
<path transform="translate(198,102)" d="m0 0 7 1 16 8 9 5-2 4-10 5-18 10-26 16-9 5-3 1-1 4-4 1-17-8-14-7-1-3 21-13 14-7 17-10 13-8z" fill="#FCFCFC"/>
<path transform="translate(637,703)" d="m0 0 6 2 10 5 6 4 1 2v104l-1 2-5-1-15-8-1-2-1-39-1-67z" fill="#FBFBFB"/>
<path transform="translate(835,723)" d="m0 0 5 1 10 16 7 10 8 13 22 34 9 14 5 8-1 3-11 7-3 2-4-1-8-11-14-23-6-11-7-11-11-17-13-21-2-3 5-5z" fill="#FCFCFC"/>
<path transform="translate(559,397)" d="m0 0h5l5 4v4l-15 9-11 6-17 9-23 14-11 7-6 3h-6l-16-8-15-8-17-8-23-10-16-8-3-2 1-4 7-4 7 1 16 8 17 8 16 7 15 7 12 5h6l19-10 21-12 11-7 14-7z" fill="#FCFCFC"/>
<path transform="translate(562,546)" d="m0 0 5 2v2l3 1-1 3-12 7-22 13-21 13-11 6-14 8-4 2-7-1-14-7-12-7-21-10-14-7-19-9-7-4-1-5 4-3 7 1 13 6 18 8 14 7 16 7 18 9h8l11-7 11-6 14-8 11-6 22-13z" fill="#FCFCFC"/>
<path transform="translate(576,563)" d="m0 0 3 2v10l-13 9-11 6-13 8-14 7-19 12-9 7-1 3-1 102-1 3-6 1-1-1v-117l5-4 19-11 21-12 25-15z" fill="#FCFCFC"/>
<path transform="translate(430,208)" d="m0 0h3l1 4-9 7-14 8-19 11-11 6-16 9-4 4-1 95-4 3h-5l-1-3 1-98 3-3 11-6 16-9 17-10 13-8 10-5z" fill="#E4E5E4"/>
<path transform="translate(827,659)" d="m0 0 3 1v49l-5 5-16 9-4 6-5-1-10-6-6-3h-6l-15 8-14 7-3 1-1 17 1 72 5 3 23 12 2 4-18 10-13 8-14 7-14 9-3-1-1-16v-50l1-85 10-7 38-22 16-9 11-6 16-9 16-10zm0 2-17 10-24 14-3 1v2l-4 1-16 8v2l-5 1-10 6-13 8-6 4-5 2-8 5-1 93v26l1 30 18-9v-2l5-1 20-12 14-7-1-3-8-4h-3v-2l-11-5-5-1-2-4v-86l5-6 9-5 10-4 2-2 4-1v-2l11-1 8 4h2v2l5 2 4 2 1-3h2l2-3 11-6 8-5 1-1v-48z" fill="#E4E5E4"/>
<path transform="translate(726,641)" d="m0 0 5 1 7 4-1 5-8 4-28 17-16 9-12 7-9 5h-2l-1 5h-5l-10-6 1-4 17-10 11-7 14-9 11-6 21-12z" fill="#FCFCFC"/>
<path transform="translate(329,121)" d="m0 0h2l1 7v11l-9 4-14 8-11 6-18 10-20 12-7 4-11 7-10 5-2 2-1 4v119l4 3 5 3v3l-20 10h-3l-1-4v-146l4-4 22-13 16-10 11-6 42-24 17-10zm-3 3-11 7-11 6-8 4v2l-5 1v2l-5 1-4 2v2l-6 2-10 6-9 5-10 6-9 5-4 2v2l-5 2-9 5-4 3v50l1 2v67l-1 29 4-1 9-5 5-2-1-4-5-1-1-3-1-13v-77l1-32 1-4 4-2 18-10 5-4 11-6 12-7 15-9 5-2v-2l5-1 4-2v-2l6-2 11-6 5-1v-15z" fill="#E4E5E4"/>
<path transform="translate(511,639)" d="m0 0 6 1 30 15 17 9 23 11 25 13 13 8 1 29v79l-4 1-16-8-15-8-16-7-15-7-44-21-5-4zm3 3-1 1v105l3 3 16 8 4 1v2l6 2 4 1 2-3 2 6 10 5 6 1v2l11 4 32 16h3v2l12 5v-56l-1-39v-11l-4-1v-2l-5-2-12-7h-3v-2l-11-5-36-18h-3v-2l-9-4h-2v-2l-5-2-9-4h-3v-2z" fill="#E4E5E4"/>
<path transform="translate(380,569)" d="m0 0 9 1 19 9 17 9 19 9 14 7 17 10 2 2v117l-2 1-12-5-17-10-12-6-21-12-19-10-11-6-2-4zm3 2v111l8 5h3v2l11 5 6 4 5 2 4 1v2l5 1v2l16 8 18 10 11 6 5 1v-48l-1-15v-51l-1-2h-2v-2l-10-5-17-9-12-6-10-4-2-1-2 1v-2l-6-3h-2v-2l-11-4-3-2h-3v-2l-6-1v-2z" fill="#E4E5E4"/>
<path transform="translate(243,211)" d="m0 0 9 3 11 5 18 8 15 7 27 12 14 7 1 1v101l-3 1-11-4-15-7-16-7-14-7-17-7-14-7-5-2-1-2v-101zm1 2v99l4 3h4v2l12 5 8 4 5 2 14 7 10 4 7 3 8 4 10 4 7 2v2h3l-1-77 1-22h-2v-2l-13-6-7-1v-2l-11-4-10-5h-3v-2l-11-4-20-10-5-2z" fill="#E4E5E4"/>
<path transform="translate(375,271)" d="m0 0 19 9 13 5 16 8 19 9 16 8 17 9 1 1v100l-3 2-19-9-14-7-23-11-28-12-14-7-2-3v-101zm0 3v99l10 6 6 2 7 3 3-3 1-3 4-1-1 3h-2v6l7 4 11 4 12 7 6 1v2l13 5 7 4 7 3h3v2l4 1 1-1v-97l-5-2-1-2-5-2-6-3-15-7h-2v-2l-6-1v-2l-10-4-16-8-10-4-13-6z" fill="#E4E5E4"/>
<path transform="translate(383,419)" d="m0 0 9 4 16 8 48 23 16 8 5 3v107l-6-1-21-10-16-8-42-20-10-5-1-106zm0 3v103l1 2 6 1v2l5 2 7 4 10 4 13 7h5v2l6 1v2l6 1v2l6 1v2l11 4 8 5 4 2h4l-1-104-5-3-5-2-12-6-6-1v-2l-6-1v-2l-6-2-16-8-7-3-26-13z" fill="#E4E5E4"/>
<path transform="translate(576,563)" d="m0 0 3 2v10l-13 9-11 6-13 8-14 7-19 12-9 7-1 3-1 102-1 3-6 1-1-1v-117l5-4 19-11 21-12 25-15zm0 2-7 5-8 4v2l-5 2-9 5-4 2v2l-6 2-4 3-10 4-1 2-12 6-7 5-9 5-2 2v115l4-1 1-106 2-4 4-2 7-4 6-3v-2l5-1v-2l4-1 10-5v-2l6-2 9-5 10-6 9-5v-2l5-2 3-1v-10z" fill="#E4E5E4"/>
<path transform="translate(758,753)" d="m0 0 5 1 14 8 16 8 14 8 9 1 1-3 1-21h3l18 30 9 14 11 18 7 10 5 8v6l-38 28-8 6h-2v2l-4 2-2-2v-18l-1-9-5-5-20-11-16-8-17-9-1-1v-61zm2 3v59l3 1v2l6 1v2l28 14h3v2l5 1v2l5 1v2l6 3 2 2 1 29 6-5 3-1 4-4 19-14 8-6 3-1 5-5 3-4-5-9-2-1-4-7-7-10-4-8h-2l-1-5h-2l-2-5-2-4h-2l-1-4-12-20-4-7h-1l-1 22-7 3-11-6-6-4-7-3h-3v-2l-9-4h-2v-2l-5-2-5-3z" fill="#E4E5E4"/>
<path transform="translate(673,710)" d="m0 0 4 1 16 8 8 5v152l-3 1-21-11-5-4v-149zm1 3v149l5 1v2l16 8 4 1v-149l-7-4h-2v-2l-12-6z" fill="#E4E5E4"/>
<path transform="translate(597,580)" d="m0 0 7 1 12 7 19 9 16 7 14 7 16 7 14 7 16 7 1 4-17 10-18 10-22 13-15 10-6 3h-8l-16-8-19-9-12-7-16-8-17-9-14-7-11-6 1-5 19-11 22-13 15-9 10-5zm-1 2-2 2-4 1v2l-5 2-5 3-5 2-10 6-4 2v2l-5 1v2l-5 1-6 4-3 1v2l-6 2-9 5-4 2 1 4 7 3 6 3h3v2l17 9 14 7 19 10 19 9 3 2h3v2l12 5 5 1 14-8 7-5 3-1v-2l5-1v-2l5-1v-2l4-1 20-12 10-5 9-5-1-3-16-8-12-5-3-2h-4v-2l-10-4-10-5-16-7-28-14-7-4z" fill="#E4E5E4"/>
<path transform="translate(461,212)" d="m0 0h6l10 5 17 8 17 7 15 7 11 5 18 8 12 6-5 5-13 8-10 5-9 6-10 5-17 10-14 8-6 3-6-1-19-10-17-8-16-7-19-10-23-11-3-3 5-4 19-9 15-9 16-9 20-12zm1 1-2 2-4 1-1 2-11 6-12 7-15 9-9 4v2l-6 2-5 2v2l-5 1-6 3-3 3 5 2 16 8 13 7 10 4 13 7 10 4 13 7 5 2 12 6 7-2 2-2 4-1v-2l6-2 9-5 20-12 10-5v-2l4-1 5-2v-2l5-1v-2l5-1 7-5-4-2-2-2-6-2-16-7-2-2-13-5-12-6-13-5-15-7-16-8z" fill="#E4E5E4"/>
<path transform="translate(562,546)" d="m0 0 5 2v2l3 1-1 3-12 7-22 13-21 13-11 6-14 8-4 2-7-1-14-7-12-7-21-10-14-7-19-9-7-4-1-5 4-3 7 1 13 6 18 8 14 7 16 7 18 9h8l11-7 11-6 14-8 11-6 22-13zm0 2-8 4-17 10-12 7-5 2v2l-5 1v2l-5 1-10 6-12 7-5 1-10-4h-2v-2l-6-1v-2l-6-2-18-8-6-3-15-7-8-4-13-6h-5v2h-2v2h2v2l5 2 15 7 9 5 10 4 3 2h3v2l5 2 19 10h3v2l12 6h9l2-2 4-1v-2l5-1 10-6 17-10 2-1v-2l5-1 4-2v-2l5-1v-2l5-2 9-5 11-7 1-2z" fill="#E4E5E4"/>
<path transform="translate(573,270)" d="m0 0 3 1 1 100-3 4-11 6-16 9-17 10-28 17-9 5h-4v-103l5-4 19-11 11-6 16-9 17-10zm-1 2v2l-5 1v2l-5 1-25 15-9 5-5 2v2l-5 2-5 3-5 2-6 4-4 1v2l-5 2-2 2v98l3 1 8-4v-2l5-1v-2l4-1 5-2v-2l5-1v-2h3v-2l6-2 9-5v-2l5-1v-2l5-1v-2l4-1 16-8v-2l5-2v-100z" fill="#E4E5E4"/>
<path transform="translate(559,397)" d="m0 0h5l5 4v4l-15 9-11 6-17 9-23 14-11 7-6 3h-6l-16-8-15-8-17-8-23-10-16-8-3-2 1-4 7-4 7 1 16 8 17 8 16 7 15 7 12 5h6l19-10 21-12 11-7 14-7zm0 2-14 7v2l-6 2-10 6-3 1-1 2-5 2-4 2v2l-5 1-9 5-13 7-1 1h-7l-10-4-8-4-11-4-7-4-5-2-14-7-10-4-7-4-7-3h-5l-5 3v2l16 8h3v2l13 5 15 7h3v2l6 1v2l10 4 12 7 11 5 3 1 2-2 5-2 10-6 7-4 8-5 12-7 6-4 4-1v-2l6-2 9-5 6-4 4-1v-2l3-1-1-4z" fill="#E4E5E4"/>
<path transform="translate(173,174)" d="m0 0 7 2 15 8 6 3 1 2v151l-4 1-17-9-8-5-1-29v-122zm1 3v128l2 21 3 1v2l12 6 5-1 1 4 3-1v-148l-17-9-5-1v-2z" fill="#E4E5E4"/>
<path transform="translate(328,153)" d="m0 0 5 1 15 7 23 10 15 7 28 12 8 4 2 4-10 6-14 7-14 8-16 9-11 7-14 7-10-3-16-7-14-7-16-7-14-7-12-5-11-6 1-4 15-9 11-6 16-9 9-5 21-12zm0 2-10 6-10 5v2l-5 1v2l-4 1-5 2v2l-6 2-7 4-12 7-14 8v3l5 1v2l13 5 15 7 10 5 13 6 10 5 11 4 10 5 6-1 25-15 14-7v-2l6-2 9-5 5-2v-2l6-2 8-5-3-3-12-5-8-4-10-4-7-2v-2l-6-2-8-4-8-3h-3v-2l-13-5-12-6z" fill="#E4E5E4"/>
<path transform="translate(575,415)" d="m0 0h3v107l-5 4-19 11-11 6-23 13-15 9-11 6-4-1v-104l4-5 24-13 17-10 16-9 16-10zm-1 2-7 5-11 6-12 7-20 12-4 1v2l-6 2-9 5-6 4-4 1-3 3v104l5-2 11-6 8-5 3-1v-2l5-1v-2l5-1 17-10 14-8 3-1v-2l6-2 8-5v-104z" fill="#E4E5E4"/>
<path transform="translate(293,95)" d="m0 0 5 1 10 6 12 6 2 3-17 10-16 9-35 20-17 10-25 15-6 1-22-12-2-4 13-8 21-12 27-16 17-10 18-10 9-6zm1 2-5 2v2l-4 1-9 5-6 3v2l-5 1v2l-5 1v2l-5 1-9 5v2l-5 1-6 4-8 4v2l-5 2-10 6-5 2v2l-4 1-5 2v2l-5 1v2l-4 1-4 2v2l3 2h4l1 3 14 7 7-2v-2l5-1 6-4 3-1v-2l5-1v-2l5-2 9-5 20-12 9-4v-2l5-1v-2l5-1 30-18 4-2-19-10z" fill="#E4E5E4"/>
<path transform="translate(779,731)" d="m0 0 7 1 15 10 4 3v16l-3 1-9-6-10-5-15-9-2-3 5-4z" fill="#FCFCFC"/>
<path transform="translate(793,633)" d="m0 0 8 1 17 9 4 3-2 4-12 7-11 6-14 8-11 6-21 12-17 10-11 6-13 7-1 1h-5l-21-13-2-3 21-13 14-8 11-6 13-8 11-6 19-11 11-6zm-1 2-2 2-5 2-10 6-10 5-20 12-4 1-1 2-11 6-14 8-3 1v2l-5 1v2l-6 2-8 4v2l-6 2-3 3 9 6 12 7 4-1 14-7 10-6 10-5v-2l5-1v-2l5-1v-2l5-1 20-12 9-4v-2l5-1v-2l5-1 10-6 5-2v-2l6-2 2-1v-2l-12-6h-2v-2l-5-2-1-1z" fill="#E4E5E4"/>
<path transform="translate(637,703)" d="m0 0 6 2 10 5 6 4 1 2v104l-1 2-5-1-15-8-1-2-1-39-1-67zm1 2 1 2 1 20v84l5 2 1 2 5 2 7 3v-104l-3-3-7-3-1-2-6-2z" fill="#E4E5E4"/>
<path transform="translate(363,249)" d="m0 0 3 1-4 1v2l-3 3-1 5v32l1 26-1 32-4 1v2h-2v-69l1-30 5-3z" fill="#FCFCFC"/>
<path transform="translate(117,157)" d="m0 0 5 1 23 11 12 6 2 2 1 72v24l-3 2-11-6-15-8-14-7-1-2v-94zm1 2v93l13 7 5 2 7 4h3v2l5 1v2l5 1v2h2v-94l-1-2-5-2-5-1v-2l-6-1v-2l-6-1v-2l-10-4z" fill="#E4E5E4"/>
<path transform="translate(835,723)" d="m0 0 5 1 10 16 7 10 8 13 22 34 9 14 5 8-1 3-11 7-3 2-4-1-8-11-14-23-6-11-7-11-11-17-13-21-2-3 5-5zm0 2-6 4-4 1-1 4 5 7 5 9 2 4h2l2 5 4 7 5 7 1 3h2l2 5 3 4 2 5 5 9h2l1 5h2l1 5 4 5 4 7 5 8h4v-2l4-2 7-4-1-5-6-9-4-7-9-14h-2v-3h-2l-1-5h-2l-2-5-2-4h-2l-1-4-2-4h-2l-1-5h-2l-2-5-6-9-4-7-3-5h-2l-1-4z" fill="#E4E5E4"/>
<path transform="translate(198,102)" d="m0 0 7 1 16 8 9 5-2 4-10 5-18 10-26 16-9 5-3 1-1 4-4 1-17-8-14-7-1-3 21-13 14-7 17-10 13-8zm0 2-16 9-11 7-9 4v2l-5 1v2l-5 1-10 5v2l-5 1v2l-5 2-3 1 1 4 12 6 10 4 4 2 5-1 5-5 12-6v-2l5-1v-2l4-1 10-6 6-4 3-1v-2l5-1 12-7 3-1 1-3-17-8-7-4z" fill="#E4E5E4"/>
<path transform="translate(726,641)" d="m0 0 5 1 7 4-1 5-8 4-28 17-16 9-12 7-9 5h-2l-1 5h-5l-10-6 1-4 17-10 11-7 14-9 11-6 21-12zm1 2-3 1v2l-5 1-17 10-14 8-3 1v2l-5 2-4 2v2l-4 1-4 2v2l-5 1v2l-5 2-9 5v3l5 1v2l4 1 4-4v-2l6-2 5-3 5-2 15-9 9-5 20-12 9-5 4-2 1-3-8-4z" fill="#E4E5E4"/>
<path transform="translate(537,671)" d="m0 0 7 1 4 2-3 9 2-1 2-3 6-1 1 3h9l-1 3-1-1h-5l-1 3 2 8-5 3-8-1-4-6-4-2h4v-4h-5l3-3-3-8z" fill="#E4E5E4"/>
<path transform="translate(369,243)" d="m0 0v3l-3 1v2l-12 6-1 30v67l-1 2h2v-2l4-1v-31l2-1v33l-4 3h-5l-1-3 1-98 3-3 11-6z" fill="#E4E5E4"/>
<path transform="translate(779,731)" d="m0 0 7 1 15 10 4 3v16l-3 1-9-6-10-5-15-9-2-3 5-4zm-1 2-5 3v2l-4 2h2v2l5 1v2l5 3 5 2 12 7h2v2h3v-13l-7-5h-3l-1-3-8-5z" fill="#E4E5E4"/>
<path transform="translate(439,503)" d="m0 0h5l3 5h1l-1 7v3l2 1-1 4-2 3-2 7h-7l-3 4h-2l1-6 8-1 3-9-1-5-9-1 2-5 1-5z" fill="#E4E5E4"/>
<path transform="translate(430,210)" d="m0 0v3l-5 4-5 3-4 1-1 2h-3v2l-10 5-6 4-5 2-10 6-5 1v2l-10 4v-2l9-6 8-4 3-2h3v-2l11-6 5-3h3v-2l10-5z" fill="#FCFCFC"/>
<path transform="translate(553,728)" d="m0 0 5 3v7l-4 2-8 1-2-4-2-2 1-5 6 2z" fill="#E4E5E4"/>
<path transform="translate(525,674)" d="m0 0h3l1 7h2l2 7 1 2-5 1-7-3-1-3 2-10z" fill="#E4E5E4"/>
<path transform="translate(429,642)" d="m0 0 5 1-1 5-5 7-3 1-6-3 1-5 1-2 6-1z" fill="#E4E5E4"/>
<path transform="translate(420,476)" d="m0 0 2 2h5l1 5-1 3-3 1-1 3-6-2-2-3 4-8z" fill="#E4E5E4"/>
<path transform="translate(193,228)" d="m0 0 3 1 1 2v15l-2 2-1-4-2 7-5 1-2-3v-10l2 3 1 6 3 1v-9l2-4 1 2 1-1v-5z" fill="#E4E5E4"/>
<path transform="translate(322,280)" d="m0 0 3 1-2 1-1 8-2 2-4-1-5-5 2-3 8-2z" fill="#E4E5E4"/>
<path transform="translate(423,605)" d="m0 0h9l3 1 1 4h-3v4h-7l-1-5-3-3z" fill="#E6E7E6"/>
<path transform="translate(547,761)" d="m0 0 3 3v4l4 1 12 5 1 3-5-1-17-8-1-3h2z" fill="#E5E6E5"/>
<path transform="translate(414,620)" d="m0 0 5 3 1 5-4-1 1 3 3 2-5 1-4-4 1-8z" fill="#E4E5E4"/>
<path transform="translate(280,255)" d="m0 0 1 3 5 2 3 4-1 2-8 1-1-6z" fill="#E4E5E4"/>
<path transform="translate(445,374)" d="m0 0 8 1v5l-3 1-8-2 1-4z" fill="#E4E5E4"/>
<path transform="translate(293,294)" d="m0 0 7 1v5l-4 1-1-3h-8v-3z" fill="#E4E5E4"/>
<path transform="translate(273,234)" d="m0 0 5 2-2 8-3-1-5-5z" fill="#E4E5E4"/>
<path transform="translate(524,665)" d="m0 0h4l4 5h-2l-2 4-2-2-4-2 1-4z" fill="#E4E5E4"/>
<path transform="translate(180,329)" d="m0 0 5 2 6 3 5-1 1 2-2 3-4-1-10-5z" fill="#E5E6E5"/>
<path transform="translate(525,721)" d="m0 0 4 1 2 2-3 1v10h-1l-2-6-2-1z" fill="#E4E5E4"/>
<path transform="translate(576,717)" d="m0 0h4l2 5-6 2-4-5z" fill="#E4E5E4"/>
<path transform="translate(574,748)" d="m0 0 5 3v4l-4 1-3-2-1-4z" fill="#E4E5E4"/>
<path transform="translate(457,680)" d="m0 0h5v5l-4 1-3-1-1 3-2-1 1-5h3z" fill="#E4E5E4"/>
<path transform="translate(559,701)" d="m0 0 4 2 3 6-4 1-3-3z" fill="#E4E5E4"/>
<path transform="translate(450,632)" d="m0 0h3l3 4v2l-6 1-1-3-2-1z" fill="#E4E5E4"/>
<path transform="translate(316,264)" d="m0 0 4 1h3l-1 4-3 4-3-4z" fill="#E4E5E4"/>
<path transform="translate(782,798)" d="m0 0 6 3-3 1-4-1 1 6-3 1-1-7z" fill="#E4E5E4"/>
<path transform="translate(555,763)" d="m0 0 7 1 2 2v3l-5-1-4-3z" fill="#E4E5E4"/>
<path transform="translate(388,638)" d="m0 0h2v14l-2-4-2-5v-3h2z" fill="#E4E5E4"/>
<path transform="translate(309,288)" d="m0 0 1 3-3 5-3 1-3-3 6-4z" fill="#E4E5E4"/>
<path transform="translate(253,294)" d="m0 0h1v5h4l1-3 1 2-3 6-3-1-1-2z" fill="#E4E5E4"/>
<path transform="translate(284,245)" d="m0 0 5 1 3 5-3 2-3-6-3 2z" fill="#E4E5E4"/>
<path transform="translate(322,311)" d="m0 0 3 2-3 4h-9v-1l6-2z" fill="#E4E5E4"/>
<path transform="translate(523,698)" d="m0 0 3 1-4 6-4-1 2-4h3z" fill="#E4E5E4"/>
<path transform="translate(411,467)" d="m0 0h4v6h-4l-1-5z" fill="#E4E5E4"/>
</svg>
