<?xml version="1.0" encoding="UTF-8"?>
<svg version="1.1" viewBox="0 0 1024 1024" width="1024" height="1024" xmlns="http://www.w3.org/2000/svg">
<path transform="translate(0)" d="m0 0h1024v1024h-1024z" fill="#FEFEFE"/>
<path transform="translate(573,99)" d="m0 0h24l23 2 14 3 18 5 12 5 16 9 13 9 12 9 9 9 8 7 10 9 11 9 9 10 11 15 9 17 6 15 6 22 3 15 2 7 3 6v54l-1 22-5 5-10 5 1 4 11 7 3 4 1 17v57l-3 5-9 6h-2l4 4 6 4 4 5v72l-3 6-7 4-2 1 1 4 8 6 3 4v72l-2 5-8 5-3 1-1 4 5 2 6 4 3 4v54l-1 21-5 5-25 15-12 7-12 6-21 12-17 10-11 6-21 12-17 10-19 11-11 6-13 8-14 7-23 13-8 5-10 5-6-1-13-7-13-8-11-6-21-12-14-9-10-5-18-10-21-12-17-10-11-7-10-6-10-5-17-10-22-13-8-4-19-11-21-12-13-8-3-3v-77l8-6 5-4-12-8-1-2-1-30v-29l1-19 8-6 4-2v-2l-11-7-1-2v-76l2-3v-4l-26-1-4-3-2-11-2-21-3-25-5-48-2-18-3-30 1-7 3-2 40 1 1-23 4-4 23-13 14-9 5-4h2v-2h2l2-4 12-13 23-23h2v-2l11-9 15-12 14-10 19-12 16-9 16-8 11-5 20-8 19-6 18-5 36-6z" fill="#6B6B6B"/>
<path transform="translate(608,195)" d="m0 0h13l17 10 18 10 21 13 14 8 11 6 24 14 11 7 8 4 13 8 11 6v4l-16 9-17 10-18 11-33 18-12 7-11 6-21 12-11 7-11 6-14 8-11 6-14 8-11 6-13 8-4 2-6-1-9-5-21-13-23-13-13-8-11-6-26-15-16-10-22-12-9-6 2-5 13-16 3-4h2l2-4 13-13h2v-2l8-7 9-8 17-13 13-9 18-11 23-11 20-8 16-5 17-4 19-3z" fill="#FEFEFE"/>
<path transform="translate(570,112)" d="m0 0h27l25 3 14 3 20 7 17 9 10 7 2 3-7-1-20-4-6-1h-38l-26 3-26 5-18 5-12 4-21 8-15 7-16 8-19 10-10 7-18 13-10 8-13 11-11 10h-2l-2 4-14 14-9 11-10 12-14 19-7 11-10 16-6 13-2 4v7l4 3v2l6 2 10 6 7 4 2 4-10 7-11 7-10 7-13 9-30 20-19 13-2-1-2-13-2-22-4-33-4-41-1-7v-9l2-1 11 6 12 8 6 3 5-1 5-9 9-16 12-19 8-12 12-16 7-9h2l2-4 4-5h2l2-4 27-27h2v-2l14-11 11-9 17-12 20-12 23-12 21-9 13-5 14-4 18-5 23-5z" fill="#FDFDFD"/>
<path transform="translate(607,150)" d="m0 0h48l20 4 16 5 20 9 12 8 14 12 10 12 9 14 7 16 4 10 6 21v7l-5-1-16-10-14-7-8-6-8-10-7-10-9-10-8-7-12-8-13-6-15-5-14-3-16-1h-25l-15 1-21 4-19 5-28 10-15 7-10 5-14 8-15 10-11 7-11 9-13 11-15 14-7 7-7 8-13 16-11 16-8 13-2 2h-16l-10-1-1-4 5-9 7-11 8-12 14-19 10-11 6-8h2l2-4 16-16 8-7 12-10 17-13 19-12 20-12 16-8 26-11 24-8 19-5 14-3z" fill="#FEFEFE"/>
<path transform="translate(289,665)" d="m0 0 11 7 15 9 14 7 16 10 11 6 21 13 14 7 11 7 9 5 10 6 10 5 16 10 17 10 10 5 16 10 16 9 11 7 14 7 11 7 2 2v54l-4 1-15-9-12-7-11-6-16-9-18-11-26-15-42-24-9-5-15-9-16-9-17-10-27-15-25-15-3-1-1-2v-43l1-13z" fill="#FDFDFD"/>
<path transform="translate(288,569)" d="m0 0 6 2 24 15 11 6 18 10 11 7 11 6 21 12 17 10 18 10 17 10 21 13 14 7 25 15 19 10 20 12 2 2 1 27v28l-4 1-21-12-11-7-11-6-19-11-22-13-21-12-16-9-21-12-11-7-14-7-17-10-13-8-11-6-21-12-17-10-6-3-1-2v-54z" fill="#FDFDFD"/>
<path transform="translate(289,472)" d="m0 0 10 5 17 10 16 10 14 7 26 16 8 4 14 8 11 7 11 6 21 12 19 11 11 7 8 4 13 8 11 6 9 5 19 11 11 6 5 6v53h-5l-10-7-19-10-35-21-11-6-21-12-16-10-11-6-26-15-15-8-17-10-18-11-11-6-27-15-13-8-1-2v-52z" fill="#FDFDFD"/>
<path transform="translate(775,296)" d="m0 0h3v55l-8 6-13 8-14 7-17 10-14 8-11 6-21 12-17 10-11 6-16 9-11 7-11 6-13 8-14 7-11 7-11 6-5 3h-4v-56l5-4 21-12 36-21 11-6 17-9 16-9 20-12 22-12 35-20 15-8z" fill="#FEFEFE"/>
<path transform="translate(776,493)" d="m0 0 2 1v56l-4 4-16 8-15 9-11 6-21 13-10 5-14 8-39 22-16 9-17 10-14 8-11 6-16 9-11 7-7 2v-54l2-4 10-6 14-8 11-6 21-12 17-10 36-20 17-10 14-7 23-14 12-7 22-12z" fill="#FEFEFE"/>
<path transform="translate(775,591)" d="m0 0h3l1 2v22l-1 33-23 13-22 12-25 15-11 6-21 12-12 7-14 7-11 7-11 6-32 18-21 12-15 9h-4v-53l5-6 36-20 22-13 10-6 11-6 19-11 29-16 15-9 11-6 21-12 17-10 11-6z" fill="#FEFEFE"/>
<path transform="translate(776,688)" d="m0 0 2 1v57l-19 10-9 5-21 12-20 12-10 5-21 12-23 13-17 10-25 14-35 20-9 5-11 6h-2l-1-7 1-49 9-6 10-5 19-12 10-5 15-9 11-6 14-8 14-7 16-10 11-6 17-9 26-16 22-12 11-7 11-6z" fill="#FEFEFE"/>
<path transform="translate(774,398)" d="m0 0h4v55l-6 5-17 10-16 8-10 6-11 6-20 12-12 7-14 7-18 10-20 12-9 5-13 8-11 6-14 8-11 6-16 9-4-1v-52l5-5 13-8 12-6 14-8 13-8 9-5 20-12 14-7 25-15 11-6 13-8 11-6 21-12 17-10 11-6z" fill="#FEFEFE"/>
<path transform="translate(355,415)" d="m0 0 5 1 15 9 11 6 28 17 11 6 16 9 20 12 11 6 26 15 11 7 14 7 11 7 8 4 1 2 1 41v14l-4 1-17-10-20-12-17-10-13-8-11-6-14-8-14-9-11-6-27-15-21-12-10-6-11-6-16-9-14-8-11-7 3-5 19-13 17-12z" fill="#FDFDFD"/>
<path transform="translate(389,331)" d="m0 0 12 6 24 14 21 13 11 6 14 8 11 6 16 9 18 11 12 7 11 6 5 5v53l-5 1-30-18-14-7-16-10-11-6-19-11-13-8-11-6-13-8-11-6-7-5 1-4 18-11 5-6-1-5-9-6-14-8-11-8-1-5 5-6z" fill="#FDFDFD"/>
<path transform="translate(757,378)" d="m0 0 7 1v2l5 2 1 3-5 4-11 6-14 8-11 6-18 11-11 6-16 9-18 10-20 12-16 9-15 9-14 7-17 10-18 11-14 7-7-1-21-12-21-13-11-6-8-5-11-6-14-8-19-11-15-9-17-10-11-6-20-12-7-4-1-3 9-7 5 1 15 9 11 6 13 8 11 6 24 14 11 6 40 24 10 5 15 9 11 6 4 2 5-1 10-5 15-9 14-7 11-7 14-7 17-10 18-10 25-15 11-6 21-12 21-11 11-7 11-6z" fill="#FDFDFD"/>
<path transform="translate(299,553)" d="m0 0 8 1 21 12 20 11 18 11 17 10 14 8 11 6 13 8 11 6 13 8 11 6 26 15 17 10 13 8 11 6 21 12 3 2 7-1 16-9 10-6 10-5 6-4 11-6 21-12 12-7 11-6 17-9 21-13 11-6 16-9 17-10 11-6 16-9 6-1 3 3-1 4-16 10-19 11-11 6-23 13-10 6-11 6-16 9-17 10-18 10-21 12-36 20-16 9-7 1-27-16-45-25-14-8-13-8-11-6-26-15-17-10-16-9-8-5-11-6-16-9-19-12-8-4-17-11-3-5z" fill="#FEFEFE"/>
<path transform="translate(299,651)" d="m0 0h7l16 9 16 10 14 7 16 10 11 6 21 12 25 15 10 5 18 10 11 7 10 5 16 10 22 13 11 6 18 11 9 3 16-8 26-15 12-7 11-6 29-16 10-6 11-6 21-12 17-10 14-8 14-7 11-7 11-6 8-5 5 2 3 2-1 4-15 8-17 10-20 12-20 11-17 10-11 6-14 8-11 6-16 9-16 10-11 6-14 8-11 6-17 10-7 3-4-1-10-5-16-10-13-8-11-6-14-8-11-6-15-9-16-9-16-10-14-8-12-6-13-8-11-6-21-12-17-10-13-8-11-6-14-8-2-2v-4z" fill="#FDFDFD"/>
<path transform="translate(300,456)" d="m0 0 6 2 18 10 16 9 15 9 8 4 21 12 20 12 11 6 14 8 10 5 19 12 11 6 40 24 10 5 22 13 6 3 8-1 13-8 11-6 17-9 11-7 11-6 19-11 16-9 14-8 8-5 11-6 55-31 15-9 7-3 4 2 2 5-14 9-11 6-14 8-11 6-16 9-12 7-11 6-18 10-17 10-32 18-15 9-14 7-16 10-11 6-4 2h-7l-16-10-11-6-19-11-11-6-26-16-11-6-32-18-11-7-11-6-13-8-11-6-12-7-10-5-21-13-16-9-14-8-4-3 1-5z" fill="#DEDEDF"/>
<path transform="translate(563,97)" d="m0 0h44l2 1 17 2 13 3 1 1 7 1 12 5 10 4 10 6 8 5v2l4 1 12 9 3 2v2l3 1v2l3 1v2l4 2 7 6 3 3v2l4 2 7 5v2h3l3 3v2l3 1 2 5 3 1v2l3 1v2h2l7 11 5 7v4h2l1 6h2l5 13 3 8 4 13 3 16 3 12 2 2v82l-8 6-7 3 3 3 11 8 1 1v80l-6 5h-3v2l-2 1 9 7 2 2v80l-8 6h-3v3l4 2 7 5v81l-8 6-3 1v2l9 6 2 2v79l-5 5-7 5-11 6-5 3h-3v2l-9 5-5 1v2l-8 4h-3v2l-6 3h-3v2l-10 5-10 6-4 1v2l-10 5-6 4h-4v2l-10 5-5 4h-4l-1 3-5 2-15 9h-4l-1 3-11 6-6 3h-2v2l-6 3h-3v2l-5 1v2l-16 8-10 6-9 5-7 4h-3v2l-6 3h-10l-10-6-6-4-5-2-9-5v-2l-5-1v-2l-5-1-9-5v-2l-5-1v-2l-5-1v-2l-4-1-10-5-10-6-10-5v-2l-5-1-25-15-4-2v-2l-5-1-9-5v-2l-5-1v-2l-4-1-10-5v-2l-5-1-25-15-4-2v-2l-5-1-5-2v-2l-5-1-5-3v-2l-5-1v-2l-5-1-9-5v-2l-5-1v-2l-5-1-10-6-5-2v-2l-5-1-6-4-3-3-2-4v-74l4-5 8-5 1-2h-3v-2l-5-2-3-2-2-4v-76l5-5 7-5-3-3-4-2v-2l-3-1-2-3v-66l2-13-9-2-17-1-4-5-1-16-2-10-1-16-2-9-1-19-2-10-1-16-1-3-2-26-1-4-1-18-1-10 2-4 5-3 19 1 20 2-1-9v-10l2-6h2l1-3h4v-2l9-5 10-6 13-8 5-2v-2h3l3-6h2l1-3h2l1-4 29-29 4-3h2v-2l4-3h2l1-3h2v-2l19-14 3-1v-2l5-3h3l1-3h3v-2l5-1v-2l5-1v-2l9-5 5-1v-2l5-1v-2l12-6 5-2 12-6 6-2 10-4 6-2 17-5 7-2 5-2 9-1 4-2 11-1 1-1 19-2zm10 2-23 2-28 5-22 6-31 11-15 7-16 8-10 6-11 6-11 7-14 10-13 10-13 11-3 2v2l-4 2-29 29-6 7v2h-2v2l-4 2-14 9-26 15-4 4-1 23-40-1-4 4 1 16 2 19 4 39 3 27 3 25 3 27 2 6 3 2 26 1-1 5-1 2v76l4 4 8 5-1 3-8 4-3 3-1 19v29l1 30 5 5 8 5-5 4-8 6v77l7 6 29 16 13 8 12 7 11 6 16 9 22 13 12 6 10 7 18 10 11 7 11 6 14 8 14 7 21 13 18 10 7 4 20 12 8 4 6-1 15-8 17-10 18-10 11-6 13-8 10-5 21-12 18-11 14-7 16-10 11-6 16-9 12-7 11-6 18-10 14-9 2-3 1-21v-54l-5-6-7-4h-2l1-4 10-5 2-2 1-4v-72l-6-7-6-4v-3l8-4 3-4 1-3v-72l-6-7-7-4-1-2 5-2 7-5 2-4v-57l-1-17-5-5-10-7v-3l12-6 3-4 1-22v-54l-4-7-3-16-4-17-4-12-5-13-9-17-12-16-10-11-14-11-8-8-8-7-8-8-14-10-19-12-14-6-11-4-14-4-18-3-16-1z" fill="#DEDEDF"/>
<path transform="translate(570,112)" d="m0 0h27l25 3 14 3 20 7 17 9 10 7 2 3-7-1-20-4-6-1h-38l-26 3-26 5-18 5-12 4-21 8-15 7-16 8-19 10-10 7-18 13-10 8-13 11-11 10h-2l-2 4-14 14-9 11-10 12-14 19-7 11-10 16-6 13-2 4v7l4 3v2l6 2 10 6 7 4 2 4-10 7-11 7-10 7-13 9-30 20-19 13-2-1-2-13-2-22-4-33-4-41-1-7v-9l2-1 11 6 12 8 6 3 5-1 5-9 9-16 12-19 8-12 12-16 7-9h2l2-4 4-5h2l2-4 27-27h2v-2l14-11 11-9 17-12 20-12 23-12 21-9 13-5 14-4 18-5 23-5zm-16 3-7 2-10 1-13 3-7 2-5 2-8 2-1 1-8 1v2l-8 1v2l-9 2-6 3-6 2-5 2v2l-7 2-10 5-5 2v2l-5 1v2l-6 2-4 3-4 1-1 2-8 4v2l-4 2-18 13v2l-6 3v2l-4 2-9 7-4 5-5 4v2h-2l-4 5-5 4-2 5-3 1v2l-3 1v2h-2l-4 5v2l-3 1-3 5-5 5-6 8v2h-2l-3 5v3h-2l-7 12v2h-2l-3 5v3h-2l-1 5h-2l-5 9-3 6-1 5h-2l-3 5h-9l-2-2-5-2-3-1v-2l-5-1v-2l-8-4-2-2-1 2 1 16 2 10 1 19 2 9 1 18 2 9 1 17 1 3 1 18 2 1 8-6 3-1v-2l8-4v-2h3v-2l5-1v-3l4-1 9-5 4-2v-2l4-1v-2l4-1v-2l4-1 4-2 1-2 3-1v-2l8-4v-2l5-1v-2l4-1 8-5v-3l-5-1v-2l-10-5-10-6-3-1v-14h2l4-10v-2h2l2-5 1-4h2l5-9 1-4 3-1 4-7 5-8 5-5 6-8v-2h2v-3l3-1 4-6 7-7v-3h3l3-6h-3l-5-2-6-4-7 4 1-4 6-2 3-3 2-4 2 2h8l4-1 2 4-1 5h2v-3h2v-2l4-2 5-4v-2l3-1v-2l6-3v-2l4-2 7-5v-2l4-2 7-4v-2l8-4v-2h3l1-2 3-1v-2l5-2 9-6 14-7 6-4 5-2 6-3 6-2v-2l6-1 8-4 6-2 7-2v-2l7-1 10-4 10-2 1-1 10-2 2-1 11-1 5-2 12-1 1-1 12-1h43l11 1 1 1 10 1v-2h-3v-2l-5-1v-2l-5-1v-2l-6-2-8-3-7-3-10-2-1-1-16-2-2-1z" fill="#DEDEDF"/>
<path transform="translate(299,651)" d="m0 0h7l16 9 16 10 14 7 16 10 11 6 21 12 25 15 10 5 18 10 11 7 10 5 16 10 22 13 11 6 18 11 9 3 16-8 26-15 12-7 11-6 29-16 10-6 11-6 21-12 17-10 14-8 14-7 11-7 11-6 8-5 5 2 3 2-1 4-15 8-17 10-20 12-20 11-17 10-11 6-14 8-11 6-16 9-16 10-11 6-14 8-11 6-17 10-7 3-4-1-10-5-16-10-13-8-11-6-14-8-11-6-15-9-16-9-16-10-14-8-12-6-13-8-11-6-21-12-17-10-13-8-11-6-14-8-2-2v-4zm1 2v3l4 1v2l5 3h4l1 3h4v2l5 1v2l4 1 1 2 5 2 6 4h3v2l5 1v2l5 1v2h4v2l5 1v2l10 5 17 10 3 2h4l1 3 5 3 7 3h3v2l3 1 1 2h5v3h5v2l9 4 1 2 9 5 6 4h3v2l10 5 6 4h3v2l10 6 4 1 1 2 5 2 8 4h2v2l4 1 1 2h5v3l7 3 6 3 1 2h5v3l11 6 5 3 8-1 11-6 5-2 1-2 12-6 2-2 5-2 15-9 9-5 4-2v-2l5-1 10-6 6-4 4-1v-2l5-1v-2l4-1 6-3 6-4 4-1v-2l5-1v-2l4-1 5-2v-2l6-2 15-9 4-1v-2l5-1v-2l6-2 9-5 4-2v-2l5-2 10-6 8-4v-2l6-1v-2l5-1v-3l-5-1-4 1v2l-5 2-9 5-15 9-10 5-10 6-10 5-5 2-1 2-12 6-7 5-3 1v2l-5 1v2l-5 1-12 7-3 1v2l-6 2-5 2v2l-4 1-10 5v2l-5 1-12 7-3 1v2l-5 1v2l-5 1v2l-5 1-17 10-8 5-5 2-1 1h-10l-2-2h-4l-1-3-7-3-4-3h-2v-2l-5-1-1-2-5-2-7-4h-2v-2l-5-1v-2l-6-3h-3v-2l-5-1v-2l-8-4-1-2-4-1-1-2-5-2-7-4h-2v-2l-5-2-15-8-5-1-1-3h-4l-1-3-7-3h-3v-2l-3-1-1-2-5-1v-2l-5-2-4-1v-2l-5-1v-2l-5-1v-2l-5-1v-2h-4v-2l-5-1v-2l-10-5-29-17-10-6-5-1v-2l-11-6-3-2z" fill="#DEDEDF"/>
<path transform="translate(299,553)" d="m0 0 8 1 21 12 20 11 18 11 17 10 14 8 11 6 13 8 11 6 13 8 11 6 26 15 17 10 13 8 11 6 21 12 3 2 7-1 16-9 10-6 10-5 6-4 11-6 21-12 12-7 11-6 17-9 21-13 11-6 16-9 17-10 11-6 16-9 6-1 3 3-1 4-16 10-19 11-11 6-23 13-10 6-11 6-16 9-17 10-18 10-21 12-36 20-16 9-7 1-27-16-45-25-14-8-13-8-11-6-26-15-17-10-16-9-8-5-11-6-16-9-19-12-8-4-17-11-3-5zm0 2 1 4h3v2l5 1v2l5 1v2h4v3h5l1 3h4v2l4 1v2l5 1v2l5 1v2l6 3h3v2l5 1v2l10 5 7 4h3v2l9 5 5 1 1 3 6 3h3v2l4 1 1 2 4 1 1 2h5v2l7 4h2v2l5 1v2l8 4 3 2h3v2l5 1v2l10 5 10 6 9 5 5 1v2l5 1v2l9 4h2v2h4v2l5 1v2l10 4 1 2h4l1 3h3l1 3h4v2l4 1v2l10 5 1 1h10v-2l6-2 10-5v-2l4-1 5-2v-2l6-2 10-5v-2l4-1 5-2v-2l6-2 15-9 4-1v-2l5-1v-2l5-1 9-5v-2l6-2 7-4 2-1v-2l5-1 5-2 1-2 11-6 8-4 10-6 9-5 15-9 5-2v-2l5-1 4-2v-2l5-1v-2l5-1 10-6 4-2v-4h-6l-8 5-4 1v2l-5 1v2l-5 1-5 4-5 2-10 6-9 5-5 2-1 2-12 6-7 5-8 4v2l-5 1-12 7-3 1v2l-5 1v2l-5 1-10 5v2l-5 1v2l-5 1-10 6-10 5v2l-5 1v2l-4 1-5 2v2l-5 1v2l-6 2-9 5-5 2v2l-5 1v2l-5 1-8 4-8-4-6-4h-3v-2l-4-1-1-2-7-3-5-3h-2v-2l-5-1-1-2-11-6h-3v-2l-5-1v-2h-3l-1-3-7-3-10-6h-2v-2l-4-1-1-2-12-6h-2v-2l-5-1v-2l-5-2-4-1v-2l-5-1v-2l-5-1v-2h-4l-1-3h-5v-2l-4-1v-2l-8-4h-2v-2l-4-1-1-2-7-3-5-3h-2v-2l-5-2-12-7h-2v-2l-5-1v-2l-14-7-3-2h-3v-2l-5-1v-2l-5-2-7-4h-3v-2l-11-6z" fill="#DEDEDF"/>
<path transform="translate(607,150)" d="m0 0h48l20 4 16 5 20 9 12 8 14 12 10 12 9 14 7 16 4 10 6 21v7l-5-1-16-10-14-7-8-6-8-10-7-10-9-10-8-7-12-8-13-6-15-5-14-3-16-1h-25l-15 1-21 4-19 5-28 10-15 7-10 5-14 8-15 10-11 7-11 9-13 11-15 14-7 7-7 8-13 16-11 16-8 13-2 2h-16l-10-1-1-4 5-9 7-11 8-12 14-19 10-11 6-8h2l2-4 16-16 8-7 12-10 17-13 19-12 20-12 16-8 26-11 24-8 19-5 14-3zm11 1-13 2-16 1-5 2-9 1-5 2-17 4-1 1-7 1-3 2-7 2-14 5-8 4-11 4-12 7-9 4v2l-6 2-9 6-8 4v2l-5 2-8 6-3 1-3 3v2l-8 4v2l-6 3v2l-4 2-10 9-5 4-3 3v2h-2l-4 5-5 4v3l-3 1-3 4v2h-2l-3 4v2l-3 1-6 8v2h-2l-4 7-5 6-3 6-2 1-1 5h-2l-6 11-3 5v2l3 1 21 1 5-9 7-11 8-10v-2h2l4-6v-2h2l3-4v-2h2l4-5 5-5 2-4 3-1v-2h3v-3l3-1v-2h2v-2l4-2 5-4 3-3v-2l4-2 10-7v-2l8-4v-2h3v-2l5-1 1-2 3-1v-2l5-2 8-4 1-2 14-7 6-4 11-4 8-4 13-4 3-2 6-1v-2l9-1 4-2 19-4 3-1 15-1 5-1h32l5 1 15 1 5 2 12 3 10 4 6 3 12 7h2v2l3 3h3v2l8 7 1 2h2v3l3 3h2l2 5 6 8 1 3h2l1 3 10 6 12 6h2v2l6 3h3v2l5 1v2l2-1-2-5-1-7-2-4-1-7-2-3-3-9-4-9-3-6-5-9h-2l-2-5-4-6h-2l-2-4-7-7h-2v-2l-13-9h-2v-2l-5-1v-2l-5-2-9-4-13-4-1-1-9-2-2-1-12-1-9-2z" fill="#DEDEDF"/>
<path transform="translate(759,480)" d="m0 0h6l1 4-11 6h-2v2l-6 3h-3v2l-10 5-10 6-7 4h-3v2l-9 5-6 4-10 3v2l-10 5-10 6-8 4-1 2-5 2-10 6-3 1-1 2-5 2-7 4h-3v2l-5 1v2l-4 1-1 2-5 2-15 9-5 1v2l-6 3h-3v2l-5 1v2l-5 2-15 9-6 3-4-1-9-6-4-1-1-2-4-1v-2l-6-2-18-10-1-2-4-1v-2l-5-1v-2l-5-1v-2l-5-1v-2h-4l-1-2-4-1v-2l-4-1-5-2-1-2-4-1v-2l-6-2-9-5-5-2-1-2-11-6-6-4 1-3h5v2l6 2 10 6 3 1v2l5 1v2l5 2 18 10v2l5 1 1 2 8 3v2l5 1v2l5 1 1 2 14 7 5 2v2l5 2 9 5 4 2 1 2 5 2h8l6-2v-2l5-2 7-4h2v-2l5-2 9-5 3-2h3v-2l5-1v-2l5-1v-2l12-6h2v-2l10-5 4-1v-2l6-3 7-4h2v-2l5-2 5-1v-2l10-5 5-2v-2l5-2 10-6 27-15h2v-2l5-2 15-9 4-1 1-2 11-6h3v-2l5-1z" fill="#FEFEFE"/>
<path transform="translate(757,378)" d="m0 0 7 1v2l5 2 1 3-5 4-11 6-14 8-11 6-18 11-11 6-16 9-18 10-20 12-16 9-15 9-14 7-17 10-18 11-14 7-7-1-21-12-21-13-11-6-8-5-11-6-14-8-19-11-15-9-17-10-11-6-20-12-7-4-1-3 9-7 5 1 15 9 11 6 13 8 11 6 24 14 11 6 40 24 10 5 15 9 11 6 4 2 5-1 10-5 15-9 14-7 11-7 14-7 17-10 18-10 25-15 11-6 21-12 21-11 11-7 11-6zm0 2-10 6-6 4-4 1v2l-5 2-5 3-4 1v2l-6 2-5 2v2l-5 1-10 6-5 2v2l-5 1v2l-4 1-6 4-4 1-1 2-12 6-7 5-11 6-13 7-15 9-5 2-17 10-14 8-3 1v2l-5 1-10 6-5 2v2h-8l-6-3-1-2-5-2-15-9-4-1-1-2-7-3h-3v-2l-5-1v-2l-9-5-6-4h-3v-2l-5-1v-2l-5-1v-2h-4v-2l-10-5-6-2v-2l-6-3h-3v-2l-5-1v-2l-8-4-1-2-5-2-12-7h-2v-2l-10-5-10-6-5-1v-2l-7-1-3 1-3 4 4 3h2v2l5 1v2l11 6 5 3h3v2l5 3 5 2 10 6 5 1v2h4v3h5v2l5 1v2l4 1v2l5 1v2l14 7 11 7 11 6h3v2l5 3h4l1 3h4v2l6 1v2l3 1 3 3h2v2l11 6h3v2l5 1v2l12 6 6-1 10-5v-2l5-1v-2l5-1v-2l4-1 5-2v-2l5-1v-2l5-1v-2l5-1 6-4 4-1v-2l5-1v-2l5-1 12-7 3-1v-2l5-1v-2l4-1 6-4 4-1v-2l5-2 9-5 5-2 1-2 8-4 11-6 17-10 14-8 3-1v-2l5-1v-2l4-1 10-5v-2l5-1v-2l5-1 10-6 3-3-3-3-3-2z" fill="#DEDEDF"/>
<path transform="translate(289,472)" d="m0 0 10 5 17 10 16 10 14 7 26 16 8 4 14 8 11 7 11 6 21 12 19 11 11 7 8 4 13 8 11 6 9 5 19 11 11 6 5 6v53h-5l-10-7-19-10-35-21-11-6-21-12-16-10-11-6-26-15-15-8-17-10-18-11-11-6-27-15-13-8-1-2v-52zm0 2v54l5 1v2l5 2 15 9 11 6h3v2l5 1v2l5 1v2l6 2 4 1v2l14 9 11 6h3v2l5 1v2l5 1v2l5 2 7 4h3v2l5 1v2l5 2 6 4h3v2l5 1v2l10 5 13 8 25 15 5 1v2l6 3h3v2l5 1v2l10 5 4 1v2l5 1v2l5 1 1 2h3v-2l-2-1v-3l6 1 5 2 1 4 5 1 2-2v5l-6 1v2l5 1v2l5 3v-53l-5-4-11-6-9-5h-3v-2l-14-7-1-2-5-2-10-6-3-1-1-2-4-1-1-2-12-6h-2v-2l-10-5-4-1v-2l-10-5-5-4-7-3-10-6h-2v-2l-5-2-5-1v-2l-5-1v-2l-3-1-1-2h-5l-1-3-4-1-1-2h-3v-2l-4-1-2 2-1 3-10-2-7-2-1-4 7-1 6 4h4v-2l-3-3h-5l-1-3-7-4-10-6-6-4-7-3h-3v-2l-5-1v-2l-5-1v-2l-3-1-1-2-5-2-7-4h-2v-2l-5-1v-2l-5-2z" fill="#DEDEDF"/>
<path transform="translate(608,195)" d="m0 0h13l17 10 18 10 21 13 14 8 11 6 24 14 11 7 8 4 13 8 11 6v4l-16 9-17 10-18 11-33 18-12 7-11 6-21 12-11 7-11 6-14 8-11 6-14 8-11 6-13 8-4 2-6-1-9-5-21-13-23-13-13-8-11-6-26-15-16-10-22-12-9-6 2-5 13-16 3-4h2l2-4 13-13h2v-2l8-7 9-8 17-13 13-9 18-11 23-11 20-8 16-5 17-4 19-3zm6 2-24 2-2 1-14 2-2 1-9 1-4 2-8 1-3 2-13 4-8 4-5 1v2l-7 2-6 2v2l-5 1-10 6-5 2v2l-5 2-3 1-1 2-8 4v2l-5 2-3 2v2l-4 2-10 7v2l-3 1v2l-6 3v2l-4 2-6 5-6 7-5 4-9 11v2h-2l-3 3v3l-3 1-5 8 7 4 1 2 5 2 10 6 8 4h2v2l11 6 12 7 10 6 9 5 15 9 9 5 10 6 5 1v2l5 1v2l8 4 10 7 9 5 1 1h9l2-2 4-1v-2l5-1v-2l5-2 10-6 14-7v-2l5-1 15-9 10-5 9-5v-2l5-1v-2l4-1 10-5v-2l6-2 15-9 4-1v-2l6-2 9-5 5-2v-2l5-1v-2l6-2 9-5 15-9 9-5 4-2v-2l5-1v-2l5-1v-2l5-1 8-5-4-2-8-5-6-3-1-2-5-2-6-4h-3v-2l-5-1v-2l-5-1v-2l-6-3h-3v-2l-5-1v-2l-5-1v-2l-6-3h-3v-2l-14-7-1-2-5-2-12-7h-2v-2l-4-1-1-2-11-6h-3v-2l-5-1v-2l-6-3h-3v-2l-11-5z" fill="#DEDEDF"/>
<path transform="translate(369,374)" d="m0 0h9l10 1v4l-11 6-11 8-11 7-10 7-15 10-16 11-10 7h-2v2l-5 3-23-1 3-5 16-10 16-11 10-7 17-11 30-20z" fill="#FEFEFE"/>
<path transform="translate(288,569)" d="m0 0 6 2 24 15 11 6 18 10 11 7 11 6 21 12 17 10 18 10 17 10 21 13 14 7 25 15 19 10 20 12 2 2 1 27v28l-4 1-21-12-11-7-11-6-19-11-22-13-21-12-16-9-21-12-11-7-14-7-17-10-13-8-11-6-21-12-17-10-6-3-1-2v-54zm1 3v53l10 6 9 5 14 7h2v2l3 1 1 2 12 6h2v2l10 5 15 9 9 5 7 4h3v2l10 5 15 9 9 5 7 4h3v2l9 4 1 2h5l1 3h4v2l8 4 1 2 5 1v2l12 6h2v2l10 5 4 1v2l15 9 5 2 4 1v2l5 1v2l4 1 1 2 4 1 1 2 10 5v-53l-3-1v-2l-9-5-7-4h-3v-2l-12-6h-3v-2l-10-5-10-6-4-1-1-3-9-5-5-2-10-6-7-4h-2v-2l-5-2-6-4h-3v-2l-5-1v-2l-4-1-1-2-12-6h-3v-2l-5-1v-2l-5-3h-4v-2l-5-1v-2l-8-4-1-2-6-1v-2l-7-3-4-3h-3v-2l-5-1v-2l-5-2-9-6-5-1v-2l-5-2-6-4h-3v-2l-6-1v-2l-5-3h-3l-1-3-9-3v-2l-5-1v-2z" fill="#DEDEDF"/>
<path transform="translate(289,665)" d="m0 0 11 7 15 9 14 7 16 10 11 6 21 13 14 7 11 7 9 5 10 6 10 5 16 10 17 10 10 5 16 10 16 9 11 7 14 7 11 7 2 2v54l-4 1-15-9-12-7-11-6-16-9-18-11-26-15-42-24-9-5-15-9-16-9-17-10-27-15-25-15-3-1-1-2v-43l1-13zm0 3v54l6 2v2l11 6 6 3h2v2l10 5 7 4h3v2l5 1v2l14 7 5 2v2l5 2 4 1v2l10 5 6 2v2l11 6 10 6h2v2l5 2 6 4 8 3 5 3 1 2 5 2 5 1v2h4v3l4 1 1 2 5 2 6 3 6 4h3v2l9 5 13 8 10 6 7 4h3v2l10 5 15 9h4v-51l-3-3-12-6h-2v-2l-5-2-6-3-7-4h-2v-2l-5-1v-2l-8-4-3-2h-3v-2l-9-5-17-10h-2v-2l-10-4-1-2-6-3h-2v-2l-8-4-2-2h-4v-2l-6-1v-2l-5-1v-2l-4-1-1-2-6-3h-3v-2l-5-1v-2l-3-1-1-2-5-2-5-1-1-3h-5v-2l-5-1v-2l-3-1-1-2-5-2-6-4h-3v-2l-5-1v-2l-5-1v-2l-6-3h-3v-2l-8-4h-3v-2l-5-3h-4v-2l-9-5-4-2-1-2-5-2z" fill="#DEDEDF"/>
<path transform="translate(300,456)" d="m0 0 6 2 18 10 16 9 15 9 8 4 21 12 20 12 11 6 14 8 1 2-5 1v2l13 8 4 2 1 3-5-2-18-10-11-7-11-6-13-8-11-6-12-7-10-5-21-13-16-9-14-8-4-3 1-5z" fill="#E1E1E2"/>
<path transform="translate(389,331)" d="m0 0 12 6 24 14 21 13 11 6 14 8 11 6 16 9 18 11 12 7 11 6 5 5v53l-5 1-30-18-14-7-16-10-11-6-19-11-13-8-11-6-13-8-11-6-7-5 1-4 18-11 5-6-1-5-9-6-14-8-11-8-1-5 5-6zm0 3-5 4v4l10 6 1 2 5 2 6 4h3v2l5 1v2l5 1 1 7-1 4-2 1v3h-3l-1 2-8 4-5 3v2h-3l1 4 5 3h3v2l5 1v2l5 1v2l6 3h3v2l5 1v2l14 7 6 4 8 4 1 2 5 2 6 4h3v2l5 1v2l8 4 3 2h3v2l5 1v2l10 5 5 1v2h5v-5l4 1 9 3 1 7-3 1v2h4l1 3h3v2l5 1v-52l-4-3h-2v-2l-10-4-1-2-5-2-4-1v-2h-5l-1-3-9-5-4-1v-2l-5-1v-2l-14-7-6-4-5-1v-2l-5-1v-2l-5-2-4-1v-2l-6-1v-2l-8-4-1-2h-4v6l-5-1v-5h4v-2l-9-6-9-5-20-12z" fill="#DEDEDF"/>
<path transform="translate(775,296)" d="m0 0h3v55l-8 6-13 8-14 7-17 10-14 8-11 6-21 12-17 10-11 6-16 9-11 7-11 6-13 8-14 7-11 7-11 6-5 3h-4v-56l5-4 21-12 36-21 11-6 17-9 16-9 20-12 22-12 35-20 15-8zm1 2-14 7v2l-5 1-4 2v2l-6 2-5 2v2l-5 1-17 10-8 4v2l-4 1-5 2v2l-5 1v2l-5 1-6 4-11 6-12 7-5 2v2l-5 2-10 5-5 2v2l-5 1v2l-6 2-9 5-5 2v2l-5 1v2l-5 1-6 4-3 1-1 2-4 1v2l-6 2-9 5-5 2v2l-5 1v2l-5 2-1 1-1 54 5-2 12-7 10-5v-2l4-1 6-3 15-9 9-5 11-7 3-1v-2l5-1v-2h4v-2l5-1v-2l6-2 9-5 10-5v-2l5-1v-2l5-1 4-2v-2l5-1v-2l6-2 9-5 6-4 4-1v-2l5-2 9-4v-2l6-2 5-2v-2l5-1v-2l5-1 10-6 9-6 5-2v-2h2v-52z" fill="#DEDEDF"/>
<path transform="translate(776,688)" d="m0 0 2 1v57l-19 10-9 5-21 12-20 12-10 5-21 12-23 13-17 10-25 14-35 20-9 5-11 6h-2l-1-7 1-49 9-6 10-5 19-12 10-5 15-9 11-6 14-8 14-7 16-10 11-6 17-9 26-16 22-12 11-7 11-6zm-4 4-25 15-4 1-1 2-5 2-6 4-3 1v2l-5 1v2l-4 1-10 5v2l-5 1v2l-4 1-5 2v2l-5 1v2l-6 2-9 5-5 2v2l-5 1v2l-5 2-5 3-5 2-10 5v2l-5 1-5 4-5 2-10 6-9 5-5 2v2l-6 2-9 6-9 5-10 5v2l-5 1-3 2-1 35v19h2v-2l5-1v-2l5-2 10-5v-2l4-1 10-5v-2l5-1 17-10 8-4v-2l4-1 5-2v-2l5-1v-2l5-1 17-10 3-1v-2l4-1 6-4 4-1v-2l6-2 9-5 6-4 4-1v-2l5-1v-2l4-1 5-2 1-2 5-2 15-9 4-1 1-2 12-6 5-3 16-9 2-2v-51z" fill="#DEDEDF"/>
<path transform="translate(775,591)" d="m0 0h3l1 2v22l-1 33-23 13-22 12-25 15-11 6-21 12-12 7-14 7-11 7-11 6-32 18-21 12-15 9h-4v-53l5-6 36-20 22-13 10-6 11-6 19-11 29-16 15-9 11-6 21-12 17-10 11-6zm1 2-14 7v2l-5 2-9 4v2l-6 2-10 6-18 10-10 6-4 2v2l-6 2-15 8-4 2v2l-5 1-6 4-5 2-9 5v2l-5 1v2l-5 1-4 2v2l-5 1v2l-5 1-10 6-10 5v2l-5 2-5 3-4 1v2l-5 1v2l-6 2-9 5-5 2-1 2-7 4-1 53 5-2 11-6v-2l6-2 9-5 6-4 4-1v-2l5-2 5-3 4-1 1-2 5-2 9-6 5-2v-2l5-1 15-9 10-4v-2l5-1v-2l5-2 5-3 5-2 17-10 16-9 10-6 6-4 4-1v-2l5-1v-2l5-1 17-10 3-1v-2l5-1 6-4v-53z" fill="#DEDEDF"/>
<path transform="translate(355,415)" d="m0 0 5 1 15 9 11 6 28 17 11 6 16 9 20 12 11 6 26 15 11 7 14 7 11 7 8 4 1 2 1 41v14l-4 1-17-10-20-12-17-10-13-8-11-6-14-8-14-9-11-6-27-15-21-12-10-6-11-6-16-9-14-8-11-7 3-5 19-13 17-12zm1 2-11 7-9 6v2l-5 2-3 1-5 5-3 1v2l-4 1v3l7 4h2v2l10 5 7 4h3v2l5 3 5 2 4 1v2l5 1v2l5 1v2l5 2 12 7h3v2l5 1v2l5 2 15 9 11 6h3v2l10 5 6 4h3l1 3 6 3h2v2l5 1v2l6 3h3v2l10 5 12 7h3v2l5 1v2l9 5 10 6 3 1 1 2 5 1v2l5 2 4 1v2l4 1v-53l-6-2v-2l-5-1v-2l-5-2-4-1v-2l-10-5-6-2v-2l-6-3h-3v-2l-5-1v-2l-5-1v-2l-5-3h-4v-2l-8-4-1-2-5-2-6-4-5-2-7-4h-2v-2l-5-1v-2l-5-2-4-1v-2l-5-1v-2h-6v-3l-5-2-9-6-5-3h-3l-1-3-11-6h-2v-2l-10-5-12-7z" fill="#DEDEDF"/>
<path transform="translate(776,493)" d="m0 0 2 1v56l-4 4-16 8-15 9-11 6-21 13-10 5-14 8-39 22-16 9-17 10-14 8-11 6-16 9-11 7-7 2v-54l2-4 10-6 14-8 11-6 21-12 17-10 36-20 17-10 14-7 23-14 12-7 22-12zm-1 3-12 7-4 2v2l-5 1v2l-6 2-9 5-10 5v2l-5 1-5 4-4 1-1 2-12 6-7 5-5 2-4 2v2l-5 1-6 4-4 1v2l-5 2-10 5-5 2-1 2-4 1v2l-5 2-15 8-4 2v2l-6 2-18 10v2l-6 2-14 7v2l-6 2-9 5-4 2v54h2v-2l5-1v-2l5-1v-2l5-1 4-2v-2l6-2 15-9 4-1v-2l5-1v-2l6-2 9-5 5-2 1-2 12-6 2-2 4-1 1-2 5-2 7-4 8-5 4-1 1-2 12-6 7-5 5-2 10-6 10-5 14-9 9-5 5-2v-2l5-1v-2l4-1 6-4 10-4v-2l3-1 2-7v-47z" fill="#DEDEDF"/>
<path transform="translate(774,398)" d="m0 0h4v55l-6 5-17 10-16 8-10 6-11 6-20 12-12 7-14 7-18 10-20 12-9 5-13 8-11 6-14 8-11 6-16 9-4-1v-52l5-5 13-8 12-6 14-8 13-8 9-5 20-12 14-7 25-15 11-6 13-8 11-6 21-12 17-10 11-6zm2 1-16 9-12 7-3 1v2l-5 1v2l-5 1-20 12-9 5-5 2v2l-5 2-4 2v2l-5 1-9 5v2l-6 2-9 5-10 5v2l-9 3-2 2-5 2-4 2v2l-5 1v2l-5 1v2l-4 1-10 5v2l-5 1v2l-4 1-5 2-1 2-4 1v2l-6 2-9 5-5 2v2l-6 2-3 2v2h-2v52l8-4 15-9 9-5 5-2v-2l6-2 9-5 5-2v-2l5-1v-2l6-2 9-6 11-6 12-7 15-8 11-6 10-6 9-5 25-15 4-1v-2l5-1v-2l5-1 11-6 10-5v-2l5-1v-2l4-1 4-3v-53z" fill="#DEDEDF"/>
<path transform="translate(369,374)" d="m0 0h9l10 1v4l-11 6-11 8-11 7-10 7-15 10-16 11-10 7h-2v2l-5 3-23-1 3-5 16-10 16-11 10-7 17-11 30-20zm-3 3v2l-5 1v2l-5 2-3 1-4 4-13 8-5 4-3 1v2l-5 1v2l-4 1v2l-4 1-4 2v3l-4 1-4 2v2l-12 6v2l-5 1v2l-4 2-3 2 11 1 3 2h3v-2l5-2 3-2v-2l4-1 4-2 4-4 11-7 5-3v-2l5-2 8-6 7-4 5-3v-2l4-2 7-4 5-3v-2l5-2 8-4v-1z" fill="#DEDEDF"/>
<path transform="translate(300,458)" d="m0 0 7 2 7 5 4 1 1 2 4 1v2l5 2 4 2v2h5l1 2 4 1 1 2 7 3 8 5 4 1 1 2 14 7v2l5 1v2h4l1 2 3 1v3h-5v-3l-4 1-2-2-4-1v-2l-5-1v-2l-5-1-10-6-5-2v-2l-5-1v-2l-4-1v-2l-5-1v-2l-5-1v-2h-4v-2l-5-1v-2l-5-1v-2l-5-1-13-8z" fill="#FEFEFE"/>
<path transform="translate(541,621)" d="m0 0h2v53h-5l-10-7-19-10-30-18v-2l5 2 3 1v2l5 1v2l5 1 9 5v2l5 1v2h5l1 3h3v-2l-3-1 1-4 6 1 6 3v4h5l3-2v6l-1 1h-6v2l5 1v2l4 2z" fill="#DFDFE0"/>
<path transform="translate(300,456)" d="m0 0 6 2 18 10 16 9 15 9 8 4 21 12 2 3h-4l-1-2-4-1v-2l-6-2-9-5v-2l-5-1-10-6-5-2v-2l-5-1v-2h-5v-2l-5-2-4-2v-2l-5-1v-2l-5-1-6-4-7-3v3l14 8 3 1v2l5 1v2l5 1v2h4v2l5 1v2l5 1v2l4 1v2l5 1v2l5 1 12 7 3 1v2l5 1 1 3-5-2-14-7-21-13-35-20-4-3 1-5z" fill="#DEDEDF"/>
<path transform="translate(350,348)" d="m0 0h11l13 3 9 6 2 4-2 1h-15l-16-9-3-4z" fill="#DEDEDF"/>
<path transform="translate(364,218)" d="m0 0 3 1 1 6-1 2 3 2-2 3-4 1-2 6-5 1-4-2-5-1 1-5 4-3h3l6-9z" fill="#DEDEDF"/>
<path transform="translate(536,526)" d="m0 0h2v16l-4-4h-5l-3 4-5-1-2-4 1-2h2l1-4 9-1h2v-3z" fill="#DEDEDF"/>
<path transform="translate(673,207)" d="m0 0 8 3 12 8 7 6v2h2v2l-5-2-23-14z" fill="#DFDFE0"/>
<path transform="translate(356,351)" d="m0 0 15 1 6 3v2h3v2h-13l-11-6z" fill="#FEFEFE"/>
<path transform="translate(522,750)" d="m0 0 4 2 9 4 1-5h2v12l-10-3-4-4v-2l-3-1z" fill="#DEDEDF"/>
<path transform="translate(666,131)" d="m0 0 5 2 11 7 3 4-7-1-13-3v-2l9 1v-2h-3v-2l-5-1z" fill="#DFDFE0"/>
<path transform="translate(346,745)" d="m0 0 7 1 4 3 4-2h5v3l-10 2-6 1-5-4z" fill="#DEDEDF"/>
<path transform="translate(490,398)" d="m0 0 8 1 3 3v2h4l1 4-6-1-8-3-3-5z" fill="#DEDEDF"/>
<path transform="translate(443,801)" d="m0 0 7 1 2 6v2l-6-1-4-3z" fill="#DEDEDF"/>
<path transform="translate(267,300)" d="m0 0h9l1 5-1 1h-6l-4-3z" fill="#E0E0E1"/>
<path transform="translate(327,291)" d="m0 0 4 1v6l-5 1-5-5z" fill="#DEDEDF"/>
<path transform="translate(403,450)" d="m0 0 7 1 2 5-10-1v-4z" fill="#DEDEDF"/>
<path transform="translate(460,813)" d="m0 0 6 1 2 2v3l-7-1-3-4z" fill="#DEDEDF"/>
<path transform="translate(485,791)" d="m0 0h9l-1 4h-8l-1-2z" fill="#DEDEDF"/>
<path transform="translate(377,530)" d="m0 0h5l2 4-3 1-4-1z" fill="#DEDEDF"/>
</svg>
