<?xml version="1.0" encoding="UTF-8"?>
<svg version="1.1" viewBox="0 0 1024 1024" width="1024" height="1024" xmlns="http://www.w3.org/2000/svg">
<path transform="translate(0)" d="m0 0h1024v1024h-1024z" fill="#FDFDFD"/>
<path transform="translate(737,74)" d="m0 0 9 1 14 7 17 10 19 13 4 5 1 2 1 86 1 147 1 305v70l-3 10-6 8-8 5-17 8-14 7-20 9-31 15-28 13-26 12-14 7-16 7-16 8-23 11-28 13-25 12-19 9-20 9-15 7-24 12-20 9-42 20-24 11-16 7-9 1-12-4-13-8-14-8-13-9-5-6-2-5-2-280-1-190v-138l2-10 7-8 14-8 33-15 17-8 15-7 25-12 4-2 1-31 3-7 9-5 28-13 16-7 2-4 2-15 4-13 7-14 7-10 11-11 13-9 10-5 17-4h9l10 3 17 9 20 11 5-1 11-5 12-3 26 14 6 4 7-1 28-13 19-9 15-7 23-11z" fill="#5D5D5F"/>
<path transform="translate(681,212)" d="m0 0 3 1 1 6v51l1 13 3 3 5 1 12-5 20-9 23-11h4l1 23 1 223v115l-5 4-29 13-25 12-8 4-2 4v76l-5 3-33 15-16 7-16 8-18 8-16 8-23 10-16 8-18 8-16 8-28 13-25 12-20 9-14 7-16 7-14 7-7 1-2-271-1-197v-55l3-3 29-13 16-7 18-9h4l1 28 3 5h8l18-8 32-15 16-7 16-8 18-8 16-8 18-8 14-7 16-7 14-7 24-11 4-3 1-39z" fill="#FBFBFB"/>
<path transform="translate(785,121)" d="m0 0 2 1 1 100 2 404v97l-5 5-19 9-16 8-18 8-16 8-26 12-14 7-16 7-39 19-21 9-16 8-15 7-19 9-15 7-25 12-23 11-24 11-21 10-16 8-26 12-30 14-21 10-3-1-1-6-1-148-1-143-1-197v-111l5-3 16-8 15-7 16-7 14-7 28-13 12-6h4v27l-12 5-15 7-19 9-16 8-17 8-3 2-1 4v33l1 209 2 296 3 6 2 1 10-1 14-7 29-13 14-7 23-11 31-14 16-8 19-9 20-9 42-20 24-11 17-8 16-7 14-7 12-5 19-10 6-7 10-17 7-11 11-19 11-18 21-35 5-8v-216l-1-158-1-10-8-7-19-13-15-11-17-12-8-6-5-2h-6l-13 6h-4l-1-2v-23l8-5 28-13 21-10 20-9 16-8z" fill="#F7F7F7"/>
<path transform="translate(293,304)" d="m0 0 5 2 7 5 11 6 14 9 1 7 2 333 1 264-3 1-17-10-16-9-3-3-2-285-1-246v-73z" fill="#FEFEFE"/>
<path transform="translate(574,134)" d="m0 0h10l8 5 5 6 2 6 2 15 1 3 6 1 16-7 18-8 10-5h4l1 9v89l-16 8-30 14-28 13-27 13-16 7-14 7-20 9-31 15-5 2-5-1v-98l10-5 20-9 14-7 10-4 3-3 1-15 4-16 8-16 6-8h2v-2h2v-2l12-9 9-5z" fill="#FBFBFB"/>
<path transform="translate(399,246)" d="m0 0h6l11 6 13 8 12 6-2 4-30 14-44 21-24 11h-7l-15-9-16-9-3-2 1-4 28-13 14-7 42-19z" fill="#F6F6F7"/>
<path transform="translate(737,88)" d="m0 0h6l14 8 13 8 9 5-1 4-15 7-23 11-24 11-20 9-15 7-9 3-1-1-1-23-5-5-6-4 1-3 27-12 16-8 22-10z" fill="#F6F6F6"/>
<path transform="translate(698,331)" d="m0 0h7l3 3 1 6-5 5-14 7-22 10-16 7-14 7-23 11-24 11-21 10-15 7-7-1-2-3v-6l5-5 16-7 15-7 16-8 20-9 16-8 18-8 23-11 19-9z" fill="#5D5D5F"/>
<path transform="translate(700,450)" d="m0 0h5l4 4v7l-6 5-21 9-16 8-28 13-24 11-16 8-35 16-6 3h-7l-3-2-1-7 5-5 26-12 24-11 14-7 28-13 27-13 16-7z" fill="#5D5D5F"/>
<path transform="translate(702,570)" d="m0 0 5 2 2 3v6l-4 4-26 12-15 7-23 11-15 7-21 10-20 9-14 7-13 6-6 1-5-3v-8l8-5 42-20 22-10 16-8 18-8 16-8 24-11z" fill="#5D5D5F"/>
<path transform="translate(483,127)" d="m0 0 5 2 22 13 15 9-1 4-8 16-3 10-2 11-5-1-18-10-15-9-4-3v-12l3-11 7-14z" fill="#FEFEFE"/>
<path transform="translate(509,397)" d="m0 0h7l5 5-1 6-11 21-9 16-15 27-8 15-6 8-1 1h-7l-11-9-12-9-7-6-1-2v-6l3-4h8l14 11 5 4 4-1 9-17 9-16 13-24 10-18z" fill="#5D5D5F"/>
<path transform="translate(510,517)" d="m0 0h7l4 5v5l-24 44-7 12-7 14-10 17-2 2h-7l-8-6-13-10-8-6-3-5 1-7 2-2h9l13 11 6 5 3-1 7-14 9-16 25-45z" fill="#5D5D5F"/>
<path transform="translate(512,637)" d="m0 0 6 1 3 3v6l-12 23-9 16-8 14-8 16-9 16-6 5-6-1-26-20-5-6 1-7 5-3h5l10 9 9 7 4-1 15-27 24-44 5-6z" fill="#5D5D5F"/>
<path transform="translate(293,304)" d="m0 0 5 2 7 5 11 6 14 9 1 7 2 333 1 264-3 1-17-10-16-9-3-3-2-285-1-246v-73zm1 2v160l2 390 1 53 9 6 22 12 4 2v-130l-2-359-1-112-8-6-10-6-16-10z" fill="#B9B9BA"/>
<path transform="translate(459,181)" d="m0 0 7 1 13 8 12 7 10 5-1 4-24 11-14 7h-6l-10-6-23-12-5-4 1-3 23-11z" fill="#F8F8F8"/>
<path transform="translate(524,98)" d="m0 0h9l12 5 24 13 3 2v2l-13 5-16 10-8 7-6-1-34-20-4-3v-2l12-9 10-5z" fill="#F4F4F4"/>
<path transform="translate(644,633)" d="m0 0h7l4 4-1 6-5 5-16 7-14 7-23 11-27 12-12 6h-6l-4-3v-8l5-4 16-7 15-7 25-12 23-11z" fill="#5D5D5F"/>
<path transform="translate(646,392)" d="m0 0 5 1 3 4-1 7-8 5-26 12-15 7-21 10-20 9-5 3h-9l-3-3 1-9 12-6 25-11 16-8 24-11 17-8z" fill="#5D5D5F"/>
<path transform="translate(645,513)" d="m0 0 7 1 2 3v6l-5 5-29 13-14 7-20 9-14 7-16 7-7-1-3-4v-5l6-5 16-7 21-10 15-7 24-11 14-7z" fill="#5D5D5F"/>
<path transform="translate(699,215)" d="m0 0 5 2 10 8 12 8 11 8 7 5v4l-24 11-14 7-7 1-1-28v-24z" fill="#F2F2F2"/>
<path transform="translate(738,647)" d="m0 0h3l-1 4-8 13-12 20-8 13-9 16h-3l-1-7v-40l8-5 28-13z" fill="#FEFEFE"/>
<path transform="translate(357,320)" d="m0 0 3 1-16 8v30l2 358 2 214 6-2 10-5 3 1-16 8-4 1-2-7-1-148-1-143-1-197v-111l5-3z" fill="#B9B9BA"/>
<path transform="translate(605,113)" d="m0 0 6 1 9 6 24 14 3 2-2 4-26 12-6 1-2-3-2-10-5-10-9-10 1-4z" fill="#FEFEFE"/>
<path transform="translate(410,212)" d="m0 0 12 6 13 8 16 9v21l-6-2-21-12-14-9-1-1v-19z" fill="#FEFEFE"/>
<path transform="translate(483,127)" d="m0 0 5 2 22 13 15 9-1 4-8 16-3 10-2 11-5-1-18-10-15-9-4-3v-12l3-11 7-14zm0 2-7 11-5 14-1 13 12 9 19 10 6 4h2l6-21 8-15v-3l-18-10-20-12z" fill="#B9B9BA"/>
<path transform="translate(470,234)" d="m0 0 3 1-6 2 1 97 16-7 27-13 3 1-14 7-23 11-7 3-5-1v-98z" fill="#B9B9BA"/>
<path transform="translate(681,212)" d="m0 0 3 1 1 6v51l1 13 1 3h-2l-2-4-1-67-6 2-3 2v36l-5 5-2-1 4-3 1-39z" fill="#B9B9BA"/>
<path transform="translate(410,212)" d="m0 0 12 6 13 8 16 9v21l-6-2-21-12-14-9-1-1v-19zm1 3v16l8 6 24 14 5 3h2v-17l-9-6-16-9-11-7z" fill="#B9B9BA"/>
<path transform="translate(605,113)" d="m0 0 6 1 9 6 24 14 3 2-2 4-26 12-6 1-2-3-2-10-5-10-9-10 1-4zm1 1-9 4 2 4 7 8 4 8 3 13 2 1 30-14-4-4-19-11-14-9z" fill="#B9B9BA"/>
<path transform="translate(713,658)" d="m0 0 3 1-14 7-1 44h2l2-6 7-11 1 2-10 18h-3l-1-7v-40l8-5z" fill="#B9B9BA"/>
<path transform="translate(738,647)" d="m0 0h3l-1 4-8 13-12 20-6 9-1-2 21-35 4-6-13 5-6 3-3-1 19-9z" fill="#B9B9BA"/>
<path transform="translate(470,186)" d="m0 0 4 1 17 10 10 5-1 4-24 11-10 5-3-1 14-7 21-10-4-3-18-10-6-4z" fill="#B9B9BA"/>
</svg>
