<?xml version="1.0" encoding="UTF-8"?>
<svg version="1.1" viewBox="0 0 1024 1024" width="1024" height="1024" xmlns="http://www.w3.org/2000/svg">
<path transform="translate(0)" d="m0 0h1024v1024h-1024z" fill="#FDFDFD"/>
<path transform="translate(735,93)" d="m0 0h12l15 6 16 9 14 8 16 9 19 11 9 7 6 8 3 9 1 9 1 57 1 194 1 86v82l-4 17-6 12-10 13-11 8-12 7-11 6-17 10-16 8-14 8-11 6-42 24-11 6-24 13-23 13-12 7-11 6-27 15-23 13-22 12-16 9-14 8-23 13-33 18-14 8-18 10-22 12-14 8-10 6-14 7-24 14-14 8-11 4h-12l-9-2-22-12-26-16-14-7-14-9-8-9-3-9-1-4-1-176-1-81v-174l5-16 5-10 7-10 9-9 17-10 22-12 23-13 25-14 12-7 11-6 29-16 23-13 18-10 23-13 13-7 14-8 23-13 26-14 10-6 22-12 24-14 13-7 23-13 29-16 23-13 29-16 16-9 10-6 16-8z" fill="#5E5E60"/>
<path transform="translate(809,160)" d="m0 0 3 1-16 28-8 13-10 17-9 15-11 19-6 10-8 14-10 16-16 28-12 20-10 17-14 24-8 13-8 14-10 17-13 22-29 49-8 14-8 13-9 16-10 16-10 17-6 8-3 2h-7l-16-8-13-8-26-15-22-12-17-10-13-8-9-5-23-13-26-15-12-7-23-13-11-7-11-6-13-7-7-5 1-5h2v-2l16-10 19-10 39-22 24-13 28-16 16-9 22-12 11-7 14-7 21-12 20-11 21-12 25-14 17-10 14-7 10-6 20-11 19-11 11-6 29-16 23-13 10-6 11-6 36-20 12-7z" fill="#FDFDFD"/>
<path transform="translate(632,499)" d="m0 0 5 2 12 7 9 5 21 12 20 12 18 10 17 10 21 12 15 9 14 7 21 13 11 6 7 5-1 5-11 10-13 7-16 9-26 14-10 6-42 23-15 9-11 6-24 13-17 10-11 6-13 7-20 11-21 12-12 7-11 6-13 7-23 13-33 18-10 6-17 9-10 6-15 8-21 12-24 13-16 9-19 11-21 12-13 6h-5l2-6 10-18 6-10 6-11 12-20 11-19 6-11 9-16 6-10 15-27 12-21 9-16 28-48 14-25 8-13 6-11 10-18 10-17 7-13 5 1 7 5 10 5 23 13 7 3 11 1 8-2 7-4 6-7 12-20 12-21 10-16 10-17 5-9z" fill="#FDFDFD"/>
<path transform="translate(828,165)" d="m0 0 2 1 1 63 2 304v53l-1 7-4 1-17-10-16-9-24-14-42-24-11-6-13-8-11-6-11-7-11-6-14-8-8-5-9-5 1-5 5-10 13-21 8-14 10-17 9-15 6-11 9-15 8-13 5-9 12-21 10-16 6-11 8-13 26-44 9-15 11-19 7-12 7-11 6-11 10-17z" fill="#FDFDFD"/>
<path transform="translate(301,458)" d="m0 0 4 1 13 7 15 9 11 6 23 13 19 11 23 13 26 15 14 8 13 8 15 8 5 4-1 5-8 14-9 16-8 14-11 19-9 16-15 26-8 13-6 11-9 16-12 21-8 13-5 10-7 11-6 12-14 24-8 14-6 10-15 27-6 11-9 15-3 1-1-203-1-158v-48l3-11z" fill="#FDFDFD"/>
<path transform="translate(741,108)" d="m0 0 9 2 23 13 13 8 14 7 6 4v2l-32 18-11 6-19 11-10 5-19 11-18 10-12 7-10 5-42 24-11 6-14 8-11 6-26 14-11 7-33 18-12 7-11 6-24 13-17 10-11 6-45 25-23 13-12 7-33 18-24 14-9 6-3 1v2h-2l-2 4-2 3-6-1-13-8-11-6-21-12-13-8-3-2 1-4h2l2-4 9-7 23-13 11-6 28-16 13-7 23-13 22-12 19-11 11-6 17-9 24-14 14-8 11-6 17-9 19-11 25-14 19-10 17-10 13-7 15-9 12-6 17-10 16-9 11-6 29-16 12-7 11-6 13-7 23-13 6-3z" fill="#FDFDFD"/>
<path transform="translate(222,412)" d="m0 0 4 1 19 11 11 6 13 8 10 6 7 4 1 3-4 13v189l1 144v92h-4l-18-11-12-6-9-6-12-7-4-5-3-9-1-76-1-226v-122z" fill="#FDFDFD"/>
</svg>
