<?xml version="1.0" encoding="UTF-8"?>
<svg version="1.1" viewBox="0 0 1024 1024" width="1024" height="1024" xmlns="http://www.w3.org/2000/svg">
<path transform="translate(0)" d="m0 0h1024v1024h-1024z" fill="#FDFDFD"/>
<path transform="translate(509,82)" d="m0 0h6l24 14 25 14 23 13 13 8 16 9 14 8 15 8 25 15 11 6 10 6 11 6 18 10 19 11 16 9 20 12 11 6 27 15 13 8 8 5v136l-3 3-11 6-17 9-1 3 5 2 25 14 2 2v135l-5 5-11 6-16 9 4 3 26 15 2 2 1 6-1 130-5 4-21 12-23 13-43 25-23 13-19 11-11 7-11 6-21 12-11 6-39 22-22 13-16 9-24 14-27 15-5 3-6-2-25-15-11-6-10-6-11-6-27-15-13-8-12-7-11-6-28-16-13-8-11-6-18-10-13-8-27-15-14-9-14-7-11-7-35-19-13-8-1-3v-30l1-104 7-5 11-6 13-7 1-3-6-2-24-14-2-2v-136l5-4 14-7 12-7-1-3-13-7-15-9-2-2v-136l13-8 21-12 12-7 11-6 43-25 22-12 24-14 16-9 26-15 12-7 11-6 13-8 14-7 13-8 25-14 24-14 16-9z" fill="#656565"/>
<path transform="translate(510,96)" d="m0 0h5l22 13 11 6 23 13 35 20 11 6 11 7 14 7 13 8 19 11 9 5 16 9 19 11 25 14 11 7 11 6 17 9 15 9 17 10v3l-14 8-11 6-16 10-14 7-16 9-18 10-17 10-24 14-11 6-27 15-15 9-11 6-10 6-11 6-23 13-24 14-18 10-17 10-3 2-5-1-29-16-17-10-21-12-25-14-15-9-32-18-24-14-11-6-28-16-19-11-11-6-18-10-23-13-14-8-12-7 1-4 20-11 11-7 14-7 13-8 25-14 14-8 15-9 11-6 28-16 17-10 10-5 25-15 11-6 21-12 11-6 20-12 11-6 10-6z" fill="#FDFDFD"/>
<path transform="translate(820,629)" d="m0 0h2l1 3-1 113-24 14-21 12-16 9-17 10-11 6-30 18-11 6-13 7-15 9-13 8-11 6-17 9-48 28-25 14-14 8-15 9-4-1 1-115 9-6 11-6 16-9 10-6 19-11 11-6 27-15 11-7 11-6 16-9 12-7 11-6 16-9 36-21 11-6 28-16 10-6 11-6 13-8 11-6z" fill="#FDFDFD"/>
<path transform="translate(820,279)" d="m0 0h2v116l-21 12-11 6-19 11-11 6-19 11-14 8-15 9-11 6-16 9-15 9-23 13-25 14-14 8-24 14-22 12-13 8-25 14-4 3h-2v-117l14-8 24-14 19-11 11-6 10-6 14-7 17-10 24-14 19-11 11-6 16-9 11-7 11-6 18-10 11-6 16-9 14-8 16-9 10-6 11-6z" fill="#FDFDFD"/>
<path transform="translate(819,454)" d="m0 0h3v115l-10 7-13 7-16 9-10 6-11 6-16 9-10 6-16 9-11 6-17 10-19 11-22 12-15 9-16 10-11 6-32 18-28 16-13 8-11 6-6 3-1-1v-115l7-5 11-6 23-13 15-9 17-10 11-6 14-8 11-6 13-8 14-7 10-6 14-8 17-10 12-7 11-6 17-10 11-6 16-9 21-12 12-7 11-6 12-7z" fill="#FDFDFD"/>
<path transform="translate(202,630)" d="m0 0 5 1 22 12 16 10 11 6 13 7 13 8 15 8 17 10 16 9 17 10 13 7 10 6 11 6 15 9 16 9 15 9 11 6 10 6 11 6 10 6 11 6 13 7 13 8v116l-5-1-13-8-42-24-10-6-11-6-20-12-11-6-18-10-13-8-11-6-70-40-17-10-42-24-20-11-1-1z" fill="#FCFCFC"/>
<path transform="translate(202,280)" d="m0 0 4 1 14 7 11 7 11 6 14 8 11 6 12 7 19 10 7 5 27 15 16 9 27 15 15 9 16 9 23 13 19 11 25 14 8 5 11 6 9 5 5 3v116l-5-1-25-15-11-6-17-10-11-6-16-9-24-14-25-14-16-9-17-10-28-16-24-14-11-6-32-18-17-10-15-8-10-5-1-102z" fill="#FCFCFC"/>
<path transform="translate(202,454)" d="m0 0 6 2 10 6 22 12 14 9 11 6 16 9 12 7 9 5 11 7 16 8 17 10 10 6 11 6 20 12 11 6 17 9 13 8 19 11 11 6 24 14 16 9 8 6v114l-6-1-16-10-13-7-17-10-10-6-16-9-18-10-26-15-11-7-11-6-16-9-22-13-11-6-16-9-10-6-11-6-14-8-23-13-14-8-18-10-5-3-1-7z" fill="#FCFCFC"/>
<path transform="translate(234,603)" d="m0 0 6 1 11 7 10 5 14 8 24 14 21 12 11 6 24 14 16 9 10 6 9 5 24 14 23 13 11 6 16 9 14 9 11 6 16 9 6 3 4-1 11-6 17-10 11-6 17-10 20-11 24-14 41-23 17-10 24-14 14-7 13-8 26-15 17-10 11-6 8-5 6 1 16 9 6 4v3l-24 13-15 9-28 16-20 11-15 9-23 13-19 11-11 6-28 16-26 15-28 16-23 13-19 11-14 8-8 5-4-1-26-15-24-14-22-12-24-14-15-9-11-6-24-14-11-6-10-6-11-6-16-9-14-8-24-14-25-14-43-25 1-3 11-6z" fill="#FDFDFD"/>
<path transform="translate(786,428)" d="m0 0 5 1 17 9 6 4-2 4-13 7-28 16-23 13-14 8-31 18-11 6-10 6-11 6-23 13-17 10-15 9-14 7-34 20-15 9-11 6-16 9-11 7-7-1-16-9-11-7-11-6-13-7-17-10-16-9-13-8-11-6-27-15-14-8-16-9-24-14-16-9-24-14-15-9-14-7-24-14-15-9v-4l23-12h5l14 8 13 7 13 8 16 9 11 6 23 13 105 60 16 9 19 11 15 9 11 6 14 8h7l17-10 24-14 19-11 11-6 20-12 11-6 14-8 11-6 23-13 14-8 24-14 25-14 23-13 17-10 12-7z" fill="#FDFDFD"/>
<path transform="translate(688,546)" d="m0 0 4 1 23 13 6 5 1 6v44l-3 5-24 14-11 6-14 8-9 3-14-7-16-10-1-1v-53l8-6 11-6 13-8 14-7z" fill="#656565"/>
<path transform="translate(687,722)" d="m0 0 5 1 17 9 11 8 2 4v47l-4 5-16 9-15 9-11 6-12 6h-5l-24-14-5-4-1-21v-16l1-15 7-6 27-15 11-7z" fill="#656565"/>
<path transform="translate(687,372)" d="m0 0 5 1 14 7 14 10 2 3v43l-2 7-5 4-28 16-12 7-11 6-5-1-16-9-13-8-1-20v-26l1-7 5-4 25-14 15-9z" fill="#656565"/>
<path transform="translate(510,80)" d="m0 0 6 1 16 9 28 16 10 6 11 6 10 5v2l6 2 10 6 26 15 8 4 3 1v2l6 2 4 2v2l6 2 21 12 4 2v2l6 2 13 7 17 10 3 1v2l6 2 8 4v2l6 2 8 4v2l4 1 10 5v2l4 1 23 13 12 7 11 6 10 6 7 4 3 4v134l-1 3h-2v2l-14 7-11 6-4 2 6 3v2l5 2 12 6 8 5 1 2v134l-3 5h-2v2l-12 6-8 5-5 1 1 4 6 3 9 6 8 4 6 4 1 4v131l-4 6-7 2v2l-10 5-17 10-13 7h-2v2l-8 4h-2v2l-14 7-5 3h-2v2l-11 6-18 10-13 8-11 6-9 6-6 3-17 9h-2v2l-12 6h-2v2l-12 6h-2v2l-12 6-5 3-9 5h-2v2l-10 5-9 5h-2v2l-8 4h-2v2l-14 7-7 5-7 2v2l-16 8-9 6-11 6-7-1-21-12-23-13-8-4v-2l-6-2-23-13-6-3v-2l-6-2-19-11-3-1v-2l-4-1-12-7-10-6-11-6-22-13-7-3v-2l-6-2-14-8-10-6-16-9-3-1v-2l-5-2-16-9-14-8-3-1v-2l-6-2-16-9-3-1v-2l-7-2v-2l-6-2-13-8-1-2-1-9v-126h2l1-4 10-5h2v-2l16-8h2v-2l-5-2-21-12-5-4-2-5v-123l1-9 2-3h3v-2l14-7 12-7-10-6-17-10-4-4-1-3v-131l4-5 9-5 16-10 16-8 34-20 14-8 13-8 14-7 19-11 16-9 11-7h3v-2l12-6 23-13 13-8 22-12 17-10 21-12 10-6 11-6 19-11zm-1 2-21 12-24 14-25 14-15 9-13 7-17 10-18 10-24 14-11 6-24 14-29 16-41 24-39 22-11 7-7 4v136l5 4 14 8 12 7-1 3-11 6-17 9-2 2v136l9 6 13 8 8 4h2l-1 3-17 9-10 6-4 3-1 104v30l1 3 17 10 21 12 11 6 10 6 14 7 19 12 15 8 13 8 18 10 15 9 11 6 28 16 13 8 11 6 16 9 24 14 11 6 14 8 16 9 15 9 9 5 6-2 24-14 18-10 15-9 11-6 41-24 11-6 39-22 10-6 11-6 17-10 24-14 11-6 19-11 26-15 16-9 22-13 2-2 1-132-2-5-17-10-14-8 5-4 19-11 7-4 1-2v-135l-9-6-21-12h-2l1-3 17-9 12-7 2-2v-136l-13-8-26-15-16-9-14-8-15-9-11-6-23-13-22-13-11-6-10-6-11-6-16-9-7-4-11-6-14-8-16-9-13-8-18-10-28-16-24-14z" fill="#E5E6E6"/>
<path transform="translate(510,96)" d="m0 0h5l22 13 11 6 23 13 35 20 11 6 11 7 14 7 13 8 19 11 9 5 16 9 19 11 25 14 11 7 11 6 17 9 15 9 17 10v3l-14 8-11 6-16 10-14 7-16 9-18 10-17 10-24 14-11 6-27 15-15 9-11 6-10 6-11 6-23 13-24 14-18 10-17 10-3 2-5-1-29-16-17-10-21-12-25-14-15-9-32-18-24-14-11-6-28-16-19-11-11-6-18-10-23-13-14-8-12-7 1-4 20-11 11-7 14-7 13-8 25-14 14-8 15-9 11-6 28-16 17-10 10-5 25-15 11-6 21-12 11-6 20-12 11-6 10-6zm1 1-15 8v2l-5 1-23 13-9 6-8 4v2l-4 1-7 3v2l-5 1-15 9-15 8-15 9-20 11v2l-5 1-13 8-11 6-13 7v2l-4 1-10 5-11 7-3 1v2l-5 1-16 9-24 14-22 12v2l-4 1-13 7-3 2v2l10 7 12 6 4 3h3v2l17 9 18 10 17 9h2v2l11 6 3 2h3v2l12 6 9 6 16 9 10 5h2v2l22 12 9 5 10 6 5 1v2l14 8h3v2l33 18 17 10 21 12 4 2h3v2h3v2l4 2 6-1 2-1v-2l4-1 9-5 11-6v-2l5-1 16-9 10-6 23-13 22-13 22-12 25-15 12-6 14-8 16-9 7-4v-2l5-1 12-7v-2l4-1 16-8 10-6 14-7 11-7 18-10 2-1v-2l4-1 1-3-12-7-11-7-12-6-16-9-24-14-5-3h-3v-2l-10-5-22-13-18-10-3-2h-3v-2l-11-6h-3v-2l-8-4-14-8-12-7-5-3h-3v-2l-10-5-11-6-15-9-16-9-15-9-11-6-23-13z" fill="#E5E6E6"/>
<path transform="translate(786,428)" d="m0 0 5 1 17 9 6 4-2 4-13 7-28 16-23 13-14 8-31 18-11 6-10 6-11 6-23 13-17 10-15 9-14 7-34 20-15 9-11 6-16 9-11 7-7-1-16-9-11-7-11-6-13-7-17-10-16-9-13-8-11-6-27-15-14-8-16-9-24-14-16-9-24-14-15-9-14-7-24-14-15-9v-4l23-12h5l14 8 13 7 13 8 16 9 11 6 23 13 105 60 16 9 19 11 15 9 11 6 14 8h7l17-10 24-14 19-11 11-6 20-12 11-6 14-8 11-6 23-13 14-8 24-14 25-14 23-13 17-10 12-7zm-550 2-16 8-8 5 5 4 7 4h3v2l13 7 19 11 8 4 3 2h3v2l11 6 3 2h3v2l18 10 6 4h4v2l11 6h3v2l27 15 10 6 10 5 3 2h3v2l11 6 3 2h3v2l10 5 43 25h3v2l11 6h3v2l12 6h3v2l22 13 4 1 14-8v-2l4-1 10-6 3-1v-2h4v-2l5-1 23-13v-2l6-2 7-4 11-6v-2l5-1 10-6 11-6 9-5 8-5 11-6 2-1v-2l6-2 8-5 10-5 11-6v-2l5-1 2-1v-2l4-1 12-6 9-5v-2l5-1 15-9 8-4v-2l5-1 23-13v-2l5-1 2-1v-2l5-1 2-1v-2l5-1 5-3 9-5-4-4-13-7h-3v-2l-6-1-6 3v2l-4 1-17 9v2l-4 1-27 15-11 7-14 7-14 9-11 6-10 6-10 5v2l-5 1-42 24-3 1v2l-5 1-9 6-10 6-3 1v2l-5 1-20 11v2l-5 1-17 10-13 8-7 3-6-1-11-6-15-9-11-6-16-9-12-7h-3v-2l-18-10h-3v-2l-3-2h-4v-2l-31-17-8-5h-3v-2l-13-7-24-14-5-1v-2l-16-9-22-12-21-12-17-10-12-6z" fill="#E5E6E6"/>
<path transform="translate(234,603)" d="m0 0 6 1 11 7 10 5 14 8 24 14 21 12 11 6 24 14 16 9 10 6 9 5 24 14 23 13 11 6 16 9 14 9 11 6 16 9 6 3 4-1 11-6 17-10 11-6 17-10 20-11 24-14 41-23 17-10 24-14 14-7 13-8 26-15 17-10 11-6 8-5 6 1 16 9 6 4v3l-24 13-15 9-28 16-20 11-15 9-23 13-19 11-11 6-28 16-26 15-28 16-23 13-19 11-14 8-8 5-4-1-26-15-24-14-22-12-24-14-15-9-11-6-24-14-11-6-10-6-11-6-16-9-14-8-24-14-25-14-43-25 1-3 11-6zm0 2-12 7-10 5 1 3 5 1v2l4 2h3v2l11 6h3v2l19 10 6 4h3v2l5 2 3 2h3v2l13 7 15 9 21 12 9 5 5 3h3v2l11 6h3v2l25 14h3v2l14 8 11 6 16 9 12 7 9 5 5 3h3v2l4 2h3v2l20 11 25 15 5 1 19-11 23-13 2-1v-2l5-1 26-15 10-6 22-12v-2l5-1 9-5v-2l5-1 29-17 18-10 11-6v-2l5-1 2-1v-2l5-1 24-14 9-5 8-4v-2l5-1 17-10 9-5v-2l5-1 25-14 1-3-18-10-4-2-6 1-17 10-25 14-5 3-4 2v2l-4 1-6 3v2l-4 1-9 5-17 9-5 3-21 12-22 13-11 6-6 3v2l-4 1-10 5v2l-5 1-22 13-16 9-11 6-18 11-11 6-16 9h-6l-18-10-11-7h-4v-2l-11-6h-2v-2l-13-7-5-3h-3v-2l-10-5-5-3h-3v-2l-8-4-17-10h-3v-2l-9-5-22-12-14-8-7-5-12-6-9-6-21-11-5-3h-2v-2l-4-2h-3v-2l-6-3-5-3h-3v-2l-11-6h-3v-2l-19-10-3-2z" fill="#E5E6E6"/>
<path transform="translate(202,280)" d="m0 0 4 1 14 7 11 7 11 6 14 8 11 6 12 7 19 10 7 5 27 15 16 9 27 15 15 9 16 9 23 13 19 11 25 14 8 5 11 6 9 5 5 3v116l-5-1-25-15-11-6-17-10-11-6-16-9-24-14-25-14-16-9-17-10-28-16-24-14-11-6-32-18-17-10-15-8-10-5-1-102zm2 2-1 1v111l8 5 11 6h7l1-2h6l-3 3 1 5 8 4 3 2 1 1 13 7 16 10 14 7 10 6 5 1v2l6 2 5-1v-2l3 3-6 1 4 4 5 1v2h4v2h3v2l18 10 17 10 11 6 6 4h5l-2-4 1-5-2-3 5-3 5 2 3 5-10 1v4h3v3l-2 2h2v2l7 4h4v2h3v2l4 2 3-5 1-3 4-1-2 6 3 3-5 1 4 4 5 1v2l11 6h3v2l12 7 12 6 10 6 4 1v2l11 4 4 4 16 10h2v-113l-12-7h-2l-1-2h-3v-2h-4v-2l-27-15-4-1v-2l-10-5-12-7-7-4h-3v-2l-13-7-8-5-3 1v3l-8 2h-1l4-3 2-1v-3l2-1-9-5-10-6-15-8-13-8-8-4-15-9-10-5-11-6v2l-4-1-2 1-3-8-17-9-13-8-7-4-7-3-2-1-3 2 1-4-32-18z" fill="#E5E6E6"/>
<path transform="translate(202,454)" d="m0 0 6 2 10 6 22 12 14 9 11 6 16 9 12 7 9 5 11 7 16 8 17 10 10 6 11 6 20 12 11 6 17 9 13 8 19 11 11 6 24 14 16 9 8 6v114l-6-1-16-10-13-7-17-10-10-6-16-9-18-10-26-15-11-7-11-6-16-9-22-13-11-6-16-9-10-6-11-6-14-8-23-13-14-8-18-10-5-3-1-7zm1 2v113l17 9 28 16 9 5h3v2l27 15 4 2 4 1v2l23 13 21 12 15 8 4 3 9 5 4 2 3-3h5l1 5-4-1-1 2 9 5 4 3h4v2l5 3 7-2-1 5 17 9 10 6 11 6 11 7 9 5 13 8 12 6 11 7 6 3 1-1v-111l-25-15-1 2-8-4-1-3-5-3h-3l1-2-9-5-4-1-1 1-5-3-3 3-5-2 1-2h8l-3-2-4-1v-2l-19-11-11-6-17-10-11-6-14-8-11-7-10-5-17-10-16-9-9-5-14-8-11-6-1 2 2 1-1 1-5 1 1 5-3-1-1-5 2-4 3 1 2-2-10-6h-4v-2l-9-5-3 1-3-1v-3l-9-6-7-4h-3v-2l-7-3-4 3-2-5-4-4-6-3z" fill="#E5E6E6"/>
<path transform="translate(202,630)" d="m0 0 5 1 22 12 16 10 11 6 13 7 13 8 15 8 17 10 16 9 17 10 13 7 10 6 11 6 15 9 16 9 15 9 11 6 10 6 11 6 10 6 11 6 13 7 13 8v116l-5-1-13-8-42-24-10-6-11-6-20-12-11-6-18-10-13-8-11-6-70-40-17-10-42-24-20-11-1-1zm1 2v112l9 5h3v2l17 9 5 3h4v-3l4-1-2 5 2 1-3 1 14 7 1 1 3 1 9 1 1 3h3v3l-2 1 11 6 16 9 17 10 6 3 2-1 1 3 25 14 3 2h3v2l3 1 1-1 3 3v-2h2v4l11 6 8 4v-2l2 1v3l8 4 1-1 2 3h3 2v-3h3l-2 6 9 6 10 6h3v2l16 9 6 3h3v2l12 7 12 6 7 4 8 5 5 3 4 1v2l7 3v-112l-4-4-11-6-16-9-7-4h-3v-2l-7-4h-3v-2l-14-7-8-5-12-7-9-5h-3v-2l-4-2h-3v-2l-16-9-14-8-5-3h-3v-2l-18-10-9-3v-2h-4l-2-1 1-2-18-10-15-9-16-8-9-6-11-7-6-2-5-4-5-2-1-1-11-7-17-9-10-6z" fill="#E5E6E6"/>
<path transform="translate(819,454)" d="m0 0h3v115l-10 7-13 7-16 9-10 6-11 6-16 9-10 6-16 9-11 6-17 10-19 11-22 12-15 9-16 10-11 6-32 18-28 16-13 8-11 6-6 3-1-1v-115l7-5 11-6 23-13 15-9 17-10 11-6 14-8 11-6 13-8 14-7 10-6 14-8 17-10 12-7 11-6 17-10 11-6 16-9 21-12 12-7 11-6 12-7zm0 2-5 4-14 7v2l-5 1-10 6-11 6-7 4-3 1v2l-4 1-3 1v2l-6 2-11 6v2l-5 1-13 7v2l-4 1-24 13-10 6v2l-5 1-5 3-4 2v2l-5 1-10 6-11 6-18 10-8 5-4 3-5 2-10 6-12 6-8 5-11 7-31 17v2l-5 1-2 1v2l-5 1-6 4v113l5-2 17-10 7-4v-2l4-1 6-3 18-10 11-7 12-6 9-5v-2l5-1 34-20 2-1v-2l4-1 11-6 9-5 14-8 18-10 15-9 6-3v-2l5-1 20-11v-2l6-2 11-6v-2l5-1 6-3v-2l5-1 9-5v-2l5-1 13-8 9-5 1-2v-111z" fill="#E5E6E6"/>
<path transform="translate(707,754)" d="m0 0 3 1v32l-10 6-14 8-15 9h-3v-33l18-10 17-10z" fill="#FDFDFD"/>
<path transform="translate(708,579)" d="m0 0 2 1v31l-4 3-11 6-20 12-4 2h-3v-32l9-6 27-15z" fill="#FDFDFD"/>
<path transform="translate(706,404)" d="m0 0 4 1v31l-8 5-14 8-11 7-6 3h-3v-32l10-6 16-9z" fill="#FDFDFD"/>
<path transform="translate(820,629)" d="m0 0h2l1 3-1 113-24 14-21 12-16 9-17 10-11 6-30 18-11 6-13 7-15 9-13 8-11 6-17 9-48 28-25 14-14 8-15 9-4-1 1-115 9-6 11-6 16-9 10-6 19-11 11-6 27-15 11-7 11-6 16-9 12-7 11-6 16-9 36-21 11-6 28-16 10-6 11-6 13-8 11-6zm-1 2-10 6-14 8-11 7-7 3v2l-5 1-13 8-11 6-2 1v2l-5 1-9 5-11 6-7 4v2l-5 1-13 8-11 6-2 1v2l-5 1-10 6-3 1v2l-5 1-2 1v2l-5 1-9 6-14 7-7 4v2l-4 1-22 12-2 1v2l-5 1-5 3-22 12v2l-5 1-10 6-26 15-3 2v114l6-3 12-7v-2l5-1 2-2 4-1v-2l4-1 10-5v-2l4-1 10-5v-2l4-1 16-9 7-4 4-2v-2l5-1 13-8 11-6 13-7 16-9 23-14 9-5 22-12v-2l4-1 10-6 9-5 11-6 16-9 25-15 12-6 14-9 1-1v-112z" fill="#E5E6E6"/>
<path transform="translate(820,279)" d="m0 0h2v116l-21 12-11 6-19 11-11 6-19 11-14 8-15 9-11 6-16 9-15 9-23 13-25 14-14 8-24 14-22 12-13 8-25 14-4 3h-2v-117l14-8 24-14 19-11 11-6 10-6 14-7 17-10 24-14 19-11 11-6 16-9 11-7 11-6 18-10 11-6 16-9 14-8 16-9 10-6 11-6zm0 2-9 5-10 6-11 6-13 7v2l-4 1-3 1v2l-5 1-10 6-9 5-14 8-8 4-35 20v2l-5 1-2 1v2l-5 1-16 9-35 20-17 10-11 6-10 6-11 6-15 8v2l-5 1-16 9v2l-5 1-9 6-7 4-1 1v112l6-2 10-6 11-6 24-14 10-6 10-5 9-6 7-3v-2l4-1 19-11 16-9 14-7 25-15 16-9 11-7 6-3 10-6 22-12v-2l4-1 14-8 9-5 15-8v-2l5-1 12-7 8-4 5-5v-111z" fill="#E5E6E6"/>
<path transform="translate(687,560)" d="m0 0 5 1 10 5-1 4-28 16-9 5-6-1-9-6v-2l13-8 11-6 10-6z" fill="#FDFDFD"/>
<path transform="translate(686,736)" d="m0 0h6l10 6-2 4-17 9-15 9-3 2-7-1-9-6 1-3 14-7z" fill="#FDFDFD"/>
<path transform="translate(688,385)" d="m0 0 5 2 9 5-2 4-14 7-16 10-5 3h-5l-10-7 1-3 13-8 11-6z" fill="#FDFDFD"/>
<path transform="translate(687,545)" d="m0 0h6v2l4 1 7 3v2l4 1 9 5v2h3l3 4v53l-8 6-23 13-27 15-3 1-9-4-12-7-3-1v-2l-6-2-3-2-2-5v-47l4-6h2v-2l11-6 16-9 9-5h2v-2zm1 1-12 7-14 7-13 8-14 8-5 4v53l10 7 18 10 5 1 14-7 14-8 23-13 7-5 1-3v-44l-2-7-10-7-12-7-7-4z" fill="#E5E6E6"/>
<path transform="translate(642,770)" d="m0 0 4 1 10 5v34l-6-2-9-6v-23z" fill="#FCFCFC"/>
<path transform="translate(642,419)" d="m0 0 5 2 9 5v32l-2 1-12-7-1-1v-26z" fill="#FCFCFC"/>
<path transform="translate(642,594)" d="m0 0 5 2 9 6v32l-4-1-10-6-1-10v-22z" fill="#FCFCFC"/>
<path transform="translate(688,370)" d="m0 0 6 2 18 10 8 6 3 4v50l-5 5-15 9-33 18-4 3h-7l-10-6-14-8-7-5-1-9v-41l4-6 34-20 11-6 4-1v-2zm-1 2-19 10-36 21-2 2-1 7v26l1 20 17 10 13 8 5-1 17-9 15-9 11-6 10-6 3-3 1-6v-43l-4-5-16-10-11-6z" fill="#E5E6E6"/>
<path transform="translate(686,721)" d="m0 0h7v2l7 2 11 7 3 1v2h3v2l4 2 2 3v52l-3 3-11 6-16 9-4 1v2l-26 13-6-1-7-5-12-6-9-7-2-4v-44l3-7 8-6 17-10 21-12 4-3zm1 1-19 10-13 8-21 12-4 4-1 15v16l1 21 5 4 19 11 5 3 7-1 17-9 14-8 15-9 7-4 3-4v-47l-4-6-13-8-14-8z" fill="#E5E6E6"/>
<path transform="translate(706,404)" d="m0 0 4 1v31l-8 5-14 8-11 7-6 3h-3v-32l10-6 16-9zm0 2-5 3v2l-4 1-16 9-10 6-1 1-1 22v7l4-1 13-7v-2l4-1 13-7v-2h4l1-2v-26z" fill="#E5E6E6"/>
<path transform="translate(708,579)" d="m0 0 2 1v31l-4 3-11 6-20 12-4 2h-3v-32l9-6 27-15zm-3 3-34 19-1 1-1 25 1 5 12-6 8-5 7-4 4-2v-2l6-1 1-1v-29z" fill="#E5E6E6"/>
<path transform="translate(707,754)" d="m0 0 3 1v32l-10 6-14 8-15 9h-3v-33l18-10 17-10zm-2 3-10 6v2l-4 1-21 12-1 1v29l6-2 2-1v-2l4-1 10-6 11-6 6-3v-30z" fill="#E5E6E6"/>
<path transform="translate(202,454)" d="m0 0 6 2 10 6 22 12 14 9 11 6 8 5-2 1-5-3-4-1v-2l-6-2-5-3-1 2-5-2 2-2-9-6-10-5v-2l-7-2-3 3-3-1h2l-4-7h-2v-2l-6-2-1-1-1 22h-1z" fill="#E5E6E6"/>
<path transform="translate(687,560)" d="m0 0 5 1 10 5-1 4-28 16-9 5-6-1-9-6v-2l13-8 11-6 10-6zm0 2-2 1v2l-5 1-13 7v2l-5 1-10 6 2 4 6 3 7-1 17-10 16-9-4-4z" fill="#E5E6E6"/>
<path transform="translate(688,385)" d="m0 0 5 2 9 5-2 4-14 7-16 10-5 3h-5l-10-7 1-3 13-8 11-6zm-1 2-7 4v2l-4 1-14 7-10 6v2h3v2h3v2l5 2 11-6v-2l6-2 14-8 5-3-5-5-4-2z" fill="#E5E6E6"/>
<path transform="translate(686,736)" d="m0 0h6l10 6-2 4-17 9-15 9-3 2-7-1-9-6 1-3 14-7zm1 1v2l-4 1-17 9v2l-5 1-9 5 1 3 8 5 4-1 8-5 7-4v-2l4-1 14-7v-3l-8-5z" fill="#E5E6E6"/>
<path transform="translate(403,412)" d="m0 0h5l1 5-2 6 1 5 4 2v6h-3v2l-7 1-4-4 3-6 2-2v-10l-1-4z" fill="#E5E6E6"/>
<path transform="translate(434,586)" d="m0 0 12 6 24 14 9 6-1 3-6-2-3-3-2-4h-2l-1 2v-3l-5 1-1-2h3l-9-6h-2l-1 2-5-4-4 3-6-3 2-3h5l-4-2v-2l-3-1z" fill="#E6E7E7"/>
<path transform="translate(642,594)" d="m0 0 5 2 9 6v32l-4-1-10-6-1-10v-22zm1 2v6l3-1-3 3 1 3v1l-1 2v15l5 4 5 3h2v-29l-6-4z" fill="#E5E6E6"/>
<path transform="translate(336,730)" d="m0 0 13 1v4l-3 3 1 4-6-1-3-3-5-2-2 2-2 5-2-1-1-4 4-1v-4l5-2z" fill="#E5E6E6"/>
<path transform="translate(642,419)" d="m0 0 5 2 9 5v32l-2 1-12-7-1-1v-26zm2 3-1 1v28l10 6h2v-27h-2l1-3-9-5z" fill="#E5E6E6"/>
<path transform="translate(642,770)" d="m0 0 4 1 10 5v34l-6-2-9-6v-23zm1 1v31l9 5h3v-29l-9-5h-2z" fill="#E5E6E6"/>
<path transform="translate(244,757)" d="m0 0 2 2-2 4v3l12 6 2-1v3h5l6 2 1 2 3 1v3h-6l-16-9-17-10 1-2 6 2v-3z" fill="#E5E6E6"/>
<path transform="translate(320,707)" d="m0 0 12 1-2 4-5 5 5 1-3 2-4 1v-2l-5 1-1-5z" fill="#E5E6E6"/>
<path transform="translate(385,569)" d="m0 0 10 2 2 3-1 6-1 2-5-1-5-2-1-3z" fill="#E6E7E7"/>
<path transform="translate(383,416)" d="m0 0 5 2-1 11 2 6-1 3h-4l-3-9-5-5 1-3 3 4 3 1 1-6-2-1z" fill="#E5E6E6"/>
<path transform="translate(489,885)" d="m0 0 4 3-2 2 1 3-4 4-6-2-5-2-2 1v-4l3-3 8 1z" fill="#E5E6E6"/>
<path transform="translate(374,660)" d="m0 0h5l1 3v3h-4l3 1v2l5 2 4 3 4 1v2l7 2 5-1 1 3-7 1-14-8-11-7-4-2 1-2h3z" fill="#E5E6E6"/>
<path transform="translate(202,454)" d="m0 0 6 2 10 6 6 4-4 2-2 2-3-1h2l-4-7h-2v-2l-6-2-1-1-1 22h-1z" fill="#E5E6E6"/>
<path transform="translate(243,488)" d="m0 0 4 1v4l4 1h-3l1 2h2l-1 3-7 1-2-7-7-3v-1z" fill="#E5E6E6"/>
<path transform="translate(487,445)" d="m0 0 3 2v6l3 2-4 5 1 2-4-1 1-5h-2l-2-4-3-2 5-4z" fill="#E5E6E6"/>
<path transform="translate(377,378)" d="m0 0 8 4 13 8-2 2-1 4-8 2-2 2v-3-2l7-2-1-4-10-7-4-2z" fill="#E6E7E7"/>
<path transform="translate(367,420)" d="m0 0 4 2-1 9-4-1-1-2h-3l1-5z" fill="#E5E6E6"/>
<path transform="translate(480,629)" d="m0 0 5 1 1 1v6l-5 1-3-3v-5z" fill="#E5E6E6"/>
<path transform="translate(260,774)" d="m0 0 9 2 1 2 3 1v3h-6l-8-5z" fill="#E8E9E9"/>
<path transform="translate(485,832)" d="m0 0 4 2 1 4-2 3-5-1-2-5z" fill="#E5E6E6"/>
<path transform="translate(476,873)" d="m0 0 5 1 1 3h-3l1 5-1 1h-6l-1-2 1-2 3-1-1-4z" fill="#E5E6E6"/>
<path transform="translate(255,493)" d="m0 0h6l1 3-4 1-2-2v2l7 1 1 2-10 3-3-4z" fill="#E5E6E6"/>
<path transform="translate(293,330)" d="m0 0 8 4 2 2v4l-5 1-2 1-2-9z" fill="#E6E7E7"/>
<path transform="translate(211,493)" d="m0 0 2 1-1 2 3-1v6l-2 2-4-1-1-1v-5z" fill="#E5E6E6"/>
<path transform="translate(210,323)" d="m0 0 7 5-1 4h-6l-2-2v-6z" fill="#E5E6E6"/>
<path transform="translate(243,515)" d="m0 0 7 1v3l-4 3h-4l-1 3 1-9z" fill="#E5E6E6"/>
<path transform="translate(479,462)" d="m0 0 7 3v7l-3-2-5-1-1-2h2l-1-3z" fill="#E5E6E6"/>
<path transform="translate(268,414)" d="m0 0 4 1v2h2l2 3v3l-3 1v-3l-6-1-1-3z" fill="#E5E6E6"/>
<path transform="translate(211,727)" d="m0 0 5 2 1 4-4 1v2h-4l1-8z" fill="#E5E6E6"/>
<path transform="translate(337,637)" d="m0 0 7 1 3 5-1 3-4-2v-3h-7z" fill="#E5E6E6"/>
<path transform="translate(360,730)" d="m0 0h6l1 5-3 4v-3l-7-2 1-3z" fill="#E5E6E6"/>
<path transform="translate(438,471)" d="m0 0 2 1 4 3-2 1 2 1-1 4h-3v-4l-4 1v-2l1-1h-3l1-3z" fill="#E5E6E6"/>
<path transform="translate(213,460)" d="m0 0 10 5 1 2-4 1-2 2-3-1h2l-4-7z" fill="#E8E9E9"/>
<path transform="translate(428,766)" d="m0 0 2 2 2 7 1 4-7-3 1-4-1-5z" fill="#E5E6E6"/>
<path transform="translate(469,606)" d="m0 0 9 5 1 2-1 2-6-2-3-3z" fill="#E8E8E8"/>
<path transform="translate(487,862)" d="m0 0 4 1 1 2-1 2-9 1v2h-2l1-4 6-2z" fill="#E5E6E6"/>
<path transform="translate(388,663)" d="m0 0 5 1v5l-4 2-2-2v-5z" fill="#E5E6E6"/>
<path transform="translate(402,490)" d="m0 0h7l3 5h-10l1-3z" fill="#E5E6E6"/>
<path transform="translate(214,551)" d="m0 0h5l1 5-7 1-1-2z" fill="#E5E6E6"/>
<path transform="translate(471,438)" d="m0 0 5 3 1 5-7-1z" fill="#E5E6E6"/>
<path transform="translate(460,786)" d="m0 0h7l1 4 2 3-4 1-3-4-4-2z" fill="#E5E6E6"/>
<path transform="translate(322,747)" d="m0 0 4 1-3 2 1 4 1 3-6-1 1-7z" fill="#E5E6E6"/>
<path transform="translate(436,593)" d="m0 0 8 1-3 5-7-3z" fill="#E5E6E6"/>
<path transform="translate(443,439)" d="m0 0 2 4-3 6-3-1 1-7z" fill="#E5E6E6"/>
<path transform="translate(306,733)" d="m0 0h7v7l-4-2v-2h-3z" fill="#E5E6E6"/>
<path transform="translate(492,709)" d="m0 0 2 4-5 4-8-2 3-1h3l3-3h2z" fill="#E5E6E6"/>
<path transform="translate(327,700)" d="m0 0 8 4 2 4-3 1-1-1-5-3z" fill="#E7E8E8"/>
<path transform="translate(418,462)" d="m0 0h3v5l-4 3-4-2v-2h5z" fill="#E5E6E6"/>
<path transform="translate(292,436)" d="m0 0 4 1-1 1 3 2v3l-4-1-5-3z" fill="#E5E6E6"/>
<path transform="translate(208,638)" d="m0 0h5l1 3-3 4-3-1z" fill="#E5E6E6"/>
<path transform="translate(312,443)" d="m0 0 6 1v6l-8-5z" fill="#E5E6E6"/>
<path transform="translate(208,353)" d="m0 0 4 4-2 9h-1l-1-5z" fill="#E5E6E6"/>
<path transform="translate(245,538)" d="m0 0 2 1 1 6-5 2v-4z" fill="#E5E6E6"/>
<path transform="translate(351,455)" d="m0 0 2 1v6h-10l3-2h2l2-4z" fill="#E5E6E6"/>
<path transform="translate(314,453)" d="m0 0h4v3h4l1-3 1 2-3 3-7-1-2-3z" fill="#F3F3F3"/>
<path transform="translate(211,294)" d="m0 0 2 4-3 6h-2v-9z" fill="#E5E6E6"/>
<path transform="translate(309,751)" d="m0 0 4 1 2 4-4 1-3-2z" fill="#E5E6E6"/>
<path transform="translate(352,544)" d="m0 0h5l-1 7-4-1z" fill="#E5E6E6"/>
<path transform="translate(392,392)" d="m0 0h2l1 4-8 2-2 2v-3-2z" fill="#E5E6E6"/>
<path transform="translate(226,371)" d="m0 0 4 2-1 3h-6l-1-2 1-2z" fill="#E5E6E6"/>
<path transform="translate(327,448)" d="m0 0h6v4l-6 1-1-4z" fill="#E5E6E6"/>
<path transform="translate(433,681)" d="m0 0 3 1 1 5-6 1z" fill="#E5E6E6"/>
<path transform="translate(393,677)" d="m0 0 6 2 5-1 1 3-7 1-5-3z" fill="#E9EAEA"/>
</svg>
